<?xml version="1.0" encoding="utf-8" standalone="no"?>
<!DOCTYPE svg PUBLIC "-//W3C//DTD SVG 1.1//EN"
  "http://www.w3.org/Graphics/SVG/1.1/DTD/svg11.dtd">
<svg xmlns:xlink="http://www.w3.org/1999/xlink" width="236.63622pt" height="191.168441pt" viewBox="0 0 236.63622 191.168441" xmlns="http://www.w3.org/2000/svg" version="1.1">
 <metadata>
  <rdf:RDF xmlns:dc="http://purl.org/dc/elements/1.1/" xmlns:cc="http://creativecommons.org/ns#" xmlns:rdf="http://www.w3.org/1999/02/22-rdf-syntax-ns#">
   <cc:Work>
    <dc:type rdf:resource="http://purl.org/dc/dcmitype/StillImage"/>
    <dc:date>2025-11-07T15:47:32.115402</dc:date>
    <dc:format>image/svg+xml</dc:format>
    <dc:creator>
     <cc:Agent>
      <dc:title>Matplotlib v3.10.3, https://matplotlib.org/</dc:title>
     </cc:Agent>
    </dc:creator>
   </cc:Work>
  </rdf:RDF>
 </metadata>
 <defs>
  <style type="text/css">*{stroke-linejoin: round; stroke-linecap: butt}</style>
 </defs>
 <g id="figure_1">
  <g id="patch_1">
   <path d="M 0 191.168441 
L 236.63622 191.168441 
L 236.63622 0 
L 0 0 
z
" style="fill: #ffffff; stroke: #ffffff; stroke-width: 0.7; stroke-linejoin: miter"/>
  </g>
  <g id="axes_1">
   <g id="patch_2">
    <path d="M 35.137092 161.874943 
L 229.43622 161.874943 
L 229.43622 8.549214 
L 35.137092 8.549214 
z
" style="fill: #ffffff"/>
   </g>
   <g id="matplotlib.axis_1">
    <g id="xtick_1">
     <g id="line2d_1">
      <defs>
       <path id="md8a76d2075" d="M 0 1.5 
L 0 -1.5 
" style="stroke: #000000; stroke-width: 0.7"/>
      </defs>
      <g>
       <use xlink:href="#md8a76d2075" x="43.96887" y="161.874943" style="stroke: #000000; stroke-width: 0.7"/>
      </g>
     </g>
     <g id="text_1">
      <!-- 0.0 -->
      <g transform="translate(39.111526 171.024943) scale(0.07 -0.07)">
       <defs>
        <path id="Roboto-Regular-30" d="M 3234 1944 
Q 3234 825 2848 381 
Q 2463 -63 1800 -63 
Q 1156 -63 764 368 
Q 372 800 359 1872 
L 359 2638 
Q 359 3753 750 4183 
Q 1141 4613 1794 4613 
Q 2447 4613 2834 4195 
Q 3222 3778 3234 2709 
L 3234 1944 
z
M 2653 2734 
Q 2653 3503 2434 3822 
Q 2216 4141 1794 4141 
Q 1388 4141 1167 3831 
Q 947 3522 941 2778 
L 941 1850 
Q 941 1088 1164 750 
Q 1388 413 1800 413 
Q 2222 413 2436 745 
Q 2650 1078 2653 1825 
L 2653 2734 
z
" transform="scale(0.015625)"/>
        <path id="Roboto-Regular-2e" d="M 450 306 
Q 450 453 542 554 
Q 634 656 809 656 
Q 984 656 1076 554 
Q 1169 453 1169 306 
Q 1169 163 1076 62 
Q 984 -38 809 -38 
Q 634 -38 542 62 
Q 450 163 450 306 
z
" transform="scale(0.015625)"/>
       </defs>
       <use xlink:href="#Roboto-Regular-30"/>
       <use xlink:href="#Roboto-Regular-2e" transform="translate(56.201172 0)"/>
       <use xlink:href="#Roboto-Regular-30" transform="translate(82.568359 0)"/>
      </g>
     </g>
    </g>
    <g id="xtick_2">
     <g id="line2d_2">
      <g>
       <use xlink:href="#md8a76d2075" x="88.127763" y="161.874943" style="stroke: #000000; stroke-width: 0.7"/>
      </g>
     </g>
     <g id="text_2">
      <!-- 0.5 -->
      <g transform="translate(83.270419 171.024943) scale(0.07 -0.07)">
       <defs>
        <path id="Roboto-Regular-35" d="M 1109 2166 
L 647 2284 
L 875 4550 
L 3209 4550 
L 3209 4016 
L 1366 4016 
L 1228 2778 
Q 1572 2975 1988 2975 
Q 2616 2975 2980 2561 
Q 3344 2147 3344 1450 
Q 3344 797 2987 367 
Q 2631 -63 1903 -63 
Q 1350 -63 947 248 
Q 544 559 481 1197 
L 1031 1197 
Q 1141 413 1903 413 
Q 2313 413 2538 691 
Q 2763 969 2763 1444 
Q 2763 1872 2527 2164 
Q 2291 2456 1853 2456 
Q 1563 2456 1413 2378 
Q 1263 2300 1109 2166 
z
" transform="scale(0.015625)"/>
       </defs>
       <use xlink:href="#Roboto-Regular-30"/>
       <use xlink:href="#Roboto-Regular-2e" transform="translate(56.201172 0)"/>
       <use xlink:href="#Roboto-Regular-35" transform="translate(82.568359 0)"/>
      </g>
     </g>
    </g>
    <g id="xtick_3">
     <g id="line2d_3">
      <g>
       <use xlink:href="#md8a76d2075" x="132.286656" y="161.874943" style="stroke: #000000; stroke-width: 0.7"/>
      </g>
     </g>
     <g id="text_3">
      <!-- 1.0 -->
      <g transform="translate(127.429312 171.024943) scale(0.07 -0.07)">
       <defs>
        <path id="Roboto-Regular-31" d="M 2278 4575 
L 2278 0 
L 1700 0 
L 1700 3853 
L 534 3428 
L 534 3950 
L 2188 4575 
L 2278 4575 
z
" transform="scale(0.015625)"/>
       </defs>
       <use xlink:href="#Roboto-Regular-31"/>
       <use xlink:href="#Roboto-Regular-2e" transform="translate(56.201172 0)"/>
       <use xlink:href="#Roboto-Regular-30" transform="translate(82.568359 0)"/>
      </g>
     </g>
    </g>
    <g id="xtick_4">
     <g id="line2d_4">
      <g>
       <use xlink:href="#md8a76d2075" x="176.445549" y="161.874943" style="stroke: #000000; stroke-width: 0.7"/>
      </g>
     </g>
     <g id="text_4">
      <!-- 1.5 -->
      <g transform="translate(171.588205 171.024943) scale(0.07 -0.07)">
       <use xlink:href="#Roboto-Regular-31"/>
       <use xlink:href="#Roboto-Regular-2e" transform="translate(56.201172 0)"/>
       <use xlink:href="#Roboto-Regular-35" transform="translate(82.568359 0)"/>
      </g>
     </g>
    </g>
    <g id="xtick_5">
     <g id="line2d_5">
      <g>
       <use xlink:href="#md8a76d2075" x="220.604442" y="161.874943" style="stroke: #000000; stroke-width: 0.7"/>
      </g>
     </g>
     <g id="text_5">
      <!-- 2.0 -->
      <g transform="translate(215.747098 171.024943) scale(0.07 -0.07)">
       <defs>
        <path id="Roboto-Regular-32" d="M 3359 475 
L 3359 0 
L 381 0 
L 381 416 
L 1925 2134 
Q 2306 2566 2439 2819 
Q 2572 3072 2572 3328 
Q 2572 3663 2364 3900 
Q 2156 4138 1778 4138 
Q 1322 4138 1097 3878 
Q 872 3619 872 3213 
L 294 3213 
Q 294 3788 672 4200 
Q 1050 4613 1778 4613 
Q 2422 4613 2786 4278 
Q 3150 3944 3150 3397 
Q 3150 2997 2903 2592 
Q 2656 2188 2297 1797 
L 1078 475 
L 3359 475 
z
" transform="scale(0.015625)"/>
       </defs>
       <use xlink:href="#Roboto-Regular-32"/>
       <use xlink:href="#Roboto-Regular-2e" transform="translate(56.201172 0)"/>
       <use xlink:href="#Roboto-Regular-30" transform="translate(82.568359 0)"/>
      </g>
     </g>
    </g>
    <g id="xtick_6">
     <g id="line2d_6">
      <defs>
       <path id="m25b496c888" d="M 0 2 
L 0 -2 
" style="stroke: #000000; stroke-width: 0.7"/>
      </defs>
      <g>
       <use xlink:href="#m25b496c888" x="66.048317" y="161.874943" style="stroke: #000000; stroke-width: 0.7"/>
      </g>
     </g>
    </g>
    <g id="xtick_7">
     <g id="line2d_7">
      <g>
       <use xlink:href="#m25b496c888" x="110.207209" y="161.874943" style="stroke: #000000; stroke-width: 0.7"/>
      </g>
     </g>
    </g>
    <g id="xtick_8">
     <g id="line2d_8">
      <g>
       <use xlink:href="#m25b496c888" x="154.366102" y="161.874943" style="stroke: #000000; stroke-width: 0.7"/>
      </g>
     </g>
    </g>
    <g id="xtick_9">
     <g id="line2d_9">
      <g>
       <use xlink:href="#m25b496c888" x="198.524995" y="161.874943" style="stroke: #000000; stroke-width: 0.7"/>
      </g>
     </g>
    </g>
   </g>
   <g id="matplotlib.axis_2">
    <g id="ytick_1">
     <g id="line2d_10">
      <defs>
       <path id="mefcc6bfeea" d="M 1.5 0 
L -1.5 -0 
" style="stroke: #000000; stroke-width: 0.7"/>
      </defs>
      <g>
       <use xlink:href="#mefcc6bfeea" x="35.137092" y="160.579414" style="stroke: #000000; stroke-width: 0.7"/>
      </g>
     </g>
     <g id="text_6">
      <!-- 1e-9 -->
      <g transform="translate(17.721623 163.204414) scale(0.07 -0.07)">
       <defs>
        <path id="Roboto-Regular-65" d="M 3116 591 
Q 2950 341 2647 139 
Q 2344 -63 1844 -63 
Q 1138 -63 714 396 
Q 291 856 291 1572 
L 291 1703 
Q 291 2256 502 2645 
Q 713 3034 1050 3239 
Q 1388 3444 1769 3444 
Q 2494 3444 2826 2970 
Q 3159 2497 3159 1788 
L 3159 1528 
L 872 1528 
Q 884 1063 1148 736 
Q 1413 409 1875 409 
Q 2181 409 2393 534 
Q 2606 659 2766 869 
L 3116 591 
z
M 1769 2969 
Q 1425 2969 1187 2719 
Q 950 2469 891 2000 
L 2581 2000 
L 2581 2044 
Q 2559 2381 2386 2675 
Q 2213 2969 1769 2969 
z
" transform="scale(0.015625)"/>
        <path id="Roboto-Regular-2d" d="M 1644 2172 
L 1644 1697 
L 119 1697 
L 119 2172 
L 1644 2172 
z
" transform="scale(0.015625)"/>
        <path id="Roboto-Regular-39" d="M 3175 2563 
Q 3175 2119 3098 1667 
Q 3022 1216 2801 836 
Q 2581 456 2151 225 
Q 1722 -6 953 -6 
L 953 484 
Q 1644 484 1980 700 
Q 2316 916 2448 1264 
Q 2581 1613 2597 2006 
Q 2416 1791 2162 1656 
Q 1909 1522 1613 1522 
Q 1163 1522 875 1747 
Q 588 1972 450 2320 
Q 313 2669 313 3041 
Q 313 3691 670 4152 
Q 1028 4613 1725 4613 
Q 2244 4613 2564 4344 
Q 2884 4075 3029 3653 
Q 3175 3231 3175 2772 
L 3175 2563 
z
M 881 3072 
Q 881 2666 1086 2334 
Q 1291 2003 1706 2003 
Q 2003 2003 2245 2181 
Q 2488 2359 2600 2622 
L 2600 2850 
Q 2600 3472 2336 3803 
Q 2072 4134 1725 4134 
Q 1322 4134 1101 3829 
Q 881 3525 881 3072 
z
" transform="scale(0.015625)"/>
       </defs>
       <use xlink:href="#Roboto-Regular-31"/>
       <use xlink:href="#Roboto-Regular-65" transform="translate(56.201172 0)"/>
       <use xlink:href="#Roboto-Regular-2d" transform="translate(109.228516 0)"/>
       <use xlink:href="#Roboto-Regular-39" transform="translate(136.865234 0)"/>
      </g>
     </g>
    </g>
    <g id="ytick_2">
     <g id="line2d_11">
      <g>
       <use xlink:href="#mefcc6bfeea" x="35.137092" y="146.874467" style="stroke: #000000; stroke-width: 0.7"/>
      </g>
     </g>
     <g id="text_7">
      <!-- 1e-8 -->
      <g transform="translate(17.721623 149.499467) scale(0.07 -0.07)">
       <defs>
        <path id="Roboto-Regular-38" d="M 3244 1231 
Q 3244 606 2826 271 
Q 2409 -63 1796 -63 
Q 1184 -63 767 271 
Q 350 606 350 1231 
Q 350 1613 554 1905 
Q 759 2197 1109 2347 
Q 806 2494 629 2762 
Q 453 3031 453 3366 
Q 453 3963 833 4288 
Q 1213 4613 1794 4613 
Q 2378 4613 2758 4288 
Q 3138 3963 3138 3366 
Q 3138 3028 2956 2761 
Q 2775 2494 2472 2347 
Q 2825 2197 3034 1903 
Q 3244 1609 3244 1231 
z
M 2559 3356 
Q 2559 3697 2346 3917 
Q 2134 4138 1793 4138 
Q 1453 4138 1243 3927 
Q 1034 3716 1034 3356 
Q 1034 3003 1243 2790 
Q 1453 2578 1797 2578 
Q 2138 2578 2348 2790 
Q 2559 3003 2559 3356 
z
M 2663 1244 
Q 2663 1625 2420 1865 
Q 2178 2106 1791 2106 
Q 1394 2106 1161 1865 
Q 928 1625 928 1244 
Q 928 850 1161 631 
Q 1394 413 1797 413 
Q 2200 413 2431 631 
Q 2663 850 2663 1244 
z
" transform="scale(0.015625)"/>
       </defs>
       <use xlink:href="#Roboto-Regular-31"/>
       <use xlink:href="#Roboto-Regular-65" transform="translate(56.201172 0)"/>
       <use xlink:href="#Roboto-Regular-2d" transform="translate(109.228516 0)"/>
       <use xlink:href="#Roboto-Regular-38" transform="translate(136.865234 0)"/>
      </g>
     </g>
    </g>
    <g id="ytick_3">
     <g id="line2d_12">
      <g>
       <use xlink:href="#mefcc6bfeea" x="35.137092" y="133.16952" style="stroke: #000000; stroke-width: 0.7"/>
      </g>
     </g>
     <g id="text_8">
      <!-- 1e-7 -->
      <g transform="translate(17.721623 135.79452) scale(0.07 -0.07)">
       <defs>
        <path id="Roboto-Regular-37" d="M 3319 4550 
L 3319 4225 
L 1434 0 
L 825 0 
L 2706 4075 
L 244 4075 
L 244 4550 
L 3319 4550 
z
" transform="scale(0.015625)"/>
       </defs>
       <use xlink:href="#Roboto-Regular-31"/>
       <use xlink:href="#Roboto-Regular-65" transform="translate(56.201172 0)"/>
       <use xlink:href="#Roboto-Regular-2d" transform="translate(109.228516 0)"/>
       <use xlink:href="#Roboto-Regular-37" transform="translate(136.865234 0)"/>
      </g>
     </g>
    </g>
    <g id="ytick_4">
     <g id="line2d_13">
      <g>
       <use xlink:href="#mefcc6bfeea" x="35.137092" y="119.464574" style="stroke: #000000; stroke-width: 0.7"/>
      </g>
     </g>
     <g id="text_9">
      <!-- 1e-6 -->
      <g transform="translate(17.721623 122.089574) scale(0.07 -0.07)">
       <defs>
        <path id="Roboto-Regular-36" d="M 3291 1484 
Q 3291 838 2930 387 
Q 2569 -63 1878 -63 
Q 1388 -63 1063 198 
Q 738 459 577 861 
Q 416 1263 416 1684 
L 416 1956 
Q 416 2597 595 3194 
Q 775 3791 1247 4173 
Q 1719 4556 2597 4556 
L 2647 4556 
L 2647 4066 
Q 2041 4066 1705 3853 
Q 1369 3641 1205 3302 
Q 1041 2963 1006 2575 
Q 1369 2984 1984 2984 
Q 2438 2984 2727 2765 
Q 3016 2547 3153 2201 
Q 3291 1856 3291 1484 
z
M 997 1666 
Q 997 1059 1267 737 
Q 1538 416 1878 416 
Q 2278 416 2498 708 
Q 2719 1000 2719 1456 
Q 2719 1863 2516 2184 
Q 2313 2506 1891 2506 
Q 1588 2506 1341 2325 
Q 1094 2144 997 1884 
L 997 1666 
z
" transform="scale(0.015625)"/>
       </defs>
       <use xlink:href="#Roboto-Regular-31"/>
       <use xlink:href="#Roboto-Regular-65" transform="translate(56.201172 0)"/>
       <use xlink:href="#Roboto-Regular-2d" transform="translate(109.228516 0)"/>
       <use xlink:href="#Roboto-Regular-36" transform="translate(136.865234 0)"/>
      </g>
     </g>
    </g>
    <g id="ytick_5">
     <g id="line2d_14">
      <g>
       <use xlink:href="#mefcc6bfeea" x="35.137092" y="105.759627" style="stroke: #000000; stroke-width: 0.7"/>
      </g>
     </g>
     <g id="text_10">
      <!-- 1e-5 -->
      <g transform="translate(17.721623 108.384627) scale(0.07 -0.07)">
       <use xlink:href="#Roboto-Regular-31"/>
       <use xlink:href="#Roboto-Regular-65" transform="translate(56.201172 0)"/>
       <use xlink:href="#Roboto-Regular-2d" transform="translate(109.228516 0)"/>
       <use xlink:href="#Roboto-Regular-35" transform="translate(136.865234 0)"/>
      </g>
     </g>
    </g>
    <g id="ytick_6">
     <g id="line2d_15">
      <g>
       <use xlink:href="#mefcc6bfeea" x="35.137092" y="92.05468" style="stroke: #000000; stroke-width: 0.7"/>
      </g>
     </g>
     <g id="text_11">
      <!-- 1e-4 -->
      <g transform="translate(17.721623 94.67968) scale(0.07 -0.07)">
       <defs>
        <path id="Roboto-Regular-34" d="M 166 1397 
L 2203 4550 
L 2819 4550 
L 2819 1531 
L 3453 1531 
L 3453 1056 
L 2819 1056 
L 2819 0 
L 2241 0 
L 2241 1056 
L 166 1056 
L 166 1397 
z
M 822 1531 
L 2241 1531 
L 2241 3766 
L 2169 3638 
L 822 1531 
z
" transform="scale(0.015625)"/>
       </defs>
       <use xlink:href="#Roboto-Regular-31"/>
       <use xlink:href="#Roboto-Regular-65" transform="translate(56.201172 0)"/>
       <use xlink:href="#Roboto-Regular-2d" transform="translate(109.228516 0)"/>
       <use xlink:href="#Roboto-Regular-34" transform="translate(136.865234 0)"/>
      </g>
     </g>
    </g>
    <g id="ytick_7">
     <g id="line2d_16">
      <g>
       <use xlink:href="#mefcc6bfeea" x="35.137092" y="78.349734" style="stroke: #000000; stroke-width: 0.7"/>
      </g>
     </g>
     <g id="text_12">
      <!-- 1e-3 -->
      <g transform="translate(17.721623 80.974734) scale(0.07 -0.07)">
       <defs>
        <path id="Roboto-Regular-33" d="M 1222 2084 
L 1222 2559 
L 1647 2559 
Q 2094 2563 2312 2784 
Q 2531 3006 2531 3338 
Q 2531 4138 1738 4138 
Q 1369 4138 1141 3927 
Q 913 3716 913 3359 
L 334 3359 
Q 334 3881 720 4247 
Q 1106 4613 1738 4613 
Q 2353 4613 2733 4286 
Q 3113 3959 3113 3325 
Q 3113 3072 2942 2784 
Q 2772 2497 2397 2338 
Q 2850 2191 3015 1884 
Q 3181 1578 3181 1269 
Q 3181 631 2768 284 
Q 2356 -63 1741 -63 
Q 1147 -63 722 267 
Q 297 597 297 1203 
L 875 1203 
Q 875 844 1108 628 
Q 1341 413 1741 413 
Q 2138 413 2369 622 
Q 2600 831 2600 1256 
Q 2600 1681 2337 1882 
Q 2075 2084 1634 2084 
L 1222 2084 
z
" transform="scale(0.015625)"/>
       </defs>
       <use xlink:href="#Roboto-Regular-31"/>
       <use xlink:href="#Roboto-Regular-65" transform="translate(56.201172 0)"/>
       <use xlink:href="#Roboto-Regular-2d" transform="translate(109.228516 0)"/>
       <use xlink:href="#Roboto-Regular-33" transform="translate(136.865234 0)"/>
      </g>
     </g>
    </g>
    <g id="ytick_8">
     <g id="line2d_17">
      <g>
       <use xlink:href="#mefcc6bfeea" x="35.137092" y="64.644787" style="stroke: #000000; stroke-width: 0.7"/>
      </g>
     </g>
     <g id="text_13">
      <!-- 1e-2 -->
      <g transform="translate(17.721623 67.269787) scale(0.07 -0.07)">
       <use xlink:href="#Roboto-Regular-31"/>
       <use xlink:href="#Roboto-Regular-65" transform="translate(56.201172 0)"/>
       <use xlink:href="#Roboto-Regular-2d" transform="translate(109.228516 0)"/>
       <use xlink:href="#Roboto-Regular-32" transform="translate(136.865234 0)"/>
      </g>
     </g>
    </g>
    <g id="ytick_9">
     <g id="line2d_18">
      <g>
       <use xlink:href="#mefcc6bfeea" x="35.137092" y="50.93984" style="stroke: #000000; stroke-width: 0.7"/>
      </g>
     </g>
     <g id="text_14">
      <!-- 1e-1 -->
      <g transform="translate(17.721623 53.56484) scale(0.07 -0.07)">
       <use xlink:href="#Roboto-Regular-31"/>
       <use xlink:href="#Roboto-Regular-65" transform="translate(56.201172 0)"/>
       <use xlink:href="#Roboto-Regular-2d" transform="translate(109.228516 0)"/>
       <use xlink:href="#Roboto-Regular-31" transform="translate(136.865234 0)"/>
      </g>
     </g>
    </g>
    <g id="ytick_10">
     <g id="line2d_19">
      <g>
       <use xlink:href="#mefcc6bfeea" x="35.137092" y="37.234893" style="stroke: #000000; stroke-width: 0.7"/>
      </g>
     </g>
     <g id="text_15">
      <!-- 1 -->
      <g transform="translate(27.302873 39.859893) scale(0.07 -0.07)">
       <use xlink:href="#Roboto-Regular-31"/>
      </g>
     </g>
    </g>
    <g id="ytick_11">
     <g id="line2d_20">
      <g>
       <use xlink:href="#mefcc6bfeea" x="35.137092" y="23.529947" style="stroke: #000000; stroke-width: 0.7"/>
      </g>
     </g>
     <g id="text_16">
      <!-- 1e1 -->
      <g transform="translate(19.656467 26.154947) scale(0.07 -0.07)">
       <use xlink:href="#Roboto-Regular-31"/>
       <use xlink:href="#Roboto-Regular-65" transform="translate(56.201172 0)"/>
       <use xlink:href="#Roboto-Regular-31" transform="translate(109.228516 0)"/>
      </g>
     </g>
    </g>
    <g id="ytick_12">
     <g id="line2d_21">
      <g>
       <use xlink:href="#mefcc6bfeea" x="35.137092" y="9.825" style="stroke: #000000; stroke-width: 0.7"/>
      </g>
     </g>
     <g id="text_17">
      <!-- 1e2 -->
      <g transform="translate(19.656467 12.45) scale(0.07 -0.07)">
       <use xlink:href="#Roboto-Regular-31"/>
       <use xlink:href="#Roboto-Regular-65" transform="translate(56.201172 0)"/>
       <use xlink:href="#Roboto-Regular-32" transform="translate(109.228516 0)"/>
      </g>
     </g>
    </g>
   </g>
   <g id="line2d_22">
    <path d="M 43.96887 154.905592 
L 45.753068 151.748035 
L 47.537265 148.590478 
L 49.321463 145.432921 
L 51.105661 142.275364 
L 52.889859 139.117808 
L 54.674056 135.960251 
L 56.458254 132.802694 
L 58.242452 129.645137 
L 60.026649 126.48758 
L 61.810847 123.330023 
L 63.595045 120.172466 
L 65.379242 117.014909 
L 67.16344 113.857352 
L 68.947638 110.699795 
L 70.731835 107.542239 
L 72.516033 104.384682 
L 74.300231 101.227125 
L 76.084429 98.069568 
L 77.868626 94.912011 
L 79.652824 91.754454 
L 81.437022 88.596897 
L 83.221219 85.43934 
L 85.005417 82.281783 
L 86.789615 79.124226 
L 88.573812 75.96667 
L 90.35801 72.809113 
L 92.142208 69.651556 
L 93.926406 66.493999 
L 95.710603 63.336442 
L 97.494801 60.178885 
L 99.278999 57.021328 
L 101.063196 53.863771 
L 102.847394 46.964788 
L 104.631592 40.365156 
L 106.415789 34.963319 
L 108.199987 30.759275 
L 109.984185 27.753026 
L 111.768382 27.292575 
L 113.55258 27.099558 
L 115.336778 26.906542 
L 117.120976 26.713525 
L 118.905173 26.520509 
L 120.689371 26.327492 
L 122.473569 26.134476 
L 124.257766 25.941459 
L 126.041964 25.748442 
L 127.826162 25.555426 
L 129.610359 25.362409 
L 131.394557 25.169393 
L 133.178755 24.976376 
L 134.962952 24.78336 
L 136.74715 24.590343 
L 138.531348 24.397327 
L 140.315546 24.20431 
L 142.099743 24.011294 
L 143.883941 23.818277 
L 145.668139 23.62526 
L 147.452336 23.432244 
L 149.236534 23.239227 
L 151.020732 23.046211 
L 152.804929 22.853194 
L 154.589127 22.660178 
L 156.373325 22.467161 
L 158.157522 22.274145 
L 159.94172 22.081128 
L 161.725918 21.888111 
L 163.510116 21.695095 
L 165.294313 21.502078 
L 167.078511 21.309062 
L 168.862709 21.116045 
L 170.646906 20.923029 
L 172.431104 20.730012 
L 174.215302 20.536996 
L 175.999499 20.343979 
L 177.783697 20.150963 
L 179.567895 19.957946 
L 181.352092 19.764929 
L 183.13629 19.571913 
L 184.920488 19.378896 
L 186.704686 19.18588 
L 188.488883 18.992863 
L 190.273081 18.799847 
L 192.057279 18.60683 
L 193.841476 18.413814 
L 195.625674 18.220797 
L 197.409872 18.027781 
L 199.194069 17.834764 
L 200.978267 17.641747 
L 202.762465 17.448731 
L 204.546662 17.255714 
L 206.33086 17.062698 
L 208.115058 16.869681 
L 209.899256 16.676665 
L 211.683453 16.483648 
L 213.467651 16.290632 
L 215.251849 16.097615 
L 217.036046 15.904599 
L 218.820244 15.711582 
L 220.604442 15.518565 
" clip-path="url(#p7884849e53)" style="fill: none; stroke: #000000; stroke-width: 2.30419"/>
   </g>
   <g id="line2d_23">
    <path d="M 43.96887 124.125356 
L 45.753068 122.865078 
L 47.537265 121.60691 
L 49.321463 120.351306 
L 51.105661 119.098819 
L 52.889859 117.850114 
L 54.674056 116.605994 
L 56.458254 115.367423 
L 58.242452 114.135554 
L 60.026649 112.911763 
L 61.810847 111.697682 
L 63.595045 110.495231 
L 65.379242 109.306661 
L 67.16344 108.134575 
L 68.947638 106.981959 
L 70.731835 105.852188 
L 72.516033 104.749016 
L 74.300231 103.676539 
L 76.084429 102.639117 
L 77.868626 101.641263 
L 79.652824 100.687478 
L 81.437022 99.782056 
L 83.221219 98.928856 
L 85.005417 98.131066 
L 86.789615 97.39099 
L 88.573812 96.709878 
L 90.35801 96.08783 
L 92.142208 95.523789 
L 93.926406 95.015624 
L 95.710603 94.560284 
L 97.494801 94.154009 
L 99.278999 93.792564 
L 101.063196 93.471467 
L 102.847394 93.186195 
L 104.631592 92.932353 
L 106.415789 92.705792 
L 108.199987 92.502697 
L 109.984185 92.319625 
L 111.768382 92.153524 
L 113.55258 92.001724 
L 115.336778 91.861919 
L 117.120976 91.732133 
L 118.905173 91.610686 
L 120.689371 91.496162 
L 122.473569 91.387371 
L 124.257766 91.283318 
L 126.041964 91.183176 
L 127.826162 91.086256 
L 129.610359 90.991988 
L 131.394557 90.899902 
L 133.178755 90.80961 
L 134.962952 90.72079 
L 136.74715 90.63318 
L 138.531348 90.546561 
L 140.315546 90.460757 
L 142.099743 90.37562 
L 143.883941 90.291031 
L 145.668139 90.20689 
L 147.452336 90.123117 
L 149.236534 90.039645 
L 151.020732 89.956421 
L 152.804929 89.873399 
L 154.589127 89.790542 
L 156.373325 89.707822 
L 158.157522 89.625212 
L 159.94172 89.542694 
L 161.725918 89.460251 
L 163.510116 89.377869 
L 165.294313 89.295537 
L 167.078511 89.213246 
L 168.862709 89.130989 
L 170.646906 89.048759 
L 172.431104 88.966551 
L 174.215302 88.884363 
L 175.999499 88.802189 
L 177.783697 88.720028 
L 179.567895 88.637877 
L 181.352092 88.555734 
L 183.13629 88.473598 
L 184.920488 88.391468 
L 186.704686 88.309342 
L 188.488883 88.22722 
L 190.273081 88.145101 
L 192.057279 88.062985 
L 193.841476 87.98087 
L 195.625674 87.898758 
L 197.409872 87.816646 
L 199.194069 87.734536 
L 200.978267 87.652427 
L 202.762465 87.570318 
L 204.546662 87.488211 
L 206.33086 87.406103 
L 208.115058 87.323996 
L 209.899256 87.24189 
L 211.683453 87.159783 
L 213.467651 87.077677 
L 215.251849 86.995571 
L 217.036046 86.913466 
L 218.820244 86.83136 
L 220.604442 86.749254 
" clip-path="url(#p7884849e53)" style="fill: none; stroke: #808080; stroke-width: 2.30419"/>
   </g>
   <g id="PathCollection_1">
    <path d="M 96.959542 64.21511 
C 97.782147 64.21511 98.571171 63.888285 99.152841 63.306615 
C 99.734511 62.724946 100.061336 61.935921 100.061336 61.113316 
C 100.061336 60.29071 99.734511 59.501686 99.152841 58.920016 
C 98.571171 58.338346 97.782147 58.011521 96.959542 58.011521 
C 96.136936 58.011521 95.347912 58.338346 94.766242 58.920016 
C 94.184572 59.501686 93.857747 60.29071 93.857747 61.113316 
C 93.857747 61.935921 94.184572 62.724946 94.766242 63.306615 
C 95.347912 63.888285 96.136936 64.21511 96.959542 64.21511 
z
" clip-path="url(#p7884849e53)" style="stroke: #000000; stroke-width: 0.886227"/>
    <path d="M 105.79132 48.587888 
C 106.613926 48.587888 107.40295 48.261063 107.98462 47.679393 
C 108.56629 47.097723 108.893114 46.308699 108.893114 45.486094 
C 108.893114 44.663488 108.56629 43.874464 107.98462 43.292794 
C 107.40295 42.711124 106.613926 42.384299 105.79132 42.384299 
C 104.968715 42.384299 104.17969 42.711124 103.59802 43.292794 
C 103.016351 43.874464 102.689526 44.663488 102.689526 45.486094 
C 102.689526 46.308699 103.016351 47.097723 103.59802 47.679393 
C 104.17969 48.261063 104.968715 48.587888 105.79132 48.587888 
z
" clip-path="url(#p7884849e53)" style="stroke: #000000; stroke-width: 0.886227"/>
    <path d="M 105.79132 31.125622 
C 106.613926 31.125622 107.40295 30.798798 107.98462 30.217128 
C 108.56629 29.635458 108.893114 28.846434 108.893114 28.023828 
C 108.893114 27.201223 108.56629 26.412198 107.98462 25.830528 
C 107.40295 25.248858 106.613926 24.922034 105.79132 24.922034 
C 104.968715 24.922034 104.17969 25.248858 103.59802 25.830528 
C 103.016351 26.412198 102.689526 27.201223 102.689526 28.023828 
C 102.689526 28.846434 103.016351 29.635458 103.59802 30.217128 
C 104.17969 30.798798 104.968715 31.125622 105.79132 31.125622 
z
" clip-path="url(#p7884849e53)" style="stroke: #000000; stroke-width: 0.886227"/>
    <path d="M 114.623099 29.812692 
C 115.445704 29.812692 116.234729 29.485867 116.816398 28.904197 
C 117.398068 28.322527 117.724893 27.533503 117.724893 26.710898 
C 117.724893 25.888292 117.398068 25.099268 116.816398 24.517598 
C 116.234729 23.935928 115.445704 23.609103 114.623099 23.609103 
C 113.800493 23.609103 113.011469 23.935928 112.429799 24.517598 
C 111.848129 25.099268 111.521304 25.888292 111.521304 26.710898 
C 111.521304 27.533503 111.848129 28.322527 112.429799 28.904197 
C 113.011469 29.485867 113.800493 29.812692 114.623099 29.812692 
z
" clip-path="url(#p7884849e53)" style="stroke: #000000; stroke-width: 0.886227"/>
    <path d="M 132.286656 28.848938 
C 133.109261 28.848938 133.898286 28.522113 134.479956 27.940443 
C 135.061626 27.358774 135.38845 26.569749 135.38845 25.747144 
C 135.38845 24.924538 135.061626 24.135514 134.479956 23.553844 
C 133.898286 22.972174 133.109261 22.645349 132.286656 22.645349 
C 131.46405 22.645349 130.675026 22.972174 130.093356 23.553844 
C 129.511686 24.135514 129.184862 24.924538 129.184862 25.747144 
C 129.184862 26.569749 129.511686 27.358774 130.093356 27.940443 
C 130.675026 28.522113 131.46405 28.848938 132.286656 28.848938 
z
" clip-path="url(#p7884849e53)" style="stroke: #000000; stroke-width: 0.886227"/>
    <path d="M 149.950213 26.649624 
C 150.772818 26.649624 151.561843 26.322799 152.143513 25.741129 
C 152.725183 25.159459 153.052007 24.370435 153.052007 23.547829 
C 153.052007 22.725224 152.725183 21.9362 152.143513 21.35453 
C 151.561843 20.77286 150.772818 20.446035 149.950213 20.446035 
C 149.127608 20.446035 148.338583 20.77286 147.756913 21.35453 
C 147.175243 21.9362 146.848419 22.725224 146.848419 23.547829 
C 146.848419 24.370435 147.175243 25.159459 147.756913 25.741129 
C 148.338583 26.322799 149.127608 26.649624 149.950213 26.649624 
z
" clip-path="url(#p7884849e53)" style="stroke: #000000; stroke-width: 0.886227"/>
    <path d="M 167.61377 24.90757 
C 168.436376 24.90757 169.2254 24.580746 169.80707 23.999076 
C 170.38874 23.417406 170.715564 22.628381 170.715564 21.805776 
C 170.715564 20.98317 170.38874 20.194146 169.80707 19.612476 
C 169.2254 19.030806 168.436376 18.703982 167.61377 18.703982 
C 166.791165 18.703982 166.00214 19.030806 165.42047 19.612476 
C 164.838801 20.194146 164.511976 20.98317 164.511976 21.805776 
C 164.511976 22.628381 164.838801 23.417406 165.42047 23.999076 
C 166.00214 24.580746 166.791165 24.90757 167.61377 24.90757 
z
" clip-path="url(#p7884849e53)" style="stroke: #000000; stroke-width: 0.886227"/>
    <path d="M 185.277327 22.356268 
C 186.099933 22.356268 186.888957 22.029444 187.470627 21.447774 
C 188.052297 20.866104 188.379122 20.077079 188.379122 19.254474 
C 188.379122 18.431869 188.052297 17.642844 187.470627 17.061174 
C 186.888957 16.479504 186.099933 16.15268 185.277327 16.15268 
C 184.454722 16.15268 183.665698 16.479504 183.084028 17.061174 
C 182.502358 17.642844 182.175533 18.431869 182.175533 19.254474 
C 182.175533 20.077079 182.502358 20.866104 183.084028 21.447774 
C 183.665698 22.029444 184.454722 22.356268 185.277327 22.356268 
z
" clip-path="url(#p7884849e53)" style="stroke: #000000; stroke-width: 0.886227"/>
   </g>
  </g>
  <g id="patch_3">
   <path d="M 35.137092 161.874943 
L 229.43622 161.874943 
L 229.43622 8.549214 
L 35.137092 8.549214 
L 35.137092 161.874943 
z
" style="fill: none; stroke: #000000; stroke-width: 0.7; stroke-linejoin: miter"/>
  </g>
  <g id="text_18">
   <!-- Force [nN] -->
   <g transform="translate(116.327203 182.546566) scale(0.07 -0.07)">
    <defs>
     <path id="Roboto-Regular-46" d="M 528 0 
L 528 4550 
L 3347 4550 
L 3347 4056 
L 1131 4056 
L 1131 2503 
L 3038 2503 
L 3038 2009 
L 1131 2009 
L 1131 0 
L 528 0 
z
" transform="scale(0.015625)"/>
     <path id="Roboto-Regular-6f" d="M 288 1725 
Q 288 2459 700 2951 
Q 1113 3444 1822 3444 
Q 2531 3444 2943 2961 
Q 3356 2478 3366 1756 
L 3366 1653 
Q 3366 919 2952 428 
Q 2538 -63 1828 -63 
Q 1116 -63 702 428 
Q 288 919 288 1653 
L 288 1725 
z
M 866 1653 
Q 866 1150 1105 781 
Q 1344 413 1828 413 
Q 2300 413 2540 777 
Q 2781 1141 2784 1644 
L 2784 1725 
Q 2784 2222 2543 2595 
Q 2303 2969 1822 2969 
Q 1344 2969 1105 2595 
Q 866 2222 866 1725 
L 866 1653 
z
" transform="scale(0.015625)"/>
     <path id="Roboto-Regular-72" d="M 1791 2888 
Q 1225 2888 1019 2400 
L 1019 0 
L 441 0 
L 441 3381 
L 1003 3381 
L 1016 2994 
Q 1294 3444 1819 3444 
Q 1981 3444 2075 3400 
L 2072 2863 
Q 1944 2888 1791 2888 
z
" transform="scale(0.015625)"/>
     <path id="Roboto-Regular-63" d="M 1794 413 
Q 2103 413 2336 597 
Q 2569 781 2591 1069 
L 3141 1069 
Q 3119 616 2725 276 
Q 2331 -63 1794 -63 
Q 1031 -63 661 440 
Q 291 944 291 1625 
L 291 1756 
Q 291 2438 661 2941 
Q 1031 3444 1794 3444 
Q 2388 3444 2753 3092 
Q 3119 2741 3141 2219 
L 2591 2219 
Q 2569 2531 2355 2750 
Q 2141 2969 1794 2969 
Q 1438 2969 1236 2787 
Q 1034 2606 951 2328 
Q 869 2050 869 1756 
L 869 1625 
Q 869 1328 950 1050 
Q 1031 772 1232 592 
Q 1434 413 1794 413 
z
" transform="scale(0.015625)"/>
     <path id="Roboto-Regular-20" transform="scale(0.015625)"/>
     <path id="Roboto-Regular-5b" d="M 1634 5200 
L 1634 4725 
L 1038 4725 
L 1038 -500 
L 1634 -500 
L 1634 -975 
L 459 -975 
L 459 5200 
L 1634 5200 
z
" transform="scale(0.015625)"/>
     <path id="Roboto-Regular-6e" d="M 1844 2956 
Q 1566 2956 1353 2806 
Q 1141 2656 1019 2416 
L 1019 0 
L 441 0 
L 441 3381 
L 988 3381 
L 1006 2959 
Q 1391 3444 2016 3444 
Q 2513 3444 2805 3166 
Q 3097 2888 3100 2231 
L 3100 0 
L 2519 0 
L 2519 2222 
Q 2519 2619 2345 2787 
Q 2172 2956 1844 2956 
z
" transform="scale(0.015625)"/>
     <path id="Roboto-Regular-4e" d="M 4028 4550 
L 4028 0 
L 3422 0 
L 1131 3509 
L 1131 0 
L 528 0 
L 528 4550 
L 1131 4550 
L 3431 1031 
L 3431 4550 
L 4028 4550 
z
" transform="scale(0.015625)"/>
     <path id="Roboto-Regular-5d" d="M 31 4725 
L 31 5200 
L 1213 5200 
L 1213 -975 
L 31 -975 
L 31 -500 
L 631 -500 
L 631 4725 
L 31 4725 
z
" transform="scale(0.015625)"/>
    </defs>
    <use xlink:href="#Roboto-Regular-46"/>
    <use xlink:href="#Roboto-Regular-6f" transform="translate(55.273438 0)"/>
    <use xlink:href="#Roboto-Regular-72" transform="translate(112.304688 0)"/>
    <use xlink:href="#Roboto-Regular-63" transform="translate(146.191406 0)"/>
    <use xlink:href="#Roboto-Regular-65" transform="translate(198.535156 0)"/>
    <use xlink:href="#Roboto-Regular-20" transform="translate(251.5625 0)"/>
    <use xlink:href="#Roboto-Regular-5b" transform="translate(276.367188 0)"/>
    <use xlink:href="#Roboto-Regular-6e" transform="translate(302.880859 0)"/>
    <use xlink:href="#Roboto-Regular-4e" transform="translate(358.105469 0)"/>
    <use xlink:href="#Roboto-Regular-5d" transform="translate(429.443359 0)"/>
   </g>
  </g>
  <g id="text_19">
   <!-- Rate [1/s] -->
   <g transform="translate(12.532031 100.216141) rotate(-90) scale(0.07 -0.07)">
    <defs>
     <path id="Roboto-Regular-52" d="M 3188 0 
L 2200 1844 
L 1131 1844 
L 1131 0 
L 528 0 
L 528 4550 
L 2034 4550 
Q 2800 4550 3214 4200 
Q 3628 3850 3628 3184 
Q 3628 2759 3398 2442 
Q 3169 2125 2763 1969 
L 3831 38 
L 3831 0 
L 3188 0 
z
M 1131 4056 
L 1131 2334 
L 2053 2334 
Q 2538 2334 2783 2582 
Q 3028 2831 3028 3184 
Q 3028 3578 2792 3817 
Q 2556 4056 2034 4056 
L 1131 4056 
z
" transform="scale(0.015625)"/>
     <path id="Roboto-Regular-61" d="M 2528 0 
Q 2472 122 2447 356 
Q 2284 184 2040 60 
Q 1797 -63 1484 -63 
Q 966 -63 653 228 
Q 341 519 341 941 
Q 341 1484 753 1767 
Q 1166 2050 1863 2050 
L 2434 2050 
L 2434 2319 
Q 2434 2619 2254 2798 
Q 2075 2978 1722 2978 
Q 1394 2978 1192 2817 
Q 991 2656 991 2444 
L 413 2444 
Q 413 2806 778 3125 
Q 1144 3444 1756 3444 
Q 2306 3444 2659 3162 
Q 3013 2881 3013 2313 
L 3013 794 
Q 3013 325 3131 50 
L 3131 0 
L 2528 0 
z
M 1569 444 
Q 1881 444 2111 600 
Q 2341 756 2434 947 
L 2434 1644 
L 1897 1644 
Q 922 1625 922 1019 
Q 922 778 1084 611 
Q 1247 444 1569 444 
z
" transform="scale(0.015625)"/>
     <path id="Roboto-Regular-74" d="M 1872 0 
Q 1675 -63 1425 -63 
Q 1103 -63 875 134 
Q 647 331 647 841 
L 647 2938 
L 28 2938 
L 28 3381 
L 647 3381 
L 647 4203 
L 1225 4203 
L 1225 3381 
L 1856 3381 
L 1856 2938 
L 1225 2938 
L 1225 838 
Q 1225 578 1337 506 
Q 1450 434 1597 434 
Q 1706 434 1869 472 
L 1872 0 
z
" transform="scale(0.015625)"/>
     <path id="Roboto-Regular-2f" d="M 2453 4550 
L 556 -391 
L 59 -391 
L 1959 4550 
L 2453 4550 
z
" transform="scale(0.015625)"/>
     <path id="Roboto-Regular-73" d="M 2409 897 
Q 2409 1081 2273 1229 
Q 2138 1378 1647 1478 
Q 1081 1594 747 1814 
Q 413 2034 413 2456 
Q 413 2856 755 3150 
Q 1097 3444 1666 3444 
Q 2272 3444 2612 3134 
Q 2953 2825 2953 2388 
L 2375 2388 
Q 2375 2597 2190 2783 
Q 2006 2969 1666 2969 
Q 1306 2969 1150 2812 
Q 994 2656 994 2472 
Q 994 2288 1139 2173 
Q 1284 2059 1756 1953 
Q 2378 1813 2683 1584 
Q 2988 1356 2988 941 
Q 2988 494 2630 215 
Q 2272 -63 1681 -63 
Q 1009 -63 653 281 
Q 297 625 297 1044 
L 878 1044 
Q 897 684 1155 548 
Q 1413 413 1681 413 
Q 2034 413 2221 550 
Q 2409 688 2409 897 
z
" transform="scale(0.015625)"/>
    </defs>
    <use xlink:href="#Roboto-Regular-52"/>
    <use xlink:href="#Roboto-Regular-61" transform="translate(61.621094 0)"/>
    <use xlink:href="#Roboto-Regular-74" transform="translate(116.015625 0)"/>
    <use xlink:href="#Roboto-Regular-65" transform="translate(148.730469 0)"/>
    <use xlink:href="#Roboto-Regular-20" transform="translate(201.757812 0)"/>
    <use xlink:href="#Roboto-Regular-5b" transform="translate(226.5625 0)"/>
    <use xlink:href="#Roboto-Regular-31" transform="translate(253.076172 0)"/>
    <use xlink:href="#Roboto-Regular-2f" transform="translate(309.277344 0)"/>
    <use xlink:href="#Roboto-Regular-73" transform="translate(350.537109 0)"/>
    <use xlink:href="#Roboto-Regular-5d" transform="translate(402.148438 0)"/>
   </g>
  </g>
  <g id="patch_4">
   <path d="M 158.154683 161.565426 
L 227.480207 161.565426 
L 227.480207 115.565426 
L 158.154683 115.565426 
z
" style="fill: #ffffff"/>
  </g>
  <g id="line2d_24">
   <path d="M 164.154683 129.565426 
L 180.154683 129.565426 
" clip-path="url(#p803b468b0c)" style="fill: none; stroke: #000000; stroke-width: 2.30419"/>
  </g>
  <g id="text_20">
   <!-- experimental -->
   <g transform="translate(181.061769 131.479489) scale(0.07 -0.07)">
    <defs>
     <path id="Roboto-Regular-78" d="M 831 3381 
L 1572 2150 
L 2322 3381 
L 3000 3381 
L 1894 1713 
L 3034 0 
L 2366 0 
L 1584 1269 
L 803 0 
L 131 0 
L 1269 1713 
L 166 3381 
L 831 3381 
z
" transform="scale(0.015625)"/>
     <path id="Roboto-Regular-70" d="M 1984 -63 
Q 1375 -63 1019 328 
L 1019 -1300 
L 438 -1300 
L 438 3381 
L 969 3381 
L 997 3009 
Q 1353 3444 1975 3444 
Q 2616 3444 2956 2969 
Q 3297 2494 3297 1719 
L 3297 1653 
Q 3297 913 2955 425 
Q 2613 -63 1984 -63 
z
M 1806 2956 
Q 1281 2956 1019 2491 
L 1019 872 
Q 1284 413 1813 413 
Q 2281 413 2498 781 
Q 2716 1150 2716 1653 
L 2716 1719 
Q 2716 2222 2498 2589 
Q 2281 2956 1806 2956 
z
" transform="scale(0.015625)"/>
     <path id="Roboto-Regular-69" d="M 444 4278 
Q 444 4419 530 4516 
Q 616 4613 784 4613 
Q 950 4613 1039 4516 
Q 1128 4419 1128 4278 
Q 1128 4144 1039 4048 
Q 950 3953 784 3953 
Q 616 3953 530 4048 
Q 444 4144 444 4278 
z
M 1069 3381 
L 1069 0 
L 488 0 
L 488 3381 
L 1069 3381 
z
" transform="scale(0.015625)"/>
     <path id="Roboto-Regular-6d" d="M 1794 2956 
Q 1225 2956 1016 2478 
L 1016 0 
L 434 0 
L 434 3381 
L 984 3381 
L 1000 3013 
Q 1366 3444 2000 3444 
Q 2325 3444 2579 3314 
Q 2834 3184 2969 2900 
Q 3138 3144 3408 3294 
Q 3678 3444 4044 3444 
Q 4588 3444 4883 3153 
Q 5178 2863 5178 2222 
L 5178 0 
L 4597 0 
L 4597 2228 
Q 4597 2653 4401 2804 
Q 4206 2956 3875 2956 
Q 3525 2956 3325 2748 
Q 3125 2541 3094 2244 
L 3094 0 
L 2516 0 
L 2516 2225 
Q 2516 2622 2319 2789 
Q 2122 2956 1794 2956 
z
" transform="scale(0.015625)"/>
     <path id="Roboto-Regular-6c" d="M 1069 4800 
L 1069 0 
L 488 0 
L 488 4800 
L 1069 4800 
z
" transform="scale(0.015625)"/>
    </defs>
    <use xlink:href="#Roboto-Regular-65"/>
    <use xlink:href="#Roboto-Regular-78" transform="translate(53.027344 0)"/>
    <use xlink:href="#Roboto-Regular-70" transform="translate(102.636719 0)"/>
    <use xlink:href="#Roboto-Regular-65" transform="translate(158.789062 0)"/>
    <use xlink:href="#Roboto-Regular-72" transform="translate(211.816406 0)"/>
    <use xlink:href="#Roboto-Regular-69" transform="translate(245.703125 0)"/>
    <use xlink:href="#Roboto-Regular-6d" transform="translate(270.019531 0)"/>
    <use xlink:href="#Roboto-Regular-65" transform="translate(357.714844 0)"/>
    <use xlink:href="#Roboto-Regular-6e" transform="translate(410.742188 0)"/>
    <use xlink:href="#Roboto-Regular-74" transform="translate(465.966797 0)"/>
    <use xlink:href="#Roboto-Regular-61" transform="translate(498.681641 0)"/>
    <use xlink:href="#Roboto-Regular-6c" transform="translate(553.076172 0)"/>
   </g>
  </g>
  <g id="line2d_25">
   <path d="M 164.154683 147.565426 
L 180.154683 147.565426 
" clip-path="url(#pde1aa5bf14)" style="fill: none; stroke: #808080; stroke-width: 2.30419"/>
  </g>
  <g id="text_21">
   <!-- theoretical -->
   <g transform="translate(181.061769 149.479489) scale(0.07 -0.07)">
    <defs>
     <path id="Roboto-Regular-68" d="M 1844 2956 
Q 1566 2956 1353 2806 
Q 1141 2656 1019 2416 
L 1019 0 
L 441 0 
L 441 4800 
L 1019 4800 
L 1019 2978 
Q 1403 3444 2016 3444 
Q 2513 3444 2805 3166 
Q 3097 2888 3100 2231 
L 3100 0 
L 2519 0 
L 2519 2222 
Q 2519 2619 2345 2787 
Q 2172 2956 1844 2956 
z
" transform="scale(0.015625)"/>
    </defs>
    <use xlink:href="#Roboto-Regular-74"/>
    <use xlink:href="#Roboto-Regular-68" transform="translate(32.714844 0)"/>
    <use xlink:href="#Roboto-Regular-65" transform="translate(87.792969 0)"/>
    <use xlink:href="#Roboto-Regular-6f" transform="translate(140.820312 0)"/>
    <use xlink:href="#Roboto-Regular-72" transform="translate(197.851562 0)"/>
    <use xlink:href="#Roboto-Regular-65" transform="translate(231.738281 0)"/>
    <use xlink:href="#Roboto-Regular-74" transform="translate(284.765625 0)"/>
    <use xlink:href="#Roboto-Regular-69" transform="translate(317.480469 0)"/>
    <use xlink:href="#Roboto-Regular-63" transform="translate(341.796875 0)"/>
    <use xlink:href="#Roboto-Regular-61" transform="translate(394.140625 0)"/>
    <use xlink:href="#Roboto-Regular-6c" transform="translate(448.535156 0)"/>
   </g>
  </g>
 </g>
 <defs>
  <clipPath id="p7884849e53">
   <rect x="35.137092" y="8.549214" width="194.299129" height="153.325729"/>
  </clipPath>
  <clipPath id="p803b468b0c">
   <path d="M 164.154683 137.565426 
L 164.154683 121.565426 
L 180.154683 121.565426 
L 180.154683 137.565426 
"/>
  </clipPath>
  <clipPath id="pde1aa5bf14">
   <path d="M 164.154683 155.565426 
L 164.154683 139.565426 
L 180.154683 139.565426 
L 180.154683 155.565426 
"/>
  </clipPath>
 </defs>
</svg>
