<?xml version="1.0" encoding="utf-8" standalone="no"?>
<!DOCTYPE svg PUBLIC "-//W3C//DTD SVG 1.1//EN"
  "http://www.w3.org/Graphics/SVG/1.1/DTD/svg11.dtd">
<svg xmlns:xlink="http://www.w3.org/1999/xlink" width="511.387225pt" height="310.337008pt" viewBox="0 0 511.387225 310.337008" xmlns="http://www.w3.org/2000/svg" version="1.1">
 <metadata>
  <rdf:RDF xmlns:dc="http://purl.org/dc/elements/1.1/" xmlns:cc="http://creativecommons.org/ns#" xmlns:rdf="http://www.w3.org/1999/02/22-rdf-syntax-ns#">
   <cc:Work>
    <dc:type rdf:resource="http://purl.org/dc/dcmitype/StillImage"/>
    <dc:date>2025-11-13T13:42:14.142390</dc:date>
    <dc:format>image/svg+xml</dc:format>
    <dc:creator>
     <cc:Agent>
      <dc:title>Matplotlib v3.10.3, https://matplotlib.org/</dc:title>
     </cc:Agent>
    </dc:creator>
   </cc:Work>
  </rdf:RDF>
 </metadata>
 <defs>
  <style type="text/css">*{stroke-linejoin: round; stroke-linecap: butt}</style>
 </defs>
 <g id="figure_1">
  <g id="patch_1">
   <path d="M 0 310.337008 
L 511.387225 310.337008 
L 511.387225 0 
L 0 0 
z
" style="fill: #ffffff; stroke: #ffffff; stroke-width: 0.7; stroke-linejoin: miter"/>
  </g>
  <g id="axes_1">
   <g id="patch_2">
    <path d="M 39.023143 96.355759 
L 495.892954 96.355759 
L 495.892954 40.507087 
L 39.023143 40.507087 
z
" style="fill: #ffffff"/>
   </g>
   <g id="matplotlib.axis_1">
    <g id="xtick_1"/>
    <g id="xtick_2"/>
    <g id="xtick_3"/>
    <g id="xtick_4"/>
    <g id="xtick_5"/>
    <g id="xtick_6"/>
    <g id="xtick_7"/>
   </g>
   <g id="matplotlib.axis_2">
    <g id="ytick_1">
     <g id="line2d_1">
      <defs>
       <path id="mb117ca6002" d="M 1.5 0 
L -1.5 -0 
" style="stroke: #000000; stroke-width: 0.7"/>
      </defs>
      <g>
       <use xlink:href="#mb117ca6002" x="39.023143" y="93.817183" style="stroke: #000000; stroke-width: 0.7"/>
      </g>
     </g>
     <g id="text_1">
      <!-- 0.0 -->
      <g transform="translate(25.408456 96.442183) scale(0.07 -0.07)">
       <defs>
        <path id="Roboto-Regular-30" d="M 3234 1944 
Q 3234 825 2848 381 
Q 2463 -63 1800 -63 
Q 1156 -63 764 368 
Q 372 800 359 1872 
L 359 2638 
Q 359 3753 750 4183 
Q 1141 4613 1794 4613 
Q 2447 4613 2834 4195 
Q 3222 3778 3234 2709 
L 3234 1944 
z
M 2653 2734 
Q 2653 3503 2434 3822 
Q 2216 4141 1794 4141 
Q 1388 4141 1167 3831 
Q 947 3522 941 2778 
L 941 1850 
Q 941 1088 1164 750 
Q 1388 413 1800 413 
Q 2222 413 2436 745 
Q 2650 1078 2653 1825 
L 2653 2734 
z
" transform="scale(0.015625)"/>
        <path id="Roboto-Regular-2e" d="M 450 306 
Q 450 453 542 554 
Q 634 656 809 656 
Q 984 656 1076 554 
Q 1169 453 1169 306 
Q 1169 163 1076 62 
Q 984 -38 809 -38 
Q 634 -38 542 62 
Q 450 163 450 306 
z
" transform="scale(0.015625)"/>
       </defs>
       <use xlink:href="#Roboto-Regular-30"/>
       <use xlink:href="#Roboto-Regular-2e" transform="translate(56.201172 0)"/>
       <use xlink:href="#Roboto-Regular-30" transform="translate(82.568359 0)"/>
      </g>
     </g>
    </g>
    <g id="ytick_2">
     <g id="line2d_2">
      <g>
       <use xlink:href="#mb117ca6002" x="39.023143" y="81.112401" style="stroke: #000000; stroke-width: 0.7"/>
      </g>
     </g>
     <g id="text_2">
      <!-- 0.2 -->
      <g transform="translate(25.408456 83.737401) scale(0.07 -0.07)">
       <defs>
        <path id="Roboto-Regular-32" d="M 3359 475 
L 3359 0 
L 381 0 
L 381 416 
L 1925 2134 
Q 2306 2566 2439 2819 
Q 2572 3072 2572 3328 
Q 2572 3663 2364 3900 
Q 2156 4138 1778 4138 
Q 1322 4138 1097 3878 
Q 872 3619 872 3213 
L 294 3213 
Q 294 3788 672 4200 
Q 1050 4613 1778 4613 
Q 2422 4613 2786 4278 
Q 3150 3944 3150 3397 
Q 3150 2997 2903 2592 
Q 2656 2188 2297 1797 
L 1078 475 
L 3359 475 
z
" transform="scale(0.015625)"/>
       </defs>
       <use xlink:href="#Roboto-Regular-30"/>
       <use xlink:href="#Roboto-Regular-2e" transform="translate(56.201172 0)"/>
       <use xlink:href="#Roboto-Regular-32" transform="translate(82.568359 0)"/>
      </g>
     </g>
    </g>
    <g id="ytick_3">
     <g id="line2d_3">
      <g>
       <use xlink:href="#mb117ca6002" x="39.023143" y="68.407619" style="stroke: #000000; stroke-width: 0.7"/>
      </g>
     </g>
     <g id="text_3">
      <!-- 0.4 -->
      <g transform="translate(25.408456 71.032619) scale(0.07 -0.07)">
       <defs>
        <path id="Roboto-Regular-34" d="M 166 1397 
L 2203 4550 
L 2819 4550 
L 2819 1531 
L 3453 1531 
L 3453 1056 
L 2819 1056 
L 2819 0 
L 2241 0 
L 2241 1056 
L 166 1056 
L 166 1397 
z
M 822 1531 
L 2241 1531 
L 2241 3766 
L 2169 3638 
L 822 1531 
z
" transform="scale(0.015625)"/>
       </defs>
       <use xlink:href="#Roboto-Regular-30"/>
       <use xlink:href="#Roboto-Regular-2e" transform="translate(56.201172 0)"/>
       <use xlink:href="#Roboto-Regular-34" transform="translate(82.568359 0)"/>
      </g>
     </g>
    </g>
    <g id="ytick_4">
     <g id="line2d_4">
      <g>
       <use xlink:href="#mb117ca6002" x="39.023143" y="55.702836" style="stroke: #000000; stroke-width: 0.7"/>
      </g>
     </g>
     <g id="text_4">
      <!-- 0.6 -->
      <g transform="translate(25.408456 58.327836) scale(0.07 -0.07)">
       <defs>
        <path id="Roboto-Regular-36" d="M 3291 1484 
Q 3291 838 2930 387 
Q 2569 -63 1878 -63 
Q 1388 -63 1063 198 
Q 738 459 577 861 
Q 416 1263 416 1684 
L 416 1956 
Q 416 2597 595 3194 
Q 775 3791 1247 4173 
Q 1719 4556 2597 4556 
L 2647 4556 
L 2647 4066 
Q 2041 4066 1705 3853 
Q 1369 3641 1205 3302 
Q 1041 2963 1006 2575 
Q 1369 2984 1984 2984 
Q 2438 2984 2727 2765 
Q 3016 2547 3153 2201 
Q 3291 1856 3291 1484 
z
M 997 1666 
Q 997 1059 1267 737 
Q 1538 416 1878 416 
Q 2278 416 2498 708 
Q 2719 1000 2719 1456 
Q 2719 1863 2516 2184 
Q 2313 2506 1891 2506 
Q 1588 2506 1341 2325 
Q 1094 2144 997 1884 
L 997 1666 
z
" transform="scale(0.015625)"/>
       </defs>
       <use xlink:href="#Roboto-Regular-30"/>
       <use xlink:href="#Roboto-Regular-2e" transform="translate(56.201172 0)"/>
       <use xlink:href="#Roboto-Regular-36" transform="translate(82.568359 0)"/>
      </g>
     </g>
    </g>
    <g id="ytick_5">
     <g id="line2d_5">
      <g>
       <use xlink:href="#mb117ca6002" x="39.023143" y="42.998054" style="stroke: #000000; stroke-width: 0.7"/>
      </g>
     </g>
     <g id="text_5">
      <!-- 0.8 -->
      <g transform="translate(25.408456 45.623054) scale(0.07 -0.07)">
       <defs>
        <path id="Roboto-Regular-38" d="M 3244 1231 
Q 3244 606 2826 271 
Q 2409 -63 1796 -63 
Q 1184 -63 767 271 
Q 350 606 350 1231 
Q 350 1613 554 1905 
Q 759 2197 1109 2347 
Q 806 2494 629 2762 
Q 453 3031 453 3366 
Q 453 3963 833 4288 
Q 1213 4613 1794 4613 
Q 2378 4613 2758 4288 
Q 3138 3963 3138 3366 
Q 3138 3028 2956 2761 
Q 2775 2494 2472 2347 
Q 2825 2197 3034 1903 
Q 3244 1609 3244 1231 
z
M 2559 3356 
Q 2559 3697 2346 3917 
Q 2134 4138 1793 4138 
Q 1453 4138 1243 3927 
Q 1034 3716 1034 3356 
Q 1034 3003 1243 2790 
Q 1453 2578 1797 2578 
Q 2138 2578 2348 2790 
Q 2559 3003 2559 3356 
z
M 2663 1244 
Q 2663 1625 2420 1865 
Q 2178 2106 1791 2106 
Q 1394 2106 1161 1865 
Q 928 1625 928 1244 
Q 928 850 1161 631 
Q 1394 413 1797 413 
Q 2200 413 2431 631 
Q 2663 850 2663 1244 
z
" transform="scale(0.015625)"/>
       </defs>
       <use xlink:href="#Roboto-Regular-30"/>
       <use xlink:href="#Roboto-Regular-2e" transform="translate(56.201172 0)"/>
       <use xlink:href="#Roboto-Regular-38" transform="translate(82.568359 0)"/>
      </g>
     </g>
    </g>
    <g id="ytick_6">
     <g id="line2d_6">
      <defs>
       <path id="m7ffc3e494a" d="M 2 0 
L -2 -0 
" style="stroke: #000000; stroke-width: 0.7"/>
      </defs>
      <g>
       <use xlink:href="#m7ffc3e494a" x="39.023143" y="87.464792" style="stroke: #000000; stroke-width: 0.7"/>
      </g>
     </g>
    </g>
    <g id="ytick_7">
     <g id="line2d_7">
      <g>
       <use xlink:href="#m7ffc3e494a" x="39.023143" y="74.76001" style="stroke: #000000; stroke-width: 0.7"/>
      </g>
     </g>
    </g>
    <g id="ytick_8">
     <g id="line2d_8">
      <g>
       <use xlink:href="#m7ffc3e494a" x="39.023143" y="62.055227" style="stroke: #000000; stroke-width: 0.7"/>
      </g>
     </g>
    </g>
    <g id="ytick_9">
     <g id="line2d_9">
      <g>
       <use xlink:href="#m7ffc3e494a" x="39.023143" y="49.350445" style="stroke: #000000; stroke-width: 0.7"/>
      </g>
     </g>
    </g>
   </g>
   <g id="FillBetweenPolyCollection_1"/>
   <g id="line2d_10">
    <path d="M 59.789953 93.817183 
L 116.223707 93.708141 
L 127.591658 93.364086 
L 143.831587 91.551692 
L 146.673575 90.796151 
L 149.921561 89.73549 
L 151.951552 88.834075 
L 154.793539 87.279646 
L 157.635527 85.50889 
L 159.25952 84.259956 
L 160.883513 82.715343 
L 162.913504 80.397038 
L 169.815474 71.902114 
L 173.875456 66.118463 
L 175.093451 64.803294 
L 176.311446 63.809865 
L 177.935439 62.835359 
L 179.96543 61.586236 
L 181.589423 60.233863 
L 185.243407 56.927381 
L 186.8674 55.826517 
L 188.085394 55.300515 
L 188.897391 55.151418 
L 189.709387 55.197064 
L 190.521384 55.45097 
L 191.33338 55.90568 
L 192.551375 56.894269 
L 194.987364 59.356694 
L 198.23535 62.483316 
L 200.265341 64.55011 
L 201.889334 66.482875 
L 203.919325 69.318841 
L 206.761313 73.794725 
L 209.197302 77.936155 
L 211.227294 81.834482 
L 214.069281 87.365853 
L 215.287276 89.279417 
L 216.505271 90.757195 
L 217.723265 91.817703 
L 218.94126 92.542927 
L 220.159255 93.027871 
L 221.783248 93.428409 
L 223.813239 93.682105 
L 226.655226 93.786517 
L 257.105094 93.817183 
L 475.126144 93.817183 
L 475.126144 93.817183 
" clip-path="url(#pbcc4bae73a)" style="fill: none; stroke: #ffe07d; stroke-width: 2.30419; stroke-linejoin: miter"/>
   </g>
   <g id="FillBetweenPolyCollection_2"/>
   <g id="line2d_11">
    <path d="M 59.789953 93.793814 
L 113.787718 93.764113 
L 119.471693 93.739809 
L 123.531675 93.659907 
L 126.779661 93.586142 
L 130.433645 93.58738 
L 140.177603 93.267164 
L 147.485571 92.676956 
L 149.515562 92.237685 
L 152.35755 91.620867 
L 157.635527 90.602672 
L 161.695509 89.535596 
L 164.131499 89.129403 
L 164.943495 88.795762 
L 166.16149 88.026168 
L 168.597479 86.094499 
L 172.251463 82.953639 
L 173.875456 81.165473 
L 179.559431 74.2324 
L 180.777426 73.205853 
L 182.401419 72.114571 
L 183.213416 71.244855 
L 184.025412 69.967997 
L 185.243407 67.472262 
L 186.8674 64.082751 
L 188.085394 61.986397 
L 191.739378 56.443362 
L 194.987364 52.089831 
L 197.829352 47.312649 
L 198.641348 46.409556 
L 199.859343 45.514797 
L 201.483336 44.43661 
L 203.107329 43.206459 
L 203.513327 43.056633 
L 203.919325 43.045663 
L 204.325324 43.202363 
L 204.731322 43.544119 
L 205.13732 44.076403 
L 205.949317 45.686658 
L 206.761313 47.928132 
L 207.979308 52.167249 
L 211.227294 64.286937 
L 213.257285 70.94173 
L 214.475279 75.902484 
L 216.505271 84.59467 
L 217.723265 88.699243 
L 218.535262 90.68494 
L 219.347258 92.064565 
L 220.159255 92.925433 
L 220.971251 93.404157 
L 221.783248 93.640145 
L 223.40724 93.778239 
L 231.933203 93.817175 
L 475.126144 93.817183 
L 475.126144 93.817183 
" clip-path="url(#pbcc4bae73a)" style="fill: none; stroke: #55b4dc; stroke-width: 2.30419; stroke-linejoin: miter"/>
   </g>
   <g id="FillBetweenPolyCollection_3"/>
   <g id="line2d_12">
    <path d="M 59.789953 93.817183 
L 93.893805 93.707764 
L 99.171782 93.573792 
L 115.005713 93.815579 
L 121.501684 93.700801 
L 129.215651 93.438613 
L 135.711622 93.403873 
L 137.335615 93.147774 
L 138.959608 92.695978 
L 141.395598 91.737794 
L 143.831587 90.819275 
L 146.267576 90.199916 
L 148.703566 89.560079 
L 152.35755 88.477654 
L 153.981543 88.336882 
L 156.011534 88.466974 
L 157.635527 88.535393 
L 158.853522 88.401715 
L 160.071516 88.041284 
L 161.289511 87.443927 
L 162.913504 86.324134 
L 164.537497 84.921904 
L 166.567488 82.876057 
L 168.191481 80.988945 
L 169.815474 78.765355 
L 171.439467 76.12103 
L 175.093451 69.760556 
L 176.311446 68.114247 
L 177.935439 66.343632 
L 179.559431 64.520604 
L 180.777426 62.739244 
L 181.995421 60.527646 
L 184.837408 55.062498 
L 186.055403 53.305507 
L 187.273398 52.017444 
L 188.897391 50.720725 
L 193.363371 47.52822 
L 194.581366 47.002312 
L 195.393362 46.848737 
L 196.205359 46.901831 
L 197.017355 47.212056 
L 197.829352 47.832951 
L 198.641348 48.81136 
L 199.453345 50.175876 
L 200.265341 51.928228 
L 201.483336 55.217692 
L 203.107329 60.53757 
L 205.949317 71.024321 
L 208.385306 79.758567 
L 210.009299 84.677806 
L 211.227294 87.621842 
L 212.445288 89.861744 
L 213.257285 90.982994 
L 214.069281 91.842091 
L 215.287276 92.727484 
L 216.505271 93.254016 
L 217.723265 93.545419 
L 219.753256 93.748832 
L 223.40724 93.814087 
L 268.879042 93.817183 
L 475.126144 93.817183 
L 475.126144 93.817183 
" clip-path="url(#pbcc4bae73a)" style="fill: none; stroke: #da7da6; stroke-width: 2.30419; stroke-linejoin: miter"/>
   </g>
   <g id="FillBetweenPolyCollection_4"/>
   <g id="line2d_13">
    <path d="M 59.789953 93.817183 
L 114.193716 93.714024 
L 118.253698 93.669195 
L 122.719679 93.677896 
L 135.305624 93.168325 
L 137.741614 93.115179 
L 140.177603 93.117256 
L 142.207594 92.839695 
L 154.793539 90.518338 
L 156.82353 89.737346 
L 160.883513 88.008608 
L 164.537497 85.825137 
L 166.567488 84.537033 
L 169.003477 82.629444 
L 171.439467 80.549562 
L 173.875456 78.041049 
L 177.935439 73.777645 
L 180.371428 71.749498 
L 181.589423 70.304596 
L 188.085394 61.639121 
L 189.303389 60.449589 
L 190.521384 59.582265 
L 192.145377 58.451865 
L 193.363371 57.279659 
L 196.611357 53.811782 
L 198.23535 52.480844 
L 203.513327 48.634632 
L 204.325324 48.416535 
L 204.731322 48.456509 
L 205.13732 48.627384 
L 205.543318 48.948645 
L 206.355315 50.085295 
L 207.167311 51.870263 
L 207.979308 54.200689 
L 209.197302 58.401916 
L 212.445288 70.989992 
L 214.881278 80.019887 
L 216.505271 85.22791 
L 217.723265 88.451781 
L 218.535262 90.175581 
L 219.347258 91.512797 
L 220.159255 92.467429 
L 220.971251 93.089612 
L 221.783248 93.458477 
L 223.001242 93.713498 
L 225.031233 93.801249 
L 441.428291 93.817183 
L 475.126144 93.817183 
L 475.126144 93.817183 
" clip-path="url(#pbcc4bae73a)" style="fill: none; stroke: #000000; stroke-width: 2.30419; stroke-linejoin: miter"/>
   </g>
  </g>
  <g id="axes_2">
   <g id="patch_3">
    <path d="M 39.023143 157.306794 
L 495.892954 157.306794 
L 495.892954 101.458122 
L 39.023143 101.458122 
z
" style="fill: #ffffff"/>
   </g>
   <g id="matplotlib.axis_3">
    <g id="xtick_8"/>
    <g id="xtick_9"/>
    <g id="xtick_10"/>
    <g id="xtick_11"/>
    <g id="xtick_12"/>
    <g id="xtick_13"/>
    <g id="xtick_14"/>
   </g>
   <g id="matplotlib.axis_4">
    <g id="ytick_10">
     <g id="line2d_14">
      <g>
       <use xlink:href="#mb117ca6002" x="39.023143" y="154.768218" style="stroke: #000000; stroke-width: 0.7"/>
      </g>
     </g>
     <g id="text_6">
      <!-- 0.0 -->
      <g transform="translate(25.408456 157.393218) scale(0.07 -0.07)">
       <use xlink:href="#Roboto-Regular-30"/>
       <use xlink:href="#Roboto-Regular-2e" transform="translate(56.201172 0)"/>
       <use xlink:href="#Roboto-Regular-30" transform="translate(82.568359 0)"/>
      </g>
     </g>
    </g>
    <g id="ytick_11">
     <g id="line2d_15">
      <g>
       <use xlink:href="#mb117ca6002" x="39.023143" y="143.384772" style="stroke: #000000; stroke-width: 0.7"/>
      </g>
     </g>
     <g id="text_7">
      <!-- 0.1 -->
      <g transform="translate(25.408456 146.009772) scale(0.07 -0.07)">
       <defs>
        <path id="Roboto-Regular-31" d="M 2278 4575 
L 2278 0 
L 1700 0 
L 1700 3853 
L 534 3428 
L 534 3950 
L 2188 4575 
L 2278 4575 
z
" transform="scale(0.015625)"/>
       </defs>
       <use xlink:href="#Roboto-Regular-30"/>
       <use xlink:href="#Roboto-Regular-2e" transform="translate(56.201172 0)"/>
       <use xlink:href="#Roboto-Regular-31" transform="translate(82.568359 0)"/>
      </g>
     </g>
    </g>
    <g id="ytick_12">
     <g id="line2d_16">
      <g>
       <use xlink:href="#mb117ca6002" x="39.023143" y="132.001325" style="stroke: #000000; stroke-width: 0.7"/>
      </g>
     </g>
     <g id="text_8">
      <!-- 0.2 -->
      <g transform="translate(25.408456 134.626325) scale(0.07 -0.07)">
       <use xlink:href="#Roboto-Regular-30"/>
       <use xlink:href="#Roboto-Regular-2e" transform="translate(56.201172 0)"/>
       <use xlink:href="#Roboto-Regular-32" transform="translate(82.568359 0)"/>
      </g>
     </g>
    </g>
    <g id="ytick_13">
     <g id="line2d_17">
      <g>
       <use xlink:href="#mb117ca6002" x="39.023143" y="120.617878" style="stroke: #000000; stroke-width: 0.7"/>
      </g>
     </g>
     <g id="text_9">
      <!-- 0.3 -->
      <g transform="translate(25.408456 123.242878) scale(0.07 -0.07)">
       <defs>
        <path id="Roboto-Regular-33" d="M 1222 2084 
L 1222 2559 
L 1647 2559 
Q 2094 2563 2312 2784 
Q 2531 3006 2531 3338 
Q 2531 4138 1738 4138 
Q 1369 4138 1141 3927 
Q 913 3716 913 3359 
L 334 3359 
Q 334 3881 720 4247 
Q 1106 4613 1738 4613 
Q 2353 4613 2733 4286 
Q 3113 3959 3113 3325 
Q 3113 3072 2942 2784 
Q 2772 2497 2397 2338 
Q 2850 2191 3015 1884 
Q 3181 1578 3181 1269 
Q 3181 631 2768 284 
Q 2356 -63 1741 -63 
Q 1147 -63 722 267 
Q 297 597 297 1203 
L 875 1203 
Q 875 844 1108 628 
Q 1341 413 1741 413 
Q 2138 413 2369 622 
Q 2600 831 2600 1256 
Q 2600 1681 2337 1882 
Q 2075 2084 1634 2084 
L 1222 2084 
z
" transform="scale(0.015625)"/>
       </defs>
       <use xlink:href="#Roboto-Regular-30"/>
       <use xlink:href="#Roboto-Regular-2e" transform="translate(56.201172 0)"/>
       <use xlink:href="#Roboto-Regular-33" transform="translate(82.568359 0)"/>
      </g>
     </g>
    </g>
    <g id="ytick_14">
     <g id="line2d_18">
      <g>
       <use xlink:href="#mb117ca6002" x="39.023143" y="109.234431" style="stroke: #000000; stroke-width: 0.7"/>
      </g>
     </g>
     <g id="text_10">
      <!-- 0.4 -->
      <g transform="translate(25.408456 111.859431) scale(0.07 -0.07)">
       <use xlink:href="#Roboto-Regular-30"/>
       <use xlink:href="#Roboto-Regular-2e" transform="translate(56.201172 0)"/>
       <use xlink:href="#Roboto-Regular-34" transform="translate(82.568359 0)"/>
      </g>
     </g>
    </g>
    <g id="ytick_15">
     <g id="line2d_19">
      <g>
       <use xlink:href="#m7ffc3e494a" x="39.023143" y="149.076495" style="stroke: #000000; stroke-width: 0.7"/>
      </g>
     </g>
    </g>
    <g id="ytick_16">
     <g id="line2d_20">
      <g>
       <use xlink:href="#m7ffc3e494a" x="39.023143" y="137.693048" style="stroke: #000000; stroke-width: 0.7"/>
      </g>
     </g>
    </g>
    <g id="ytick_17">
     <g id="line2d_21">
      <g>
       <use xlink:href="#m7ffc3e494a" x="39.023143" y="126.309602" style="stroke: #000000; stroke-width: 0.7"/>
      </g>
     </g>
    </g>
    <g id="ytick_18">
     <g id="line2d_22">
      <g>
       <use xlink:href="#m7ffc3e494a" x="39.023143" y="114.926155" style="stroke: #000000; stroke-width: 0.7"/>
      </g>
     </g>
    </g>
    <g id="ytick_19">
     <g id="line2d_23">
      <g>
       <use xlink:href="#m7ffc3e494a" x="39.023143" y="103.542708" style="stroke: #000000; stroke-width: 0.7"/>
      </g>
     </g>
    </g>
   </g>
   <g id="FillBetweenPolyCollection_5"/>
   <g id="line2d_24">
    <path d="M 59.789953 154.768218 
L 111.351728 154.657165 
L 125.561667 154.361205 
L 138.959608 153.642293 
L 143.019591 153.273689 
L 146.673575 152.726782 
L 150.327559 151.950966 
L 153.575545 151.026818 
L 156.417532 149.971563 
L 158.853522 148.833461 
L 161.289511 147.464634 
L 164.537497 145.343505 
L 168.597479 142.390148 
L 171.845465 139.763479 
L 174.687453 137.149414 
L 177.935439 133.788602 
L 183.619414 127.813647 
L 185.649405 126.005646 
L 187.679396 124.501744 
L 189.303389 123.543519 
L 190.927382 122.802733 
L 192.957373 122.147704 
L 195.393362 121.647781 
L 201.077338 120.852926 
L 206.355315 120.210172 
L 208.791304 120.153007 
L 210.821295 120.331398 
L 212.851286 120.753451 
L 214.881278 121.399878 
L 218.535262 122.860506 
L 227.467223 126.594549 
L 229.903212 128.010163 
L 236.399184 131.973874 
L 238.835173 133.120624 
L 241.271163 134.033767 
L 244.519149 134.992806 
L 248.985129 136.310607 
L 251.01512 137.141519 
L 253.045111 138.194194 
L 255.481101 139.706765 
L 263.195067 144.698339 
L 266.037055 146.191623 
L 268.473044 147.242231 
L 270.909034 148.039736 
L 273.345023 148.582489 
L 276.593009 149.033302 
L 281.870986 149.746555 
L 285.930968 150.580892 
L 291.208945 151.67623 
L 294.456931 152.113644 
L 298.516913 152.41257 
L 306.636878 152.96939 
L 320.440818 154.111983 
L 328.560783 154.492398 
L 338.30474 154.728876 
L 351.702682 154.768148 
L 475.126144 154.768218 
L 475.126144 154.768218 
" clip-path="url(#p012ec933df)" style="fill: none; stroke: #ffe07d; stroke-width: 2.30419; stroke-linejoin: miter"/>
   </g>
   <g id="FillBetweenPolyCollection_6"/>
   <g id="line2d_25">
    <path d="M 59.789953 154.768218 
L 132.869635 154.658901 
L 143.019591 154.41808 
L 152.763548 153.97141 
L 160.071516 153.412056 
L 166.16149 152.751718 
L 169.815474 152.148598 
L 173.469458 151.32448 
L 177.123442 150.282082 
L 180.777426 149.022319 
L 184.025412 147.689901 
L 187.273398 146.136991 
L 190.521384 144.332107 
L 193.363371 142.494924 
L 197.017355 139.818926 
L 201.077338 136.871614 
L 203.107329 135.632876 
L 205.13732 134.646631 
L 207.167311 133.935095 
L 209.197302 133.466059 
L 212.851286 132.930731 
L 215.693274 132.434043 
L 218.535262 131.70469 
L 224.219237 129.911617 
L 229.091216 128.488428 
L 232.339202 127.761239 
L 235.587187 127.270255 
L 239.241172 126.944719 
L 242.083159 126.881027 
L 244.519149 127.059491 
L 246.955138 127.483699 
L 253.045111 128.695099 
L 255.481101 128.881691 
L 262.789069 129.19684 
L 264.81906 129.612452 
L 266.849051 130.253027 
L 270.097037 131.569952 
L 274.157019 133.190088 
L 278.217002 134.535459 
L 281.870986 135.805 
L 284.306975 136.916456 
L 286.742965 138.315502 
L 294.050933 142.801345 
L 296.080924 143.678129 
L 298.516913 144.473587 
L 301.764899 145.268173 
L 308.666869 146.900572 
L 317.192832 149.111418 
L 322.470809 150.13045 
L 330.996772 151.522334 
L 337.898742 152.395056 
L 350.484687 153.7591 
L 355.762664 154.054548 
L 363.476631 154.2166 
L 378.904563 154.425453 
L 387.430526 154.663533 
L 399.204475 154.686647 
L 417.474395 154.685306 
L 460.10421 154.768218 
L 475.126144 154.768218 
L 475.126144 154.768218 
" clip-path="url(#p012ec933df)" style="fill: none; stroke: #55b4dc; stroke-width: 2.30419; stroke-linejoin: miter"/>
   </g>
   <g id="FillBetweenPolyCollection_7"/>
   <g id="line2d_26">
    <path d="M 59.789953 154.768218 
L 117.8477 154.661036 
L 137.335615 153.960005 
L 144.237585 153.310524 
L 148.297568 152.761095 
L 150.733557 152.237927 
L 152.763548 151.618137 
L 154.793539 150.771766 
L 156.417532 149.884781 
L 158.041525 148.765783 
L 159.665518 147.373235 
L 161.289511 145.678091 
L 162.913504 143.678617 
L 164.943495 140.812858 
L 172.657462 129.388504 
L 175.093451 126.425465 
L 182.807417 117.403458 
L 190.115385 107.979395 
L 191.739378 106.416217 
L 192.957373 105.492597 
L 194.175368 104.793976 
L 195.393362 104.317801 
L 196.611357 104.055811 
L 197.829352 104.001621 
L 199.047347 104.157199 
L 200.265341 104.535801 
L 201.483336 105.159925 
L 202.701331 106.054413 
L 203.919325 107.236588 
L 205.13732 108.706557 
L 206.761313 111.070335 
L 208.791304 114.496235 
L 214.475279 124.418623 
L 216.911269 128.147233 
L 219.347258 131.51209 
L 221.377249 134.006528 
L 223.40724 136.129465 
L 225.031233 137.497677 
L 226.655226 138.546203 
L 228.279219 139.288281 
L 229.903212 139.772997 
L 231.933203 140.131687 
L 238.835173 141.125037 
L 241.677161 141.877283 
L 244.925147 142.988905 
L 248.579131 144.500638 
L 252.639113 146.441881 
L 261.571074 150.840022 
L 264.007064 151.694601 
L 266.037055 152.170617 
L 268.067046 152.426246 
L 270.503035 152.500757 
L 278.217002 152.52453 
L 281.464988 152.877631 
L 288.366958 153.704879 
L 292.42694 153.928021 
L 297.704917 153.985544 
L 311.102859 153.958177 
L 322.876807 154.722659 
L 331.808768 154.767845 
L 380.122558 154.678598 
L 386.212532 154.402989 
L 399.204475 153.736017 
L 403.264457 153.782965 
L 420.316383 154.284115 
L 426.406356 154.490821 
L 434.120323 154.733362 
L 445.894272 154.768163 
L 475.126144 154.768218 
L 475.126144 154.768218 
" clip-path="url(#p012ec933df)" style="fill: none; stroke: #da7da6; stroke-width: 2.30419; stroke-linejoin: miter"/>
   </g>
   <g id="FillBetweenPolyCollection_8"/>
   <g id="line2d_27">
    <path d="M 59.789953 154.768218 
L 127.18566 154.66209 
L 140.583601 154.327514 
L 146.673575 154.006487 
L 151.951552 153.515374 
L 157.635527 152.766214 
L 160.883513 152.122239 
L 164.943495 151.04199 
L 169.003477 149.755644 
L 172.251463 148.498738 
L 175.093451 147.120272 
L 179.559431 144.61817 
L 188.085394 139.655627 
L 190.927382 137.646386 
L 193.76937 135.337169 
L 196.611357 132.70165 
L 201.077338 128.182304 
L 206.355315 122.870731 
L 207.979308 121.489943 
L 209.603301 120.41473 
L 210.821295 119.861086 
L 212.03929 119.533008 
L 213.257285 119.403573 
L 214.881278 119.445618 
L 218.535262 119.845798 
L 223.813239 120.425488 
L 226.249228 120.390817 
L 228.279219 120.387087 
L 229.903212 120.615127 
L 231.527205 121.114697 
L 233.963195 122.180331 
L 239.241172 124.493258 
L 245.737143 127.427279 
L 248.985129 129.189921 
L 272.939025 142.89905 
L 275.781012 144.175861 
L 279.028998 145.347804 
L 287.554961 148.186543 
L 291.614943 149.065745 
L 298.516913 150.595289 
L 304.606887 151.875932 
L 307.448875 152.212212 
L 313.944846 152.607582 
L 324.5008 153.404774 
L 331.40277 154.015307 
L 337.086745 154.227232 
L 348.860694 154.449083 
L 359.416648 154.52424 
L 402.858459 154.763158 
L 454.420234 154.768218 
L 475.126144 154.768218 
L 475.126144 154.768218 
" clip-path="url(#p012ec933df)" style="fill: none; stroke: #000000; stroke-width: 2.30419; stroke-linejoin: miter"/>
   </g>
  </g>
  <g id="axes_3">
   <g id="patch_4">
    <path d="M 39.023143 218.257829 
L 495.892954 218.257829 
L 495.892954 162.409156 
L 39.023143 162.409156 
z
" style="fill: #ffffff"/>
   </g>
   <g id="matplotlib.axis_5">
    <g id="xtick_15"/>
    <g id="xtick_16"/>
    <g id="xtick_17"/>
    <g id="xtick_18"/>
    <g id="xtick_19"/>
    <g id="xtick_20"/>
    <g id="xtick_21"/>
   </g>
   <g id="matplotlib.axis_6">
    <g id="ytick_20">
     <g id="line2d_28">
      <g>
       <use xlink:href="#mb117ca6002" x="39.023143" y="215.719253" style="stroke: #000000; stroke-width: 0.7"/>
      </g>
     </g>
     <g id="text_11">
      <!-- 0.00 -->
      <g transform="translate(21.474237 218.344253) scale(0.07 -0.07)">
       <use xlink:href="#Roboto-Regular-30"/>
       <use xlink:href="#Roboto-Regular-2e" transform="translate(56.201172 0)"/>
       <use xlink:href="#Roboto-Regular-30" transform="translate(82.568359 0)"/>
       <use xlink:href="#Roboto-Regular-30" transform="translate(138.769531 0)"/>
      </g>
     </g>
    </g>
    <g id="ytick_21">
     <g id="line2d_29">
      <g>
       <use xlink:href="#mb117ca6002" x="39.023143" y="200.584079" style="stroke: #000000; stroke-width: 0.7"/>
      </g>
     </g>
     <g id="text_12">
      <!-- 0.05 -->
      <g transform="translate(21.474237 203.209079) scale(0.07 -0.07)">
       <defs>
        <path id="Roboto-Regular-35" d="M 1109 2166 
L 647 2284 
L 875 4550 
L 3209 4550 
L 3209 4016 
L 1366 4016 
L 1228 2778 
Q 1572 2975 1988 2975 
Q 2616 2975 2980 2561 
Q 3344 2147 3344 1450 
Q 3344 797 2987 367 
Q 2631 -63 1903 -63 
Q 1350 -63 947 248 
Q 544 559 481 1197 
L 1031 1197 
Q 1141 413 1903 413 
Q 2313 413 2538 691 
Q 2763 969 2763 1444 
Q 2763 1872 2527 2164 
Q 2291 2456 1853 2456 
Q 1563 2456 1413 2378 
Q 1263 2300 1109 2166 
z
" transform="scale(0.015625)"/>
       </defs>
       <use xlink:href="#Roboto-Regular-30"/>
       <use xlink:href="#Roboto-Regular-2e" transform="translate(56.201172 0)"/>
       <use xlink:href="#Roboto-Regular-30" transform="translate(82.568359 0)"/>
       <use xlink:href="#Roboto-Regular-35" transform="translate(138.769531 0)"/>
      </g>
     </g>
    </g>
    <g id="ytick_22">
     <g id="line2d_30">
      <g>
       <use xlink:href="#mb117ca6002" x="39.023143" y="185.448904" style="stroke: #000000; stroke-width: 0.7"/>
      </g>
     </g>
     <g id="text_13">
      <!-- 0.10 -->
      <g transform="translate(21.474237 188.073904) scale(0.07 -0.07)">
       <use xlink:href="#Roboto-Regular-30"/>
       <use xlink:href="#Roboto-Regular-2e" transform="translate(56.201172 0)"/>
       <use xlink:href="#Roboto-Regular-31" transform="translate(82.568359 0)"/>
       <use xlink:href="#Roboto-Regular-30" transform="translate(138.769531 0)"/>
      </g>
     </g>
    </g>
    <g id="ytick_23">
     <g id="line2d_31">
      <g>
       <use xlink:href="#mb117ca6002" x="39.023143" y="170.313729" style="stroke: #000000; stroke-width: 0.7"/>
      </g>
     </g>
     <g id="text_14">
      <!-- 0.15 -->
      <g transform="translate(21.474237 172.938729) scale(0.07 -0.07)">
       <use xlink:href="#Roboto-Regular-30"/>
       <use xlink:href="#Roboto-Regular-2e" transform="translate(56.201172 0)"/>
       <use xlink:href="#Roboto-Regular-31" transform="translate(82.568359 0)"/>
       <use xlink:href="#Roboto-Regular-35" transform="translate(138.769531 0)"/>
      </g>
     </g>
    </g>
    <g id="ytick_24">
     <g id="line2d_32">
      <g>
       <use xlink:href="#m7ffc3e494a" x="39.023143" y="208.151666" style="stroke: #000000; stroke-width: 0.7"/>
      </g>
     </g>
    </g>
    <g id="ytick_25">
     <g id="line2d_33">
      <g>
       <use xlink:href="#m7ffc3e494a" x="39.023143" y="193.016491" style="stroke: #000000; stroke-width: 0.7"/>
      </g>
     </g>
    </g>
    <g id="ytick_26">
     <g id="line2d_34">
      <g>
       <use xlink:href="#m7ffc3e494a" x="39.023143" y="177.881317" style="stroke: #000000; stroke-width: 0.7"/>
      </g>
     </g>
    </g>
    <g id="ytick_27">
     <g id="line2d_35">
      <g>
       <use xlink:href="#m7ffc3e494a" x="39.023143" y="162.746142" style="stroke: #000000; stroke-width: 0.7"/>
      </g>
     </g>
    </g>
   </g>
   <g id="FillBetweenPolyCollection_9"/>
   <g id="line2d_36">
    <path d="M 59.789953 215.719231 
L 122.313681 215.608669 
L 130.839644 215.347306 
L 140.989599 214.787843 
L 151.139555 214.046387 
L 155.605536 213.511638 
L 159.25952 212.863848 
L 162.507506 212.082497 
L 165.755492 211.086714 
L 169.003477 209.873575 
L 172.657462 208.2676 
L 177.123442 206.038061 
L 186.8674 201.057216 
L 190.927382 199.27506 
L 195.799361 197.383743 
L 218.129263 189.04404 
L 223.40724 186.664737 
L 231.121207 182.898038 
L 242.489157 177.345764 
L 246.143141 175.830206 
L 249.391127 174.744728 
L 252.639113 173.927132 
L 256.699096 173.177359 
L 263.601065 171.946214 
L 267.661048 170.97973 
L 272.533027 169.588408 
L 285.930968 165.571613 
L 288.366958 165.15248 
L 290.802947 164.958187 
L 293.238936 165.008329 
L 295.674926 165.289175 
L 298.516913 165.850711 
L 302.576896 166.916686 
L 309.072867 168.878918 
L 313.13285 170.325 
L 316.380836 171.737185 
L 319.628821 173.422264 
L 323.282806 175.583183 
L 332.620765 181.233289 
L 336.680747 183.365837 
L 342.770721 186.271487 
L 349.672691 189.625493 
L 355.356666 192.668279 
L 371.596595 201.603657 
L 375.250579 203.280155 
L 378.498565 204.538656 
L 381.746551 205.55093 
L 384.994537 206.327587 
L 388.648521 206.970579 
L 393.114501 207.518162 
L 397.98648 207.890043 
L 402.858459 208.037188 
L 408.136436 207.968663 
L 428.436348 207.437941 
L 432.49633 207.676362 
L 435.744316 208.07318 
L 438.992302 208.682454 
L 442.646286 209.609303 
L 447.518265 211.106815 
L 454.014236 213.079543 
L 457.66822 213.961653 
L 461.322204 214.62017 
L 465.382187 215.110463 
L 470.254166 215.447234 
L 475.126144 215.611667 
L 475.126144 215.611667 
" clip-path="url(#p79ee7e2a6f)" style="fill: none; stroke: #ffe07d; stroke-width: 2.30419; stroke-linejoin: miter"/>
   </g>
   <g id="FillBetweenPolyCollection_10"/>
   <g id="line2d_37">
    <path d="M 59.789953 215.719253 
L 137.335615 215.613552 
L 147.891569 215.328685 
L 157.635527 214.847022 
L 164.131499 214.320069 
L 169.409476 213.660686 
L 174.281454 212.810494 
L 178.747435 211.813675 
L 183.619414 210.491511 
L 188.491393 208.937689 
L 194.581366 206.749721 
L 202.701331 203.834324 
L 206.761313 202.630026 
L 210.415297 201.798259 
L 214.069281 201.210722 
L 220.159255 200.525672 
L 224.625235 199.902451 
L 227.873221 199.227804 
L 231.121207 198.330683 
L 234.775191 197.081162 
L 239.241172 195.298664 
L 253.045111 189.547361 
L 255.887099 188.699949 
L 258.729087 188.083348 
L 261.571074 187.702188 
L 264.81906 187.506929 
L 275.781012 187.111757 
L 278.623 186.676215 
L 281.464988 186.033912 
L 284.712974 185.080852 
L 289.990951 183.249041 
L 295.674926 181.333494 
L 299.734908 180.215011 
L 304.606887 179.137163 
L 318.816825 176.349796 
L 322.470809 175.910683 
L 326.124793 175.702423 
L 331.40277 175.667946 
L 338.710738 175.83357 
L 342.364722 176.113683 
L 345.612708 176.586256 
L 348.860694 177.299928 
L 352.514678 178.349514 
L 357.792655 180.129708 
L 365.100623 182.817802 
L 369.566604 184.684504 
L 373.626586 186.632592 
L 378.092567 189.032492 
L 387.430526 194.143093 
L 390.678512 195.617081 
L 393.5205 196.650704 
L 395.956489 197.30764 
L 398.392478 197.735743 
L 400.828468 197.935439 
L 403.264457 197.924213 
L 406.106445 197.687204 
L 409.354431 197.196192 
L 413.414413 196.3542 
L 417.068397 195.377253 
L 419.910385 194.382179 
L 422.346374 193.273538 
L 424.376365 192.116931 
L 426.406356 190.724973 
L 428.842346 188.759884 
L 432.49633 185.447057 
L 435.338318 182.995596 
L 436.962311 181.854664 
L 438.180305 181.20054 
L 439.3983 180.764041 
L 440.616295 180.580222 
L 441.834289 180.676794 
L 443.052284 181.072168 
L 444.270279 181.774018 
L 445.488273 182.778498 
L 446.706268 184.070179 
L 448.330261 186.192281 
L 449.954254 188.689276 
L 452.390243 192.895784 
L 457.66822 202.174935 
L 459.698212 205.256564 
L 461.728203 207.891483 
L 463.352196 209.653651 
L 464.976189 211.113347 
L 466.600181 212.291321 
L 468.224174 213.218288 
L 470.254166 214.078905 
L 472.284157 214.675543 
L 474.720146 215.136101 
L 475.126144 215.192213 
L 475.126144 215.192213 
" clip-path="url(#p79ee7e2a6f)" style="fill: none; stroke: #55b4dc; stroke-width: 2.30419; stroke-linejoin: miter"/>
   </g>
   <g id="FillBetweenPolyCollection_11"/>
   <g id="line2d_38">
    <path d="M 59.789953 215.719128 
L 101.607771 215.608756 
L 112.163725 215.358825 
L 119.471693 214.969834 
L 125.155668 214.445627 
L 129.621649 213.827197 
L 133.681631 213.048637 
L 137.335615 212.12264 
L 140.583601 211.081683 
L 143.831587 209.801429 
L 146.673575 208.460769 
L 149.515562 206.896326 
L 152.35755 205.096192 
L 155.199538 203.055594 
L 158.447523 200.434909 
L 161.695509 197.529244 
L 165.755492 193.56406 
L 171.439467 187.634223 
L 177.935439 180.908947 
L 181.589423 177.465487 
L 184.43141 175.086427 
L 186.8674 173.311766 
L 189.303389 171.819061 
L 191.33338 170.810893 
L 193.363371 170.029432 
L 195.393362 169.481298 
L 197.423354 169.168078 
L 199.453345 169.086232 
L 201.483336 169.227171 
L 203.513327 169.577517 
L 205.949317 170.249098 
L 208.385306 171.158765 
L 211.227294 172.462361 
L 214.881278 174.404232 
L 226.655226 180.895481 
L 229.903212 182.350548 
L 233.151198 183.557773 
L 236.399184 184.501309 
L 239.64717 185.186543 
L 242.895156 185.636301 
L 246.54914 185.905612 
L 251.01512 185.983725 
L 257.91709 185.833 
L 265.631057 185.717349 
L 270.909034 185.874285 
L 275.781012 186.257262 
L 280.652991 186.873337 
L 286.336966 187.837158 
L 296.89292 189.935831 
L 303.79489 191.169934 
L 309.072867 191.895331 
L 314.350844 192.398612 
L 320.440818 192.738324 
L 340.74073 193.63278 
L 345.20671 194.166675 
L 349.672691 194.92213 
L 354.138671 195.908711 
L 359.01065 197.224495 
L 365.506622 199.245917 
L 375.250579 202.292037 
L 379.71656 203.448094 
L 383.776542 204.270462 
L 387.430526 204.794855 
L 391.08451 205.108261 
L 395.144493 205.224229 
L 399.610473 205.116953 
L 405.700447 204.720046 
L 415.444404 204.073485 
L 419.910385 204.004992 
L 423.970367 204.152608 
L 428.030349 204.528241 
L 432.090332 205.134993 
L 436.556312 206.044598 
L 441.834289 207.371498 
L 461.728203 212.654863 
L 466.600181 213.584247 
L 471.47216 214.301901 
L 475.126144 214.71004 
L 475.126144 214.71004 
" clip-path="url(#p79ee7e2a6f)" style="fill: none; stroke: #da7da6; stroke-width: 2.30419; stroke-linejoin: miter"/>
   </g>
   <g id="FillBetweenPolyCollection_12"/>
   <g id="line2d_39">
    <path d="M 59.789953 215.719253 
L 132.057638 215.609653 
L 140.583601 215.381581 
L 149.109564 214.935814 
L 155.605536 214.386546 
L 161.695509 213.65037 
L 166.567488 212.836512 
L 170.62747 211.921372 
L 174.281454 210.873812 
L 178.341437 209.461095 
L 181.995421 207.967503 
L 185.649405 206.234175 
L 189.303389 204.231229 
L 193.363371 201.712407 
L 199.453345 197.600881 
L 203.513327 194.963388 
L 206.355315 193.381962 
L 208.791304 192.292711 
L 211.227294 191.467386 
L 214.069281 190.773124 
L 222.189246 189.012533 
L 225.437232 187.971704 
L 228.685218 186.674162 
L 231.933203 185.107581 
L 235.181189 183.27341 
L 245.737143 176.98385 
L 248.173133 175.911026 
L 250.609122 175.068141 
L 253.45111 174.344412 
L 257.105094 173.67658 
L 262.789069 172.652761 
L 266.443053 171.755581 
L 270.909034 170.418895 
L 276.593009 168.490206 
L 283.088981 166.275539 
L 285.52497 165.68124 
L 287.960959 165.330971 
L 290.396949 165.232911 
L 293.238936 165.376937 
L 296.486922 165.76948 
L 300.140906 166.425399 
L 303.79489 167.310677 
L 320.440818 171.984681 
L 323.688804 173.251158 
L 328.560783 175.456352 
L 337.492744 179.733634 
L 341.146728 181.768332 
L 345.20671 184.30197 
L 352.10868 188.648945 
L 355.762664 190.641371 
L 360.634643 192.993388 
L 372.81459 198.545706 
L 391.08451 206.268776 
L 393.926498 207.06562 
L 396.768486 207.60392 
L 399.610473 207.918945 
L 403.264457 208.096853 
L 410.978424 208.175057 
L 418.286392 208.113761 
L 437.774307 207.592394 
L 440.210296 207.776535 
L 442.646286 208.19766 
L 444.676277 208.770833 
L 447.112266 209.719642 
L 450.360252 211.280171 
L 454.420234 213.21631 
L 456.856224 214.136313 
L 459.292213 214.804074 
L 461.728203 215.236321 
L 464.57019 215.515259 
L 468.630173 215.671218 
L 475.126144 215.716416 
L 475.126144 215.716416 
" clip-path="url(#p79ee7e2a6f)" style="fill: none; stroke: #000000; stroke-width: 2.30419; stroke-linejoin: miter"/>
   </g>
  </g>
  <g id="axes_4">
   <g id="patch_5">
    <path d="M 39.023143 279.208864 
L 495.892954 279.208864 
L 495.892954 223.360191 
L 39.023143 223.360191 
z
" style="fill: #ffffff"/>
   </g>
   <g id="matplotlib.axis_7">
    <g id="xtick_22">
     <g id="line2d_40">
      <defs>
       <path id="md420ef315c" d="M 0 1.5 
L 0 -1.5 
" style="stroke: #000000; stroke-width: 0.7"/>
      </defs>
      <g>
       <use xlink:href="#md420ef315c" x="53.935037" y="279.208864" style="stroke: #000000; stroke-width: 0.7"/>
      </g>
     </g>
     <g id="text_15">
      <!-- 1e-15 -->
      <g transform="translate(45.210193 288.358864) scale(0.07 -0.07)">
       <defs>
        <path id="Roboto-Regular-65" d="M 3116 591 
Q 2950 341 2647 139 
Q 2344 -63 1844 -63 
Q 1138 -63 714 396 
Q 291 856 291 1572 
L 291 1703 
Q 291 2256 502 2645 
Q 713 3034 1050 3239 
Q 1388 3444 1769 3444 
Q 2494 3444 2826 2970 
Q 3159 2497 3159 1788 
L 3159 1528 
L 872 1528 
Q 884 1063 1148 736 
Q 1413 409 1875 409 
Q 2181 409 2393 534 
Q 2606 659 2766 869 
L 3116 591 
z
M 1769 2969 
Q 1425 2969 1187 2719 
Q 950 2469 891 2000 
L 2581 2000 
L 2581 2044 
Q 2559 2381 2386 2675 
Q 2213 2969 1769 2969 
z
" transform="scale(0.015625)"/>
        <path id="Roboto-Regular-2d" d="M 1644 2172 
L 1644 1697 
L 119 1697 
L 119 2172 
L 1644 2172 
z
" transform="scale(0.015625)"/>
       </defs>
       <use xlink:href="#Roboto-Regular-31"/>
       <use xlink:href="#Roboto-Regular-65" transform="translate(56.201172 0)"/>
       <use xlink:href="#Roboto-Regular-2d" transform="translate(109.228516 0)"/>
       <use xlink:href="#Roboto-Regular-31" transform="translate(136.865234 0)"/>
       <use xlink:href="#Roboto-Regular-35" transform="translate(193.066406 0)"/>
      </g>
     </g>
    </g>
    <g id="xtick_23">
     <g id="line2d_41">
      <g>
       <use xlink:href="#md420ef315c" x="127.105701" y="279.208864" style="stroke: #000000; stroke-width: 0.7"/>
      </g>
     </g>
     <g id="text_16">
      <!-- 1e-12 -->
      <g transform="translate(118.380857 288.358864) scale(0.07 -0.07)">
       <use xlink:href="#Roboto-Regular-31"/>
       <use xlink:href="#Roboto-Regular-65" transform="translate(56.201172 0)"/>
       <use xlink:href="#Roboto-Regular-2d" transform="translate(109.228516 0)"/>
       <use xlink:href="#Roboto-Regular-31" transform="translate(136.865234 0)"/>
       <use xlink:href="#Roboto-Regular-32" transform="translate(193.066406 0)"/>
      </g>
     </g>
    </g>
    <g id="xtick_24">
     <g id="line2d_42">
      <g>
       <use xlink:href="#md420ef315c" x="200.276366" y="279.208864" style="stroke: #000000; stroke-width: 0.7"/>
      </g>
     </g>
     <g id="text_17">
      <!-- 1e-9 -->
      <g transform="translate(193.518631 288.358864) scale(0.07 -0.07)">
       <defs>
        <path id="Roboto-Regular-39" d="M 3175 2563 
Q 3175 2119 3098 1667 
Q 3022 1216 2801 836 
Q 2581 456 2151 225 
Q 1722 -6 953 -6 
L 953 484 
Q 1644 484 1980 700 
Q 2316 916 2448 1264 
Q 2581 1613 2597 2006 
Q 2416 1791 2162 1656 
Q 1909 1522 1613 1522 
Q 1163 1522 875 1747 
Q 588 1972 450 2320 
Q 313 2669 313 3041 
Q 313 3691 670 4152 
Q 1028 4613 1725 4613 
Q 2244 4613 2564 4344 
Q 2884 4075 3029 3653 
Q 3175 3231 3175 2772 
L 3175 2563 
z
M 881 3072 
Q 881 2666 1086 2334 
Q 1291 2003 1706 2003 
Q 2003 2003 2245 2181 
Q 2488 2359 2600 2622 
L 2600 2850 
Q 2600 3472 2336 3803 
Q 2072 4134 1725 4134 
Q 1322 4134 1101 3829 
Q 881 3525 881 3072 
z
" transform="scale(0.015625)"/>
       </defs>
       <use xlink:href="#Roboto-Regular-31"/>
       <use xlink:href="#Roboto-Regular-65" transform="translate(56.201172 0)"/>
       <use xlink:href="#Roboto-Regular-2d" transform="translate(109.228516 0)"/>
       <use xlink:href="#Roboto-Regular-39" transform="translate(136.865234 0)"/>
      </g>
     </g>
    </g>
    <g id="xtick_25">
     <g id="line2d_43">
      <g>
       <use xlink:href="#md420ef315c" x="273.44703" y="279.208864" style="stroke: #000000; stroke-width: 0.7"/>
      </g>
     </g>
     <g id="text_18">
      <!-- 1e-6 -->
      <g transform="translate(266.689296 288.358864) scale(0.07 -0.07)">
       <use xlink:href="#Roboto-Regular-31"/>
       <use xlink:href="#Roboto-Regular-65" transform="translate(56.201172 0)"/>
       <use xlink:href="#Roboto-Regular-2d" transform="translate(109.228516 0)"/>
       <use xlink:href="#Roboto-Regular-36" transform="translate(136.865234 0)"/>
      </g>
     </g>
    </g>
    <g id="xtick_26">
     <g id="line2d_44">
      <g>
       <use xlink:href="#md420ef315c" x="346.617695" y="279.208864" style="stroke: #000000; stroke-width: 0.7"/>
      </g>
     </g>
     <g id="text_19">
      <!-- 1e-3 -->
      <g transform="translate(339.85996 288.358864) scale(0.07 -0.07)">
       <use xlink:href="#Roboto-Regular-31"/>
       <use xlink:href="#Roboto-Regular-65" transform="translate(56.201172 0)"/>
       <use xlink:href="#Roboto-Regular-2d" transform="translate(109.228516 0)"/>
       <use xlink:href="#Roboto-Regular-33" transform="translate(136.865234 0)"/>
      </g>
     </g>
    </g>
    <g id="xtick_27">
     <g id="line2d_45">
      <g>
       <use xlink:href="#md420ef315c" x="419.788359" y="279.208864" style="stroke: #000000; stroke-width: 0.7"/>
      </g>
     </g>
     <g id="text_20">
      <!-- 1 -->
      <g transform="translate(417.82125 288.358864) scale(0.07 -0.07)">
       <use xlink:href="#Roboto-Regular-31"/>
      </g>
     </g>
    </g>
    <g id="xtick_28">
     <g id="line2d_46">
      <g>
       <use xlink:href="#md420ef315c" x="492.959024" y="279.208864" style="stroke: #000000; stroke-width: 0.7"/>
      </g>
     </g>
     <g id="text_21">
      <!-- 1e3 -->
      <g transform="translate(487.168711 288.358864) scale(0.07 -0.07)">
       <use xlink:href="#Roboto-Regular-31"/>
       <use xlink:href="#Roboto-Regular-65" transform="translate(56.201172 0)"/>
       <use xlink:href="#Roboto-Regular-33" transform="translate(109.228516 0)"/>
      </g>
     </g>
    </g>
   </g>
   <g id="matplotlib.axis_8">
    <g id="ytick_28">
     <g id="line2d_47">
      <g>
       <use xlink:href="#mb117ca6002" x="39.023143" y="276.670288" style="stroke: #000000; stroke-width: 0.7"/>
      </g>
     </g>
     <g id="text_22">
      <!-- 0.0 -->
      <g transform="translate(25.408456 279.295288) scale(0.07 -0.07)">
       <use xlink:href="#Roboto-Regular-30"/>
       <use xlink:href="#Roboto-Regular-2e" transform="translate(56.201172 0)"/>
       <use xlink:href="#Roboto-Regular-30" transform="translate(82.568359 0)"/>
      </g>
     </g>
    </g>
    <g id="ytick_29">
     <g id="line2d_48">
      <g>
       <use xlink:href="#mb117ca6002" x="39.023143" y="264.987197" style="stroke: #000000; stroke-width: 0.7"/>
      </g>
     </g>
     <g id="text_23">
      <!-- 0.1 -->
      <g transform="translate(25.408456 267.612197) scale(0.07 -0.07)">
       <use xlink:href="#Roboto-Regular-30"/>
       <use xlink:href="#Roboto-Regular-2e" transform="translate(56.201172 0)"/>
       <use xlink:href="#Roboto-Regular-31" transform="translate(82.568359 0)"/>
      </g>
     </g>
    </g>
    <g id="ytick_30">
     <g id="line2d_49">
      <g>
       <use xlink:href="#mb117ca6002" x="39.023143" y="253.304105" style="stroke: #000000; stroke-width: 0.7"/>
      </g>
     </g>
     <g id="text_24">
      <!-- 0.2 -->
      <g transform="translate(25.408456 255.929105) scale(0.07 -0.07)">
       <use xlink:href="#Roboto-Regular-30"/>
       <use xlink:href="#Roboto-Regular-2e" transform="translate(56.201172 0)"/>
       <use xlink:href="#Roboto-Regular-32" transform="translate(82.568359 0)"/>
      </g>
     </g>
    </g>
    <g id="ytick_31">
     <g id="line2d_50">
      <g>
       <use xlink:href="#mb117ca6002" x="39.023143" y="241.621014" style="stroke: #000000; stroke-width: 0.7"/>
      </g>
     </g>
     <g id="text_25">
      <!-- 0.3 -->
      <g transform="translate(25.408456 244.246014) scale(0.07 -0.07)">
       <use xlink:href="#Roboto-Regular-30"/>
       <use xlink:href="#Roboto-Regular-2e" transform="translate(56.201172 0)"/>
       <use xlink:href="#Roboto-Regular-33" transform="translate(82.568359 0)"/>
      </g>
     </g>
    </g>
    <g id="ytick_32">
     <g id="line2d_51">
      <g>
       <use xlink:href="#mb117ca6002" x="39.023143" y="229.937922" style="stroke: #000000; stroke-width: 0.7"/>
      </g>
     </g>
     <g id="text_26">
      <!-- 0.4 -->
      <g transform="translate(25.408456 232.562922) scale(0.07 -0.07)">
       <use xlink:href="#Roboto-Regular-30"/>
       <use xlink:href="#Roboto-Regular-2e" transform="translate(56.201172 0)"/>
       <use xlink:href="#Roboto-Regular-34" transform="translate(82.568359 0)"/>
      </g>
     </g>
    </g>
    <g id="ytick_33">
     <g id="line2d_52">
      <g>
       <use xlink:href="#m7ffc3e494a" x="39.023143" y="270.828742" style="stroke: #000000; stroke-width: 0.7"/>
      </g>
     </g>
    </g>
    <g id="ytick_34">
     <g id="line2d_53">
      <g>
       <use xlink:href="#m7ffc3e494a" x="39.023143" y="259.145651" style="stroke: #000000; stroke-width: 0.7"/>
      </g>
     </g>
    </g>
    <g id="ytick_35">
     <g id="line2d_54">
      <g>
       <use xlink:href="#m7ffc3e494a" x="39.023143" y="247.46256" style="stroke: #000000; stroke-width: 0.7"/>
      </g>
     </g>
    </g>
    <g id="ytick_36">
     <g id="line2d_55">
      <g>
       <use xlink:href="#m7ffc3e494a" x="39.023143" y="235.779468" style="stroke: #000000; stroke-width: 0.7"/>
      </g>
     </g>
    </g>
    <g id="ytick_37">
     <g id="line2d_56">
      <g>
       <use xlink:href="#m7ffc3e494a" x="39.023143" y="224.096377" style="stroke: #000000; stroke-width: 0.7"/>
      </g>
     </g>
    </g>
   </g>
   <g id="FillBetweenPolyCollection_13"/>
   <g id="line2d_57">
    <path d="M 59.789953 276.670288 
L 154.387541 276.560273 
L 171.845465 276.299015 
L 181.995421 275.940053 
L 203.107329 275.05537 
L 215.287276 274.62815 
L 225.84323 273.973152 
L 243.707152 272.894895 
L 255.887099 272.38343 
L 265.225058 271.912888 
L 274.157019 271.205175 
L 294.862929 269.332359 
L 302.170898 268.684254 
L 309.072867 268.333014 
L 316.380836 267.914259 
L 321.658813 267.363533 
L 329.778777 266.230788 
L 337.086745 265.305072 
L 343.582717 264.706543 
L 350.078689 264.325301 
L 355.356666 264.23645 
L 360.228645 264.390901 
L 365.506622 264.796295 
L 375.656577 265.634775 
L 379.310562 265.685851 
L 382.558547 265.530443 
L 385.806533 265.159312 
L 389.054519 264.563403 
L 392.302505 263.74773 
L 395.956489 262.586346 
L 399.610473 261.193897 
L 403.670455 259.409219 
L 408.136436 257.203012 
L 421.534378 250.361987 
L 423.970367 249.467689 
L 426.406356 248.826828 
L 428.436348 248.529486 
L 430.466339 248.480214 
L 432.090332 248.636445 
L 433.714325 248.976929 
L 435.338318 249.507218 
L 437.368309 250.438315 
L 439.3983 251.659003 
L 441.428291 253.14822 
L 443.86428 255.241469 
L 446.706268 258.002382 
L 456.856224 268.222388 
L 459.292213 270.222936 
L 461.728203 271.917052 
L 463.758194 273.083747 
L 465.788185 274.033632 
L 468.224174 274.911281 
L 470.660164 275.542881 
L 473.502151 276.03355 
L 475.126144 276.222699 
L 475.126144 276.222699 
" clip-path="url(#peba9151d2e)" style="fill: none; stroke: #ffe07d; stroke-width: 2.30419; stroke-linejoin: miter"/>
   </g>
   <g id="FillBetweenPolyCollection_14"/>
   <g id="line2d_58">
    <path d="M 59.789953 276.670288 
L 158.041525 276.56025 
L 172.251463 276.402306 
L 180.777426 276.072744 
L 190.115385 275.479172 
L 203.107329 274.647786 
L 210.415297 274.445829 
L 235.993186 273.994857 
L 250.203124 273.372146 
L 272.939025 272.170465 
L 285.52497 272.028375 
L 294.456931 271.809905 
L 316.380836 271.016397 
L 324.906798 270.84386 
L 331.808768 270.444322 
L 339.928733 270.004743 
L 344.800712 269.985916 
L 349.672691 270.192839 
L 362.664634 270.906462 
L 367.130615 270.847344 
L 373.626586 270.503277 
L 380.934555 270.163865 
L 389.054519 270.07363 
L 394.332496 269.903175 
L 398.392478 269.549202 
L 402.452461 268.956585 
L 406.512443 268.118882 
L 410.166427 267.130312 
L 413.008415 266.157755 
L 415.444404 265.123953 
L 417.880394 263.833886 
L 419.910385 262.499332 
L 421.940376 260.86546 
L 423.564369 259.301411 
L 425.188362 257.477809 
L 426.812355 255.373219 
L 428.842346 252.334443 
L 430.872337 248.86351 
L 433.308326 244.240157 
L 438.992302 233.154214 
L 440.616295 230.495959 
L 441.834289 228.819939 
L 443.052284 227.480584 
L 444.270279 226.527636 
L 445.082275 226.12687 
L 445.894272 225.924044 
L 446.706268 225.924905 
L 447.518265 226.132264 
L 448.330261 226.545919 
L 449.142257 227.162644 
L 450.360252 228.454216 
L 451.578247 230.155752 
L 452.796242 232.222536 
L 454.420234 235.450947 
L 456.450226 240.03612 
L 464.164192 258.13248 
L 466.194183 262.062382 
L 467.818176 264.801807 
L 469.442169 267.171291 
L 471.066162 269.180607 
L 472.690155 270.852722 
L 474.314148 272.219251 
L 475.126144 272.799183 
L 475.126144 272.799183 
" clip-path="url(#peba9151d2e)" style="fill: none; stroke: #55b4dc; stroke-width: 2.30419; stroke-linejoin: miter"/>
   </g>
   <g id="FillBetweenPolyCollection_15"/>
   <g id="line2d_59">
    <path d="M 59.789953 276.670287 
L 127.18566 276.561265 
L 142.613592 276.293288 
L 155.199538 275.851963 
L 166.16149 275.249227 
L 176.717444 274.446239 
L 193.363371 272.897266 
L 202.701331 272.164245 
L 210.009299 271.814227 
L 217.317267 271.688793 
L 226.655226 271.769947 
L 268.067046 272.390254 
L 276.999007 272.264159 
L 284.306975 271.94935 
L 291.614943 271.416427 
L 300.546905 270.523798 
L 315.162841 269.031177 
L 321.658813 268.611435 
L 328.154784 268.413314 
L 336.274749 268.403659 
L 351.296684 268.419656 
L 358.604652 268.179404 
L 365.506622 267.738877 
L 372.002593 267.112366 
L 378.092567 266.302666 
L 383.370544 265.389835 
L 388.648521 264.25152 
L 393.926498 262.877863 
L 399.610473 261.162109 
L 409.354431 257.922828 
L 415.444404 256.022355 
L 419.504387 254.970984 
L 423.158371 254.255639 
L 426.406356 253.852879 
L 429.248344 253.709698 
L 432.090332 253.781246 
L 434.932319 254.079591 
L 437.774307 254.609358 
L 440.616295 255.366903 
L 443.458282 256.339895 
L 446.706268 257.688494 
L 450.360252 259.454145 
L 455.232231 262.084185 
L 466.194183 268.122684 
L 470.254166 270.071248 
L 473.90815 271.594764 
L 475.126144 272.049543 
L 475.126144 272.049543 
" clip-path="url(#peba9151d2e)" style="fill: none; stroke: #da7da6; stroke-width: 2.30419; stroke-linejoin: miter"/>
   </g>
   <g id="FillBetweenPolyCollection_16"/>
   <g id="line2d_60">
    <path d="M 59.789953 276.670288 
L 150.733557 276.561587 
L 164.131499 276.306614 
L 177.123442 275.859653 
L 184.837408 275.386531 
L 194.581366 274.520013 
L 202.701331 273.881967 
L 208.791304 273.621203 
L 215.287276 273.576089 
L 231.527205 273.604615 
L 240.865164 273.295248 
L 263.601065 272.236205 
L 276.593009 271.34346 
L 294.862929 270.011386 
L 326.93679 267.182027 
L 337.898742 266.180593 
L 348.048698 265.312869 
L 354.950668 264.943181 
L 368.348609 264.537381 
L 375.250579 264.454013 
L 380.528556 264.626229 
L 393.114501 265.222662 
L 396.362487 265.034039 
L 399.204475 264.653224 
L 402.046463 264.068024 
L 405.294448 263.177315 
L 408.948433 261.946961 
L 413.008415 260.332189 
L 416.662399 258.619018 
L 419.910385 256.834687 
L 423.158371 254.781781 
L 426.812355 252.194767 
L 433.714325 247.196042 
L 435.744316 246.026288 
L 437.368309 245.332517 
L 438.586303 245.001015 
L 439.804298 244.865132 
L 441.022293 244.952482 
L 442.240288 245.285754 
L 443.458282 245.880542 
L 444.676277 246.743453 
L 445.894272 247.870748 
L 447.518265 249.758032 
L 449.142257 252.023544 
L 451.172249 255.243413 
L 457.66822 265.928414 
L 459.698212 268.675444 
L 461.322204 270.532086 
L 462.946197 272.07396 
L 464.57019 273.313707 
L 466.194183 274.279722 
L 467.818176 275.009778 
L 469.848167 275.653582 
L 471.878158 276.071435 
L 474.720146 276.402724 
L 475.126144 276.433267 
L 475.126144 276.433267 
" clip-path="url(#peba9151d2e)" style="fill: none; stroke: #000000; stroke-width: 2.30419; stroke-linejoin: miter"/>
   </g>
  </g>
  <g id="patch_6">
   <path d="M 39.023143 96.355759 
L 495.892954 96.355759 
L 495.892954 40.507087 
L 39.023143 40.507087 
L 39.023143 96.355759 
z
" style="fill: none; stroke: #000000; stroke-width: 0.7; stroke-linejoin: miter"/>
  </g>
  <g id="patch_7">
   <path d="M 39.023143 157.306794 
L 495.892954 157.306794 
L 495.892954 101.458122 
L 39.023143 101.458122 
L 39.023143 157.306794 
z
" style="fill: none; stroke: #000000; stroke-width: 0.7; stroke-linejoin: miter"/>
  </g>
  <g id="patch_8">
   <path d="M 39.023143 218.257829 
L 495.892954 218.257829 
L 495.892954 162.409156 
L 39.023143 162.409156 
L 39.023143 218.257829 
z
" style="fill: none; stroke: #000000; stroke-width: 0.7; stroke-linejoin: miter"/>
  </g>
  <g id="patch_9">
   <path d="M 39.023143 279.208864 
L 495.892954 279.208864 
L 495.892954 223.360191 
L 39.023143 223.360191 
L 39.023143 279.208864 
z
" style="fill: none; stroke: #000000; stroke-width: 0.7; stroke-linejoin: miter"/>
  </g>
  <g id="text_27">
   <!-- Rate [1/s] -->
   <g transform="translate(252.453986 301.715133) scale(0.07 -0.07)">
    <defs>
     <path id="Roboto-Regular-52" d="M 3188 0 
L 2200 1844 
L 1131 1844 
L 1131 0 
L 528 0 
L 528 4550 
L 2034 4550 
Q 2800 4550 3214 4200 
Q 3628 3850 3628 3184 
Q 3628 2759 3398 2442 
Q 3169 2125 2763 1969 
L 3831 38 
L 3831 0 
L 3188 0 
z
M 1131 4056 
L 1131 2334 
L 2053 2334 
Q 2538 2334 2783 2582 
Q 3028 2831 3028 3184 
Q 3028 3578 2792 3817 
Q 2556 4056 2034 4056 
L 1131 4056 
z
" transform="scale(0.015625)"/>
     <path id="Roboto-Regular-61" d="M 2528 0 
Q 2472 122 2447 356 
Q 2284 184 2040 60 
Q 1797 -63 1484 -63 
Q 966 -63 653 228 
Q 341 519 341 941 
Q 341 1484 753 1767 
Q 1166 2050 1863 2050 
L 2434 2050 
L 2434 2319 
Q 2434 2619 2254 2798 
Q 2075 2978 1722 2978 
Q 1394 2978 1192 2817 
Q 991 2656 991 2444 
L 413 2444 
Q 413 2806 778 3125 
Q 1144 3444 1756 3444 
Q 2306 3444 2659 3162 
Q 3013 2881 3013 2313 
L 3013 794 
Q 3013 325 3131 50 
L 3131 0 
L 2528 0 
z
M 1569 444 
Q 1881 444 2111 600 
Q 2341 756 2434 947 
L 2434 1644 
L 1897 1644 
Q 922 1625 922 1019 
Q 922 778 1084 611 
Q 1247 444 1569 444 
z
" transform="scale(0.015625)"/>
     <path id="Roboto-Regular-74" d="M 1872 0 
Q 1675 -63 1425 -63 
Q 1103 -63 875 134 
Q 647 331 647 841 
L 647 2938 
L 28 2938 
L 28 3381 
L 647 3381 
L 647 4203 
L 1225 4203 
L 1225 3381 
L 1856 3381 
L 1856 2938 
L 1225 2938 
L 1225 838 
Q 1225 578 1337 506 
Q 1450 434 1597 434 
Q 1706 434 1869 472 
L 1872 0 
z
" transform="scale(0.015625)"/>
     <path id="Roboto-Regular-20" transform="scale(0.015625)"/>
     <path id="Roboto-Regular-5b" d="M 1634 5200 
L 1634 4725 
L 1038 4725 
L 1038 -500 
L 1634 -500 
L 1634 -975 
L 459 -975 
L 459 5200 
L 1634 5200 
z
" transform="scale(0.015625)"/>
     <path id="Roboto-Regular-2f" d="M 2453 4550 
L 556 -391 
L 59 -391 
L 1959 4550 
L 2453 4550 
z
" transform="scale(0.015625)"/>
     <path id="Roboto-Regular-73" d="M 2409 897 
Q 2409 1081 2273 1229 
Q 2138 1378 1647 1478 
Q 1081 1594 747 1814 
Q 413 2034 413 2456 
Q 413 2856 755 3150 
Q 1097 3444 1666 3444 
Q 2272 3444 2612 3134 
Q 2953 2825 2953 2388 
L 2375 2388 
Q 2375 2597 2190 2783 
Q 2006 2969 1666 2969 
Q 1306 2969 1150 2812 
Q 994 2656 994 2472 
Q 994 2288 1139 2173 
Q 1284 2059 1756 1953 
Q 2378 1813 2683 1584 
Q 2988 1356 2988 941 
Q 2988 494 2630 215 
Q 2272 -63 1681 -63 
Q 1009 -63 653 281 
Q 297 625 297 1044 
L 878 1044 
Q 897 684 1155 548 
Q 1413 413 1681 413 
Q 2034 413 2221 550 
Q 2409 688 2409 897 
z
" transform="scale(0.015625)"/>
     <path id="Roboto-Regular-5d" d="M 31 4725 
L 31 5200 
L 1213 5200 
L 1213 -975 
L 31 -975 
L 31 -500 
L 631 -500 
L 631 4725 
L 31 4725 
z
" transform="scale(0.015625)"/>
    </defs>
    <use xlink:href="#Roboto-Regular-52"/>
    <use xlink:href="#Roboto-Regular-61" transform="translate(61.621094 0)"/>
    <use xlink:href="#Roboto-Regular-74" transform="translate(116.015625 0)"/>
    <use xlink:href="#Roboto-Regular-65" transform="translate(148.730469 0)"/>
    <use xlink:href="#Roboto-Regular-20" transform="translate(201.757812 0)"/>
    <use xlink:href="#Roboto-Regular-5b" transform="translate(226.5625 0)"/>
    <use xlink:href="#Roboto-Regular-31" transform="translate(253.076172 0)"/>
    <use xlink:href="#Roboto-Regular-2f" transform="translate(309.277344 0)"/>
    <use xlink:href="#Roboto-Regular-73" transform="translate(350.537109 0)"/>
    <use xlink:href="#Roboto-Regular-5d" transform="translate(402.148438 0)"/>
   </g>
  </g>
  <g id="text_28">
   <!-- Density -->
   <g transform="translate(12.377813 171.40196) rotate(-90) scale(0.07 -0.07)">
    <defs>
     <path id="Roboto-Regular-44" d="M 528 0 
L 528 4550 
L 1816 4550 
Q 2713 4550 3267 3973 
Q 3822 3397 3822 2409 
L 3822 2138 
Q 3822 1150 3264 575 
Q 2706 0 1759 0 
L 528 0 
z
M 1131 4056 
L 1131 491 
L 1759 491 
Q 2488 491 2856 941 
Q 3225 1391 3225 2138 
L 3225 2416 
Q 3225 3200 2856 3628 
Q 2488 4056 1816 4056 
L 1131 4056 
z
" transform="scale(0.015625)"/>
     <path id="Roboto-Regular-6e" d="M 1844 2956 
Q 1566 2956 1353 2806 
Q 1141 2656 1019 2416 
L 1019 0 
L 441 0 
L 441 3381 
L 988 3381 
L 1006 2959 
Q 1391 3444 2016 3444 
Q 2513 3444 2805 3166 
Q 3097 2888 3100 2231 
L 3100 0 
L 2519 0 
L 2519 2222 
Q 2519 2619 2345 2787 
Q 2172 2956 1844 2956 
z
" transform="scale(0.015625)"/>
     <path id="Roboto-Regular-69" d="M 444 4278 
Q 444 4419 530 4516 
Q 616 4613 784 4613 
Q 950 4613 1039 4516 
Q 1128 4419 1128 4278 
Q 1128 4144 1039 4048 
Q 950 3953 784 3953 
Q 616 3953 530 4048 
Q 444 4144 444 4278 
z
M 1069 3381 
L 1069 0 
L 488 0 
L 488 3381 
L 1069 3381 
z
" transform="scale(0.015625)"/>
     <path id="Roboto-Regular-79" d="M 1594 -522 
Q 1294 -1316 688 -1363 
L 591 -1366 
Q 406 -1366 266 -1316 
L 263 -847 
L 419 -859 
Q 713 -859 878 -739 
Q 1044 -619 1150 -306 
L 1275 38 
L 69 3381 
L 700 3381 
L 1547 850 
L 2331 3381 
L 2950 3381 
L 1594 -522 
z
" transform="scale(0.015625)"/>
    </defs>
    <use xlink:href="#Roboto-Regular-44"/>
    <use xlink:href="#Roboto-Regular-65" transform="translate(65.625 0)"/>
    <use xlink:href="#Roboto-Regular-6e" transform="translate(118.652344 0)"/>
    <use xlink:href="#Roboto-Regular-73" transform="translate(173.876953 0)"/>
    <use xlink:href="#Roboto-Regular-69" transform="translate(225.488281 0)"/>
    <use xlink:href="#Roboto-Regular-74" transform="translate(249.804688 0)"/>
    <use xlink:href="#Roboto-Regular-79" transform="translate(282.519531 0)"/>
   </g>
  </g>
  <g id="patch_10">
   <path d="M 495.892954 96.355759 
L 507.231496 96.355759 
L 507.231496 40.507087 
L 495.892954 40.507087 
L 495.892954 96.355759 
z
" style="fill: none"/>
  </g>
  <g id="text_29">
   <!-- 0.0 nN -->
   <g transform="translate(498.937225 58.091657) rotate(-270) scale(0.07 -0.07)">
    <defs>
     <path id="Roboto-Bold-30" d="M 3372 1884 
Q 3372 856 2950 396 
Q 2528 -63 1840 -63 
Q 1153 -63 726 396 
Q 300 856 300 1884 
L 300 2675 
Q 300 3700 723 4156 
Q 1147 4613 1834 4613 
Q 2519 4613 2944 4159 
Q 3369 3706 3372 2691 
L 3372 1884 
z
M 2469 2800 
Q 2469 3406 2303 3645 
Q 2138 3884 1834 3884 
Q 1538 3884 1372 3650 
Q 1206 3416 1203 2825 
L 1203 1763 
Q 1203 1153 1370 909 
Q 1538 666 1841 666 
Q 2138 666 2302 905 
Q 2466 1144 2469 1738 
L 2469 2800 
z
" transform="scale(0.015625)"/>
     <path id="Roboto-Bold-2e" d="M 394 447 
Q 394 653 533 792 
Q 672 931 906 931 
Q 1141 931 1278 792 
Q 1416 653 1416 447 
Q 1416 244 1278 105 
Q 1141 -34 906 -34 
Q 672 -34 533 105 
Q 394 244 394 447 
z
" transform="scale(0.015625)"/>
     <path id="Roboto-Bold-20" transform="scale(0.015625)"/>
     <path id="Roboto-Bold-6e" d="M 1806 2713 
Q 1422 2713 1234 2388 
L 1234 0 
L 331 0 
L 331 3381 
L 1178 3381 
L 1209 2994 
Q 1572 3444 2181 3444 
Q 2659 3444 2953 3159 
Q 3247 2875 3250 2169 
L 3250 0 
L 2344 0 
L 2344 2156 
Q 2344 2481 2205 2597 
Q 2066 2713 1806 2713 
z
" transform="scale(0.015625)"/>
     <path id="Roboto-Bold-4e" d="M 4109 4550 
L 4109 0 
L 3172 0 
L 1347 2997 
L 1347 0 
L 406 0 
L 406 4550 
L 1347 4550 
L 3172 1550 
L 3172 4550 
L 4109 4550 
z
" transform="scale(0.015625)"/>
    </defs>
    <use xlink:href="#Roboto-Bold-30"/>
    <use xlink:href="#Roboto-Bold-2e" transform="translate(57.373047 0)"/>
    <use xlink:href="#Roboto-Bold-30" transform="translate(86.474609 0)"/>
    <use xlink:href="#Roboto-Bold-20" transform="translate(143.847656 0)"/>
    <use xlink:href="#Roboto-Bold-6e" transform="translate(168.75 0)"/>
    <use xlink:href="#Roboto-Bold-4e" transform="translate(224.755859 0)"/>
   </g>
  </g>
  <g id="patch_11">
   <path d="M 495.892954 157.306794 
L 507.231496 157.306794 
L 507.231496 101.458122 
L 495.892954 101.458122 
L 495.892954 157.306794 
z
" style="fill: none"/>
  </g>
  <g id="text_30">
   <!-- 0.3 nN -->
   <g transform="translate(498.937225 119.042692) rotate(-270) scale(0.07 -0.07)">
    <defs>
     <path id="Roboto-Bold-33" d="M 1231 1969 
L 1231 2678 
L 1713 2678 
Q 2053 2678 2220 2848 
Q 2388 3019 2388 3306 
Q 2388 3559 2236 3723 
Q 2084 3888 1772 3888 
Q 1525 3888 1342 3750 
Q 1159 3613 1159 3372 
L 256 3372 
Q 256 3934 690 4275 
Q 1125 4616 1747 4616 
Q 2438 4616 2864 4286 
Q 3291 3956 3291 3319 
Q 3291 3025 3109 2758 
Q 2928 2491 2597 2338 
Q 2978 2203 3168 1926 
Q 3359 1650 3359 1278 
Q 3359 638 2898 287 
Q 2438 -63 1747 -63 
Q 1363 -63 1008 78 
Q 653 219 426 508 
Q 200 797 200 1247 
L 1106 1247 
Q 1106 994 1295 830 
Q 1484 666 1772 666 
Q 2094 666 2275 837 
Q 2456 1009 2456 1291 
Q 2456 1969 1706 1969 
L 1231 1969 
z
" transform="scale(0.015625)"/>
    </defs>
    <use xlink:href="#Roboto-Bold-30"/>
    <use xlink:href="#Roboto-Bold-2e" transform="translate(57.373047 0)"/>
    <use xlink:href="#Roboto-Bold-33" transform="translate(86.474609 0)"/>
    <use xlink:href="#Roboto-Bold-20" transform="translate(143.847656 0)"/>
    <use xlink:href="#Roboto-Bold-6e" transform="translate(168.75 0)"/>
    <use xlink:href="#Roboto-Bold-4e" transform="translate(224.755859 0)"/>
   </g>
  </g>
  <g id="patch_12">
   <path d="M 495.892954 218.257829 
L 507.231496 218.257829 
L 507.231496 162.409156 
L 495.892954 162.409156 
L 495.892954 218.257829 
z
" style="fill: none"/>
  </g>
  <g id="text_31">
   <!-- 0.6 nN -->
   <g transform="translate(498.937225 179.993727) rotate(-270) scale(0.07 -0.07)">
    <defs>
     <path id="Roboto-Bold-36" d="M 3450 1500 
Q 3450 838 3033 387 
Q 2616 -63 1916 -63 
Q 1188 -63 752 443 
Q 316 950 316 1750 
L 316 2097 
Q 316 3200 925 3898 
Q 1534 4597 2634 4597 
L 2763 4597 
L 2763 3853 
L 2672 3853 
Q 2050 3844 1688 3538 
Q 1313 3219 1238 2675 
Q 1603 3047 2156 3047 
Q 2800 3047 3125 2589 
Q 3450 2131 3450 1500 
z
M 1219 1631 
Q 1219 1150 1408 909 
Q 1597 669 1900 669 
Q 2194 669 2370 901 
Q 2547 1134 2547 1491 
Q 2547 1853 2370 2087 
Q 2194 2322 1881 2322 
Q 1641 2322 1469 2198 
Q 1297 2075 1219 1903 
L 1219 1631 
z
" transform="scale(0.015625)"/>
    </defs>
    <use xlink:href="#Roboto-Bold-30"/>
    <use xlink:href="#Roboto-Bold-2e" transform="translate(57.373047 0)"/>
    <use xlink:href="#Roboto-Bold-36" transform="translate(86.474609 0)"/>
    <use xlink:href="#Roboto-Bold-20" transform="translate(143.847656 0)"/>
    <use xlink:href="#Roboto-Bold-6e" transform="translate(168.75 0)"/>
    <use xlink:href="#Roboto-Bold-4e" transform="translate(224.755859 0)"/>
   </g>
  </g>
  <g id="patch_13">
   <path d="M 495.892954 279.208864 
L 507.231496 279.208864 
L 507.231496 223.360191 
L 495.892954 223.360191 
L 495.892954 279.208864 
z
" style="fill: none"/>
  </g>
  <g id="text_32">
   <!-- 1.0 nN -->
   <g transform="translate(498.937225 240.944762) rotate(-270) scale(0.07 -0.07)">
    <defs>
     <path id="Roboto-Bold-31" d="M 2503 4556 
L 2503 0 
L 1600 0 
L 1600 3484 
L 525 3150 
L 525 3881 
L 2406 4556 
L 2503 4556 
z
" transform="scale(0.015625)"/>
    </defs>
    <use xlink:href="#Roboto-Bold-31"/>
    <use xlink:href="#Roboto-Bold-2e" transform="translate(57.373047 0)"/>
    <use xlink:href="#Roboto-Bold-30" transform="translate(86.474609 0)"/>
    <use xlink:href="#Roboto-Bold-20" transform="translate(143.847656 0)"/>
    <use xlink:href="#Roboto-Bold-6e" transform="translate(168.75 0)"/>
    <use xlink:href="#Roboto-Bold-4e" transform="translate(224.755859 0)"/>
   </g>
  </g>
  <g id="text_33">
   <!-- from Pro/Hyp -->
   <g transform="translate(179.517558 18.114062) scale(0.07 -0.07)">
    <defs>
     <path id="Roboto-Regular-66" d="M 2022 2938 
L 1303 2938 
L 1303 0 
L 725 0 
L 725 2938 
L 191 2938 
L 191 3381 
L 725 3381 
L 725 3759 
Q 731 4297 1026 4581 
Q 1322 4866 1834 4866 
Q 2025 4866 2234 4816 
L 2203 4344 
Q 2072 4372 1891 4372 
Q 1313 4372 1303 3756 
L 1303 3381 
L 2022 3381 
L 2022 2938 
z
" transform="scale(0.015625)"/>
     <path id="Roboto-Regular-72" d="M 1791 2888 
Q 1225 2888 1019 2400 
L 1019 0 
L 441 0 
L 441 3381 
L 1003 3381 
L 1016 2994 
Q 1294 3444 1819 3444 
Q 1981 3444 2075 3400 
L 2072 2863 
Q 1944 2888 1791 2888 
z
" transform="scale(0.015625)"/>
     <path id="Roboto-Regular-6f" d="M 288 1725 
Q 288 2459 700 2951 
Q 1113 3444 1822 3444 
Q 2531 3444 2943 2961 
Q 3356 2478 3366 1756 
L 3366 1653 
Q 3366 919 2952 428 
Q 2538 -63 1828 -63 
Q 1116 -63 702 428 
Q 288 919 288 1653 
L 288 1725 
z
M 866 1653 
Q 866 1150 1105 781 
Q 1344 413 1828 413 
Q 2300 413 2540 777 
Q 2781 1141 2784 1644 
L 2784 1725 
Q 2784 2222 2543 2595 
Q 2303 2969 1822 2969 
Q 1344 2969 1105 2595 
Q 866 2222 866 1725 
L 866 1653 
z
" transform="scale(0.015625)"/>
     <path id="Roboto-Regular-6d" d="M 1794 2956 
Q 1225 2956 1016 2478 
L 1016 0 
L 434 0 
L 434 3381 
L 984 3381 
L 1000 3013 
Q 1366 3444 2000 3444 
Q 2325 3444 2579 3314 
Q 2834 3184 2969 2900 
Q 3138 3144 3408 3294 
Q 3678 3444 4044 3444 
Q 4588 3444 4883 3153 
Q 5178 2863 5178 2222 
L 5178 0 
L 4597 0 
L 4597 2228 
Q 4597 2653 4401 2804 
Q 4206 2956 3875 2956 
Q 3525 2956 3325 2748 
Q 3125 2541 3094 2244 
L 3094 0 
L 2516 0 
L 2516 2225 
Q 2516 2622 2319 2789 
Q 2122 2956 1794 2956 
z
" transform="scale(0.015625)"/>
     <path id="Roboto-Regular-50" d="M 1131 1784 
L 1131 0 
L 528 0 
L 528 4550 
L 2206 4550 
Q 2981 4550 3392 4159 
Q 3803 3769 3803 3163 
Q 3803 2503 3392 2143 
Q 2981 1784 2206 1784 
L 1131 1784 
z
M 1131 4056 
L 1131 2275 
L 2206 2275 
Q 2738 2275 2969 2522 
Q 3200 2769 3200 3156 
Q 3200 3506 2969 3781 
Q 2738 4056 2206 4056 
L 1131 4056 
z
" transform="scale(0.015625)"/>
     <path id="Roboto-Regular-48" d="M 3425 0 
L 3425 2103 
L 1131 2103 
L 1131 0 
L 528 0 
L 528 4550 
L 1131 4550 
L 1131 2594 
L 3425 2594 
L 3425 4550 
L 4025 4550 
L 4025 0 
L 3425 0 
z
" transform="scale(0.015625)"/>
     <path id="Roboto-Regular-70" d="M 1984 -63 
Q 1375 -63 1019 328 
L 1019 -1300 
L 438 -1300 
L 438 3381 
L 969 3381 
L 997 3009 
Q 1353 3444 1975 3444 
Q 2616 3444 2956 2969 
Q 3297 2494 3297 1719 
L 3297 1653 
Q 3297 913 2955 425 
Q 2613 -63 1984 -63 
z
M 1806 2956 
Q 1281 2956 1019 2491 
L 1019 872 
Q 1284 413 1813 413 
Q 2281 413 2498 781 
Q 2716 1150 2716 1653 
L 2716 1719 
Q 2716 2222 2498 2589 
Q 2281 2956 1806 2956 
z
" transform="scale(0.015625)"/>
    </defs>
    <use xlink:href="#Roboto-Regular-66"/>
    <use xlink:href="#Roboto-Regular-72" transform="translate(34.765625 0)"/>
    <use xlink:href="#Roboto-Regular-6f" transform="translate(68.652344 0)"/>
    <use xlink:href="#Roboto-Regular-6d" transform="translate(125.683594 0)"/>
    <use xlink:href="#Roboto-Regular-20" transform="translate(213.378906 0)"/>
    <use xlink:href="#Roboto-Regular-50" transform="translate(238.183594 0)"/>
    <use xlink:href="#Roboto-Regular-72" transform="translate(301.269531 0)"/>
    <use xlink:href="#Roboto-Regular-6f" transform="translate(335.15625 0)"/>
    <use xlink:href="#Roboto-Regular-2f" transform="translate(392.1875 0)"/>
    <use xlink:href="#Roboto-Regular-48" transform="translate(433.447266 0)"/>
    <use xlink:href="#Roboto-Regular-79" transform="translate(504.785156 0)"/>
    <use xlink:href="#Roboto-Regular-70" transform="translate(552.099609 0)"/>
   </g>
  </g>
  <g id="patch_14">
   <path d="M 229.373269 23.047905 
L 243.069079 23.047905 
L 243.069079 9.352095 
L 229.373269 9.352095 
L 229.373269 23.047905 
z
" clip-path="url(#p876b45f25b)" style="fill: none; stroke: #ffe07d; stroke-width: 2.30419; stroke-linejoin: miter; stroke-linecap: square"/>
  </g>
  <g id="text_34">
   <!-- C -->
   <g transform="translate(245.751882 18.114062) scale(0.07 -0.07)">
    <defs>
     <path id="Roboto-Regular-43" d="M 3275 1447 
L 3875 1447 
Q 3806 800 3387 368 
Q 2969 -63 2150 -63 
Q 1356 -63 870 504 
Q 384 1072 375 2013 
L 375 2500 
Q 375 3456 867 4034 
Q 1359 4613 2203 4613 
Q 2975 4613 3390 4188 
Q 3806 3763 3875 3091 
L 3275 3091 
Q 3206 3566 2968 3842 
Q 2731 4119 2203 4119 
Q 1600 4119 1287 3675 
Q 975 3231 975 2506 
L 975 2047 
Q 975 1375 1259 901 
Q 1544 428 2150 428 
Q 2725 428 2961 697 
Q 3197 966 3275 1447 
z
" transform="scale(0.015625)"/>
    </defs>
    <use xlink:href="#Roboto-Regular-43"/>
   </g>
  </g>
  <g id="patch_15">
   <path d="M 257.46054 23.047905 
L 271.15635 23.047905 
L 271.15635 9.352095 
L 257.46054 9.352095 
L 257.46054 23.047905 
z
" clip-path="url(#p6bb5553efd)" style="fill: none; stroke: #55b4dc; stroke-width: 2.30419; stroke-linejoin: miter; stroke-linecap: square"/>
  </g>
  <g id="text_35">
   <!-- N -->
   <g transform="translate(273.839153 18.114062) scale(0.07 -0.07)">
    <defs>
     <path id="Roboto-Regular-4e" d="M 4028 4550 
L 4028 0 
L 3422 0 
L 1131 3509 
L 1131 0 
L 528 0 
L 528 4550 
L 1131 4550 
L 3431 1031 
L 3431 4550 
L 4028 4550 
z
" transform="scale(0.015625)"/>
    </defs>
    <use xlink:href="#Roboto-Regular-4e"/>
   </g>
  </g>
  <g id="patch_16">
   <path d="M 285.985311 23.047905 
L 299.681121 23.047905 
L 299.681121 9.352095 
L 285.985311 9.352095 
L 285.985311 23.047905 
z
" clip-path="url(#p81fe0b63c8)" style="fill: none; stroke: #da7da6; stroke-width: 2.30419; stroke-linejoin: miter; stroke-linecap: square"/>
  </g>
  <g id="text_36">
   <!-- both -->
   <g transform="translate(302.363925 18.114062) scale(0.07 -0.07)">
    <defs>
     <path id="Roboto-Regular-62" d="M 3303 1653 
Q 3303 913 2959 425 
Q 2616 -63 1988 -63 
Q 1347 -63 1000 391 
L 969 0 
L 438 0 
L 438 4800 
L 1019 4800 
L 1019 3016 
Q 1363 3444 1981 3444 
Q 2619 3444 2961 2969 
Q 3303 2494 3303 1719 
L 3303 1653 
z
M 1838 2956 
Q 1522 2956 1325 2804 
Q 1128 2653 1019 2431 
L 1019 959 
Q 1131 734 1331 581 
Q 1531 428 1844 428 
Q 2313 428 2517 789 
Q 2722 1150 2722 1653 
L 2722 1719 
Q 2722 2222 2526 2589 
Q 2331 2956 1838 2956 
z
" transform="scale(0.015625)"/>
     <path id="Roboto-Regular-68" d="M 1844 2956 
Q 1566 2956 1353 2806 
Q 1141 2656 1019 2416 
L 1019 0 
L 441 0 
L 441 4800 
L 1019 4800 
L 1019 2978 
Q 1403 3444 2016 3444 
Q 2513 3444 2805 3166 
Q 3097 2888 3100 2231 
L 3100 0 
L 2519 0 
L 2519 2222 
Q 2519 2619 2345 2787 
Q 2172 2956 1844 2956 
z
" transform="scale(0.015625)"/>
    </defs>
    <use xlink:href="#Roboto-Regular-62"/>
    <use xlink:href="#Roboto-Regular-6f" transform="translate(56.152344 0)"/>
    <use xlink:href="#Roboto-Regular-74" transform="translate(113.183594 0)"/>
    <use xlink:href="#Roboto-Regular-68" transform="translate(145.898438 0)"/>
   </g>
  </g>
  <g id="patch_17">
   <path d="M 323.584926 23.047905 
L 337.280736 23.047905 
L 337.280736 9.352095 
L 323.584926 9.352095 
L 323.584926 23.047905 
z
" clip-path="url(#pfeaf6e6004)" style="fill: none; stroke: #000000; stroke-width: 2.30419; stroke-linejoin: miter; stroke-linecap: square"/>
  </g>
  <g id="text_37">
   <!-- none -->
   <g transform="translate(339.96354 18.114062) scale(0.07 -0.07)">
    <use xlink:href="#Roboto-Regular-6e"/>
    <use xlink:href="#Roboto-Regular-6f" transform="translate(55.224609 0)"/>
    <use xlink:href="#Roboto-Regular-6e" transform="translate(112.255859 0)"/>
    <use xlink:href="#Roboto-Regular-65" transform="translate(167.480469 0)"/>
   </g>
  </g>
 </g>
 <defs>
  <clipPath id="pbcc4bae73a">
   <rect x="39.023143" y="40.507087" width="456.86981" height="55.848673"/>
  </clipPath>
  <clipPath id="p012ec933df">
   <rect x="39.023143" y="101.458122" width="456.86981" height="55.848673"/>
  </clipPath>
  <clipPath id="p79ee7e2a6f">
   <rect x="39.023143" y="162.409156" width="456.86981" height="55.848673"/>
  </clipPath>
  <clipPath id="peba9151d2e">
   <rect x="39.023143" y="223.360191" width="456.86981" height="55.848673"/>
  </clipPath>
  <clipPath id="p876b45f25b">
   <path d="M 228.221174 24.2 
L 228.221174 8.2 
L 244.221174 8.2 
L 244.221174 24.2 
"/>
  </clipPath>
  <clipPath id="p6bb5553efd">
   <path d="M 256.308445 24.2 
L 256.308445 8.2 
L 272.308445 8.2 
L 272.308445 24.2 
"/>
  </clipPath>
  <clipPath id="p81fe0b63c8">
   <path d="M 284.833216 24.2 
L 284.833216 8.2 
L 300.833216 8.2 
L 300.833216 24.2 
"/>
  </clipPath>
  <clipPath id="pfeaf6e6004">
   <path d="M 322.432831 24.2 
L 322.432831 8.2 
L 338.432831 8.2 
L 338.432831 24.2 
"/>
  </clipPath>
 </defs>
</svg>
