<?xml version="1.0" encoding="utf-8" standalone="no"?>
<!DOCTYPE svg PUBLIC "-//W3C//DTD SVG 1.1//EN"
  "http://www.w3.org/Graphics/SVG/1.1/DTD/svg11.dtd">
<svg xmlns:xlink="http://www.w3.org/1999/xlink" width="233.591949pt" height="161.007933pt" viewBox="0 0 233.591949 161.007933" xmlns="http://www.w3.org/2000/svg" version="1.1">
 <metadata>
  <rdf:RDF xmlns:dc="http://purl.org/dc/elements/1.1/" xmlns:cc="http://creativecommons.org/ns#" xmlns:rdf="http://www.w3.org/1999/02/22-rdf-syntax-ns#">
   <cc:Work>
    <dc:type rdf:resource="http://purl.org/dc/dcmitype/StillImage"/>
    <dc:date>2025-11-08T11:27:06.176019</dc:date>
    <dc:format>image/svg+xml</dc:format>
    <dc:creator>
     <cc:Agent>
      <dc:title>Matplotlib v3.10.3, https://matplotlib.org/</dc:title>
     </cc:Agent>
    </dc:creator>
   </cc:Work>
  </rdf:RDF>
 </metadata>
 <defs>
  <style type="text/css">*{stroke-linejoin: round; stroke-linecap: butt}</style>
 </defs>
 <g id="figure_1">
  <g id="patch_1">
   <path d="M 0 161.007933 
L 233.591949 161.007933 
L 233.591949 0 
L 0 0 
z
" style="fill: #ffffff; stroke: #ffffff; stroke-width: 0.7; stroke-linejoin: miter"/>
  </g>
  <g id="axes_1">
   <g id="patch_2">
    <path d="M 32.254279 69.099875 
L 218.097679 69.099875 
L 218.097679 9.489125 
L 32.254279 9.489125 
z
" style="fill: #ffffff"/>
   </g>
   <g id="matplotlib.axis_1">
    <g id="xtick_1"/>
    <g id="xtick_2"/>
    <g id="xtick_3"/>
    <g id="xtick_4"/>
    <g id="xtick_5"/>
    <g id="xtick_6"/>
    <g id="xtick_7"/>
    <g id="xtick_8"/>
    <g id="xtick_9"/>
    <g id="xtick_10"/>
    <g id="xtick_11"/>
    <g id="xtick_12"/>
    <g id="xtick_13"/>
    <g id="xtick_14"/>
    <g id="xtick_15"/>
    <g id="xtick_16"/>
    <g id="xtick_17"/>
    <g id="xtick_18"/>
    <g id="xtick_19"/>
    <g id="xtick_20"/>
    <g id="xtick_21"/>
    <g id="xtick_22"/>
    <g id="xtick_23"/>
    <g id="xtick_24"/>
    <g id="xtick_25"/>
    <g id="xtick_26"/>
    <g id="xtick_27"/>
    <g id="xtick_28"/>
    <g id="xtick_29"/>
    <g id="xtick_30"/>
    <g id="xtick_31"/>
    <g id="xtick_32"/>
    <g id="xtick_33"/>
    <g id="xtick_34"/>
    <g id="xtick_35"/>
    <g id="xtick_36"/>
    <g id="xtick_37"/>
    <g id="xtick_38"/>
    <g id="xtick_39"/>
    <g id="xtick_40"/>
    <g id="xtick_41"/>
    <g id="xtick_42"/>
    <g id="xtick_43"/>
    <g id="xtick_44"/>
    <g id="xtick_45"/>
    <g id="xtick_46"/>
    <g id="xtick_47"/>
    <g id="xtick_48"/>
    <g id="xtick_49"/>
    <g id="xtick_50"/>
    <g id="xtick_51"/>
    <g id="xtick_52"/>
    <g id="xtick_53"/>
   </g>
   <g id="matplotlib.axis_2">
    <g id="ytick_1">
     <g id="line2d_1">
      <defs>
       <path id="m1a2c566548" d="M 1.5 0 
L -1.5 -0 
" style="stroke: #000000; stroke-width: 0.7"/>
      </defs>
      <g>
       <use xlink:href="#m1a2c566548" x="32.254279" y="66.390295" style="stroke: #000000; stroke-width: 0.7"/>
      </g>
     </g>
     <g id="text_1">
      <!-- 0.0 -->
      <g transform="translate(18.639592 69.015295) scale(0.07 -0.07)">
       <defs>
        <path id="Roboto-Regular-30" d="M 3234 1944 
Q 3234 825 2848 381 
Q 2463 -63 1800 -63 
Q 1156 -63 764 368 
Q 372 800 359 1872 
L 359 2638 
Q 359 3753 750 4183 
Q 1141 4613 1794 4613 
Q 2447 4613 2834 4195 
Q 3222 3778 3234 2709 
L 3234 1944 
z
M 2653 2734 
Q 2653 3503 2434 3822 
Q 2216 4141 1794 4141 
Q 1388 4141 1167 3831 
Q 947 3522 941 2778 
L 941 1850 
Q 941 1088 1164 750 
Q 1388 413 1800 413 
Q 2222 413 2436 745 
Q 2650 1078 2653 1825 
L 2653 2734 
z
" transform="scale(0.015625)"/>
        <path id="Roboto-Regular-2e" d="M 450 306 
Q 450 453 542 554 
Q 634 656 809 656 
Q 984 656 1076 554 
Q 1169 453 1169 306 
Q 1169 163 1076 62 
Q 984 -38 809 -38 
Q 634 -38 542 62 
Q 450 163 450 306 
z
" transform="scale(0.015625)"/>
       </defs>
       <use xlink:href="#Roboto-Regular-30"/>
       <use xlink:href="#Roboto-Regular-2e" transform="translate(56.201172 0)"/>
       <use xlink:href="#Roboto-Regular-30" transform="translate(82.568359 0)"/>
      </g>
     </g>
    </g>
    <g id="ytick_2">
     <g id="line2d_2">
      <g>
       <use xlink:href="#m1a2c566548" x="32.254279" y="52.248971" style="stroke: #000000; stroke-width: 0.7"/>
      </g>
     </g>
     <g id="text_2">
      <!-- 0.2 -->
      <g transform="translate(18.639592 54.873971) scale(0.07 -0.07)">
       <defs>
        <path id="Roboto-Regular-32" d="M 3359 475 
L 3359 0 
L 381 0 
L 381 416 
L 1925 2134 
Q 2306 2566 2439 2819 
Q 2572 3072 2572 3328 
Q 2572 3663 2364 3900 
Q 2156 4138 1778 4138 
Q 1322 4138 1097 3878 
Q 872 3619 872 3213 
L 294 3213 
Q 294 3788 672 4200 
Q 1050 4613 1778 4613 
Q 2422 4613 2786 4278 
Q 3150 3944 3150 3397 
Q 3150 2997 2903 2592 
Q 2656 2188 2297 1797 
L 1078 475 
L 3359 475 
z
" transform="scale(0.015625)"/>
       </defs>
       <use xlink:href="#Roboto-Regular-30"/>
       <use xlink:href="#Roboto-Regular-2e" transform="translate(56.201172 0)"/>
       <use xlink:href="#Roboto-Regular-32" transform="translate(82.568359 0)"/>
      </g>
     </g>
    </g>
    <g id="ytick_3">
     <g id="line2d_3">
      <g>
       <use xlink:href="#m1a2c566548" x="32.254279" y="38.107648" style="stroke: #000000; stroke-width: 0.7"/>
      </g>
     </g>
     <g id="text_3">
      <!-- 0.4 -->
      <g transform="translate(18.639592 40.732648) scale(0.07 -0.07)">
       <defs>
        <path id="Roboto-Regular-34" d="M 166 1397 
L 2203 4550 
L 2819 4550 
L 2819 1531 
L 3453 1531 
L 3453 1056 
L 2819 1056 
L 2819 0 
L 2241 0 
L 2241 1056 
L 166 1056 
L 166 1397 
z
M 822 1531 
L 2241 1531 
L 2241 3766 
L 2169 3638 
L 822 1531 
z
" transform="scale(0.015625)"/>
       </defs>
       <use xlink:href="#Roboto-Regular-30"/>
       <use xlink:href="#Roboto-Regular-2e" transform="translate(56.201172 0)"/>
       <use xlink:href="#Roboto-Regular-34" transform="translate(82.568359 0)"/>
      </g>
     </g>
    </g>
    <g id="ytick_4">
     <g id="line2d_4">
      <g>
       <use xlink:href="#m1a2c566548" x="32.254279" y="23.966324" style="stroke: #000000; stroke-width: 0.7"/>
      </g>
     </g>
     <g id="text_4">
      <!-- 0.6 -->
      <g transform="translate(18.639592 26.591324) scale(0.07 -0.07)">
       <defs>
        <path id="Roboto-Regular-36" d="M 3291 1484 
Q 3291 838 2930 387 
Q 2569 -63 1878 -63 
Q 1388 -63 1063 198 
Q 738 459 577 861 
Q 416 1263 416 1684 
L 416 1956 
Q 416 2597 595 3194 
Q 775 3791 1247 4173 
Q 1719 4556 2597 4556 
L 2647 4556 
L 2647 4066 
Q 2041 4066 1705 3853 
Q 1369 3641 1205 3302 
Q 1041 2963 1006 2575 
Q 1369 2984 1984 2984 
Q 2438 2984 2727 2765 
Q 3016 2547 3153 2201 
Q 3291 1856 3291 1484 
z
M 997 1666 
Q 997 1059 1267 737 
Q 1538 416 1878 416 
Q 2278 416 2498 708 
Q 2719 1000 2719 1456 
Q 2719 1863 2516 2184 
Q 2313 2506 1891 2506 
Q 1588 2506 1341 2325 
Q 1094 2144 997 1884 
L 997 1666 
z
" transform="scale(0.015625)"/>
       </defs>
       <use xlink:href="#Roboto-Regular-30"/>
       <use xlink:href="#Roboto-Regular-2e" transform="translate(56.201172 0)"/>
       <use xlink:href="#Roboto-Regular-36" transform="translate(82.568359 0)"/>
      </g>
     </g>
    </g>
    <g id="ytick_5">
     <g id="line2d_5">
      <g>
       <use xlink:href="#m1a2c566548" x="32.254279" y="9.825" style="stroke: #000000; stroke-width: 0.7"/>
      </g>
     </g>
     <g id="text_5">
      <!-- 0.8 -->
      <g transform="translate(18.639592 12.45) scale(0.07 -0.07)">
       <defs>
        <path id="Roboto-Regular-38" d="M 3244 1231 
Q 3244 606 2826 271 
Q 2409 -63 1796 -63 
Q 1184 -63 767 271 
Q 350 606 350 1231 
Q 350 1613 554 1905 
Q 759 2197 1109 2347 
Q 806 2494 629 2762 
Q 453 3031 453 3366 
Q 453 3963 833 4288 
Q 1213 4613 1794 4613 
Q 2378 4613 2758 4288 
Q 3138 3963 3138 3366 
Q 3138 3028 2956 2761 
Q 2775 2494 2472 2347 
Q 2825 2197 3034 1903 
Q 3244 1609 3244 1231 
z
M 2559 3356 
Q 2559 3697 2346 3917 
Q 2134 4138 1793 4138 
Q 1453 4138 1243 3927 
Q 1034 3716 1034 3356 
Q 1034 3003 1243 2790 
Q 1453 2578 1797 2578 
Q 2138 2578 2348 2790 
Q 2559 3003 2559 3356 
z
M 2663 1244 
Q 2663 1625 2420 1865 
Q 2178 2106 1791 2106 
Q 1394 2106 1161 1865 
Q 928 1625 928 1244 
Q 928 850 1161 631 
Q 1394 413 1797 413 
Q 2200 413 2431 631 
Q 2663 850 2663 1244 
z
" transform="scale(0.015625)"/>
       </defs>
       <use xlink:href="#Roboto-Regular-30"/>
       <use xlink:href="#Roboto-Regular-2e" transform="translate(56.201172 0)"/>
       <use xlink:href="#Roboto-Regular-38" transform="translate(82.568359 0)"/>
      </g>
     </g>
    </g>
    <g id="ytick_6">
     <g id="line2d_6">
      <defs>
       <path id="m0514c56b27" d="M 2 0 
L -2 -0 
" style="stroke: #000000; stroke-width: 0.7"/>
      </defs>
      <g>
       <use xlink:href="#m0514c56b27" x="32.254279" y="59.319633" style="stroke: #000000; stroke-width: 0.7"/>
      </g>
     </g>
    </g>
    <g id="ytick_7">
     <g id="line2d_7">
      <g>
       <use xlink:href="#m0514c56b27" x="32.254279" y="45.17831" style="stroke: #000000; stroke-width: 0.7"/>
      </g>
     </g>
    </g>
    <g id="ytick_8">
     <g id="line2d_8">
      <g>
       <use xlink:href="#m0514c56b27" x="32.254279" y="31.036986" style="stroke: #000000; stroke-width: 0.7"/>
      </g>
     </g>
    </g>
    <g id="ytick_9">
     <g id="line2d_9">
      <g>
       <use xlink:href="#m0514c56b27" x="32.254279" y="16.895662" style="stroke: #000000; stroke-width: 0.7"/>
      </g>
     </g>
    </g>
   </g>
   <g id="FillBetweenPolyCollection_1"/>
   <g id="line2d_10">
    <path d="M 40.701706 64.340572 
L 48.298611 61.842934 
L 51.271312 60.670281 
L 53.913714 59.375403 
L 56.721265 57.734042 
L 60.354567 55.331669 
L 64.97877 51.995689 
L 73.401425 45.532748 
L 83.31043 38.142818 
L 85.622532 36.703177 
L 87.604333 35.710459 
L 89.586134 34.970871 
L 91.567935 34.479716 
L 93.549736 34.219678 
L 95.531537 34.185048 
L 97.348188 34.368181 
L 98.999689 34.74009 
L 100.65119 35.332132 
L 102.302691 36.153316 
L 104.119342 37.300037 
L 106.596593 39.157865 
L 112.872297 44.001113 
L 116.010149 46.058429 
L 119.808601 48.267243 
L 123.111603 49.945159 
L 125.423704 50.877431 
L 127.405505 51.435783 
L 129.387306 51.749253 
L 131.699407 51.871996 
L 136.48876 52.061908 
L 138.800861 52.425533 
L 142.764464 53.337892 
L 146.397766 54.060937 
L 157.462822 56.003956 
L 160.435524 56.803742 
L 162.747625 57.648849 
L 165.390026 58.869672 
L 171.99603 62.074901 
L 174.473282 62.933606 
L 177.115683 63.606312 
L 180.914135 64.318329 
L 189.66709 65.68656 
L 193.795842 66.110844 
L 198.089745 66.317826 
L 205.026049 66.387214 
L 209.650251 66.390116 
L 209.650251 66.390116 
" clip-path="url(#p38ac8b2850)" style="fill: none; stroke: #ffe07d; stroke-width: 2.30419; stroke-linejoin: miter"/>
   </g>
   <g id="FillBetweenPolyCollection_2"/>
   <g id="line2d_11">
    <path d="M 40.701706 65.620448 
L 48.298611 64.79772 
L 56.060665 64.040877 
L 62.006068 63.138473 
L 66.960571 62.223137 
L 70.428723 61.343523 
L 76.374126 59.778329 
L 79.016528 59.35781 
L 82.48468 59.057948 
L 88.264933 58.575047 
L 91.567935 58.060033 
L 100.48604 56.481522 
L 102.798141 56.46028 
L 105.440543 56.680639 
L 110.229895 57.366774 
L 115.844999 58.087907 
L 119.148 58.293791 
L 122.120702 58.248406 
L 125.423704 57.956834 
L 129.882756 57.314962 
L 134.506959 56.434974 
L 137.809961 55.602342 
L 140.122062 54.812899 
L 142.103863 53.900054 
L 143.755364 52.904593 
L 145.406865 51.643531 
L 147.058366 50.07654 
L 148.709867 48.172098 
L 150.361368 45.905193 
L 152.012869 43.255975 
L 153.82952 39.887143 
L 155.811321 35.683723 
L 158.123422 30.203427 
L 162.912775 18.616537 
L 164.399126 15.71794 
L 165.555177 13.963794 
L 166.380927 13.046947 
L 167.206677 12.450722 
L 167.867278 12.224325 
L 168.527878 12.232918 
L 169.188479 12.483591 
L 169.849079 12.978942 
L 170.674829 13.938311 
L 171.50058 15.260682 
L 172.49148 17.28715 
L 173.647531 20.168865 
L 175.299032 24.980598 
L 180.418685 40.490976 
L 182.070186 44.507266 
L 183.556537 47.529924 
L 185.042887 50.053092 
L 186.694388 52.414585 
L 189.00649 55.27755 
L 192.970092 59.782203 
L 195.282193 62.118221 
L 196.933694 63.497205 
L 198.420045 64.474993 
L 199.906396 65.198339 
L 201.557897 65.737742 
L 203.374548 66.084299 
L 205.686649 66.289534 
L 209.650251 66.380151 
L 209.650251 66.380151 
" clip-path="url(#p38ac8b2850)" style="fill: none; stroke: #55b4dc; stroke-width: 2.30419; stroke-linejoin: miter"/>
   </g>
   <g id="FillBetweenPolyCollection_3"/>
   <g id="line2d_12">
    <path d="M 40.701706 63.659492 
L 44.169858 62.379479 
L 49.619811 60.08407 
L 57.051565 57.006287 
L 64.81362 53.801822 
L 69.602973 51.539186 
L 76.043826 48.49275 
L 78.851378 47.43935 
L 81.163479 46.801148 
L 83.31043 46.423744 
L 85.457381 46.258001 
L 87.769483 46.298527 
L 90.411884 46.574529 
L 93.714886 47.158173 
L 99.329989 48.420469 
L 105.605693 49.775026 
L 109.073845 50.297245 
L 111.881396 50.499698 
L 114.523798 50.465625 
L 117.166199 50.207544 
L 120.138901 49.691133 
L 125.258554 48.522475 
L 129.717606 47.598438 
L 133.185758 47.11438 
L 136.65391 46.859541 
L 141.773563 46.741689 
L 146.893216 46.559135 
L 151.352269 46.152143 
L 155.976471 45.762005 
L 158.288572 45.802972 
L 160.105223 46.043163 
L 161.921874 46.515902 
L 163.573375 47.172425 
L 165.390026 48.152843 
L 167.206677 49.390928 
L 169.353629 51.136189 
L 172.32633 53.884755 
L 177.611133 58.820853 
L 180.088385 60.794448 
L 182.235336 62.224702 
L 184.382287 63.37823 
L 186.529238 64.268886 
L 188.84134 64.972209 
L 191.318591 65.490369 
L 194.291293 65.88071 
L 198.254895 66.15827 
L 204.200298 66.324373 
L 209.650251 66.372513 
L 209.650251 66.372513 
" clip-path="url(#p38ac8b2850)" style="fill: none; stroke: #da7da6; stroke-width: 2.30419; stroke-linejoin: miter"/>
   </g>
   <g id="FillBetweenPolyCollection_4"/>
   <g id="line2d_13">
    <path d="M 40.701706 65.456165 
L 55.069764 62.718457 
L 58.537916 61.869254 
L 61.840918 60.840873 
L 65.30907 59.52863 
L 73.566575 56.275615 
L 79.181678 54.461811 
L 84.466481 52.953976 
L 99.329989 49.188612 
L 102.302691 48.57929 
L 104.449642 48.347683 
L 106.596593 48.345741 
L 108.908695 48.576477 
L 112.211697 49.153128 
L 124.102503 51.396037 
L 126.579755 51.479907 
L 129.717606 51.33986 
L 134.341809 50.884374 
L 138.800861 50.226124 
L 142.599314 49.458245 
L 145.241715 48.71767 
L 147.388666 47.898544 
L 149.370467 46.912084 
L 151.352269 45.675157 
L 153.49922 44.059309 
L 156.306771 41.634669 
L 160.105223 38.37323 
L 161.921874 37.127718 
L 163.243075 36.460372 
L 164.564276 36.04833 
L 165.720327 35.927204 
L 166.876377 36.046356 
L 168.032428 36.410494 
L 169.188479 37.012828 
L 170.509679 37.970651 
L 171.99603 39.346646 
L 173.812681 41.369703 
L 176.124782 44.318463 
L 184.877737 55.870064 
L 187.354989 58.566869 
L 189.83224 60.933901 
L 191.979191 62.682591 
L 193.795842 63.893793 
L 195.612493 64.8281 
L 197.429144 65.488668 
L 199.245795 65.912955 
L 201.557897 66.203826 
L 204.695749 66.349375 
L 209.650251 66.388201 
L 209.650251 66.388201 
" clip-path="url(#p38ac8b2850)" style="fill: none; stroke: #000000; stroke-width: 2.30419; stroke-linejoin: miter"/>
   </g>
  </g>
  <g id="axes_2">
   <g id="patch_3">
    <path d="M 32.254279 130.978341 
L 218.097679 130.978341 
L 218.097679 71.367591 
L 32.254279 71.367591 
z
" style="fill: #ffffff"/>
   </g>
   <g id="matplotlib.axis_3">
    <g id="xtick_54">
     <g id="line2d_14">
      <defs>
       <path id="mc5a0b65b88" d="M 0 1.5 
L 0 -1.5 
" style="stroke: #000000; stroke-width: 0.7"/>
      </defs>
      <g>
       <use xlink:href="#mc5a0b65b88" x="50.2958" y="130.978341" style="stroke: #000000; stroke-width: 0.7"/>
      </g>
     </g>
     <g id="text_6">
      <!-- 1e-4 -->
      <g transform="translate(43.538066 140.128341) scale(0.07 -0.07)">
       <defs>
        <path id="Roboto-Regular-31" d="M 2278 4575 
L 2278 0 
L 1700 0 
L 1700 3853 
L 534 3428 
L 534 3950 
L 2188 4575 
L 2278 4575 
z
" transform="scale(0.015625)"/>
        <path id="Roboto-Regular-65" d="M 3116 591 
Q 2950 341 2647 139 
Q 2344 -63 1844 -63 
Q 1138 -63 714 396 
Q 291 856 291 1572 
L 291 1703 
Q 291 2256 502 2645 
Q 713 3034 1050 3239 
Q 1388 3444 1769 3444 
Q 2494 3444 2826 2970 
Q 3159 2497 3159 1788 
L 3159 1528 
L 872 1528 
Q 884 1063 1148 736 
Q 1413 409 1875 409 
Q 2181 409 2393 534 
Q 2606 659 2766 869 
L 3116 591 
z
M 1769 2969 
Q 1425 2969 1187 2719 
Q 950 2469 891 2000 
L 2581 2000 
L 2581 2044 
Q 2559 2381 2386 2675 
Q 2213 2969 1769 2969 
z
" transform="scale(0.015625)"/>
        <path id="Roboto-Regular-2d" d="M 1644 2172 
L 1644 1697 
L 119 1697 
L 119 2172 
L 1644 2172 
z
" transform="scale(0.015625)"/>
       </defs>
       <use xlink:href="#Roboto-Regular-31"/>
       <use xlink:href="#Roboto-Regular-65" transform="translate(56.201172 0)"/>
       <use xlink:href="#Roboto-Regular-2d" transform="translate(109.228516 0)"/>
       <use xlink:href="#Roboto-Regular-34" transform="translate(136.865234 0)"/>
      </g>
     </g>
    </g>
    <g id="xtick_55">
     <g id="line2d_15">
      <g>
       <use xlink:href="#mc5a0b65b88" x="82.16669" y="130.978341" style="stroke: #000000; stroke-width: 0.7"/>
      </g>
     </g>
     <g id="text_7">
      <!-- 1e-3 -->
      <g transform="translate(75.408956 140.128341) scale(0.07 -0.07)">
       <defs>
        <path id="Roboto-Regular-33" d="M 1222 2084 
L 1222 2559 
L 1647 2559 
Q 2094 2563 2312 2784 
Q 2531 3006 2531 3338 
Q 2531 4138 1738 4138 
Q 1369 4138 1141 3927 
Q 913 3716 913 3359 
L 334 3359 
Q 334 3881 720 4247 
Q 1106 4613 1738 4613 
Q 2353 4613 2733 4286 
Q 3113 3959 3113 3325 
Q 3113 3072 2942 2784 
Q 2772 2497 2397 2338 
Q 2850 2191 3015 1884 
Q 3181 1578 3181 1269 
Q 3181 631 2768 284 
Q 2356 -63 1741 -63 
Q 1147 -63 722 267 
Q 297 597 297 1203 
L 875 1203 
Q 875 844 1108 628 
Q 1341 413 1741 413 
Q 2138 413 2369 622 
Q 2600 831 2600 1256 
Q 2600 1681 2337 1882 
Q 2075 2084 1634 2084 
L 1222 2084 
z
" transform="scale(0.015625)"/>
       </defs>
       <use xlink:href="#Roboto-Regular-31"/>
       <use xlink:href="#Roboto-Regular-65" transform="translate(56.201172 0)"/>
       <use xlink:href="#Roboto-Regular-2d" transform="translate(109.228516 0)"/>
       <use xlink:href="#Roboto-Regular-33" transform="translate(136.865234 0)"/>
      </g>
     </g>
    </g>
    <g id="xtick_56">
     <g id="line2d_16">
      <g>
       <use xlink:href="#mc5a0b65b88" x="114.037581" y="130.978341" style="stroke: #000000; stroke-width: 0.7"/>
      </g>
     </g>
     <g id="text_8">
      <!-- 1e-2 -->
      <g transform="translate(107.279846 140.128341) scale(0.07 -0.07)">
       <use xlink:href="#Roboto-Regular-31"/>
       <use xlink:href="#Roboto-Regular-65" transform="translate(56.201172 0)"/>
       <use xlink:href="#Roboto-Regular-2d" transform="translate(109.228516 0)"/>
       <use xlink:href="#Roboto-Regular-32" transform="translate(136.865234 0)"/>
      </g>
     </g>
    </g>
    <g id="xtick_57">
     <g id="line2d_17">
      <g>
       <use xlink:href="#mc5a0b65b88" x="145.908471" y="130.978341" style="stroke: #000000; stroke-width: 0.7"/>
      </g>
     </g>
     <g id="text_9">
      <!-- 1e-1 -->
      <g transform="translate(139.150737 140.128341) scale(0.07 -0.07)">
       <use xlink:href="#Roboto-Regular-31"/>
       <use xlink:href="#Roboto-Regular-65" transform="translate(56.201172 0)"/>
       <use xlink:href="#Roboto-Regular-2d" transform="translate(109.228516 0)"/>
       <use xlink:href="#Roboto-Regular-31" transform="translate(136.865234 0)"/>
      </g>
     </g>
    </g>
    <g id="xtick_58">
     <g id="line2d_18">
      <g>
       <use xlink:href="#mc5a0b65b88" x="177.779361" y="130.978341" style="stroke: #000000; stroke-width: 0.7"/>
      </g>
     </g>
     <g id="text_10">
      <!-- 1 -->
      <g transform="translate(175.812252 140.128341) scale(0.07 -0.07)">
       <use xlink:href="#Roboto-Regular-31"/>
      </g>
     </g>
    </g>
    <g id="xtick_59">
     <g id="line2d_19">
      <g>
       <use xlink:href="#mc5a0b65b88" x="209.650251" y="130.978341" style="stroke: #000000; stroke-width: 0.7"/>
      </g>
     </g>
     <g id="text_11">
      <!-- 1e1 -->
      <g transform="translate(203.859939 140.128341) scale(0.07 -0.07)">
       <use xlink:href="#Roboto-Regular-31"/>
       <use xlink:href="#Roboto-Regular-65" transform="translate(56.201172 0)"/>
       <use xlink:href="#Roboto-Regular-31" transform="translate(109.228516 0)"/>
      </g>
     </g>
    </g>
    <g id="xtick_60">
     <g id="line2d_20">
      <defs>
       <path id="m5e4f41fa0b" d="M 0 2 
L 0 -2 
" style="stroke: #000000; stroke-width: 0.7"/>
      </defs>
      <g>
       <use xlink:href="#m5e4f41fa0b" x="33.631189" y="130.978341" style="stroke: #000000; stroke-width: 0.7"/>
      </g>
     </g>
    </g>
    <g id="xtick_61">
     <g id="line2d_21">
      <g>
       <use xlink:href="#m5e4f41fa0b" x="37.613098" y="130.978341" style="stroke: #000000; stroke-width: 0.7"/>
      </g>
     </g>
    </g>
    <g id="xtick_62">
     <g id="line2d_22">
      <g>
       <use xlink:href="#m5e4f41fa0b" x="40.701706" y="130.978341" style="stroke: #000000; stroke-width: 0.7"/>
      </g>
     </g>
    </g>
    <g id="xtick_63">
     <g id="line2d_23">
      <g>
       <use xlink:href="#m5e4f41fa0b" x="43.225283" y="130.978341" style="stroke: #000000; stroke-width: 0.7"/>
      </g>
     </g>
    </g>
    <g id="xtick_64">
     <g id="line2d_24">
      <g>
       <use xlink:href="#m5e4f41fa0b" x="45.358937" y="130.978341" style="stroke: #000000; stroke-width: 0.7"/>
      </g>
     </g>
    </g>
    <g id="xtick_65">
     <g id="line2d_25">
      <g>
       <use xlink:href="#m5e4f41fa0b" x="47.207192" y="130.978341" style="stroke: #000000; stroke-width: 0.7"/>
      </g>
     </g>
    </g>
    <g id="xtick_66">
     <g id="line2d_26">
      <g>
       <use xlink:href="#m5e4f41fa0b" x="48.837468" y="130.978341" style="stroke: #000000; stroke-width: 0.7"/>
      </g>
     </g>
    </g>
    <g id="xtick_67">
     <g id="line2d_27">
      <g>
       <use xlink:href="#m5e4f41fa0b" x="59.889894" y="130.978341" style="stroke: #000000; stroke-width: 0.7"/>
      </g>
     </g>
    </g>
    <g id="xtick_68">
     <g id="line2d_28">
      <g>
       <use xlink:href="#m5e4f41fa0b" x="65.502079" y="130.978341" style="stroke: #000000; stroke-width: 0.7"/>
      </g>
     </g>
    </g>
    <g id="xtick_69">
     <g id="line2d_29">
      <g>
       <use xlink:href="#m5e4f41fa0b" x="69.483988" y="130.978341" style="stroke: #000000; stroke-width: 0.7"/>
      </g>
     </g>
    </g>
    <g id="xtick_70">
     <g id="line2d_30">
      <g>
       <use xlink:href="#m5e4f41fa0b" x="72.572597" y="130.978341" style="stroke: #000000; stroke-width: 0.7"/>
      </g>
     </g>
    </g>
    <g id="xtick_71">
     <g id="line2d_31">
      <g>
       <use xlink:href="#m5e4f41fa0b" x="75.096173" y="130.978341" style="stroke: #000000; stroke-width: 0.7"/>
      </g>
     </g>
    </g>
    <g id="xtick_72">
     <g id="line2d_32">
      <g>
       <use xlink:href="#m5e4f41fa0b" x="77.229827" y="130.978341" style="stroke: #000000; stroke-width: 0.7"/>
      </g>
     </g>
    </g>
    <g id="xtick_73">
     <g id="line2d_33">
      <g>
       <use xlink:href="#m5e4f41fa0b" x="79.078082" y="130.978341" style="stroke: #000000; stroke-width: 0.7"/>
      </g>
     </g>
    </g>
    <g id="xtick_74">
     <g id="line2d_34">
      <g>
       <use xlink:href="#m5e4f41fa0b" x="80.708358" y="130.978341" style="stroke: #000000; stroke-width: 0.7"/>
      </g>
     </g>
    </g>
    <g id="xtick_75">
     <g id="line2d_35">
      <g>
       <use xlink:href="#m5e4f41fa0b" x="91.760784" y="130.978341" style="stroke: #000000; stroke-width: 0.7"/>
      </g>
     </g>
    </g>
    <g id="xtick_76">
     <g id="line2d_36">
      <g>
       <use xlink:href="#m5e4f41fa0b" x="97.37297" y="130.978341" style="stroke: #000000; stroke-width: 0.7"/>
      </g>
     </g>
    </g>
    <g id="xtick_77">
     <g id="line2d_37">
      <g>
       <use xlink:href="#m5e4f41fa0b" x="101.354878" y="130.978341" style="stroke: #000000; stroke-width: 0.7"/>
      </g>
     </g>
    </g>
    <g id="xtick_78">
     <g id="line2d_38">
      <g>
       <use xlink:href="#m5e4f41fa0b" x="104.443487" y="130.978341" style="stroke: #000000; stroke-width: 0.7"/>
      </g>
     </g>
    </g>
    <g id="xtick_79">
     <g id="line2d_39">
      <g>
       <use xlink:href="#m5e4f41fa0b" x="106.967064" y="130.978341" style="stroke: #000000; stroke-width: 0.7"/>
      </g>
     </g>
    </g>
    <g id="xtick_80">
     <g id="line2d_40">
      <g>
       <use xlink:href="#m5e4f41fa0b" x="109.100717" y="130.978341" style="stroke: #000000; stroke-width: 0.7"/>
      </g>
     </g>
    </g>
    <g id="xtick_81">
     <g id="line2d_41">
      <g>
       <use xlink:href="#m5e4f41fa0b" x="110.948972" y="130.978341" style="stroke: #000000; stroke-width: 0.7"/>
      </g>
     </g>
    </g>
    <g id="xtick_82">
     <g id="line2d_42">
      <g>
       <use xlink:href="#m5e4f41fa0b" x="112.579249" y="130.978341" style="stroke: #000000; stroke-width: 0.7"/>
      </g>
     </g>
    </g>
    <g id="xtick_83">
     <g id="line2d_43">
      <g>
       <use xlink:href="#m5e4f41fa0b" x="123.631675" y="130.978341" style="stroke: #000000; stroke-width: 0.7"/>
      </g>
     </g>
    </g>
    <g id="xtick_84">
     <g id="line2d_44">
      <g>
       <use xlink:href="#m5e4f41fa0b" x="129.24386" y="130.978341" style="stroke: #000000; stroke-width: 0.7"/>
      </g>
     </g>
    </g>
    <g id="xtick_85">
     <g id="line2d_45">
      <g>
       <use xlink:href="#m5e4f41fa0b" x="133.225769" y="130.978341" style="stroke: #000000; stroke-width: 0.7"/>
      </g>
     </g>
    </g>
    <g id="xtick_86">
     <g id="line2d_46">
      <g>
       <use xlink:href="#m5e4f41fa0b" x="136.314377" y="130.978341" style="stroke: #000000; stroke-width: 0.7"/>
      </g>
     </g>
    </g>
    <g id="xtick_87">
     <g id="line2d_47">
      <g>
       <use xlink:href="#m5e4f41fa0b" x="138.837954" y="130.978341" style="stroke: #000000; stroke-width: 0.7"/>
      </g>
     </g>
    </g>
    <g id="xtick_88">
     <g id="line2d_48">
      <g>
       <use xlink:href="#m5e4f41fa0b" x="140.971608" y="130.978341" style="stroke: #000000; stroke-width: 0.7"/>
      </g>
     </g>
    </g>
    <g id="xtick_89">
     <g id="line2d_49">
      <g>
       <use xlink:href="#m5e4f41fa0b" x="142.819863" y="130.978341" style="stroke: #000000; stroke-width: 0.7"/>
      </g>
     </g>
    </g>
    <g id="xtick_90">
     <g id="line2d_50">
      <g>
       <use xlink:href="#m5e4f41fa0b" x="144.450139" y="130.978341" style="stroke: #000000; stroke-width: 0.7"/>
      </g>
     </g>
    </g>
    <g id="xtick_91">
     <g id="line2d_51">
      <g>
       <use xlink:href="#m5e4f41fa0b" x="155.502565" y="130.978341" style="stroke: #000000; stroke-width: 0.7"/>
      </g>
     </g>
    </g>
    <g id="xtick_92">
     <g id="line2d_52">
      <g>
       <use xlink:href="#m5e4f41fa0b" x="161.11475" y="130.978341" style="stroke: #000000; stroke-width: 0.7"/>
      </g>
     </g>
    </g>
    <g id="xtick_93">
     <g id="line2d_53">
      <g>
       <use xlink:href="#m5e4f41fa0b" x="165.096659" y="130.978341" style="stroke: #000000; stroke-width: 0.7"/>
      </g>
     </g>
    </g>
    <g id="xtick_94">
     <g id="line2d_54">
      <g>
       <use xlink:href="#m5e4f41fa0b" x="168.185267" y="130.978341" style="stroke: #000000; stroke-width: 0.7"/>
      </g>
     </g>
    </g>
    <g id="xtick_95">
     <g id="line2d_55">
      <g>
       <use xlink:href="#m5e4f41fa0b" x="170.708844" y="130.978341" style="stroke: #000000; stroke-width: 0.7"/>
      </g>
     </g>
    </g>
    <g id="xtick_96">
     <g id="line2d_56">
      <g>
       <use xlink:href="#m5e4f41fa0b" x="172.842498" y="130.978341" style="stroke: #000000; stroke-width: 0.7"/>
      </g>
     </g>
    </g>
    <g id="xtick_97">
     <g id="line2d_57">
      <g>
       <use xlink:href="#m5e4f41fa0b" x="174.690753" y="130.978341" style="stroke: #000000; stroke-width: 0.7"/>
      </g>
     </g>
    </g>
    <g id="xtick_98">
     <g id="line2d_58">
      <g>
       <use xlink:href="#m5e4f41fa0b" x="176.321029" y="130.978341" style="stroke: #000000; stroke-width: 0.7"/>
      </g>
     </g>
    </g>
    <g id="xtick_99">
     <g id="line2d_59">
      <g>
       <use xlink:href="#m5e4f41fa0b" x="187.373455" y="130.978341" style="stroke: #000000; stroke-width: 0.7"/>
      </g>
     </g>
    </g>
    <g id="xtick_100">
     <g id="line2d_60">
      <g>
       <use xlink:href="#m5e4f41fa0b" x="192.98564" y="130.978341" style="stroke: #000000; stroke-width: 0.7"/>
      </g>
     </g>
    </g>
    <g id="xtick_101">
     <g id="line2d_61">
      <g>
       <use xlink:href="#m5e4f41fa0b" x="196.967549" y="130.978341" style="stroke: #000000; stroke-width: 0.7"/>
      </g>
     </g>
    </g>
    <g id="xtick_102">
     <g id="line2d_62">
      <g>
       <use xlink:href="#m5e4f41fa0b" x="200.056157" y="130.978341" style="stroke: #000000; stroke-width: 0.7"/>
      </g>
     </g>
    </g>
    <g id="xtick_103">
     <g id="line2d_63">
      <g>
       <use xlink:href="#m5e4f41fa0b" x="202.579734" y="130.978341" style="stroke: #000000; stroke-width: 0.7"/>
      </g>
     </g>
    </g>
    <g id="xtick_104">
     <g id="line2d_64">
      <g>
       <use xlink:href="#m5e4f41fa0b" x="204.713388" y="130.978341" style="stroke: #000000; stroke-width: 0.7"/>
      </g>
     </g>
    </g>
    <g id="xtick_105">
     <g id="line2d_65">
      <g>
       <use xlink:href="#m5e4f41fa0b" x="206.561643" y="130.978341" style="stroke: #000000; stroke-width: 0.7"/>
      </g>
     </g>
    </g>
    <g id="xtick_106">
     <g id="line2d_66">
      <g>
       <use xlink:href="#m5e4f41fa0b" x="208.191919" y="130.978341" style="stroke: #000000; stroke-width: 0.7"/>
      </g>
     </g>
    </g>
   </g>
   <g id="matplotlib.axis_4">
    <g id="ytick_10">
     <g id="line2d_67">
      <g>
       <use xlink:href="#m1a2c566548" x="32.254279" y="128.268762" style="stroke: #000000; stroke-width: 0.7"/>
      </g>
     </g>
     <g id="text_12">
      <!-- 0.0 -->
      <g transform="translate(18.639592 130.893762) scale(0.07 -0.07)">
       <use xlink:href="#Roboto-Regular-30"/>
       <use xlink:href="#Roboto-Regular-2e" transform="translate(56.201172 0)"/>
       <use xlink:href="#Roboto-Regular-30" transform="translate(82.568359 0)"/>
      </g>
     </g>
    </g>
    <g id="ytick_11">
     <g id="line2d_68">
      <g>
       <use xlink:href="#m1a2c566548" x="32.254279" y="107.725569" style="stroke: #000000; stroke-width: 0.7"/>
      </g>
     </g>
     <g id="text_13">
      <!-- 0.5 -->
      <g transform="translate(18.639592 110.350569) scale(0.07 -0.07)">
       <defs>
        <path id="Roboto-Regular-35" d="M 1109 2166 
L 647 2284 
L 875 4550 
L 3209 4550 
L 3209 4016 
L 1366 4016 
L 1228 2778 
Q 1572 2975 1988 2975 
Q 2616 2975 2980 2561 
Q 3344 2147 3344 1450 
Q 3344 797 2987 367 
Q 2631 -63 1903 -63 
Q 1350 -63 947 248 
Q 544 559 481 1197 
L 1031 1197 
Q 1141 413 1903 413 
Q 2313 413 2538 691 
Q 2763 969 2763 1444 
Q 2763 1872 2527 2164 
Q 2291 2456 1853 2456 
Q 1563 2456 1413 2378 
Q 1263 2300 1109 2166 
z
" transform="scale(0.015625)"/>
       </defs>
       <use xlink:href="#Roboto-Regular-30"/>
       <use xlink:href="#Roboto-Regular-2e" transform="translate(56.201172 0)"/>
       <use xlink:href="#Roboto-Regular-35" transform="translate(82.568359 0)"/>
      </g>
     </g>
    </g>
    <g id="ytick_12">
     <g id="line2d_69">
      <g>
       <use xlink:href="#m1a2c566548" x="32.254279" y="87.182376" style="stroke: #000000; stroke-width: 0.7"/>
      </g>
     </g>
     <g id="text_14">
      <!-- 1.0 -->
      <g transform="translate(18.639592 89.807376) scale(0.07 -0.07)">
       <use xlink:href="#Roboto-Regular-31"/>
       <use xlink:href="#Roboto-Regular-2e" transform="translate(56.201172 0)"/>
       <use xlink:href="#Roboto-Regular-30" transform="translate(82.568359 0)"/>
      </g>
     </g>
    </g>
    <g id="ytick_13">
     <g id="line2d_70">
      <g>
       <use xlink:href="#m0514c56b27" x="32.254279" y="117.997166" style="stroke: #000000; stroke-width: 0.7"/>
      </g>
     </g>
    </g>
    <g id="ytick_14">
     <g id="line2d_71">
      <g>
       <use xlink:href="#m0514c56b27" x="32.254279" y="97.453973" style="stroke: #000000; stroke-width: 0.7"/>
      </g>
     </g>
    </g>
    <g id="ytick_15">
     <g id="line2d_72">
      <g>
       <use xlink:href="#m0514c56b27" x="32.254279" y="76.91078" style="stroke: #000000; stroke-width: 0.7"/>
      </g>
     </g>
    </g>
   </g>
   <g id="FillBetweenPolyCollection_5"/>
   <g id="line2d_73">
    <path d="M 40.701706 128.164183 
L 53.913714 127.80126 
L 58.703066 127.460974 
L 63.327269 127.186106 
L 76.374126 126.759488 
L 80.668029 126.350839 
L 84.961931 125.688629 
L 89.586134 125.018219 
L 94.705787 124.572481 
L 98.669389 124.106749 
L 106.431443 123.09769 
L 114.193498 122.304373 
L 117.166199 121.743488 
L 120.304051 120.914185 
L 126.414605 119.010842 
L 131.369107 117.228797 
L 138.140261 114.659505 
L 140.617512 113.363587 
L 146.232616 110.029729 
L 155.481021 104.743969 
L 157.132522 104.090268 
L 158.618873 103.729065 
L 160.105223 103.611988 
L 161.591574 103.732085 
L 163.243075 104.098373 
L 165.224876 104.777911 
L 167.206677 105.686918 
L 168.858178 106.675365 
L 170.344529 107.807774 
L 171.99603 109.365036 
L 173.977831 111.582784 
L 179.592934 118.120518 
L 181.409585 119.79718 
L 183.061086 121.029863 
L 184.712587 121.984074 
L 186.364088 122.69151 
L 188.511039 123.349436 
L 193.630692 124.796726 
L 196.603394 125.98019 
L 199.741246 127.178895 
L 201.723047 127.707097 
L 203.869998 128.042179 
L 206.5124 128.213272 
L 209.650251 128.262019 
L 209.650251 128.262019 
" clip-path="url(#p99e2b694c7)" style="fill: none; stroke: #ffe07d; stroke-width: 2.30419; stroke-linejoin: miter"/>
   </g>
   <g id="FillBetweenPolyCollection_6"/>
   <g id="line2d_74">
    <path d="M 40.701706 128.182018 
L 69.602973 127.652639 
L 73.566575 127.633699 
L 82.31953 127.143132 
L 90.081584 126.745098 
L 95.861837 126.600748 
L 100.32089 126.11065 
L 103.789042 125.870068 
L 112.872297 125.414503 
L 120.799501 124.854869 
L 124.763104 124.375808 
L 131.534257 123.387976 
L 135.33271 122.866882 
L 138.470561 122.484643 
L 144.250815 121.956248 
L 149.205317 121.022678 
L 151.682569 120.372156 
L 154.65527 119.317039 
L 157.793122 118.272376 
L 164.399126 116.269001 
L 167.041527 115.089412 
L 169.683929 113.669748 
L 171.50058 112.454137 
L 172.986931 111.184501 
L 174.308131 109.750038 
L 175.464182 108.183087 
L 176.620233 106.239826 
L 177.776283 103.810094 
L 178.932334 100.763006 
L 180.088385 96.985248 
L 181.409585 91.756913 
L 185.042887 76.582421 
L 185.703488 74.982436 
L 186.198938 74.284218 
L 186.529238 74.088945 
L 186.859539 74.124233 
L 187.189839 74.398131 
L 187.685289 75.263519 
L 188.180739 76.667337 
L 188.84134 79.323773 
L 189.66709 83.717469 
L 190.988291 92.343768 
L 193.300392 107.616221 
L 194.456443 113.634484 
L 195.447343 117.626338 
L 196.438244 120.623957 
L 197.263994 122.491589 
L 198.254895 124.152164 
L 199.245795 125.350112 
L 200.236696 126.223459 
L 201.392747 126.95436 
L 202.713947 127.518172 
L 204.200298 127.904661 
L 206.016949 128.140748 
L 208.824501 128.251605 
L 209.650251 128.260137 
L 209.650251 128.260137 
" clip-path="url(#p99e2b694c7)" style="fill: none; stroke: #55b4dc; stroke-width: 2.30419; stroke-linejoin: miter"/>
   </g>
   <g id="FillBetweenPolyCollection_7"/>
   <g id="line2d_75">
    <path d="M 40.701706 127.399625 
L 47.96831 126.604759 
L 55.234914 125.59812 
L 61.180318 124.547545 
L 79.181678 121.125877 
L 100.65119 118.015422 
L 108.743545 117.172898 
L 119.643451 116.247027 
L 126.579755 115.886824 
L 133.516058 115.753608 
L 139.131162 115.85267 
L 143.425064 116.144806 
L 147.058366 116.611656 
L 150.691668 117.302652 
L 156.471921 118.678131 
L 160.600674 119.547731 
L 163.738525 119.977747 
L 166.876377 120.173786 
L 170.674829 120.172201 
L 179.097484 120.095989 
L 182.070186 120.327319 
L 184.712587 120.742753 
L 187.354989 121.382994 
L 190.16254 122.296327 
L 194.126143 123.853391 
L 199.245795 125.835324 
L 202.218497 126.738787 
L 205.026049 127.36187 
L 207.99875 127.793645 
L 209.650251 127.950674 
L 209.650251 127.950674 
" clip-path="url(#p99e2b694c7)" style="fill: none; stroke: #da7da6; stroke-width: 2.30419; stroke-linejoin: miter"/>
   </g>
   <g id="FillBetweenPolyCollection_8"/>
   <g id="line2d_76">
    <path d="M 40.701706 128.199906 
L 52.922813 128.03253 
L 61.015168 127.885049 
L 68.942372 127.680127 
L 74.392325 127.455668 
L 81.328629 127.126023 
L 86.613432 126.956436 
L 93.880036 126.376606 
L 102.467841 125.654574 
L 108.908695 125.217139 
L 113.532897 124.615709 
L 118.32225 123.838687 
L 123.111603 122.756202 
L 132.360008 120.452531 
L 134.837259 119.590698 
L 141.938713 116.921548 
L 147.553816 115.068145 
L 155.646171 112.04509 
L 160.600674 110.579585 
L 164.894576 109.429501 
L 166.546077 108.694945 
L 168.362728 107.627447 
L 171.17028 105.668714 
L 177.280833 101.336591 
L 178.602034 100.756981 
L 179.592934 100.558819 
L 180.418685 100.590703 
L 181.244435 100.82508 
L 182.070186 101.271552 
L 183.061086 102.078623 
L 184.217137 103.341565 
L 185.868638 105.537885 
L 190.16254 111.788955 
L 191.979191 114.834618 
L 194.126143 118.9578 
L 196.273094 122.939393 
L 197.429144 124.669558 
L 198.585195 125.997533 
L 199.576096 126.819344 
L 200.566996 127.388897 
L 201.723047 127.806774 
L 203.209398 128.085123 
L 205.356349 128.228143 
L 209.650251 128.267686 
L 209.650251 128.267686 
" clip-path="url(#p99e2b694c7)" style="fill: none; stroke: #000000; stroke-width: 2.30419; stroke-linejoin: miter"/>
   </g>
  </g>
  <g id="patch_4">
   <path d="M 32.254279 69.099875 
L 218.097679 69.099875 
L 218.097679 9.489125 
L 32.254279 9.489125 
L 32.254279 69.099875 
z
" style="fill: none; stroke: #000000; stroke-width: 0.7; stroke-linejoin: miter"/>
  </g>
  <g id="patch_5">
   <path d="M 32.254279 130.978341 
L 218.097679 130.978341 
L 218.097679 71.367591 
L 32.254279 71.367591 
L 32.254279 130.978341 
z
" style="fill: none; stroke: #000000; stroke-width: 0.7; stroke-linejoin: miter"/>
  </g>
  <g id="text_15">
   <!-- SASA [$A^2$] -->
   <g transform="translate(109.425979 152.386058) scale(0.07 -0.07)">
    <defs>
     <path id="Roboto-Regular-53" d="M 2953 1150 
Q 2953 1463 2742 1650 
Q 2531 1838 1856 2036 
Q 1181 2234 789 2542 
Q 397 2850 397 3375 
Q 397 3906 820 4259 
Q 1244 4613 1944 4613 
Q 2713 4613 3130 4191 
Q 3547 3769 3547 3238 
L 2947 3238 
Q 2947 3619 2700 3869 
Q 2453 4119 1944 4119 
Q 1463 4119 1231 3908 
Q 1000 3697 1000 3381 
Q 1000 3097 1245 2908 
Q 1491 2719 2044 2563 
Q 2834 2341 3196 2014 
Q 3559 1688 3559 1156 
Q 3559 600 3125 268 
Q 2691 -63 1972 -63 
Q 1553 -63 1158 93 
Q 763 250 508 558 
Q 253 866 253 1319 
L 853 1319 
Q 853 853 1193 640 
Q 1534 428 1972 428 
Q 2444 428 2698 623 
Q 2953 819 2953 1150 
z
" transform="scale(0.015625)"/>
     <path id="Roboto-Regular-41" d="M 91 0 
L 1825 4550 
L 2353 4550 
L 4094 0 
L 3475 0 
L 3041 1191 
L 1138 1191 
L 706 0 
L 91 0 
z
M 1319 1684 
L 2863 1684 
L 2091 3806 
L 1319 1684 
z
" transform="scale(0.015625)"/>
     <path id="Roboto-Regular-20" transform="scale(0.015625)"/>
     <path id="Roboto-Regular-5b" d="M 1634 5200 
L 1634 4725 
L 1038 4725 
L 1038 -500 
L 1634 -500 
L 1634 -975 
L 459 -975 
L 459 5200 
L 1634 5200 
z
" transform="scale(0.015625)"/>
     <path id="DejaVuSans-Oblique-41" d="M 2356 4666 
L 3072 4666 
L 3938 0 
L 3278 0 
L 3084 1197 
L 984 1197 
L 325 0 
L -341 0 
L 2356 4666 
z
M 2584 4044 
L 1275 1722 
L 2988 1722 
L 2584 4044 
z
" transform="scale(0.015625)"/>
     <path id="DejaVuSans-32" d="M 1228 531 
L 3431 531 
L 3431 0 
L 469 0 
L 469 531 
Q 828 903 1448 1529 
Q 2069 2156 2228 2338 
Q 2531 2678 2651 2914 
Q 2772 3150 2772 3378 
Q 2772 3750 2511 3984 
Q 2250 4219 1831 4219 
Q 1534 4219 1204 4116 
Q 875 4013 500 3803 
L 500 4441 
Q 881 4594 1212 4672 
Q 1544 4750 1819 4750 
Q 2544 4750 2975 4387 
Q 3406 4025 3406 3419 
Q 3406 3131 3298 2873 
Q 3191 2616 2906 2266 
Q 2828 2175 2409 1742 
Q 1991 1309 1228 531 
z
" transform="scale(0.015625)"/>
     <path id="Roboto-Regular-5d" d="M 31 4725 
L 31 5200 
L 1213 5200 
L 1213 -975 
L 31 -975 
L 31 -500 
L 631 -500 
L 631 4725 
L 31 4725 
z
" transform="scale(0.015625)"/>
    </defs>
    <use xlink:href="#Roboto-Regular-53" transform="translate(0 0.765625)"/>
    <use xlink:href="#Roboto-Regular-41" transform="translate(59.375 0.765625)"/>
    <use xlink:href="#Roboto-Regular-53" transform="translate(124.609375 0.765625)"/>
    <use xlink:href="#Roboto-Regular-41" transform="translate(183.984375 0.765625)"/>
    <use xlink:href="#Roboto-Regular-20" transform="translate(249.21875 0.765625)"/>
    <use xlink:href="#Roboto-Regular-5b" transform="translate(274.023438 0.765625)"/>
    <use xlink:href="#DejaVuSans-Oblique-41" transform="translate(300.537109 0.765625)"/>
    <use xlink:href="#DejaVuSans-32" transform="translate(375.962083 39.046875) scale(0.7)"/>
    <use xlink:href="#Roboto-Regular-5d" transform="translate(423.232591 0.765625)"/>
   </g>
  </g>
  <g id="text_16">
   <!-- Density -->
   <g transform="translate(12.377813 81.777718) rotate(-90) scale(0.07 -0.07)">
    <defs>
     <path id="Roboto-Regular-44" d="M 528 0 
L 528 4550 
L 1816 4550 
Q 2713 4550 3267 3973 
Q 3822 3397 3822 2409 
L 3822 2138 
Q 3822 1150 3264 575 
Q 2706 0 1759 0 
L 528 0 
z
M 1131 4056 
L 1131 491 
L 1759 491 
Q 2488 491 2856 941 
Q 3225 1391 3225 2138 
L 3225 2416 
Q 3225 3200 2856 3628 
Q 2488 4056 1816 4056 
L 1131 4056 
z
" transform="scale(0.015625)"/>
     <path id="Roboto-Regular-6e" d="M 1844 2956 
Q 1566 2956 1353 2806 
Q 1141 2656 1019 2416 
L 1019 0 
L 441 0 
L 441 3381 
L 988 3381 
L 1006 2959 
Q 1391 3444 2016 3444 
Q 2513 3444 2805 3166 
Q 3097 2888 3100 2231 
L 3100 0 
L 2519 0 
L 2519 2222 
Q 2519 2619 2345 2787 
Q 2172 2956 1844 2956 
z
" transform="scale(0.015625)"/>
     <path id="Roboto-Regular-73" d="M 2409 897 
Q 2409 1081 2273 1229 
Q 2138 1378 1647 1478 
Q 1081 1594 747 1814 
Q 413 2034 413 2456 
Q 413 2856 755 3150 
Q 1097 3444 1666 3444 
Q 2272 3444 2612 3134 
Q 2953 2825 2953 2388 
L 2375 2388 
Q 2375 2597 2190 2783 
Q 2006 2969 1666 2969 
Q 1306 2969 1150 2812 
Q 994 2656 994 2472 
Q 994 2288 1139 2173 
Q 1284 2059 1756 1953 
Q 2378 1813 2683 1584 
Q 2988 1356 2988 941 
Q 2988 494 2630 215 
Q 2272 -63 1681 -63 
Q 1009 -63 653 281 
Q 297 625 297 1044 
L 878 1044 
Q 897 684 1155 548 
Q 1413 413 1681 413 
Q 2034 413 2221 550 
Q 2409 688 2409 897 
z
" transform="scale(0.015625)"/>
     <path id="Roboto-Regular-69" d="M 444 4278 
Q 444 4419 530 4516 
Q 616 4613 784 4613 
Q 950 4613 1039 4516 
Q 1128 4419 1128 4278 
Q 1128 4144 1039 4048 
Q 950 3953 784 3953 
Q 616 3953 530 4048 
Q 444 4144 444 4278 
z
M 1069 3381 
L 1069 0 
L 488 0 
L 488 3381 
L 1069 3381 
z
" transform="scale(0.015625)"/>
     <path id="Roboto-Regular-74" d="M 1872 0 
Q 1675 -63 1425 -63 
Q 1103 -63 875 134 
Q 647 331 647 841 
L 647 2938 
L 28 2938 
L 28 3381 
L 647 3381 
L 647 4203 
L 1225 4203 
L 1225 3381 
L 1856 3381 
L 1856 2938 
L 1225 2938 
L 1225 838 
Q 1225 578 1337 506 
Q 1450 434 1597 434 
Q 1706 434 1869 472 
L 1872 0 
z
" transform="scale(0.015625)"/>
     <path id="Roboto-Regular-79" d="M 1594 -522 
Q 1294 -1316 688 -1363 
L 591 -1366 
Q 406 -1366 266 -1316 
L 263 -847 
L 419 -859 
Q 713 -859 878 -739 
Q 1044 -619 1150 -306 
L 1275 38 
L 69 3381 
L 700 3381 
L 1547 850 
L 2331 3381 
L 2950 3381 
L 1594 -522 
z
" transform="scale(0.015625)"/>
    </defs>
    <use xlink:href="#Roboto-Regular-44"/>
    <use xlink:href="#Roboto-Regular-65" transform="translate(65.625 0)"/>
    <use xlink:href="#Roboto-Regular-6e" transform="translate(118.652344 0)"/>
    <use xlink:href="#Roboto-Regular-73" transform="translate(173.876953 0)"/>
    <use xlink:href="#Roboto-Regular-69" transform="translate(225.488281 0)"/>
    <use xlink:href="#Roboto-Regular-74" transform="translate(249.804688 0)"/>
    <use xlink:href="#Roboto-Regular-79" transform="translate(282.519531 0)"/>
   </g>
  </g>
  <g id="patch_6">
   <path d="M 218.097679 69.099875 
L 229.43622 69.099875 
L 229.43622 9.489125 
L 218.097679 9.489125 
L 218.097679 69.099875 
z
" style="fill: none"/>
  </g>
  <g id="text_17">
   <!-- 0 nN -->
   <g transform="translate(221.141949 31.981687) rotate(-270) scale(0.07 -0.07)">
    <defs>
     <path id="Roboto-Bold-30" d="M 3372 1884 
Q 3372 856 2950 396 
Q 2528 -63 1840 -63 
Q 1153 -63 726 396 
Q 300 856 300 1884 
L 300 2675 
Q 300 3700 723 4156 
Q 1147 4613 1834 4613 
Q 2519 4613 2944 4159 
Q 3369 3706 3372 2691 
L 3372 1884 
z
M 2469 2800 
Q 2469 3406 2303 3645 
Q 2138 3884 1834 3884 
Q 1538 3884 1372 3650 
Q 1206 3416 1203 2825 
L 1203 1763 
Q 1203 1153 1370 909 
Q 1538 666 1841 666 
Q 2138 666 2302 905 
Q 2466 1144 2469 1738 
L 2469 2800 
z
" transform="scale(0.015625)"/>
     <path id="Roboto-Bold-20" transform="scale(0.015625)"/>
     <path id="Roboto-Bold-6e" d="M 1806 2713 
Q 1422 2713 1234 2388 
L 1234 0 
L 331 0 
L 331 3381 
L 1178 3381 
L 1209 2994 
Q 1572 3444 2181 3444 
Q 2659 3444 2953 3159 
Q 3247 2875 3250 2169 
L 3250 0 
L 2344 0 
L 2344 2156 
Q 2344 2481 2205 2597 
Q 2066 2713 1806 2713 
z
" transform="scale(0.015625)"/>
     <path id="Roboto-Bold-4e" d="M 4109 4550 
L 4109 0 
L 3172 0 
L 1347 2997 
L 1347 0 
L 406 0 
L 406 4550 
L 1347 4550 
L 3172 1550 
L 3172 4550 
L 4109 4550 
z
" transform="scale(0.015625)"/>
    </defs>
    <use xlink:href="#Roboto-Bold-30"/>
    <use xlink:href="#Roboto-Bold-20" transform="translate(57.373047 0)"/>
    <use xlink:href="#Roboto-Bold-6e" transform="translate(82.275391 0)"/>
    <use xlink:href="#Roboto-Bold-4e" transform="translate(138.28125 0)"/>
   </g>
  </g>
  <g id="patch_7">
   <path d="M 218.097679 130.978341 
L 229.43622 130.978341 
L 229.43622 71.367591 
L 218.097679 71.367591 
L 218.097679 130.978341 
z
" style="fill: none"/>
  </g>
  <g id="text_18">
   <!-- 1 nN -->
   <g transform="translate(221.141949 93.860154) rotate(-270) scale(0.07 -0.07)">
    <defs>
     <path id="Roboto-Bold-31" d="M 2503 4556 
L 2503 0 
L 1600 0 
L 1600 3484 
L 525 3150 
L 525 3881 
L 2406 4556 
L 2503 4556 
z
" transform="scale(0.015625)"/>
    </defs>
    <use xlink:href="#Roboto-Bold-31"/>
    <use xlink:href="#Roboto-Bold-20" transform="translate(57.373047 0)"/>
    <use xlink:href="#Roboto-Bold-6e" transform="translate(82.275391 0)"/>
    <use xlink:href="#Roboto-Bold-4e" transform="translate(138.28125 0)"/>
   </g>
  </g>
 </g>
 <defs>
  <clipPath id="p38ac8b2850">
   <rect x="32.254279" y="9.489125" width="185.8434" height="59.61075"/>
  </clipPath>
  <clipPath id="p99e2b694c7">
   <rect x="32.254279" y="71.367591" width="185.8434" height="59.61075"/>
  </clipPath>
 </defs>
</svg>
