<?xml version="1.0" encoding="utf-8" standalone="no"?>
<!DOCTYPE svg PUBLIC "-//W3C//DTD SVG 1.1//EN"
  "http://www.w3.org/Graphics/SVG/1.1/DTD/svg11.dtd">
<svg xmlns:xlink="http://www.w3.org/1999/xlink" width="218.494488pt" height="184.47874pt" viewBox="0 0 218.494488 184.47874" xmlns="http://www.w3.org/2000/svg" version="1.1">
 <metadata>
  <rdf:RDF xmlns:dc="http://purl.org/dc/elements/1.1/" xmlns:cc="http://creativecommons.org/ns#" xmlns:rdf="http://www.w3.org/1999/02/22-rdf-syntax-ns#">
   <cc:Work>
    <dc:type rdf:resource="http://purl.org/dc/dcmitype/StillImage"/>
    <dc:date>2025-10-23T16:09:05.595481</dc:date>
    <dc:format>image/svg+xml</dc:format>
    <dc:creator>
     <cc:Agent>
      <dc:title>Matplotlib v3.10.6, https://matplotlib.org/</dc:title>
     </cc:Agent>
    </dc:creator>
   </cc:Work>
  </rdf:RDF>
 </metadata>
 <defs>
  <style type="text/css">*{stroke-linejoin: round; stroke-linecap: butt}</style>
 </defs>
 <g id="figure_1">
  <g id="patch_1">
   <path d="M -0 184.47874 
L 218.494488 184.47874 
L 218.494488 0 
L -0 0 
z
" style="fill: #ffffff"/>
  </g>
  <g id="patch_2">
   <path d="M 7.2 177.27874 
L 211.294488 177.27874 
L 211.294488 7.2 
L 7.2 7.2 
L 7.2 177.27874 
z
" style="fill: none; stroke: #ffffff; stroke-width: 0.7; stroke-linejoin: miter"/>
  </g>
  <g id="axes_1">
   <g id="patch_3">
    <path d="M 38.173296 153.4531 
L 92.979823 153.4531 
L 92.979823 49.356842 
L 38.173296 49.356842 
z
" style="fill: #ffffff"/>
   </g>
   <g id="matplotlib.axis_1">
    <g id="xtick_1">
     <g id="line2d_1">
      <defs>
       <path id="m44ae833c03" d="M 0 1.5 
L 0 -1.5 
" style="stroke: #000000; stroke-width: 0.7"/>
      </defs>
      <g>
       <use xlink:href="#m44ae833c03" x="49.739116" y="153.4531" style="stroke: #000000; stroke-width: 0.7"/>
      </g>
     </g>
     <g id="text_1">
      <!-- 0.2 -->
      <g transform="translate(44.881772 162.6031) scale(0.07 -0.07)">
       <defs>
        <path id="Roboto-Regular-30" d="M 3234 1944 
Q 3234 825 2848 381 
Q 2463 -63 1800 -63 
Q 1156 -63 764 368 
Q 372 800 359 1872 
L 359 2638 
Q 359 3753 750 4183 
Q 1141 4613 1794 4613 
Q 2447 4613 2834 4195 
Q 3222 3778 3234 2709 
L 3234 1944 
z
M 2653 2734 
Q 2653 3503 2434 3822 
Q 2216 4141 1794 4141 
Q 1388 4141 1167 3831 
Q 947 3522 941 2778 
L 941 1850 
Q 941 1088 1164 750 
Q 1388 413 1800 413 
Q 2222 413 2436 745 
Q 2650 1078 2653 1825 
L 2653 2734 
z
" transform="scale(0.015625)"/>
        <path id="Roboto-Regular-2e" d="M 450 306 
Q 450 453 542 554 
Q 634 656 809 656 
Q 984 656 1076 554 
Q 1169 453 1169 306 
Q 1169 163 1076 62 
Q 984 -38 809 -38 
Q 634 -38 542 62 
Q 450 163 450 306 
z
" transform="scale(0.015625)"/>
        <path id="Roboto-Regular-32" d="M 3359 475 
L 3359 0 
L 381 0 
L 381 416 
L 1925 2134 
Q 2306 2566 2439 2819 
Q 2572 3072 2572 3328 
Q 2572 3663 2364 3900 
Q 2156 4138 1778 4138 
Q 1322 4138 1097 3878 
Q 872 3619 872 3213 
L 294 3213 
Q 294 3788 672 4200 
Q 1050 4613 1778 4613 
Q 2422 4613 2786 4278 
Q 3150 3944 3150 3397 
Q 3150 2997 2903 2592 
Q 2656 2188 2297 1797 
L 1078 475 
L 3359 475 
z
" transform="scale(0.015625)"/>
       </defs>
       <use xlink:href="#Roboto-Regular-30"/>
       <use xlink:href="#Roboto-Regular-2e" transform="translate(56.201172 0)"/>
       <use xlink:href="#Roboto-Regular-32" transform="translate(82.568359 0)"/>
      </g>
     </g>
    </g>
    <g id="xtick_2">
     <g id="line2d_2">
      <g>
       <use xlink:href="#m44ae833c03" x="63.54081" y="153.4531" style="stroke: #000000; stroke-width: 0.7"/>
      </g>
     </g>
     <g id="text_2">
      <!-- 0.3 -->
      <g transform="translate(58.683466 162.6031) scale(0.07 -0.07)">
       <defs>
        <path id="Roboto-Regular-33" d="M 1222 2084 
L 1222 2559 
L 1647 2559 
Q 2094 2563 2312 2784 
Q 2531 3006 2531 3338 
Q 2531 4138 1738 4138 
Q 1369 4138 1141 3927 
Q 913 3716 913 3359 
L 334 3359 
Q 334 3881 720 4247 
Q 1106 4613 1738 4613 
Q 2353 4613 2733 4286 
Q 3113 3959 3113 3325 
Q 3113 3072 2942 2784 
Q 2772 2497 2397 2338 
Q 2850 2191 3015 1884 
Q 3181 1578 3181 1269 
Q 3181 631 2768 284 
Q 2356 -63 1741 -63 
Q 1147 -63 722 267 
Q 297 597 297 1203 
L 875 1203 
Q 875 844 1108 628 
Q 1341 413 1741 413 
Q 2138 413 2369 622 
Q 2600 831 2600 1256 
Q 2600 1681 2337 1882 
Q 2075 2084 1634 2084 
L 1222 2084 
z
" transform="scale(0.015625)"/>
       </defs>
       <use xlink:href="#Roboto-Regular-30"/>
       <use xlink:href="#Roboto-Regular-2e" transform="translate(56.201172 0)"/>
       <use xlink:href="#Roboto-Regular-33" transform="translate(82.568359 0)"/>
      </g>
     </g>
    </g>
    <g id="xtick_3">
     <g id="line2d_3">
      <g>
       <use xlink:href="#m44ae833c03" x="77.342504" y="153.4531" style="stroke: #000000; stroke-width: 0.7"/>
      </g>
     </g>
     <g id="text_3">
      <!-- 0.4 -->
      <g transform="translate(72.48516 162.6031) scale(0.07 -0.07)">
       <defs>
        <path id="Roboto-Regular-34" d="M 166 1397 
L 2203 4550 
L 2819 4550 
L 2819 1531 
L 3453 1531 
L 3453 1056 
L 2819 1056 
L 2819 0 
L 2241 0 
L 2241 1056 
L 166 1056 
L 166 1397 
z
M 822 1531 
L 2241 1531 
L 2241 3766 
L 2169 3638 
L 822 1531 
z
" transform="scale(0.015625)"/>
       </defs>
       <use xlink:href="#Roboto-Regular-30"/>
       <use xlink:href="#Roboto-Regular-2e" transform="translate(56.201172 0)"/>
       <use xlink:href="#Roboto-Regular-34" transform="translate(82.568359 0)"/>
      </g>
     </g>
    </g>
    <g id="xtick_4">
     <g id="line2d_4">
      <g>
       <use xlink:href="#m44ae833c03" x="91.144198" y="153.4531" style="stroke: #000000; stroke-width: 0.7"/>
      </g>
     </g>
     <g id="text_4">
      <!-- 0.5 -->
      <g transform="translate(86.286854 162.6031) scale(0.07 -0.07)">
       <defs>
        <path id="Roboto-Regular-35" d="M 1109 2166 
L 647 2284 
L 875 4550 
L 3209 4550 
L 3209 4016 
L 1366 4016 
L 1228 2778 
Q 1572 2975 1988 2975 
Q 2616 2975 2980 2561 
Q 3344 2147 3344 1450 
Q 3344 797 2987 367 
Q 2631 -63 1903 -63 
Q 1350 -63 947 248 
Q 544 559 481 1197 
L 1031 1197 
Q 1141 413 1903 413 
Q 2313 413 2538 691 
Q 2763 969 2763 1444 
Q 2763 1872 2527 2164 
Q 2291 2456 1853 2456 
Q 1563 2456 1413 2378 
Q 1263 2300 1109 2166 
z
" transform="scale(0.015625)"/>
       </defs>
       <use xlink:href="#Roboto-Regular-30"/>
       <use xlink:href="#Roboto-Regular-2e" transform="translate(56.201172 0)"/>
       <use xlink:href="#Roboto-Regular-35" transform="translate(82.568359 0)"/>
      </g>
     </g>
    </g>
    <g id="xtick_5">
     <g id="line2d_5">
      <defs>
       <path id="m2404ebef1d" d="M 0 2 
L 0 -2 
" style="stroke: #000000; stroke-width: 0.7"/>
      </defs>
      <g>
       <use xlink:href="#m2404ebef1d" x="42.838269" y="153.4531" style="stroke: #000000; stroke-width: 0.7"/>
      </g>
     </g>
    </g>
    <g id="xtick_6">
     <g id="line2d_6">
      <g>
       <use xlink:href="#m2404ebef1d" x="56.639963" y="153.4531" style="stroke: #000000; stroke-width: 0.7"/>
      </g>
     </g>
    </g>
    <g id="xtick_7">
     <g id="line2d_7">
      <g>
       <use xlink:href="#m2404ebef1d" x="70.441657" y="153.4531" style="stroke: #000000; stroke-width: 0.7"/>
      </g>
     </g>
    </g>
    <g id="xtick_8">
     <g id="line2d_8">
      <g>
       <use xlink:href="#m2404ebef1d" x="84.243351" y="153.4531" style="stroke: #000000; stroke-width: 0.7"/>
      </g>
     </g>
    </g>
   </g>
   <g id="matplotlib.axis_2">
    <g id="ytick_1">
     <g id="line2d_9">
      <defs>
       <path id="m3bd07bceb3" d="M 1.5 0 
L -1.5 -0 
" style="stroke: #000000; stroke-width: 0.7"/>
      </defs>
      <g>
       <use xlink:href="#m3bd07bceb3" x="38.173296" y="150.137307" style="stroke: #000000; stroke-width: 0.7"/>
      </g>
     </g>
     <g id="text_5">
      <!-- -200 -->
      <g transform="translate(20.535796 152.762307) scale(0.07 -0.07)">
       <defs>
        <path id="Roboto-Regular-2d" d="M 1644 2172 
L 1644 1697 
L 119 1697 
L 119 2172 
L 1644 2172 
z
" transform="scale(0.015625)"/>
       </defs>
       <use xlink:href="#Roboto-Regular-2d"/>
       <use xlink:href="#Roboto-Regular-32" transform="translate(27.636719 0)"/>
       <use xlink:href="#Roboto-Regular-30" transform="translate(83.837891 0)"/>
       <use xlink:href="#Roboto-Regular-30" transform="translate(140.039062 0)"/>
      </g>
     </g>
    </g>
    <g id="ytick_2">
     <g id="line2d_10">
      <g>
       <use xlink:href="#m3bd07bceb3" x="38.173296" y="117.188661" style="stroke: #000000; stroke-width: 0.7"/>
      </g>
     </g>
     <g id="text_6">
      <!-- -100 -->
      <g transform="translate(20.535796 119.813661) scale(0.07 -0.07)">
       <defs>
        <path id="Roboto-Regular-31" d="M 2278 4575 
L 2278 0 
L 1700 0 
L 1700 3853 
L 534 3428 
L 534 3950 
L 2188 4575 
L 2278 4575 
z
" transform="scale(0.015625)"/>
       </defs>
       <use xlink:href="#Roboto-Regular-2d"/>
       <use xlink:href="#Roboto-Regular-31" transform="translate(27.636719 0)"/>
       <use xlink:href="#Roboto-Regular-30" transform="translate(83.837891 0)"/>
       <use xlink:href="#Roboto-Regular-30" transform="translate(140.039062 0)"/>
      </g>
     </g>
    </g>
    <g id="ytick_3">
     <g id="line2d_11">
      <g>
       <use xlink:href="#m3bd07bceb3" x="38.173296" y="84.240015" style="stroke: #000000; stroke-width: 0.7"/>
      </g>
     </g>
     <g id="text_7">
      <!-- 0 -->
      <g transform="translate(30.339077 86.865015) scale(0.07 -0.07)">
       <use xlink:href="#Roboto-Regular-30"/>
      </g>
     </g>
    </g>
    <g id="ytick_4">
     <g id="line2d_12">
      <g>
       <use xlink:href="#m3bd07bceb3" x="38.173296" y="51.291368" style="stroke: #000000; stroke-width: 0.7"/>
      </g>
     </g>
     <g id="text_8">
      <!-- 100 -->
      <g transform="translate(22.47064 53.916368) scale(0.07 -0.07)">
       <use xlink:href="#Roboto-Regular-31"/>
       <use xlink:href="#Roboto-Regular-30" transform="translate(56.201172 0)"/>
       <use xlink:href="#Roboto-Regular-30" transform="translate(112.402344 0)"/>
      </g>
     </g>
    </g>
    <g id="ytick_5">
     <g id="line2d_13">
      <defs>
       <path id="me62748d1bf" d="M 2 0 
L -2 -0 
" style="stroke: #000000; stroke-width: 0.7"/>
      </defs>
      <g>
       <use xlink:href="#me62748d1bf" x="38.173296" y="133.662984" style="stroke: #000000; stroke-width: 0.7"/>
      </g>
     </g>
    </g>
    <g id="ytick_6">
     <g id="line2d_14">
      <g>
       <use xlink:href="#me62748d1bf" x="38.173296" y="100.714338" style="stroke: #000000; stroke-width: 0.7"/>
      </g>
     </g>
    </g>
    <g id="ytick_7">
     <g id="line2d_15">
      <g>
       <use xlink:href="#me62748d1bf" x="38.173296" y="67.765692" style="stroke: #000000; stroke-width: 0.7"/>
      </g>
     </g>
    </g>
   </g>
   <g id="FillBetweenPolyCollection_1">
    <path d="M 40.664502 72.868388 
L 40.664502 96.006733 
L 41.975663 96.998544 
L 43.286824 96.261914 
L 44.597985 94.036572 
L 45.909145 90.648377 
L 47.220306 87.558002 
L 48.531467 84.356636 
L 49.842628 81.133358 
L 51.153789 78.972359 
L 52.46495 78.069556 
L 53.776111 78.180112 
L 55.087272 79.808197 
L 56.398433 81.734325 
L 57.709594 82.506609 
L 59.020755 84.539705 
L 60.331916 87.690762 
L 61.643077 91.35958 
L 62.954238 93.453322 
L 64.265398 96.116693 
L 65.576559 98.896692 
L 66.88772 101.772677 
L 68.198881 104.88752 
L 69.510042 106.425212 
L 70.821203 108.338117 
L 72.132364 110.239619 
L 73.443525 112.480803 
L 74.754686 113.865957 
L 76.065847 115.19869 
L 77.377008 116.639894 
L 78.688169 118.114544 
L 79.99933 119.593981 
L 81.310491 121.229205 
L 82.621651 122.569533 
L 83.932812 123.86396 
L 85.243973 125.242143 
L 86.555134 126.818966 
L 87.866295 128.196207 
L 89.177456 129.811975 
L 90.488617 131.330124 
L 90.488617 108.82403 
L 90.488617 108.82403 
L 89.177456 107.471765 
L 87.866295 105.859594 
L 86.555134 104.536331 
L 85.243973 102.618074 
L 83.932812 101.289017 
L 82.621651 99.813313 
L 81.310491 98.392525 
L 79.99933 96.802558 
L 78.688169 95.439114 
L 77.377008 93.974065 
L 76.065847 92.480078 
L 74.754686 91.0815 
L 73.443525 89.542311 
L 72.132364 87.264982 
L 70.821203 85.205532 
L 69.510042 83.300211 
L 68.198881 81.57717 
L 66.88772 78.235364 
L 65.576559 75.518487 
L 64.265398 72.901472 
L 62.954238 70.467812 
L 61.643077 67.930622 
L 60.331916 64.110061 
L 59.020755 60.950029 
L 57.709594 58.921882 
L 56.398433 58.228814 
L 55.087272 56.253131 
L 53.776111 54.341279 
L 52.46495 54.08849 
L 51.153789 55.033606 
L 49.842628 57.21417 
L 48.531467 60.510547 
L 47.220306 64.115712 
L 45.909145 67.457914 
L 44.597985 70.72128 
L 43.286824 73.033942 
L 41.975663 73.992744 
L 40.664502 72.868388 
z
" clip-path="url(#p441ed692b3)" style="fill-opacity: 0.4"/>
   </g>
   <g id="FillBetweenPolyCollection_2">
    <path d="M 40.664502 81.023301 
L 40.664502 85.062017 
L 41.975663 87.299156 
L 43.286824 87.225397 
L 44.597985 85.75801 
L 45.909145 83.816898 
L 47.220306 80.934206 
L 48.531467 78.373494 
L 49.842628 77.67968 
L 51.153789 77.785438 
L 52.46495 80.916643 
L 53.776111 84.751796 
L 55.087272 89.084047 
L 56.398433 93.745155 
L 57.709594 99.034559 
L 59.020755 104.449906 
L 60.331916 107.491513 
L 61.643077 110.814311 
L 62.954238 114.284426 
L 64.265398 117.667896 
L 65.576559 120.368461 
L 66.88772 122.481454 
L 68.198881 124.214707 
L 69.510042 125.976438 
L 70.821203 128.080554 
L 72.132364 129.227992 
L 73.443525 130.442876 
L 74.754686 131.552715 
L 76.065847 132.327055 
L 77.377008 132.781594 
L 78.688169 133.535448 
L 79.99933 134.06137 
L 81.310491 134.432042 
L 82.621651 134.84866 
L 83.932812 135.715704 
L 85.243973 136.713083 
L 86.555134 137.259178 
L 87.866295 138.042344 
L 89.177456 138.796041 
L 90.488617 139.395144 
L 90.488617 134.925924 
L 90.488617 134.925924 
L 89.177456 134.306376 
L 87.866295 133.548909 
L 86.555134 132.774118 
L 85.243973 132.155525 
L 83.932812 131.200393 
L 82.621651 130.320408 
L 81.310491 129.941415 
L 79.99933 129.275456 
L 78.688169 128.80136 
L 77.377008 127.997548 
L 76.065847 127.609142 
L 74.754686 126.765736 
L 73.443525 125.631726 
L 72.132364 124.525338 
L 70.821203 123.39159 
L 69.510042 121.175829 
L 68.198881 119.468726 
L 66.88772 117.647981 
L 65.576559 115.495473 
L 64.265398 112.840006 
L 62.954238 109.568983 
L 61.643077 106.187757 
L 60.331916 102.941201 
L 59.020755 99.857688 
L 57.709594 94.589581 
L 56.398433 89.294542 
L 55.087272 84.709159 
L 53.776111 80.467829 
L 52.46495 76.606047 
L 51.153789 73.414275 
L 49.842628 73.303429 
L 48.531467 74.006966 
L 47.220306 76.583476 
L 45.909145 79.429631 
L 44.597985 81.314779 
L 43.286824 82.948848 
L 41.975663 83.288608 
L 40.664502 81.023301 
z
" clip-path="url(#p441ed692b3)" style="fill: #006c66; fill-opacity: 0.4"/>
   </g>
   <g id="line2d_16">
    <path d="M 40.664502 84.437561 
L 41.975663 85.495644 
L 43.286824 84.647928 
L 44.597985 82.378926 
L 45.909145 79.053146 
L 47.220306 75.836857 
L 48.531467 72.433591 
L 49.842628 69.173764 
L 51.153789 67.002982 
L 52.46495 66.079023 
L 53.776111 66.260695 
L 55.087272 68.030664 
L 56.398433 69.98157 
L 57.709594 70.714245 
L 59.020755 72.744867 
L 60.331916 75.900412 
L 61.643077 79.645101 
L 62.954238 81.960567 
L 64.265398 84.509082 
L 65.576559 87.20759 
L 66.88772 90.00402 
L 68.198881 93.232345 
L 69.510042 94.862711 
L 70.821203 96.771825 
L 72.132364 98.7523 
L 73.443525 101.011557 
L 74.754686 102.473729 
L 76.065847 103.839384 
L 77.377008 105.30698 
L 78.688169 106.776829 
L 79.99933 108.198269 
L 81.310491 109.810865 
L 82.621651 111.191423 
L 83.932812 112.576489 
L 85.243973 113.930108 
L 86.555134 115.677648 
L 87.866295 117.0279 
L 89.177456 118.64187 
L 90.488617 120.077077 
" clip-path="url(#p441ed692b3)" style="fill: none; stroke: #000000; stroke-width: 0.886227"/>
   </g>
   <g id="line2d_17">
    <path d="M 40.664502 83.042659 
L 41.975663 85.293882 
L 43.286824 85.087123 
L 44.597985 83.536395 
L 45.909145 81.623264 
L 47.220306 78.758841 
L 48.531467 76.19023 
L 49.842628 75.491554 
L 51.153789 75.599857 
L 52.46495 78.761345 
L 53.776111 82.609813 
L 55.087272 86.896603 
L 56.398433 91.519848 
L 57.709594 96.81207 
L 59.020755 102.153797 
L 60.331916 105.216357 
L 61.643077 108.501034 
L 62.954238 111.926705 
L 64.265398 115.253951 
L 65.576559 117.931967 
L 66.88772 120.064718 
L 68.198881 121.841717 
L 69.510042 123.576133 
L 70.821203 125.736072 
L 72.132364 126.876665 
L 73.443525 128.037301 
L 74.754686 129.159225 
L 76.065847 129.968098 
L 77.377008 130.389571 
L 78.688169 131.168404 
L 79.99933 131.668413 
L 81.310491 132.186728 
L 82.621651 132.584534 
L 83.932812 133.458049 
L 85.243973 134.434304 
L 86.555134 135.016648 
L 87.866295 135.795627 
L 89.177456 136.551208 
L 90.488617 137.160534 
" clip-path="url(#p441ed692b3)" style="fill: none; stroke: #006c66; stroke-width: 0.886227"/>
   </g>
  </g>
  <g id="axes_2">
   <g id="patch_4">
    <path d="M 95.020768 153.4531 
L 149.827295 153.4531 
L 149.827295 49.356842 
L 95.020768 49.356842 
z
" style="fill: #ffffff"/>
   </g>
   <g id="matplotlib.axis_3">
    <g id="xtick_9">
     <g id="line2d_18">
      <g>
       <use xlink:href="#m44ae833c03" x="106.586587" y="153.4531" style="stroke: #000000; stroke-width: 0.7"/>
      </g>
     </g>
     <g id="text_9">
      <!-- 0.2 -->
      <g transform="translate(101.729244 162.6031) scale(0.07 -0.07)">
       <use xlink:href="#Roboto-Regular-30"/>
       <use xlink:href="#Roboto-Regular-2e" transform="translate(56.201172 0)"/>
       <use xlink:href="#Roboto-Regular-32" transform="translate(82.568359 0)"/>
      </g>
     </g>
    </g>
    <g id="xtick_10">
     <g id="line2d_19">
      <g>
       <use xlink:href="#m44ae833c03" x="120.388281" y="153.4531" style="stroke: #000000; stroke-width: 0.7"/>
      </g>
     </g>
     <g id="text_10">
      <!-- 0.3 -->
      <g transform="translate(115.530937 162.6031) scale(0.07 -0.07)">
       <use xlink:href="#Roboto-Regular-30"/>
       <use xlink:href="#Roboto-Regular-2e" transform="translate(56.201172 0)"/>
       <use xlink:href="#Roboto-Regular-33" transform="translate(82.568359 0)"/>
      </g>
     </g>
    </g>
    <g id="xtick_11">
     <g id="line2d_20">
      <g>
       <use xlink:href="#m44ae833c03" x="134.189975" y="153.4531" style="stroke: #000000; stroke-width: 0.7"/>
      </g>
     </g>
     <g id="text_11">
      <!-- 0.4 -->
      <g transform="translate(129.332631 162.6031) scale(0.07 -0.07)">
       <use xlink:href="#Roboto-Regular-30"/>
       <use xlink:href="#Roboto-Regular-2e" transform="translate(56.201172 0)"/>
       <use xlink:href="#Roboto-Regular-34" transform="translate(82.568359 0)"/>
      </g>
     </g>
    </g>
    <g id="xtick_12">
     <g id="line2d_21">
      <g>
       <use xlink:href="#m44ae833c03" x="147.991669" y="153.4531" style="stroke: #000000; stroke-width: 0.7"/>
      </g>
     </g>
     <g id="text_12">
      <!-- 0.5 -->
      <g transform="translate(143.134325 162.6031) scale(0.07 -0.07)">
       <use xlink:href="#Roboto-Regular-30"/>
       <use xlink:href="#Roboto-Regular-2e" transform="translate(56.201172 0)"/>
       <use xlink:href="#Roboto-Regular-35" transform="translate(82.568359 0)"/>
      </g>
     </g>
    </g>
    <g id="xtick_13">
     <g id="line2d_22">
      <g>
       <use xlink:href="#m2404ebef1d" x="99.68574" y="153.4531" style="stroke: #000000; stroke-width: 0.7"/>
      </g>
     </g>
    </g>
    <g id="xtick_14">
     <g id="line2d_23">
      <g>
       <use xlink:href="#m2404ebef1d" x="113.487434" y="153.4531" style="stroke: #000000; stroke-width: 0.7"/>
      </g>
     </g>
    </g>
    <g id="xtick_15">
     <g id="line2d_24">
      <g>
       <use xlink:href="#m2404ebef1d" x="127.289128" y="153.4531" style="stroke: #000000; stroke-width: 0.7"/>
      </g>
     </g>
    </g>
    <g id="xtick_16">
     <g id="line2d_25">
      <g>
       <use xlink:href="#m2404ebef1d" x="141.090822" y="153.4531" style="stroke: #000000; stroke-width: 0.7"/>
      </g>
     </g>
    </g>
   </g>
   <g id="matplotlib.axis_4">
    <g id="ytick_8"/>
    <g id="ytick_9"/>
    <g id="ytick_10"/>
    <g id="ytick_11"/>
    <g id="ytick_12"/>
    <g id="ytick_13"/>
    <g id="ytick_14"/>
   </g>
   <g id="FillBetweenPolyCollection_3">
    <path d="M 97.511973 77.544468 
L 97.511973 86.290574 
L 98.823134 89.012149 
L 100.134295 89.857345 
L 101.445456 89.325758 
L 102.756617 86.529169 
L 104.067778 83.730043 
L 105.378939 81.936941 
L 106.6901 82.954191 
L 108.001261 83.024431 
L 109.312422 84.705016 
L 110.623583 88.605912 
L 111.934744 90.540413 
L 113.245905 92.682605 
L 114.557066 95.057026 
L 115.868226 98.079959 
L 117.179387 101.428527 
L 118.490548 104.096649 
L 119.801709 107.146695 
L 121.11287 110.578392 
L 122.424031 113.343664 
L 123.735192 115.694118 
L 125.046353 118.015266 
L 126.357514 119.994934 
L 127.668675 121.932666 
L 128.979836 124.014649 
L 130.290997 125.921121 
L 131.602158 127.883493 
L 132.913319 130.206174 
L 134.224479 132.155884 
L 135.53564 133.483194 
L 136.846801 135.064034 
L 138.157962 136.826737 
L 139.469123 138.858522 
L 140.780284 140.104686 
L 142.091445 141.635938 
L 143.402606 143.515777 
L 144.713767 145.526448 
L 146.024928 147.077881 
L 147.336089 148.721452 
L 147.336089 138.600524 
L 147.336089 138.600524 
L 146.024928 136.929296 
L 144.713767 135.381771 
L 143.402606 133.34306 
L 142.091445 131.487142 
L 140.780284 129.953168 
L 139.469123 128.709594 
L 138.157962 126.675701 
L 136.846801 125.060298 
L 135.53564 123.472638 
L 134.224479 122.142198 
L 132.913319 120.13088 
L 131.602158 117.940929 
L 130.290997 115.917984 
L 128.979836 114.148928 
L 127.668675 112.529537 
L 126.357514 110.437032 
L 125.046353 108.400172 
L 123.735192 106.068243 
L 122.424031 103.819712 
L 121.11287 101.440263 
L 119.801709 98.013449 
L 118.490548 94.896543 
L 117.179387 92.119987 
L 115.868226 88.770688 
L 114.557066 85.789475 
L 113.245905 83.451251 
L 111.934744 81.287293 
L 110.623583 79.179061 
L 109.312422 75.256518 
L 108.001261 73.588532 
L 106.6901 73.765921 
L 105.378939 72.626945 
L 104.067778 74.769889 
L 102.756617 77.643795 
L 101.445456 80.507257 
L 100.134295 81.069539 
L 98.823134 80.313028 
L 97.511973 77.544468 
z
" clip-path="url(#p9ca525533a)" style="fill-opacity: 0.4"/>
   </g>
   <g id="FillBetweenPolyCollection_4">
    <path d="M 97.511973 86.874697 
L 97.511973 88.496064 
L 98.823134 87.301975 
L 100.134295 83.742153 
L 101.445456 80.855575 
L 102.756617 77.649439 
L 104.067778 74.729167 
L 105.378939 72.689425 
L 106.6901 72.853587 
L 108.001261 73.998368 
L 109.312422 75.588674 
L 110.623583 77.548166 
L 111.934744 79.555278 
L 113.245905 83.253367 
L 114.557066 83.253367 
L 115.868226 83.253367 
L 117.179387 85.781585 
L 118.490548 89.520543 
L 119.801709 92.819469 
L 121.11287 96.212164 
L 122.424031 99.456868 
L 123.735192 101.469681 
L 125.046353 103.482052 
L 126.357514 105.027894 
L 127.668675 106.31127 
L 128.979836 107.530057 
L 130.290997 108.499526 
L 131.602158 109.556906 
L 132.913319 110.406912 
L 134.224479 111.219622 
L 135.53564 112.002952 
L 136.846801 113.08317 
L 138.157962 113.575495 
L 139.469123 113.90312 
L 140.780284 114.649637 
L 142.091445 115.463386 
L 143.402606 116.201326 
L 144.713767 114.858789 
L 146.024928 115.365038 
L 147.336089 115.771492 
L 147.336089 114.112274 
L 147.336089 114.112274 
L 146.024928 113.706683 
L 144.713767 113.204328 
L 143.402606 114.531508 
L 142.091445 113.766949 
L 140.780284 112.933628 
L 139.469123 112.122558 
L 138.157962 111.698084 
L 136.846801 111.213758 
L 135.53564 110.326658 
L 134.224479 109.497086 
L 132.913319 108.699827 
L 131.602158 107.89332 
L 130.290997 106.736782 
L 128.979836 105.777628 
L 127.668675 104.680474 
L 126.357514 103.416834 
L 125.046353 101.75794 
L 123.735192 99.698569 
L 122.424031 97.568018 
L 121.11287 94.605922 
L 119.801709 91.076277 
L 118.490548 87.634187 
L 117.179387 83.346009 
L 115.868226 81.604923 
L 114.557066 81.604923 
L 113.245905 81.604923 
L 111.934744 78.057498 
L 110.623583 75.856217 
L 109.312422 73.696714 
L 108.001261 72.009684 
L 106.6901 70.829457 
L 105.378939 70.7525 
L 104.067778 72.891055 
L 102.756617 75.840407 
L 101.445456 79.079889 
L 100.134295 81.970838 
L 98.823134 85.598926 
L 97.511973 86.874697 
z
" clip-path="url(#p9ca525533a)" style="fill: #006c66; fill-opacity: 0.4"/>
   </g>
   <g id="line2d_26">
    <path d="M 97.511973 81.917521 
L 98.823134 84.662588 
L 100.134295 85.463442 
L 101.445456 84.916507 
L 102.756617 82.086482 
L 104.067778 79.249966 
L 105.378939 77.281943 
L 106.6901 78.360056 
L 108.001261 78.306482 
L 109.312422 79.980767 
L 110.623583 83.892486 
L 111.934744 85.913853 
L 113.245905 88.066928 
L 114.557066 90.423251 
L 115.868226 93.425324 
L 117.179387 96.774257 
L 118.490548 99.496596 
L 119.801709 102.580072 
L 121.11287 106.009328 
L 122.424031 108.581688 
L 123.735192 110.881181 
L 125.046353 113.207719 
L 126.357514 115.215983 
L 127.668675 117.231101 
L 128.979836 119.081789 
L 130.290997 120.919552 
L 131.602158 122.912211 
L 132.913319 125.168527 
L 134.224479 127.149041 
L 135.53564 128.477916 
L 136.846801 130.062166 
L 138.157962 131.751219 
L 139.469123 133.784058 
L 140.780284 135.028927 
L 142.091445 136.56154 
L 143.402606 138.429419 
L 144.713767 140.45411 
L 146.024928 142.003589 
L 147.336089 143.660988 
" clip-path="url(#p9ca525533a)" style="fill: none; stroke: #000000; stroke-width: 0.886227"/>
   </g>
   <g id="line2d_27">
    <path d="M 97.511973 87.68538 
L 98.823134 86.450451 
L 100.134295 82.856495 
L 101.445456 79.967732 
L 102.756617 76.744923 
L 104.067778 73.810111 
L 105.378939 71.720963 
L 106.6901 71.841522 
L 108.001261 73.004026 
L 109.312422 74.642694 
L 110.623583 76.702192 
L 111.934744 78.806388 
L 113.245905 82.429145 
L 114.557066 82.429145 
L 115.868226 82.429145 
L 117.179387 84.563797 
L 118.490548 88.577365 
L 119.801709 91.947873 
L 121.11287 95.409043 
L 122.424031 98.512443 
L 123.735192 100.584125 
L 125.046353 102.619996 
L 126.357514 104.222364 
L 127.668675 105.495872 
L 128.979836 106.653842 
L 130.290997 107.618154 
L 131.602158 108.725113 
L 132.913319 109.553369 
L 134.224479 110.358354 
L 135.53564 111.164805 
L 136.846801 112.148464 
L 138.157962 112.636789 
L 139.469123 113.012839 
L 140.780284 113.791633 
L 142.091445 114.615168 
L 143.402606 115.366417 
L 144.713767 114.031558 
L 146.024928 114.53586 
L 147.336089 114.941883 
" clip-path="url(#p9ca525533a)" style="fill: none; stroke: #006c66; stroke-width: 0.886227"/>
   </g>
  </g>
  <g id="axes_3">
   <g id="patch_5">
    <path d="M 151.868239 153.4531 
L 206.674766 153.4531 
L 206.674766 49.356842 
L 151.868239 49.356842 
z
" style="fill: #ffffff"/>
   </g>
   <g id="matplotlib.axis_5">
    <g id="xtick_17">
     <g id="line2d_28">
      <g>
       <use xlink:href="#m44ae833c03" x="163.434059" y="153.4531" style="stroke: #000000; stroke-width: 0.7"/>
      </g>
     </g>
     <g id="text_13">
      <!-- 0.2 -->
      <g transform="translate(158.576715 162.6031) scale(0.07 -0.07)">
       <use xlink:href="#Roboto-Regular-30"/>
       <use xlink:href="#Roboto-Regular-2e" transform="translate(56.201172 0)"/>
       <use xlink:href="#Roboto-Regular-32" transform="translate(82.568359 0)"/>
      </g>
     </g>
    </g>
    <g id="xtick_18">
     <g id="line2d_29">
      <g>
       <use xlink:href="#m44ae833c03" x="177.235753" y="153.4531" style="stroke: #000000; stroke-width: 0.7"/>
      </g>
     </g>
     <g id="text_14">
      <!-- 0.3 -->
      <g transform="translate(172.378409 162.6031) scale(0.07 -0.07)">
       <use xlink:href="#Roboto-Regular-30"/>
       <use xlink:href="#Roboto-Regular-2e" transform="translate(56.201172 0)"/>
       <use xlink:href="#Roboto-Regular-33" transform="translate(82.568359 0)"/>
      </g>
     </g>
    </g>
    <g id="xtick_19">
     <g id="line2d_30">
      <g>
       <use xlink:href="#m44ae833c03" x="191.037447" y="153.4531" style="stroke: #000000; stroke-width: 0.7"/>
      </g>
     </g>
     <g id="text_15">
      <!-- 0.4 -->
      <g transform="translate(186.180103 162.6031) scale(0.07 -0.07)">
       <use xlink:href="#Roboto-Regular-30"/>
       <use xlink:href="#Roboto-Regular-2e" transform="translate(56.201172 0)"/>
       <use xlink:href="#Roboto-Regular-34" transform="translate(82.568359 0)"/>
      </g>
     </g>
    </g>
    <g id="xtick_20">
     <g id="line2d_31">
      <g>
       <use xlink:href="#m44ae833c03" x="204.839141" y="153.4531" style="stroke: #000000; stroke-width: 0.7"/>
      </g>
     </g>
     <g id="text_16">
      <!-- 0.5 -->
      <g transform="translate(199.981797 162.6031) scale(0.07 -0.07)">
       <use xlink:href="#Roboto-Regular-30"/>
       <use xlink:href="#Roboto-Regular-2e" transform="translate(56.201172 0)"/>
       <use xlink:href="#Roboto-Regular-35" transform="translate(82.568359 0)"/>
      </g>
     </g>
    </g>
    <g id="xtick_21">
     <g id="line2d_32">
      <g>
       <use xlink:href="#m2404ebef1d" x="156.533212" y="153.4531" style="stroke: #000000; stroke-width: 0.7"/>
      </g>
     </g>
    </g>
    <g id="xtick_22">
     <g id="line2d_33">
      <g>
       <use xlink:href="#m2404ebef1d" x="170.334906" y="153.4531" style="stroke: #000000; stroke-width: 0.7"/>
      </g>
     </g>
    </g>
    <g id="xtick_23">
     <g id="line2d_34">
      <g>
       <use xlink:href="#m2404ebef1d" x="184.1366" y="153.4531" style="stroke: #000000; stroke-width: 0.7"/>
      </g>
     </g>
    </g>
    <g id="xtick_24">
     <g id="line2d_35">
      <g>
       <use xlink:href="#m2404ebef1d" x="197.938294" y="153.4531" style="stroke: #000000; stroke-width: 0.7"/>
      </g>
     </g>
    </g>
   </g>
   <g id="matplotlib.axis_6">
    <g id="ytick_15"/>
    <g id="ytick_16"/>
    <g id="ytick_17"/>
    <g id="ytick_18"/>
    <g id="ytick_19"/>
    <g id="ytick_20"/>
    <g id="ytick_21"/>
   </g>
   <g id="FillBetweenPolyCollection_5">
    <path d="M 154.359445 86.237516 
L 154.359445 86.672495 
L 155.670606 85.478133 
L 156.981767 84.868432 
L 158.292928 82.4275 
L 159.604089 79.612219 
L 160.91525 75.599278 
L 162.226411 72.210319 
L 163.537572 70.249238 
L 164.848733 68.746672 
L 166.159894 68.699571 
L 167.471054 70.245193 
L 168.782215 73.224774 
L 170.093376 76.799712 
L 171.404537 80.891374 
L 172.715698 84.246508 
L 174.026859 88.495705 
L 175.33802 92.032132 
L 176.649181 95.508014 
L 177.960342 98.821545 
L 179.271503 101.021037 
L 180.582664 102.995405 
L 181.893825 104.87127 
L 183.204986 106.637615 
L 184.516147 108.347497 
L 185.827307 109.203339 
L 187.138468 110.036228 
L 188.449629 111.23977 
L 189.76079 112.919495 
L 191.071951 114.494497 
L 192.383112 115.81303 
L 193.694273 117.234296 
L 195.005434 118.232632 
L 196.316595 119.342718 
L 197.627756 120.302174 
L 198.938917 121.446199 
L 200.250078 122.792143 
L 201.561239 123.64119 
L 202.8724 125.314099 
L 204.18356 126.666459 
L 204.18356 124.976397 
L 204.18356 124.976397 
L 202.8724 123.326014 
L 201.561239 121.533714 
L 200.250078 120.743764 
L 198.938917 119.502646 
L 197.627756 118.301452 
L 196.316595 117.349795 
L 195.005434 116.337988 
L 193.694273 115.476511 
L 192.383112 113.949236 
L 191.071951 112.557558 
L 189.76079 111.064184 
L 188.449629 109.524826 
L 187.138468 108.250096 
L 185.827307 107.427106 
L 184.516147 106.513143 
L 183.204986 104.815094 
L 181.893825 103.020007 
L 180.582664 101.21537 
L 179.271503 99.327721 
L 177.960342 97.023904 
L 176.649181 93.647299 
L 175.33802 90.194172 
L 174.026859 86.689031 
L 172.715698 82.049997 
L 171.404537 78.716483 
L 170.093376 74.714974 
L 168.782215 71.161539 
L 167.471054 68.366758 
L 166.159894 66.978283 
L 164.848733 67.000572 
L 163.537572 68.550889 
L 162.226411 70.634887 
L 160.91525 73.871242 
L 159.604089 77.974185 
L 158.292928 80.732648 
L 156.981767 83.025401 
L 155.670606 84.477991 
L 154.359445 86.237516 
z
" clip-path="url(#pbc0d6dcc70)" style="fill-opacity: 0.4"/>
   </g>
   <g id="FillBetweenPolyCollection_6">
    <path d="M 156.981767 83.573263 
L 156.981767 85.799589 
L 158.292928 84.626084 
L 159.604089 82.535317 
L 160.91525 80.301777 
L 162.226411 78.113662 
L 163.537572 77.160311 
L 164.848733 80.337683 
L 166.159894 84.715085 
L 167.471054 89.295276 
L 168.782215 93.344487 
L 170.093376 97.218305 
L 171.404537 101.205212 
L 172.715698 104.03425 
L 174.026859 106.724484 
L 175.33802 109.761297 
L 176.649181 113.06302 
L 177.960342 115.114224 
L 179.271503 116.971109 
L 180.582664 119.060511 
L 181.893825 121.013045 
L 183.204986 122.417725 
L 184.516147 123.873194 
L 185.827307 125.328968 
L 187.138468 126.221215 
L 188.449629 127.496201 
L 189.76079 128.478514 
L 191.071951 129.414621 
L 192.383112 129.791309 
L 193.694273 130.448752 
L 195.005434 131.221329 
L 196.316595 132.015482 
L 197.627756 132.642336 
L 198.938917 133.234474 
L 200.250078 133.990102 
L 201.561239 135.056954 
L 202.8724 136.555566 
L 204.18356 137.255486 
L 204.18356 136.654142 
L 204.18356 136.654142 
L 202.8724 136.04778 
L 201.561239 134.522827 
L 200.250078 133.492168 
L 198.938917 132.554697 
L 197.627756 131.889581 
L 196.316595 131.344649 
L 195.005434 130.503363 
L 193.694273 129.732428 
L 192.383112 128.96326 
L 191.071951 128.682228 
L 189.76079 127.952056 
L 188.449629 126.861635 
L 187.138468 125.81328 
L 185.827307 124.786927 
L 184.516147 123.472966 
L 183.204986 121.938041 
L 181.893825 120.473494 
L 180.582664 118.578826 
L 179.271503 116.452962 
L 177.960342 114.65299 
L 176.649181 112.442127 
L 175.33802 109.159756 
L 174.026859 106.134789 
L 172.715698 103.392891 
L 171.404537 100.513214 
L 170.093376 96.48307 
L 168.782215 92.534359 
L 167.471054 88.519585 
L 166.159894 83.604722 
L 164.848733 79.278719 
L 163.537572 76.008298 
L 162.226411 76.740646 
L 160.91525 78.830616 
L 159.604089 80.911734 
L 158.292928 82.961123 
L 156.981767 83.573263 
z
" clip-path="url(#pbc0d6dcc70)" style="fill: #006c66; fill-opacity: 0.4"/>
   </g>
   <g id="line2d_36">
    <path d="M 154.359445 86.455005 
L 155.670606 84.978062 
L 156.981767 83.946917 
L 158.292928 81.580074 
L 159.604089 78.793202 
L 160.91525 74.73526 
L 162.226411 71.422603 
L 163.537572 69.400064 
L 164.848733 67.873622 
L 166.159894 67.838927 
L 167.471054 69.305975 
L 168.782215 72.193157 
L 170.093376 75.757343 
L 171.404537 79.803928 
L 172.715698 83.148253 
L 174.026859 87.592368 
L 175.33802 91.113152 
L 176.649181 94.577656 
L 177.960342 97.922725 
L 179.271503 100.174379 
L 180.582664 102.105387 
L 181.893825 103.945639 
L 183.204986 105.726355 
L 184.516147 107.43032 
L 185.827307 108.315222 
L 187.138468 109.143162 
L 188.449629 110.382298 
L 189.76079 111.99184 
L 191.071951 113.526027 
L 192.383112 114.881133 
L 193.694273 116.355404 
L 195.005434 117.28531 
L 196.316595 118.346256 
L 197.627756 119.301813 
L 198.938917 120.474423 
L 200.250078 121.767953 
L 201.561239 122.587452 
L 202.8724 124.320057 
L 204.18356 125.821428 
" clip-path="url(#pbc0d6dcc70)" style="fill: none; stroke: #000000; stroke-width: 0.886227"/>
   </g>
   <g id="line2d_37">
    <path d="M 156.981767 84.686426 
L 158.292928 83.793603 
L 159.604089 81.723526 
L 160.91525 79.566196 
L 162.226411 77.427154 
L 163.537572 76.584304 
L 164.848733 79.808201 
L 166.159894 84.159903 
L 167.471054 88.90743 
L 168.782215 92.939423 
L 170.093376 96.850687 
L 171.404537 100.859213 
L 172.715698 103.713571 
L 174.026859 106.429636 
L 175.33802 109.460526 
L 176.649181 112.752574 
L 177.960342 114.883607 
L 179.271503 116.712036 
L 180.582664 118.819668 
L 181.893825 120.74327 
L 183.204986 122.177883 
L 184.516147 123.67308 
L 185.827307 125.057948 
L 187.138468 126.017248 
L 188.449629 127.178918 
L 189.76079 128.215285 
L 191.071951 129.048424 
L 192.383112 129.377285 
L 193.694273 130.09059 
L 195.005434 130.862346 
L 196.316595 131.680065 
L 197.627756 132.265958 
L 198.938917 132.894586 
L 200.250078 133.741135 
L 201.561239 134.78989 
L 202.8724 136.301673 
L 204.18356 136.954814 
" clip-path="url(#pbc0d6dcc70)" style="fill: none; stroke: #006c66; stroke-width: 0.886227"/>
   </g>
  </g>
  <g id="patch_6">
   <path d="M 38.173296 153.4531 
L 92.979823 153.4531 
L 92.979823 49.356842 
L 38.173296 49.356842 
L 38.173296 153.4531 
z
" style="fill: none; stroke: #000000; stroke-width: 0.7; stroke-linejoin: miter"/>
  </g>
  <g id="patch_7">
   <path d="M 95.020768 153.4531 
L 149.827295 153.4531 
L 149.827295 49.356842 
L 95.020768 49.356842 
L 95.020768 153.4531 
z
" style="fill: none; stroke: #000000; stroke-width: 0.7; stroke-linejoin: miter"/>
  </g>
  <g id="patch_8">
   <path d="M 151.868239 153.4531 
L 206.674766 153.4531 
L 206.674766 49.356842 
L 151.868239 49.356842 
L 151.868239 153.4531 
z
" style="fill: none; stroke: #000000; stroke-width: 0.7; stroke-linejoin: miter"/>
  </g>
  <g id="text_17">
   <!-- $\text{d}~[\text{nm}]$ -->
   <g transform="translate(110.699031 173.81592) scale(0.07 -0.07)">
    <defs>
     <path id="DejaVuSans-64" d="M 2906 2969 
L 2906 4863 
L 3481 4863 
L 3481 0 
L 2906 0 
L 2906 525 
Q 2725 213 2448 61 
Q 2172 -91 1784 -91 
Q 1150 -91 751 415 
Q 353 922 353 1747 
Q 353 2572 751 3078 
Q 1150 3584 1784 3584 
Q 2172 3584 2448 3432 
Q 2725 3281 2906 2969 
z
M 947 1747 
Q 947 1113 1208 752 
Q 1469 391 1925 391 
Q 2381 391 2643 752 
Q 2906 1113 2906 1747 
Q 2906 2381 2643 2742 
Q 2381 3103 1925 3103 
Q 1469 3103 1208 2742 
Q 947 2381 947 1747 
z
" transform="scale(0.015625)"/>
     <path id="DejaVuSans-5b" d="M 550 4863 
L 1875 4863 
L 1875 4416 
L 1125 4416 
L 1125 -397 
L 1875 -397 
L 1875 -844 
L 550 -844 
L 550 4863 
z
" transform="scale(0.015625)"/>
     <path id="DejaVuSans-6e" d="M 3513 2113 
L 3513 0 
L 2938 0 
L 2938 2094 
Q 2938 2591 2744 2837 
Q 2550 3084 2163 3084 
Q 1697 3084 1428 2787 
Q 1159 2491 1159 1978 
L 1159 0 
L 581 0 
L 581 3500 
L 1159 3500 
L 1159 2956 
Q 1366 3272 1645 3428 
Q 1925 3584 2291 3584 
Q 2894 3584 3203 3211 
Q 3513 2838 3513 2113 
z
" transform="scale(0.015625)"/>
     <path id="DejaVuSans-6d" d="M 3328 2828 
Q 3544 3216 3844 3400 
Q 4144 3584 4550 3584 
Q 5097 3584 5394 3201 
Q 5691 2819 5691 2113 
L 5691 0 
L 5113 0 
L 5113 2094 
Q 5113 2597 4934 2840 
Q 4756 3084 4391 3084 
Q 3944 3084 3684 2787 
Q 3425 2491 3425 1978 
L 3425 0 
L 2847 0 
L 2847 2094 
Q 2847 2600 2669 2842 
Q 2491 3084 2119 3084 
Q 1678 3084 1418 2786 
Q 1159 2488 1159 1978 
L 1159 0 
L 581 0 
L 581 3500 
L 1159 3500 
L 1159 2956 
Q 1356 3278 1631 3431 
Q 1906 3584 2284 3584 
Q 2666 3584 2933 3390 
Q 3200 3197 3328 2828 
z
" transform="scale(0.015625)"/>
     <path id="DejaVuSans-5d" d="M 1947 4863 
L 1947 -844 
L 622 -844 
L 622 -397 
L 1369 -397 
L 1369 4416 
L 622 4416 
L 622 4863 
L 1947 4863 
z
" transform="scale(0.015625)"/>
    </defs>
    <use xlink:href="#DejaVuSans-64" transform="translate(0 0.015625)"/>
    <use xlink:href="#DejaVuSans-5b" transform="translate(95.946941 0.015625)"/>
    <use xlink:href="#DejaVuSans-6e" transform="translate(134.960613 0.015625)"/>
    <use xlink:href="#DejaVuSans-6d" transform="translate(198.339519 0.015625)"/>
    <use xlink:href="#DejaVuSans-5d" transform="translate(295.751628 0.015625)"/>
   </g>
  </g>
  <g id="text_18">
   <!-- E [kJ/mol] -->
   <g transform="translate(14.572976 117.185049) rotate(-90) scale(0.07 -0.07)">
    <defs>
     <path id="Roboto-Regular-45" d="M 528 0 
L 528 4550 
L 3388 4550 
L 3388 4056 
L 1131 4056 
L 1131 2594 
L 3100 2594 
L 3100 2103 
L 1131 2103 
L 1131 491 
L 3419 491 
L 3419 0 
L 528 0 
z
" transform="scale(0.015625)"/>
     <path id="Roboto-Regular-20" transform="scale(0.015625)"/>
     <path id="Roboto-Regular-5b" d="M 1634 5200 
L 1634 4725 
L 1038 4725 
L 1038 -500 
L 1634 -500 
L 1634 -975 
L 459 -975 
L 459 5200 
L 1634 5200 
z
" transform="scale(0.015625)"/>
     <path id="Roboto-Regular-6b" d="M 2559 0 
L 1388 1569 
L 1022 1191 
L 1022 0 
L 441 0 
L 441 4800 
L 1022 4800 
L 1022 1900 
L 1331 2269 
L 2381 3381 
L 3088 3381 
L 1769 1972 
L 3241 0 
L 2559 0 
z
" transform="scale(0.015625)"/>
     <path id="Roboto-Regular-4a" d="M 2438 4550 
L 3038 4550 
L 3038 1328 
Q 3038 653 2633 295 
Q 2228 -63 1603 -63 
Q 975 -63 570 262 
Q 166 588 166 1259 
L 769 1259 
Q 769 828 1001 628 
Q 1234 428 1603 428 
Q 1959 428 2198 656 
Q 2438 884 2438 1328 
L 2438 4550 
z
" transform="scale(0.015625)"/>
     <path id="Roboto-Regular-2f" d="M 2453 4550 
L 556 -391 
L 59 -391 
L 1959 4550 
L 2453 4550 
z
" transform="scale(0.015625)"/>
     <path id="Roboto-Regular-6d" d="M 1794 2956 
Q 1225 2956 1016 2478 
L 1016 0 
L 434 0 
L 434 3381 
L 984 3381 
L 1000 3013 
Q 1366 3444 2000 3444 
Q 2325 3444 2579 3314 
Q 2834 3184 2969 2900 
Q 3138 3144 3408 3294 
Q 3678 3444 4044 3444 
Q 4588 3444 4883 3153 
Q 5178 2863 5178 2222 
L 5178 0 
L 4597 0 
L 4597 2228 
Q 4597 2653 4401 2804 
Q 4206 2956 3875 2956 
Q 3525 2956 3325 2748 
Q 3125 2541 3094 2244 
L 3094 0 
L 2516 0 
L 2516 2225 
Q 2516 2622 2319 2789 
Q 2122 2956 1794 2956 
z
" transform="scale(0.015625)"/>
     <path id="Roboto-Regular-6f" d="M 288 1725 
Q 288 2459 700 2951 
Q 1113 3444 1822 3444 
Q 2531 3444 2943 2961 
Q 3356 2478 3366 1756 
L 3366 1653 
Q 3366 919 2952 428 
Q 2538 -63 1828 -63 
Q 1116 -63 702 428 
Q 288 919 288 1653 
L 288 1725 
z
M 866 1653 
Q 866 1150 1105 781 
Q 1344 413 1828 413 
Q 2300 413 2540 777 
Q 2781 1141 2784 1644 
L 2784 1725 
Q 2784 2222 2543 2595 
Q 2303 2969 1822 2969 
Q 1344 2969 1105 2595 
Q 866 2222 866 1725 
L 866 1653 
z
" transform="scale(0.015625)"/>
     <path id="Roboto-Regular-6c" d="M 1069 4800 
L 1069 0 
L 488 0 
L 488 4800 
L 1069 4800 
z
" transform="scale(0.015625)"/>
     <path id="Roboto-Regular-5d" d="M 31 4725 
L 31 5200 
L 1213 5200 
L 1213 -975 
L 31 -975 
L 31 -500 
L 631 -500 
L 631 4725 
L 31 4725 
z
" transform="scale(0.015625)"/>
    </defs>
    <use xlink:href="#Roboto-Regular-45"/>
    <use xlink:href="#Roboto-Regular-20" transform="translate(56.835938 0)"/>
    <use xlink:href="#Roboto-Regular-5b" transform="translate(81.640625 0)"/>
    <use xlink:href="#Roboto-Regular-6b" transform="translate(108.154297 0)"/>
    <use xlink:href="#Roboto-Regular-4a" transform="translate(158.837891 0)"/>
    <use xlink:href="#Roboto-Regular-2f" transform="translate(214.013672 0)"/>
    <use xlink:href="#Roboto-Regular-6d" transform="translate(255.273438 0)"/>
    <use xlink:href="#Roboto-Regular-6f" transform="translate(342.96875 0)"/>
    <use xlink:href="#Roboto-Regular-6c" transform="translate(400 0)"/>
    <use xlink:href="#Roboto-Regular-5d" transform="translate(424.316406 0)"/>
   </g>
  </g>
  <g id="patch_9">
   <path d="M 38.173296 49.356842 
L 92.979823 49.356842 
L 92.979823 33.36378 
L 38.173296 33.36378 
z
" style="fill: #ffffff; stroke: #000000; stroke-linejoin: miter"/>
  </g>
  <g id="text_19">
   <!-- Ala845-Gly846 -->
   <g transform="translate(42.877966 43.985311) scale(0.07 -0.07)">
    <defs>
     <path id="Roboto-Regular-41" d="M 91 0 
L 1825 4550 
L 2353 4550 
L 4094 0 
L 3475 0 
L 3041 1191 
L 1138 1191 
L 706 0 
L 91 0 
z
M 1319 1684 
L 2863 1684 
L 2091 3806 
L 1319 1684 
z
" transform="scale(0.015625)"/>
     <path id="Roboto-Regular-61" d="M 2528 0 
Q 2472 122 2447 356 
Q 2284 184 2040 60 
Q 1797 -63 1484 -63 
Q 966 -63 653 228 
Q 341 519 341 941 
Q 341 1484 753 1767 
Q 1166 2050 1863 2050 
L 2434 2050 
L 2434 2319 
Q 2434 2619 2254 2798 
Q 2075 2978 1722 2978 
Q 1394 2978 1192 2817 
Q 991 2656 991 2444 
L 413 2444 
Q 413 2806 778 3125 
Q 1144 3444 1756 3444 
Q 2306 3444 2659 3162 
Q 3013 2881 3013 2313 
L 3013 794 
Q 3013 325 3131 50 
L 3131 0 
L 2528 0 
z
M 1569 444 
Q 1881 444 2111 600 
Q 2341 756 2434 947 
L 2434 1644 
L 1897 1644 
Q 922 1625 922 1019 
Q 922 778 1084 611 
Q 1247 444 1569 444 
z
" transform="scale(0.015625)"/>
     <path id="Roboto-Regular-38" d="M 3244 1231 
Q 3244 606 2826 271 
Q 2409 -63 1796 -63 
Q 1184 -63 767 271 
Q 350 606 350 1231 
Q 350 1613 554 1905 
Q 759 2197 1109 2347 
Q 806 2494 629 2762 
Q 453 3031 453 3366 
Q 453 3963 833 4288 
Q 1213 4613 1794 4613 
Q 2378 4613 2758 4288 
Q 3138 3963 3138 3366 
Q 3138 3028 2956 2761 
Q 2775 2494 2472 2347 
Q 2825 2197 3034 1903 
Q 3244 1609 3244 1231 
z
M 2559 3356 
Q 2559 3697 2346 3917 
Q 2134 4138 1793 4138 
Q 1453 4138 1243 3927 
Q 1034 3716 1034 3356 
Q 1034 3003 1243 2790 
Q 1453 2578 1797 2578 
Q 2138 2578 2348 2790 
Q 2559 3003 2559 3356 
z
M 2663 1244 
Q 2663 1625 2420 1865 
Q 2178 2106 1791 2106 
Q 1394 2106 1161 1865 
Q 928 1625 928 1244 
Q 928 850 1161 631 
Q 1394 413 1797 413 
Q 2200 413 2431 631 
Q 2663 850 2663 1244 
z
" transform="scale(0.015625)"/>
     <path id="Roboto-Regular-47" d="M 3891 2266 
L 3891 600 
Q 3763 413 3403 175 
Q 3044 -63 2281 -63 
Q 1450 -63 915 507 
Q 381 1078 381 2100 
L 381 2453 
Q 381 3469 856 4041 
Q 1331 4613 2213 4613 
Q 2994 4613 3398 4219 
Q 3803 3825 3891 3219 
L 3288 3219 
Q 3225 3588 2979 3853 
Q 2734 4119 2213 4119 
Q 1584 4119 1287 3676 
Q 991 3234 988 2475 
L 988 2100 
Q 988 1313 1344 870 
Q 1700 428 2284 428 
Q 2769 428 2984 542 
Q 3200 656 3291 759 
L 3291 1778 
L 2238 1778 
L 2238 2266 
L 3891 2266 
z
" transform="scale(0.015625)"/>
     <path id="Roboto-Regular-79" d="M 1594 -522 
Q 1294 -1316 688 -1363 
L 591 -1366 
Q 406 -1366 266 -1316 
L 263 -847 
L 419 -859 
Q 713 -859 878 -739 
Q 1044 -619 1150 -306 
L 1275 38 
L 69 3381 
L 700 3381 
L 1547 850 
L 2331 3381 
L 2950 3381 
L 1594 -522 
z
" transform="scale(0.015625)"/>
     <path id="Roboto-Regular-36" d="M 3291 1484 
Q 3291 838 2930 387 
Q 2569 -63 1878 -63 
Q 1388 -63 1063 198 
Q 738 459 577 861 
Q 416 1263 416 1684 
L 416 1956 
Q 416 2597 595 3194 
Q 775 3791 1247 4173 
Q 1719 4556 2597 4556 
L 2647 4556 
L 2647 4066 
Q 2041 4066 1705 3853 
Q 1369 3641 1205 3302 
Q 1041 2963 1006 2575 
Q 1369 2984 1984 2984 
Q 2438 2984 2727 2765 
Q 3016 2547 3153 2201 
Q 3291 1856 3291 1484 
z
M 997 1666 
Q 997 1059 1267 737 
Q 1538 416 1878 416 
Q 2278 416 2498 708 
Q 2719 1000 2719 1456 
Q 2719 1863 2516 2184 
Q 2313 2506 1891 2506 
Q 1588 2506 1341 2325 
Q 1094 2144 997 1884 
L 997 1666 
z
" transform="scale(0.015625)"/>
    </defs>
    <use xlink:href="#Roboto-Regular-41"/>
    <use xlink:href="#Roboto-Regular-6c" transform="translate(65.234375 0)"/>
    <use xlink:href="#Roboto-Regular-61" transform="translate(89.550781 0)"/>
    <use xlink:href="#Roboto-Regular-38" transform="translate(143.945312 0)"/>
    <use xlink:href="#Roboto-Regular-34" transform="translate(200.146484 0)"/>
    <use xlink:href="#Roboto-Regular-35" transform="translate(256.347656 0)"/>
    <use xlink:href="#Roboto-Regular-2d" transform="translate(312.548828 0)"/>
    <use xlink:href="#Roboto-Regular-47" transform="translate(340.185547 0)"/>
    <use xlink:href="#Roboto-Regular-6c" transform="translate(408.300781 0)"/>
    <use xlink:href="#Roboto-Regular-79" transform="translate(432.617188 0)"/>
    <use xlink:href="#Roboto-Regular-38" transform="translate(479.931641 0)"/>
    <use xlink:href="#Roboto-Regular-34" transform="translate(536.132812 0)"/>
    <use xlink:href="#Roboto-Regular-36" transform="translate(592.333984 0)"/>
   </g>
  </g>
  <g id="patch_10">
   <path d="M 95.020768 49.356842 
L 149.827295 49.356842 
L 149.827295 33.36378 
L 95.020768 33.36378 
z
" style="fill: #ffffff; stroke: #000000; stroke-linejoin: miter"/>
  </g>
  <g id="text_20">
   <!-- Gly840-Ala841 -->
   <g transform="translate(99.725437 43.985311) scale(0.07 -0.07)">
    <use xlink:href="#Roboto-Regular-47"/>
    <use xlink:href="#Roboto-Regular-6c" transform="translate(68.115234 0)"/>
    <use xlink:href="#Roboto-Regular-79" transform="translate(92.431641 0)"/>
    <use xlink:href="#Roboto-Regular-38" transform="translate(139.746094 0)"/>
    <use xlink:href="#Roboto-Regular-34" transform="translate(195.947266 0)"/>
    <use xlink:href="#Roboto-Regular-30" transform="translate(252.148438 0)"/>
    <use xlink:href="#Roboto-Regular-2d" transform="translate(308.349609 0)"/>
    <use xlink:href="#Roboto-Regular-41" transform="translate(335.986328 0)"/>
    <use xlink:href="#Roboto-Regular-6c" transform="translate(401.220703 0)"/>
    <use xlink:href="#Roboto-Regular-61" transform="translate(425.537109 0)"/>
    <use xlink:href="#Roboto-Regular-38" transform="translate(479.931641 0)"/>
    <use xlink:href="#Roboto-Regular-34" transform="translate(536.132812 0)"/>
    <use xlink:href="#Roboto-Regular-31" transform="translate(592.333984 0)"/>
   </g>
  </g>
  <g id="patch_11">
   <path d="M 151.868239 49.356842 
L 206.674766 49.356842 
L 206.674766 33.36378 
L 151.868239 33.36378 
z
" style="fill: #ffffff; stroke: #000000; stroke-linejoin: miter"/>
  </g>
  <g id="text_21">
   <!-- Hyp851-Gly852 -->
   <g transform="translate(155.492284 43.985311) scale(0.07 -0.07)">
    <defs>
     <path id="Roboto-Regular-48" d="M 3425 0 
L 3425 2103 
L 1131 2103 
L 1131 0 
L 528 0 
L 528 4550 
L 1131 4550 
L 1131 2594 
L 3425 2594 
L 3425 4550 
L 4025 4550 
L 4025 0 
L 3425 0 
z
" transform="scale(0.015625)"/>
     <path id="Roboto-Regular-70" d="M 1984 -63 
Q 1375 -63 1019 328 
L 1019 -1300 
L 438 -1300 
L 438 3381 
L 969 3381 
L 997 3009 
Q 1353 3444 1975 3444 
Q 2616 3444 2956 2969 
Q 3297 2494 3297 1719 
L 3297 1653 
Q 3297 913 2955 425 
Q 2613 -63 1984 -63 
z
M 1806 2956 
Q 1281 2956 1019 2491 
L 1019 872 
Q 1284 413 1813 413 
Q 2281 413 2498 781 
Q 2716 1150 2716 1653 
L 2716 1719 
Q 2716 2222 2498 2589 
Q 2281 2956 1806 2956 
z
" transform="scale(0.015625)"/>
    </defs>
    <use xlink:href="#Roboto-Regular-48"/>
    <use xlink:href="#Roboto-Regular-79" transform="translate(71.337891 0)"/>
    <use xlink:href="#Roboto-Regular-70" transform="translate(118.652344 0)"/>
    <use xlink:href="#Roboto-Regular-38" transform="translate(174.804688 0)"/>
    <use xlink:href="#Roboto-Regular-35" transform="translate(231.005859 0)"/>
    <use xlink:href="#Roboto-Regular-31" transform="translate(287.207031 0)"/>
    <use xlink:href="#Roboto-Regular-2d" transform="translate(343.408203 0)"/>
    <use xlink:href="#Roboto-Regular-47" transform="translate(371.044922 0)"/>
    <use xlink:href="#Roboto-Regular-6c" transform="translate(439.160156 0)"/>
    <use xlink:href="#Roboto-Regular-79" transform="translate(463.476562 0)"/>
    <use xlink:href="#Roboto-Regular-38" transform="translate(510.791016 0)"/>
    <use xlink:href="#Roboto-Regular-35" transform="translate(566.992188 0)"/>
    <use xlink:href="#Roboto-Regular-32" transform="translate(623.193359 0)"/>
   </g>
  </g>
  <g id="patch_12">
   <path d="M 70.634176 27.240945 
L 174.213886 27.240945 
L 174.213886 9.240945 
L 70.634176 9.240945 
z
" style="fill: #ffffff"/>
  </g>
  <g id="text_22">
   <!-- System -->
   <g transform="translate(71.634176 20.118914) scale(0.07 -0.07)">
    <defs>
     <path id="Roboto-Regular-53" d="M 2953 1150 
Q 2953 1463 2742 1650 
Q 2531 1838 1856 2036 
Q 1181 2234 789 2542 
Q 397 2850 397 3375 
Q 397 3906 820 4259 
Q 1244 4613 1944 4613 
Q 2713 4613 3130 4191 
Q 3547 3769 3547 3238 
L 2947 3238 
Q 2947 3619 2700 3869 
Q 2453 4119 1944 4119 
Q 1463 4119 1231 3908 
Q 1000 3697 1000 3381 
Q 1000 3097 1245 2908 
Q 1491 2719 2044 2563 
Q 2834 2341 3196 2014 
Q 3559 1688 3559 1156 
Q 3559 600 3125 268 
Q 2691 -63 1972 -63 
Q 1553 -63 1158 93 
Q 763 250 508 558 
Q 253 866 253 1319 
L 853 1319 
Q 853 853 1193 640 
Q 1534 428 1972 428 
Q 2444 428 2698 623 
Q 2953 819 2953 1150 
z
" transform="scale(0.015625)"/>
     <path id="Roboto-Regular-73" d="M 2409 897 
Q 2409 1081 2273 1229 
Q 2138 1378 1647 1478 
Q 1081 1594 747 1814 
Q 413 2034 413 2456 
Q 413 2856 755 3150 
Q 1097 3444 1666 3444 
Q 2272 3444 2612 3134 
Q 2953 2825 2953 2388 
L 2375 2388 
Q 2375 2597 2190 2783 
Q 2006 2969 1666 2969 
Q 1306 2969 1150 2812 
Q 994 2656 994 2472 
Q 994 2288 1139 2173 
Q 1284 2059 1756 1953 
Q 2378 1813 2683 1584 
Q 2988 1356 2988 941 
Q 2988 494 2630 215 
Q 2272 -63 1681 -63 
Q 1009 -63 653 281 
Q 297 625 297 1044 
L 878 1044 
Q 897 684 1155 548 
Q 1413 413 1681 413 
Q 2034 413 2221 550 
Q 2409 688 2409 897 
z
" transform="scale(0.015625)"/>
     <path id="Roboto-Regular-74" d="M 1872 0 
Q 1675 -63 1425 -63 
Q 1103 -63 875 134 
Q 647 331 647 841 
L 647 2938 
L 28 2938 
L 28 3381 
L 647 3381 
L 647 4203 
L 1225 4203 
L 1225 3381 
L 1856 3381 
L 1856 2938 
L 1225 2938 
L 1225 838 
Q 1225 578 1337 506 
Q 1450 434 1597 434 
Q 1706 434 1869 472 
L 1872 0 
z
" transform="scale(0.015625)"/>
     <path id="Roboto-Regular-65" d="M 3116 591 
Q 2950 341 2647 139 
Q 2344 -63 1844 -63 
Q 1138 -63 714 396 
Q 291 856 291 1572 
L 291 1703 
Q 291 2256 502 2645 
Q 713 3034 1050 3239 
Q 1388 3444 1769 3444 
Q 2494 3444 2826 2970 
Q 3159 2497 3159 1788 
L 3159 1528 
L 872 1528 
Q 884 1063 1148 736 
Q 1413 409 1875 409 
Q 2181 409 2393 534 
Q 2606 659 2766 869 
L 3116 591 
z
M 1769 2969 
Q 1425 2969 1187 2719 
Q 950 2469 891 2000 
L 2581 2000 
L 2581 2044 
Q 2559 2381 2386 2675 
Q 2213 2969 1769 2969 
z
" transform="scale(0.015625)"/>
    </defs>
    <use xlink:href="#Roboto-Regular-53"/>
    <use xlink:href="#Roboto-Regular-79" transform="translate(59.375 0)"/>
    <use xlink:href="#Roboto-Regular-73" transform="translate(106.689453 0)"/>
    <use xlink:href="#Roboto-Regular-74" transform="translate(158.300781 0)"/>
    <use xlink:href="#Roboto-Regular-65" transform="translate(191.015625 0)"/>
    <use xlink:href="#Roboto-Regular-6d" transform="translate(244.042969 0)"/>
   </g>
  </g>
  <g id="patch_13">
   <path d="M 99.638566 25.540945 
L 114.238566 25.540945 
L 114.238566 10.940945 
L 99.638566 10.940945 
L 99.638566 25.540945 
z
" clip-path="url(#p466ecf9320)" style="fill: none"/>
  </g>
  <g id="line2d_38">
   <path d="M 98.938566 18.240945 
L 114.938566 18.240945 
" clip-path="url(#p466ecf9320)" style="fill: none; stroke: #000000; stroke-width: 2.658681"/>
  </g>
  <g id="text_23">
   <!-- single -->
   <g transform="translate(115.959038 20.136414) scale(0.07 -0.07)">
    <defs>
     <path id="Roboto-Regular-69" d="M 444 4278 
Q 444 4419 530 4516 
Q 616 4613 784 4613 
Q 950 4613 1039 4516 
Q 1128 4419 1128 4278 
Q 1128 4144 1039 4048 
Q 950 3953 784 3953 
Q 616 3953 530 4048 
Q 444 4144 444 4278 
z
M 1069 3381 
L 1069 0 
L 488 0 
L 488 3381 
L 1069 3381 
z
" transform="scale(0.015625)"/>
     <path id="Roboto-Regular-6e" d="M 1844 2956 
Q 1566 2956 1353 2806 
Q 1141 2656 1019 2416 
L 1019 0 
L 441 0 
L 441 3381 
L 988 3381 
L 1006 2959 
Q 1391 3444 2016 3444 
Q 2513 3444 2805 3166 
Q 3097 2888 3100 2231 
L 3100 0 
L 2519 0 
L 2519 2222 
Q 2519 2619 2345 2787 
Q 2172 2956 1844 2956 
z
" transform="scale(0.015625)"/>
     <path id="Roboto-Regular-67" d="M 1725 -1334 
Q 1463 -1334 1081 -1206 
Q 700 -1078 472 -747 
L 775 -403 
Q 1150 -859 1681 -859 
Q 2091 -859 2334 -629 
Q 2578 -400 2578 44 
L 2578 341 
Q 2234 -63 1631 -63 
Q 1022 -63 662 425 
Q 303 913 303 1653 
L 303 1719 
Q 303 2494 661 2969 
Q 1019 3444 1638 3444 
Q 2259 3444 2603 3006 
L 2631 3381 
L 3156 3381 
L 3156 72 
Q 3156 -600 2756 -967 
Q 2356 -1334 1725 -1334 
z
M 881 1653 
Q 881 1150 1092 789 
Q 1303 428 1772 428 
Q 2322 428 2578 928 
L 2578 2469 
Q 2469 2678 2275 2817 
Q 2081 2956 1778 2956 
Q 1306 2956 1093 2589 
Q 881 2222 881 1719 
L 881 1653 
z
" transform="scale(0.015625)"/>
    </defs>
    <use xlink:href="#Roboto-Regular-73"/>
    <use xlink:href="#Roboto-Regular-69" transform="translate(51.611328 0)"/>
    <use xlink:href="#Roboto-Regular-6e" transform="translate(75.927734 0)"/>
    <use xlink:href="#Roboto-Regular-67" transform="translate(131.152344 0)"/>
    <use xlink:href="#Roboto-Regular-6c" transform="translate(187.304688 0)"/>
    <use xlink:href="#Roboto-Regular-65" transform="translate(211.621094 0)"/>
   </g>
  </g>
  <g id="patch_14">
   <path d="M 141.183882 25.540945 
L 155.783882 25.540945 
L 155.783882 10.940945 
L 141.183882 10.940945 
L 141.183882 25.540945 
z
" clip-path="url(#p8f337263ae)" style="fill: none"/>
  </g>
  <g id="line2d_39">
   <path d="M 140.483882 18.240945 
L 156.483882 18.240945 
" clip-path="url(#p8f337263ae)" style="fill: none; stroke: #006c66; stroke-width: 2.658681"/>
  </g>
  <g id="text_24">
   <!-- triple -->
   <g transform="translate(157.504355 20.155007) scale(0.07 -0.07)">
    <defs>
     <path id="Roboto-Regular-72" d="M 1791 2888 
Q 1225 2888 1019 2400 
L 1019 0 
L 441 0 
L 441 3381 
L 1003 3381 
L 1016 2994 
Q 1294 3444 1819 3444 
Q 1981 3444 2075 3400 
L 2072 2863 
Q 1944 2888 1791 2888 
z
" transform="scale(0.015625)"/>
    </defs>
    <use xlink:href="#Roboto-Regular-74"/>
    <use xlink:href="#Roboto-Regular-72" transform="translate(32.714844 0)"/>
    <use xlink:href="#Roboto-Regular-69" transform="translate(66.601562 0)"/>
    <use xlink:href="#Roboto-Regular-70" transform="translate(90.917969 0)"/>
    <use xlink:href="#Roboto-Regular-6c" transform="translate(147.070312 0)"/>
    <use xlink:href="#Roboto-Regular-65" transform="translate(171.386719 0)"/>
   </g>
  </g>
 </g>
 <defs>
  <clipPath id="p441ed692b3">
   <rect x="38.173296" y="49.356842" width="54.806527" height="104.096258"/>
  </clipPath>
  <clipPath id="p9ca525533a">
   <rect x="95.020768" y="49.356842" width="54.806527" height="104.096258"/>
  </clipPath>
  <clipPath id="pbc0d6dcc70">
   <rect x="151.868239" y="49.356842" width="54.806527" height="104.096258"/>
  </clipPath>
  <clipPath id="p466ecf9320">
   <path d="M 98.938566 26.240945 
L 98.938566 10.240945 
L 114.938566 10.240945 
L 114.938566 26.240945 
"/>
  </clipPath>
  <clipPath id="p8f337263ae">
   <path d="M 140.483882 26.240945 
L 140.483882 10.240945 
L 156.483882 10.240945 
L 156.483882 26.240945 
"/>
  </clipPath>
 </defs>
</svg>
