<?xml version="1.0" encoding="utf-8" standalone="no"?>
<!DOCTYPE svg PUBLIC "-//W3C//DTD SVG 1.1//EN"
  "http://www.w3.org/Graphics/SVG/1.1/DTD/svg11.dtd">
<svg xmlns:xlink="http://www.w3.org/1999/xlink" width="241.171653pt" height="184.47874pt" viewBox="0 0 241.171653 184.47874" xmlns="http://www.w3.org/2000/svg" version="1.1">
 <metadata>
  <rdf:RDF xmlns:dc="http://purl.org/dc/elements/1.1/" xmlns:cc="http://creativecommons.org/ns#" xmlns:rdf="http://www.w3.org/1999/02/22-rdf-syntax-ns#">
   <cc:Work>
    <dc:type rdf:resource="http://purl.org/dc/dcmitype/StillImage"/>
    <dc:date>2025-10-23T16:02:00.845214</dc:date>
    <dc:format>image/svg+xml</dc:format>
    <dc:creator>
     <cc:Agent>
      <dc:title>Matplotlib v3.10.6, https://matplotlib.org/</dc:title>
     </cc:Agent>
    </dc:creator>
   </cc:Work>
  </rdf:RDF>
 </metadata>
 <defs>
  <style type="text/css">*{stroke-linejoin: round; stroke-linecap: butt}</style>
 </defs>
 <g id="figure_1">
  <g id="patch_1">
   <path d="M 0 184.47874 
L 241.171653 184.47874 
L 241.171653 0 
L 0 0 
z
" style="fill: #ffffff"/>
  </g>
  <g id="patch_2">
   <path d="M 7.2 177.27874 
L 233.971653 177.27874 
L 233.971653 7.2 
L 7.2 7.2 
L 7.2 177.27874 
z
" style="fill: none; stroke: #ffffff; stroke-width: 0.7; stroke-linejoin: miter"/>
  </g>
  <g id="axes_1">
   <g id="patch_3">
    <path d="M 34.521996 152.999557 
L 231.703937 152.999557 
L 231.703937 50.263929 
L 34.521996 50.263929 
z
" style="fill: #ffffff"/>
   </g>
   <g id="matplotlib.axis_1">
    <g id="xtick_1">
     <g id="line2d_1">
      <defs>
       <path id="m55d5ea3fa0" d="M 0 1.5 
L 0 -1.5 
" style="stroke: #000000; stroke-width: 0.7"/>
      </defs>
      <g>
       <use xlink:href="#m55d5ea3fa0" x="43.484811" y="152.999557" style="stroke: #000000; stroke-width: 0.7"/>
      </g>
     </g>
     <g id="text_1">
      <!-- 0.1 -->
      <g transform="translate(38.627467 162.149557) scale(0.07 -0.07)">
       <defs>
        <path id="Roboto-Regular-30" d="M 3234 1944 
Q 3234 825 2848 381 
Q 2463 -63 1800 -63 
Q 1156 -63 764 368 
Q 372 800 359 1872 
L 359 2638 
Q 359 3753 750 4183 
Q 1141 4613 1794 4613 
Q 2447 4613 2834 4195 
Q 3222 3778 3234 2709 
L 3234 1944 
z
M 2653 2734 
Q 2653 3503 2434 3822 
Q 2216 4141 1794 4141 
Q 1388 4141 1167 3831 
Q 947 3522 941 2778 
L 941 1850 
Q 941 1088 1164 750 
Q 1388 413 1800 413 
Q 2222 413 2436 745 
Q 2650 1078 2653 1825 
L 2653 2734 
z
" transform="scale(0.015625)"/>
        <path id="Roboto-Regular-2e" d="M 450 306 
Q 450 453 542 554 
Q 634 656 809 656 
Q 984 656 1076 554 
Q 1169 453 1169 306 
Q 1169 163 1076 62 
Q 984 -38 809 -38 
Q 634 -38 542 62 
Q 450 163 450 306 
z
" transform="scale(0.015625)"/>
        <path id="Roboto-Regular-31" d="M 2278 4575 
L 2278 0 
L 1700 0 
L 1700 3853 
L 534 3428 
L 534 3950 
L 2188 4575 
L 2278 4575 
z
" transform="scale(0.015625)"/>
       </defs>
       <use xlink:href="#Roboto-Regular-30"/>
       <use xlink:href="#Roboto-Regular-2e" transform="translate(56.201172 0)"/>
       <use xlink:href="#Roboto-Regular-31" transform="translate(82.568359 0)"/>
      </g>
     </g>
    </g>
    <g id="xtick_2">
     <g id="line2d_2">
      <g>
       <use xlink:href="#m55d5ea3fa0" x="88.298889" y="152.999557" style="stroke: #000000; stroke-width: 0.7"/>
      </g>
     </g>
     <g id="text_2">
      <!-- 0.2 -->
      <g transform="translate(83.441545 162.149557) scale(0.07 -0.07)">
       <defs>
        <path id="Roboto-Regular-32" d="M 3359 475 
L 3359 0 
L 381 0 
L 381 416 
L 1925 2134 
Q 2306 2566 2439 2819 
Q 2572 3072 2572 3328 
Q 2572 3663 2364 3900 
Q 2156 4138 1778 4138 
Q 1322 4138 1097 3878 
Q 872 3619 872 3213 
L 294 3213 
Q 294 3788 672 4200 
Q 1050 4613 1778 4613 
Q 2422 4613 2786 4278 
Q 3150 3944 3150 3397 
Q 3150 2997 2903 2592 
Q 2656 2188 2297 1797 
L 1078 475 
L 3359 475 
z
" transform="scale(0.015625)"/>
       </defs>
       <use xlink:href="#Roboto-Regular-30"/>
       <use xlink:href="#Roboto-Regular-2e" transform="translate(56.201172 0)"/>
       <use xlink:href="#Roboto-Regular-32" transform="translate(82.568359 0)"/>
      </g>
     </g>
    </g>
    <g id="xtick_3">
     <g id="line2d_3">
      <g>
       <use xlink:href="#m55d5ea3fa0" x="133.112966" y="152.999557" style="stroke: #000000; stroke-width: 0.7"/>
      </g>
     </g>
     <g id="text_3">
      <!-- 0.3 -->
      <g transform="translate(128.255622 162.149557) scale(0.07 -0.07)">
       <defs>
        <path id="Roboto-Regular-33" d="M 1222 2084 
L 1222 2559 
L 1647 2559 
Q 2094 2563 2312 2784 
Q 2531 3006 2531 3338 
Q 2531 4138 1738 4138 
Q 1369 4138 1141 3927 
Q 913 3716 913 3359 
L 334 3359 
Q 334 3881 720 4247 
Q 1106 4613 1738 4613 
Q 2353 4613 2733 4286 
Q 3113 3959 3113 3325 
Q 3113 3072 2942 2784 
Q 2772 2497 2397 2338 
Q 2850 2191 3015 1884 
Q 3181 1578 3181 1269 
Q 3181 631 2768 284 
Q 2356 -63 1741 -63 
Q 1147 -63 722 267 
Q 297 597 297 1203 
L 875 1203 
Q 875 844 1108 628 
Q 1341 413 1741 413 
Q 2138 413 2369 622 
Q 2600 831 2600 1256 
Q 2600 1681 2337 1882 
Q 2075 2084 1634 2084 
L 1222 2084 
z
" transform="scale(0.015625)"/>
       </defs>
       <use xlink:href="#Roboto-Regular-30"/>
       <use xlink:href="#Roboto-Regular-2e" transform="translate(56.201172 0)"/>
       <use xlink:href="#Roboto-Regular-33" transform="translate(82.568359 0)"/>
      </g>
     </g>
    </g>
    <g id="xtick_4">
     <g id="line2d_4">
      <g>
       <use xlink:href="#m55d5ea3fa0" x="177.927044" y="152.999557" style="stroke: #000000; stroke-width: 0.7"/>
      </g>
     </g>
     <g id="text_4">
      <!-- 0.4 -->
      <g transform="translate(173.0697 162.149557) scale(0.07 -0.07)">
       <defs>
        <path id="Roboto-Regular-34" d="M 166 1397 
L 2203 4550 
L 2819 4550 
L 2819 1531 
L 3453 1531 
L 3453 1056 
L 2819 1056 
L 2819 0 
L 2241 0 
L 2241 1056 
L 166 1056 
L 166 1397 
z
M 822 1531 
L 2241 1531 
L 2241 3766 
L 2169 3638 
L 822 1531 
z
" transform="scale(0.015625)"/>
       </defs>
       <use xlink:href="#Roboto-Regular-30"/>
       <use xlink:href="#Roboto-Regular-2e" transform="translate(56.201172 0)"/>
       <use xlink:href="#Roboto-Regular-34" transform="translate(82.568359 0)"/>
      </g>
     </g>
    </g>
    <g id="xtick_5">
     <g id="line2d_5">
      <g>
       <use xlink:href="#m55d5ea3fa0" x="222.741121" y="152.999557" style="stroke: #000000; stroke-width: 0.7"/>
      </g>
     </g>
     <g id="text_5">
      <!-- 0.5 -->
      <g transform="translate(217.883778 162.149557) scale(0.07 -0.07)">
       <defs>
        <path id="Roboto-Regular-35" d="M 1109 2166 
L 647 2284 
L 875 4550 
L 3209 4550 
L 3209 4016 
L 1366 4016 
L 1228 2778 
Q 1572 2975 1988 2975 
Q 2616 2975 2980 2561 
Q 3344 2147 3344 1450 
Q 3344 797 2987 367 
Q 2631 -63 1903 -63 
Q 1350 -63 947 248 
Q 544 559 481 1197 
L 1031 1197 
Q 1141 413 1903 413 
Q 2313 413 2538 691 
Q 2763 969 2763 1444 
Q 2763 1872 2527 2164 
Q 2291 2456 1853 2456 
Q 1563 2456 1413 2378 
Q 1263 2300 1109 2166 
z
" transform="scale(0.015625)"/>
       </defs>
       <use xlink:href="#Roboto-Regular-30"/>
       <use xlink:href="#Roboto-Regular-2e" transform="translate(56.201172 0)"/>
       <use xlink:href="#Roboto-Regular-35" transform="translate(82.568359 0)"/>
      </g>
     </g>
    </g>
    <g id="xtick_6">
     <g id="line2d_6">
      <defs>
       <path id="m03e7d2aecd" d="M 0 2 
L 0 -2 
" style="stroke: #000000; stroke-width: 0.7"/>
      </defs>
      <g>
       <use xlink:href="#m03e7d2aecd" x="65.89185" y="152.999557" style="stroke: #000000; stroke-width: 0.7"/>
      </g>
     </g>
    </g>
    <g id="xtick_7">
     <g id="line2d_7">
      <g>
       <use xlink:href="#m03e7d2aecd" x="110.705927" y="152.999557" style="stroke: #000000; stroke-width: 0.7"/>
      </g>
     </g>
    </g>
    <g id="xtick_8">
     <g id="line2d_8">
      <g>
       <use xlink:href="#m03e7d2aecd" x="155.520005" y="152.999557" style="stroke: #000000; stroke-width: 0.7"/>
      </g>
     </g>
    </g>
    <g id="xtick_9">
     <g id="line2d_9">
      <g>
       <use xlink:href="#m03e7d2aecd" x="200.334082" y="152.999557" style="stroke: #000000; stroke-width: 0.7"/>
      </g>
     </g>
    </g>
   </g>
   <g id="matplotlib.axis_2">
    <g id="ytick_1">
     <g id="line2d_10">
      <defs>
       <path id="m26870154eb" d="M 1.5 0 
L -1.5 -0 
" style="stroke: #000000; stroke-width: 0.7"/>
      </defs>
      <g>
       <use xlink:href="#m26870154eb" x="34.521996" y="148.002437" style="stroke: #000000; stroke-width: 0.7"/>
      </g>
     </g>
     <g id="text_6">
      <!-- 0.0 -->
      <g transform="translate(20.907308 150.627437) scale(0.07 -0.07)">
       <use xlink:href="#Roboto-Regular-30"/>
       <use xlink:href="#Roboto-Regular-2e" transform="translate(56.201172 0)"/>
       <use xlink:href="#Roboto-Regular-30" transform="translate(82.568359 0)"/>
      </g>
     </g>
    </g>
    <g id="ytick_2">
     <g id="line2d_11">
      <g>
       <use xlink:href="#m26870154eb" x="34.521996" y="124.913261" style="stroke: #000000; stroke-width: 0.7"/>
      </g>
     </g>
     <g id="text_7">
      <!-- 0.5 -->
      <g transform="translate(20.907308 127.538261) scale(0.07 -0.07)">
       <use xlink:href="#Roboto-Regular-30"/>
       <use xlink:href="#Roboto-Regular-2e" transform="translate(56.201172 0)"/>
       <use xlink:href="#Roboto-Regular-35" transform="translate(82.568359 0)"/>
      </g>
     </g>
    </g>
    <g id="ytick_3">
     <g id="line2d_12">
      <g>
       <use xlink:href="#m26870154eb" x="34.521996" y="101.824084" style="stroke: #000000; stroke-width: 0.7"/>
      </g>
     </g>
     <g id="text_8">
      <!-- 1.0 -->
      <g transform="translate(20.907308 104.449084) scale(0.07 -0.07)">
       <use xlink:href="#Roboto-Regular-31"/>
       <use xlink:href="#Roboto-Regular-2e" transform="translate(56.201172 0)"/>
       <use xlink:href="#Roboto-Regular-30" transform="translate(82.568359 0)"/>
      </g>
     </g>
    </g>
    <g id="ytick_4">
     <g id="line2d_13">
      <g>
       <use xlink:href="#m26870154eb" x="34.521996" y="78.734908" style="stroke: #000000; stroke-width: 0.7"/>
      </g>
     </g>
     <g id="text_9">
      <!-- 1.5 -->
      <g transform="translate(20.907308 81.359908) scale(0.07 -0.07)">
       <use xlink:href="#Roboto-Regular-31"/>
       <use xlink:href="#Roboto-Regular-2e" transform="translate(56.201172 0)"/>
       <use xlink:href="#Roboto-Regular-35" transform="translate(82.568359 0)"/>
      </g>
     </g>
    </g>
    <g id="ytick_5">
     <g id="line2d_14">
      <g>
       <use xlink:href="#m26870154eb" x="34.521996" y="55.645731" style="stroke: #000000; stroke-width: 0.7"/>
      </g>
     </g>
     <g id="text_10">
      <!-- 2.0 -->
      <g transform="translate(20.907308 58.270731) scale(0.07 -0.07)">
       <use xlink:href="#Roboto-Regular-32"/>
       <use xlink:href="#Roboto-Regular-2e" transform="translate(56.201172 0)"/>
       <use xlink:href="#Roboto-Regular-30" transform="translate(82.568359 0)"/>
      </g>
     </g>
    </g>
    <g id="ytick_6">
     <g id="line2d_15">
      <defs>
       <path id="m4f966cf687" d="M 2 0 
L -2 -0 
" style="stroke: #000000; stroke-width: 0.7"/>
      </defs>
      <g>
       <use xlink:href="#m4f966cf687" x="34.521996" y="136.457849" style="stroke: #000000; stroke-width: 0.7"/>
      </g>
     </g>
    </g>
    <g id="ytick_7">
     <g id="line2d_16">
      <g>
       <use xlink:href="#m4f966cf687" x="34.521996" y="113.368673" style="stroke: #000000; stroke-width: 0.7"/>
      </g>
     </g>
    </g>
    <g id="ytick_8">
     <g id="line2d_17">
      <g>
       <use xlink:href="#m4f966cf687" x="34.521996" y="90.279496" style="stroke: #000000; stroke-width: 0.7"/>
      </g>
     </g>
    </g>
    <g id="ytick_9">
     <g id="line2d_18">
      <g>
       <use xlink:href="#m4f966cf687" x="34.521996" y="67.190319" style="stroke: #000000; stroke-width: 0.7"/>
      </g>
     </g>
    </g>
   </g>
   <g id="line2d_19">
    <path d="M 56.929034 147.234626 
L 58.721597 127.643016 
L 60.514161 147.89579 
L 62.306724 147.683966 
L 64.099287 134.967107 
L 65.89185 146.08255 
L 67.684413 147.59558 
L 69.476976 133.457273 
L 71.269539 147.897248 
L 73.286173 144.724642 
L 75.302806 147.416666 
L 77.095369 148.002437 
L 78.887932 148.002437 
L 80.680495 148.002437 
L 82.473059 148.002437 
L 84.265622 148.002437 
L 86.058185 148.002437 
L 87.850748 148.002437 
L 89.643311 148.002437 
L 91.435874 148.002437 
L 93.228437 148.002437 
L 95.021 148.002437 
L 96.813563 148.002437 
L 98.606126 148.002437 
L 100.39869 148.002437 
L 102.191253 148.002437 
L 103.983816 148.002437 
L 106.000449 148.002437 
L 108.017083 148.002437 
L 109.809646 148.002437 
L 114.739194 148.002437 
L 123.029799 148.002437 
L 131.320403 148.002437 
L 139.386937 148.002437 
L 147.677541 148.002437 
L 155.968146 148.002437 
L 164.03468 148.002437 
L 172.325284 148.002437 
L 180.615888 148.002437 
L 188.682422 148.002437 
L 196.973027 148.002437 
L 205.263631 148.002437 
L 213.330165 148.002437 
L 221.620769 148.002437 
" clip-path="url(#p7c764d1d66)" style="fill: none; stroke: #c3006b; stroke-opacity: 0.298039; stroke-width: 0.886227"/>
   </g>
   <g id="line2d_20">
    <path d="M 56.929034 101.824084 
L 58.721597 101.824084 
L 60.514161 101.824084 
L 62.306724 101.824084 
L 64.099287 101.824084 
L 65.89185 101.824084 
L 67.684413 101.824084 
L 69.476976 101.824084 
L 71.269539 101.824084 
L 73.286173 101.824084 
L 75.302806 101.824084 
L 77.095369 55.645731 
L 78.887932 55.645731 
L 80.680495 55.645731 
L 82.473059 55.645731 
L 84.265622 55.645731 
L 86.058185 55.645731 
L 87.850748 55.645731 
L 89.643311 55.645731 
L 91.435874 55.645731 
L 93.228437 55.645731 
L 95.021 55.645731 
L 96.813563 63.680764 
L 98.606126 55.645731 
L 100.39869 55.645731 
L 102.191253 55.645731 
L 103.983816 55.645731 
L 106.000449 55.645731 
L 108.017083 55.645731 
L 109.809646 55.645731 
L 114.739194 55.645731 
L 123.029799 55.645731 
L 131.320403 55.645731 
L 139.386937 55.645731 
L 147.677541 55.645731 
L 155.968146 55.645731 
L 164.03468 55.645731 
L 172.325284 55.830444 
L 180.615888 54.93373 
L 188.682422 55.645731 
L 196.973027 55.645731 
L 205.263631 56.199871 
L 213.330165 57.215795 
L 221.620769 57.215795 
" clip-path="url(#p7c764d1d66)" style="fill: none; stroke: #003063; stroke-opacity: 0.298039; stroke-width: 0.886227"/>
   </g>
   <g id="line2d_21">
    <path d="M 56.929034 147.331566 
L 58.721597 145.720684 
L 60.514161 145.561291 
L 62.306724 105.529755 
L 64.099287 120.411597 
L 65.89185 147.607751 
L 67.684413 146.891936 
L 69.476976 148.002437 
L 71.269539 147.910081 
L 73.286173 147.263584 
L 75.302806 148.002437 
L 77.095369 148.002437 
L 78.887932 148.002437 
L 80.680495 147.725367 
L 82.473059 147.355941 
L 84.265622 148.002437 
L 86.058185 147.817724 
L 87.850748 148.002437 
L 89.643311 148.002437 
L 91.435874 148.002437 
L 93.228437 148.002437 
L 95.021 148.002437 
L 96.813563 148.002437 
L 98.830197 148.002437 
L 100.84683 148.002437 
L 102.639393 148.002437 
L 104.431957 148.002437 
L 106.22452 148.002437 
L 108.017083 148.002437 
L 109.809646 148.002437 
L 114.291054 148.002437 
L 121.461306 148.002437 
L 128.631558 148.002437 
L 135.57774 148.002437 
L 142.523922 148.002437 
L 149.694175 148.002437 
L 156.864427 148.002437 
L 164.03468 148.002437 
L 171.204932 148.002437 
L 178.151114 148.002437 
L 185.097296 148.002437 
L 192.267549 148.002437 
L 199.437801 148.002437 
L 206.608053 148.002437 
L 213.778306 148.002437 
L 220.948558 148.002437 
" clip-path="url(#p7c764d1d66)" style="fill: none; stroke: #c3006b; stroke-opacity: 0.298039; stroke-width: 0.886227"/>
   </g>
   <g id="line2d_22">
    <path d="M 56.929034 101.824084 
L 58.721597 101.824084 
L 60.514161 101.824084 
L 62.306724 101.824084 
L 64.099287 101.824084 
L 65.89185 101.824084 
L 67.684413 99.880707 
L 69.476976 60.355923 
L 71.269539 100.992874 
L 73.286173 101.085231 
L 75.302806 100.53109 
L 77.095369 94.158478 
L 78.887932 100.900517 
L 80.680495 100.900517 
L 82.473059 100.992874 
L 84.265622 101.085231 
L 86.058185 97.113892 
L 87.850748 99.792237 
L 89.643311 55.738088 
L 91.435874 55.645731 
L 93.228437 55.738088 
L 95.021 55.645731 
L 96.813563 55.645731 
L 98.830197 55.645731 
L 100.84683 56.015158 
L 102.639393 55.738088 
L 104.431957 55.645731 
L 106.22452 55.830444 
L 108.017083 55.645731 
L 109.809646 56.292228 
L 114.291054 55.645731 
L 121.461306 55.645731 
L 128.631558 55.645731 
L 135.57774 55.645731 
L 142.523922 55.645731 
L 149.694175 55.645731 
L 156.864427 55.645731 
L 164.03468 56.107514 
L 171.204932 59.432356 
L 178.151114 55.645731 
L 185.097296 55.645731 
L 192.267549 57.031082 
L 199.437801 55.645731 
L 206.608053 55.645731 
L 213.778306 55.645731 
L 220.948558 55.645731 
" clip-path="url(#p7c764d1d66)" style="fill: none; stroke: #003063; stroke-opacity: 0.298039; stroke-width: 0.886227"/>
   </g>
   <g id="line2d_23">
    <path d="M 53.792049 101.824084 
L 55.808682 101.824084 
L 57.825316 101.824084 
L 59.841949 101.824084 
L 61.858583 101.824084 
L 63.875216 102.031162 
L 65.89185 102.017299 
L 67.908483 140.163519 
L 69.925117 129.833905 
L 71.71768 102.037379 
L 73.734313 102.058492 
L 75.750947 116.805973 
L 77.76758 132.484254 
L 79.784214 148.002437 
L 81.800847 148.002437 
L 83.817481 148.002437 
L 85.610044 148.002437 
L 87.626677 148.002437 
L 89.643311 148.002437 
L 91.659944 148.002437 
L 93.676578 148.002437 
L 95.693211 148.002437 
L 97.709845 148.002437 
L 99.726478 148.002437 
L 101.743112 148.002437 
L 103.535675 148.002437 
L 105.552308 148.002437 
L 107.568942 148.002437 
L 109.585575 148.002437 
L 115.187335 148.002437 
L 124.150151 148.002437 
L 133.337037 148.002437 
L 142.523922 148.002437 
L 151.486738 148.002437 
L 160.449553 148.002437 
L 169.412369 148.002437 
L 178.375184 148.002437 
L 187.338 148.002437 
L 196.524886 148.002437 
L 205.711772 148.002437 
L 214.674587 148.002437 
" clip-path="url(#p7c764d1d66)" style="fill: none; stroke: #c3006b; stroke-opacity: 0.298039; stroke-width: 0.886227"/>
   </g>
   <g id="line2d_24">
    <path d="M 53.792049 148.002437 
L 55.808682 148.002437 
L 57.825316 143.697676 
L 59.841949 146.072596 
L 61.858583 146.508432 
L 63.875216 136.199002 
L 65.89185 118.247348 
L 67.908483 103.249342 
L 69.925117 103.148873 
L 71.71768 145.336251 
L 73.734313 138.743326 
L 75.750947 102.203373 
L 77.76758 104.081275 
L 79.784214 55.738088 
L 81.800847 56.938725 
L 83.817481 55.830444 
L 85.610044 55.830444 
L 87.626677 57.123438 
L 89.643311 62.295414 
L 91.659944 61.925987 
L 93.676578 55.738088 
L 95.693211 55.645731 
L 97.709845 55.645731 
L 99.726478 55.922801 
L 101.743112 55.645731 
L 103.535675 55.645731 
L 105.552308 55.922801 
L 107.568942 55.645731 
L 109.585575 55.645731 
L 115.187335 55.645731 
L 124.150151 55.645731 
L 133.337037 55.738088 
L 142.523922 55.645731 
L 151.486738 55.645731 
L 160.449553 56.015158 
L 169.412369 55.645731 
L 178.375184 55.645731 
L 187.338 55.645731 
L 196.524886 55.645731 
L 205.711772 55.645731 
L 214.674587 55.645731 
" clip-path="url(#p7c764d1d66)" style="fill: none; stroke: #003063; stroke-opacity: 0.298039; stroke-width: 0.886227"/>
   </g>
   <g id="line2d_25">
    <path d="M 56.480894 105.746081 
L 58.273457 139.455287 
L 60.06602 145.589317 
L 61.858583 131.156257 
L 63.651146 121.131413 
L 65.667779 147.427603 
L 67.684413 139.694198 
L 69.476976 109.431191 
L 71.269539 146.285061 
L 73.062102 147.143749 
L 74.854665 146.550288 
L 76.647228 147.323344 
L 78.439792 109.336352 
L 80.232355 147.426408 
L 82.024918 148.002437 
L 84.041551 148.002437 
L 86.058185 148.002437 
L 87.850748 148.002437 
L 89.643311 148.002437 
L 91.435874 148.002437 
L 93.228437 148.002437 
L 95.021 148.002437 
L 96.813563 148.002437 
L 98.606126 148.002437 
L 100.39869 148.002437 
L 102.415323 148.002437 
L 104.431957 148.002437 
L 106.22452 148.002437 
L 108.017083 148.002437 
L 109.809646 148.002437 
L 114.515124 148.002437 
L 122.133517 148.002437 
L 129.75191 148.002437 
L 137.594374 148.002437 
L 145.436837 148.002437 
L 153.055231 148.002437 
L 160.673624 148.002437 
L 168.292017 148.002437 
L 175.91041 148.002437 
L 183.528803 148.002437 
L 191.147197 148.002437 
L 198.76559 148.002437 
L 206.383983 148.002437 
L 214.002376 148.002437 
L 221.620769 148.002437 
" clip-path="url(#p7c764d1d66)" style="fill: none; stroke: #c3006b; stroke-opacity: 0.298039; stroke-width: 0.886227"/>
   </g>
   <g id="line2d_26">
    <path d="M 56.480894 141.676636 
L 58.273457 108.234447 
L 60.06602 101.824084 
L 61.858583 102.418655 
L 63.651146 114.363896 
L 65.667779 101.824084 
L 67.684413 101.824084 
L 69.476976 138.788195 
L 71.269539 101.824084 
L 73.062102 101.824084 
L 74.854665 101.824084 
L 76.647228 101.824084 
L 78.439792 127.454175 
L 80.232355 101.824084 
L 82.024918 59.524713 
L 84.041551 95.359115 
L 86.058185 96.744465 
L 87.850748 98.961026 
L 89.643311 95.082045 
L 91.435874 91.84956 
L 93.228437 88.617075 
L 95.021 61.464203 
L 96.813563 62.941911 
L 98.606126 97.575676 
L 100.39869 57.123438 
L 102.415323 62.572484 
L 104.431957 56.938725 
L 106.22452 65.897325 
L 108.017083 61.925987 
L 109.809646 66.082039 
L 114.515124 74.301786 
L 122.133517 81.690322 
L 129.75191 62.941911 
L 137.594374 67.929173 
L 145.436837 58.231719 
L 153.055231 62.757197 
L 160.673624 62.1107 
L 168.292017 61.27949 
L 175.91041 61.371847 
L 183.528803 59.155286 
L 191.147197 62.1107 
L 198.76559 93.234911 
L 206.383983 92.034273 
L 214.002376 85.938731 
L 221.620769 57.769935 
" clip-path="url(#p7c764d1d66)" style="fill: none; stroke: #003063; stroke-opacity: 0.298039; stroke-width: 0.886227"/>
   </g>
   <g id="line2d_27">
    <path d="M 55.808682 146.536458 
L 57.825316 147.293818 
L 59.617879 146.064087 
L 61.410442 147.416418 
L 63.203005 148.002437 
L 64.995568 147.616008 
L 66.788131 147.909896 
L 68.580695 147.724812 
L 70.597328 147.909896 
L 72.613961 147.910081 
L 74.406525 147.909896 
L 76.199088 147.886992 
L 77.991651 147.910081 
L 79.784214 147.817724 
L 81.576777 148.002437 
L 83.59341 148.002437 
L 85.610044 148.002437 
L 87.402607 147.910081 
L 89.19517 148.002437 
L 90.987733 148.002437 
L 92.780296 148.002437 
L 94.572859 148.002437 
L 96.589493 148.002437 
L 98.606126 148.002437 
L 100.39869 148.002437 
L 102.191253 148.002437 
L 103.983816 148.002437 
L 105.776379 148.002437 
L 107.568942 148.002437 
L 109.361505 148.002437 
L 114.963265 148.002437 
L 123.253869 148.002437 
L 131.320403 148.002437 
L 139.611007 148.002437 
L 147.901612 148.002437 
L 155.968146 148.002437 
L 164.03468 148.002437 
L 172.101214 148.002437 
L 180.391818 148.002437 
L 188.682422 148.002437 
L 196.748956 148.002437 
L 204.81549 105.703066 
L 212.882024 143.754029 
L 221.172629 115.308163 
" clip-path="url(#p7c764d1d66)" style="fill: none; stroke: #c3006b; stroke-opacity: 0.298039; stroke-width: 0.886227"/>
   </g>
   <g id="line2d_28">
    <path d="M 55.808682 101.824084 
L 57.825316 101.824084 
L 59.617879 101.824084 
L 61.410442 101.824084 
L 63.203005 101.824084 
L 64.995568 101.824084 
L 66.788131 101.824084 
L 68.580695 101.824084 
L 70.597328 101.824084 
L 72.613961 101.824084 
L 74.406525 101.824084 
L 76.199088 101.824084 
L 77.991651 101.824084 
L 79.784214 101.824084 
L 81.576777 62.572484 
L 83.59341 73.562932 
L 85.610044 72.177581 
L 87.402607 101.824084 
L 89.19517 97.483319 
L 90.987733 58.970572 
L 92.780296 95.636185 
L 94.572859 66.913249 
L 96.589493 60.17121 
L 98.606126 70.607517 
L 100.39869 86.400514 
L 102.191253 82.521533 
L 103.983816 78.550194 
L 105.776379 61.648917 
L 107.568942 69.037453 
L 109.361505 66.820892 
L 114.963265 55.645731 
L 123.253869 59.062929 
L 131.320403 55.645731 
L 139.611007 56.938725 
L 147.901612 55.645731 
L 155.968146 60.263566 
L 164.03468 56.107514 
L 172.101214 55.922801 
L 180.391818 56.569298 
L 188.682422 56.292228 
L 196.748956 56.938725 
L 204.81549 55.738088 
L 212.882024 55.830444 
L 221.172629 55.645731 
" clip-path="url(#p7c764d1d66)" style="fill: none; stroke: #003063; stroke-opacity: 0.298039; stroke-width: 0.886227"/>
   </g>
   <g id="line2d_29">
    <path d="M 55.584612 145.31895 
L 57.601246 142.368477 
L 59.617879 144.930707 
L 61.410442 145.525058 
L 63.203005 140.674134 
L 64.995568 146.746541 
L 66.788131 145.252597 
L 68.580695 144.765192 
L 70.597328 146.007077 
L 72.613961 148.002437 
L 74.406525 148.002437 
L 76.199088 148.002437 
L 77.991651 148.002437 
L 79.784214 148.002437 
L 81.800847 148.002437 
L 83.817481 148.002437 
L 85.610044 148.002437 
L 87.402607 148.002437 
L 89.19517 148.002437 
L 90.987733 148.002437 
L 92.780296 148.002437 
L 94.79693 148.002437 
L 96.813563 148.002437 
L 98.606126 148.002437 
L 100.39869 148.002437 
L 102.191253 148.002437 
L 103.983816 148.002437 
L 106.000449 148.002437 
L 108.017083 148.002437 
L 109.809646 148.002437 
L 113.842913 148.002437 
L 120.340954 148.002437 
L 126.838995 148.002437 
L 133.112966 148.002437 
L 139.611007 148.002437 
L 146.109049 148.002437 
L 152.38302 148.002437 
L 158.881061 148.002437 
L 165.379102 148.002437 
L 171.653073 148.002437 
L 178.151114 148.002437 
L 184.649155 148.002437 
L 190.923126 148.002437 
L 197.421167 148.002437 
L 203.919209 148.002437 
L 210.19318 148.002437 
L 216.691221 148.002437 
" clip-path="url(#p7c764d1d66)" style="fill: none; stroke: #c3006b; stroke-opacity: 0.298039; stroke-width: 0.886227"/>
   </g>
   <g id="line2d_30">
    <path d="M 55.584612 101.824084 
L 57.601246 101.824084 
L 59.617879 101.824084 
L 61.410442 101.824084 
L 63.203005 101.824084 
L 64.995568 101.824084 
L 66.788131 101.824084 
L 68.580695 101.824084 
L 70.597328 101.824084 
L 72.613961 55.645731 
L 74.406525 55.645731 
L 76.199088 55.645731 
L 77.991651 55.645731 
L 79.784214 55.645731 
L 81.800847 55.645731 
L 83.817481 55.645731 
L 85.610044 55.645731 
L 87.402607 55.645731 
L 89.19517 55.645731 
L 90.987733 55.645731 
L 92.780296 55.645731 
L 94.79693 55.645731 
L 96.813563 55.645731 
L 98.606126 55.645731 
L 100.39869 55.645731 
L 102.191253 55.645731 
L 103.983816 55.645731 
L 106.000449 55.645731 
L 108.017083 55.645731 
L 109.809646 55.645731 
L 113.842913 55.645731 
L 120.340954 55.645731 
L 126.838995 55.645731 
L 133.112966 55.645731 
L 139.611007 55.645731 
L 146.109049 55.645731 
L 152.38302 55.645731 
L 158.881061 55.645731 
L 165.379102 55.738088 
L 171.653073 55.645731 
L 178.151114 55.645731 
L 184.649155 55.645731 
L 190.923126 55.645731 
L 197.421167 55.645731 
L 203.919209 55.645731 
L 210.19318 55.645731 
L 216.691221 55.645731 
" clip-path="url(#p7c764d1d66)" style="fill: none; stroke: #003063; stroke-opacity: 0.298039; stroke-width: 0.886227"/>
   </g>
   <g id="line2d_31">
    <path d="M 55.584612 148.002437 
L 57.377175 147.16663 
L 59.169738 147.358088 
L 61.186372 147.812403 
L 63.203005 147.502672 
L 64.995568 147.812011 
L 66.788131 148.002437 
L 68.580695 147.443828 
L 70.373258 148.002437 
L 72.389891 148.002437 
L 74.406525 148.002437 
L 76.199088 148.002437 
L 77.991651 148.002437 
L 79.784214 147.904186 
L 81.576777 148.002437 
L 83.36934 148.002437 
L 85.385974 148.002437 
L 87.402607 148.002437 
L 89.19517 148.002437 
L 90.987733 148.002437 
L 92.780296 148.002437 
L 94.572859 148.002437 
L 96.589493 148.002437 
L 98.606126 148.002437 
L 100.39869 148.002437 
L 102.191253 148.002437 
L 103.983816 148.002437 
L 105.776379 148.002437 
L 107.568942 148.002437 
L 109.585575 148.002437 
L 114.963265 148.002437 
L 123.70201 148.002437 
L 132.440755 148.002437 
L 140.95543 148.002437 
L 149.694175 148.002437 
L 158.43292 148.002437 
L 166.947595 148.002437 
L 175.68634 148.002437 
L 184.425085 148.002437 
L 192.93976 148.002437 
L 201.678505 148.002437 
L 210.41725 148.002437 
L 218.931925 148.002437 
" clip-path="url(#p7c764d1d66)" style="fill: none; stroke: #c3006b; stroke-opacity: 0.298039; stroke-width: 0.886227"/>
   </g>
   <g id="line2d_32">
    <path d="M 55.584612 101.824084 
L 57.377175 101.824084 
L 59.169738 101.824084 
L 61.186372 101.824084 
L 63.203005 101.824084 
L 64.995568 101.824084 
L 66.788131 101.824084 
L 68.580695 101.824084 
L 70.373258 76.518347 
L 72.389891 66.082039 
L 74.406525 65.158472 
L 76.199088 86.862298 
L 77.991651 96.005612 
L 79.784214 68.713222 
L 81.576777 101.547014 
L 83.36934 75.59478 
L 85.385974 74.855926 
L 87.402607 89.078859 
L 89.19517 81.043825 
L 90.987733 91.57249 
L 92.780296 76.610703 
L 94.572859 65.620255 
L 96.589493 94.620261 
L 98.606126 101.824084 
L 100.39869 71.069301 
L 102.191253 101.824084 
L 103.983816 101.824084 
L 105.776379 101.824084 
L 107.568942 101.824084 
L 109.585575 101.824084 
L 114.963265 101.824084 
L 123.70201 101.824084 
L 132.440755 101.824084 
L 140.95543 101.824084 
L 149.694175 101.824084 
L 158.43292 75.87185 
L 166.947595 101.731728 
L 175.68634 64.511975 
L 184.425085 64.419618 
L 192.93976 56.569298 
L 201.678505 56.569298 
L 210.41725 57.585222 
L 218.931925 57.492865 
" clip-path="url(#p7c764d1d66)" style="fill: none; stroke: #003063; stroke-opacity: 0.298039; stroke-width: 0.886227"/>
   </g>
   <g id="line2d_33">
    <path d="M 57.377175 144.946517 
L 59.169738 146.353211 
L 60.962301 146.037401 
L 62.754864 135.822367 
L 64.547428 147.722002 
L 66.339991 147.227958 
L 68.132554 145.71638 
L 69.925117 148.002437 
L 71.71768 148.002437 
L 73.510243 148.002437 
L 75.302806 148.002437 
L 77.095369 147.910081 
L 78.887932 148.002437 
L 80.680495 148.002437 
L 82.473059 148.002437 
L 84.265622 148.002437 
L 86.058185 148.002437 
L 88.074818 148.002437 
L 90.091452 148.002437 
L 91.884015 148.002437 
L 93.676578 148.002437 
L 95.469141 148.002437 
L 97.261704 148.002437 
L 99.054267 148.002437 
L 100.84683 148.002437 
L 102.639393 148.002437 
L 104.431957 148.002437 
L 106.22452 148.002437 
L 108.017083 148.002437 
L 109.809646 148.002437 
L 114.739194 148.002437 
L 122.581658 148.002437 
L 130.424122 148.002437 
L 138.266585 148.002437 
L 145.884978 148.002437 
L 153.727442 148.002437 
L 161.569905 148.002437 
L 169.188299 148.002437 
L 176.806692 148.002437 
L 184.649155 148.002437 
L 192.491619 148.002437 
L 200.110012 148.002437 
L 207.728405 148.002437 
L 215.570869 148.002437 
" clip-path="url(#p7c764d1d66)" style="fill: none; stroke: #c3006b; stroke-opacity: 0.298039; stroke-width: 0.886227"/>
   </g>
   <g id="line2d_34">
    <path d="M 57.377175 101.824084 
L 59.169738 101.824084 
L 60.962301 101.824084 
L 62.754864 101.824084 
L 64.547428 101.824084 
L 66.339991 101.824084 
L 68.132554 101.824084 
L 69.925117 96.744465 
L 71.71768 55.738088 
L 73.510243 66.451466 
L 75.302806 71.623441 
L 77.095369 73.285862 
L 78.887932 75.848761 
L 80.680495 55.645731 
L 82.473059 55.738088 
L 84.265622 55.645731 
L 86.058185 55.645731 
L 88.074818 55.645731 
L 90.091452 55.645731 
L 91.884015 58.047005 
L 93.676578 55.645731 
L 95.469141 55.645731 
L 97.261704 55.645731 
L 99.054267 55.645731 
L 100.84683 55.738088 
L 102.639393 55.645731 
L 104.431957 55.645731 
L 106.22452 55.645731 
L 108.017083 55.645731 
L 109.809646 55.645731 
L 114.739194 55.645731 
L 122.581658 55.645731 
L 130.424122 55.738088 
L 138.266585 55.645731 
L 145.884978 55.645731 
L 153.727442 87.878222 
L 161.569905 55.645731 
L 169.188299 55.645731 
L 176.806692 55.645731 
L 184.649155 55.645731 
L 192.491619 55.645731 
L 200.110012 55.645731 
L 207.728405 55.738088 
L 215.570869 55.738088 
" clip-path="url(#p7c764d1d66)" style="fill: none; stroke: #003063; stroke-opacity: 0.298039; stroke-width: 0.886227"/>
   </g>
   <g id="line2d_35">
    <path d="M 53.792049 110.592704 
L 55.916463 130.582861 
L 58.040877 138.857344 
L 60.165291 139.948245 
L 62.289706 133.827136 
L 64.41412 135.798583 
L 66.538534 144.466362 
L 68.662948 141.847924 
L 70.787362 140.335595 
L 72.911777 141.867154 
L 75.036191 143.754005 
L 77.160605 143.301347 
L 79.285019 144.878675 
L 81.409433 148.329756 
L 83.533847 147.969556 
L 85.658262 147.993263 
L 87.782676 147.989309 
L 89.90709 148.00345 
L 92.031504 148.002437 
L 94.155918 148.002437 
L 96.280333 148.002437 
L 98.404747 148.002437 
L 100.529161 148.002437 
L 102.653575 148.002437 
L 104.777989 148.002437 
L 106.902403 148.002437 
L 109.026818 148.002437 
L 111.151232 148.002437 
L 113.275646 148.002437 
L 115.40006 148.002437 
L 117.524474 148.002437 
L 119.648889 148.002437 
L 121.773303 148.002437 
L 123.897717 148.002437 
L 126.022131 148.002437 
L 128.146545 148.002437 
L 130.270959 148.002437 
L 132.395374 148.002437 
L 134.519788 148.002437 
L 136.644202 148.002437 
L 138.768616 148.002437 
L 140.89303 148.002437 
L 143.017445 148.002437 
L 145.141859 148.002437 
L 147.266273 148.002437 
L 149.390687 148.002437 
L 151.515101 148.002437 
L 153.639515 148.002437 
L 155.76393 148.002437 
L 157.888344 148.002437 
L 160.012758 148.002437 
L 162.137172 148.002437 
L 164.261586 148.002437 
L 166.386001 148.002437 
L 168.510415 148.002437 
L 170.634829 148.002437 
L 172.759243 148.002437 
L 174.883657 148.002437 
L 177.008071 148.002437 
L 179.132486 148.002437 
L 181.2569 148.002437 
L 183.381314 148.002437 
L 185.505728 148.015582 
L 187.630142 148.11719 
L 189.754557 148.208675 
L 191.878971 148.156889 
L 194.003385 147.895655 
L 196.127799 147.435141 
L 198.252213 146.441652 
L 200.376628 145.287307 
L 202.501042 144.788598 
L 204.625456 144.503823 
L 206.74987 144.459023 
L 208.874284 144.804037 
L 210.998698 145.218014 
L 213.123113 145.190793 
L 215.247527 144.872015 
L 217.371941 144.331044 
L 219.496355 143.497512 
L 221.620769 142.427677 
" clip-path="url(#p7c764d1d66)" style="fill: none; stroke: #c3006b; stroke-width: 1.772454; stroke-linejoin: miter"/>
   </g>
   <g id="line2d_36">
    <path d="M 53.792049 140.054353 
L 55.916463 117.640514 
L 58.040877 107.996242 
L 60.165291 106.809675 
L 62.289706 107.357236 
L 64.41412 106.016976 
L 66.538534 102.842682 
L 68.662948 100.92525 
L 70.787362 96.899314 
L 72.911777 91.094662 
L 75.036191 88.737124 
L 77.160605 87.911027 
L 79.285019 81.225209 
L 81.409433 69.905251 
L 83.533847 69.255776 
L 85.658262 71.480975 
L 87.782676 77.426148 
L 89.90709 68.369506 
L 92.031504 67.257642 
L 94.155918 62.29506 
L 96.280333 61.572771 
L 98.404747 67.530016 
L 100.529161 63.047037 
L 102.653575 65.473474 
L 104.777989 64.65604 
L 106.902403 63.852334 
L 109.026818 63.524879 
L 111.151232 62.941894 
L 113.275646 63.532057 
L 115.40006 63.434535 
L 117.524474 63.477216 
L 119.648889 63.796439 
L 121.773303 63.990941 
L 123.897717 63.727372 
L 126.022131 63.251577 
L 128.146545 62.79941 
L 130.270959 62.08003 
L 132.395374 61.861453 
L 134.519788 62.123837 
L 136.644202 62.422182 
L 138.768616 62.317974 
L 140.89303 61.846265 
L 143.017445 61.803913 
L 145.141859 62.421031 
L 147.266273 63.047528 
L 149.390687 63.381317 
L 151.515101 63.689737 
L 153.639515 63.587431 
L 155.76393 62.928836 
L 157.888344 62.246531 
L 160.012758 61.825354 
L 162.137172 61.262018 
L 164.261586 60.819972 
L 166.386001 60.933518 
L 168.510415 61.106543 
L 170.634829 60.529606 
L 172.759243 59.346919 
L 174.883657 58.196478 
L 177.008071 57.438603 
L 179.132486 56.874167 
L 181.2569 56.791952 
L 183.381314 56.893188 
L 185.505728 56.90314 
L 187.630142 56.928827 
L 189.754557 57.126399 
L 191.878971 57.622689 
L 194.003385 58.439557 
L 196.127799 59.223866 
L 198.252213 60.001255 
L 200.376628 60.786217 
L 202.501042 60.985019 
L 204.625456 60.990845 
L 206.74987 60.910739 
L 208.874284 60.71665 
L 210.998698 60.367982 
L 213.123113 59.873776 
L 215.247527 59.238286 
L 217.371941 58.45704 
L 219.496355 57.526058 
L 221.620769 56.444546 
" clip-path="url(#p7c764d1d66)" style="fill: none; stroke: #003063; stroke-width: 1.772454; stroke-linejoin: miter"/>
   </g>
  </g>
  <g id="patch_4">
   <path d="M 34.521996 152.999557 
L 231.703937 152.999557 
L 231.703937 50.263929 
L 34.521996 50.263929 
L 34.521996 152.999557 
z
" style="fill: none; stroke: #000000; stroke-width: 0.7; stroke-linejoin: miter"/>
  </g>
  <g id="text_11">
   <!-- $\text{d}~[\text{nm}]$ -->
   <g transform="translate(121.387966 173.589148) scale(0.07 -0.07)">
    <defs>
     <path id="DejaVuSans-64" d="M 2906 2969 
L 2906 4863 
L 3481 4863 
L 3481 0 
L 2906 0 
L 2906 525 
Q 2725 213 2448 61 
Q 2172 -91 1784 -91 
Q 1150 -91 751 415 
Q 353 922 353 1747 
Q 353 2572 751 3078 
Q 1150 3584 1784 3584 
Q 2172 3584 2448 3432 
Q 2725 3281 2906 2969 
z
M 947 1747 
Q 947 1113 1208 752 
Q 1469 391 1925 391 
Q 2381 391 2643 752 
Q 2906 1113 2906 1747 
Q 2906 2381 2643 2742 
Q 2381 3103 1925 3103 
Q 1469 3103 1208 2742 
Q 947 2381 947 1747 
z
" transform="scale(0.015625)"/>
     <path id="DejaVuSans-5b" d="M 550 4863 
L 1875 4863 
L 1875 4416 
L 1125 4416 
L 1125 -397 
L 1875 -397 
L 1875 -844 
L 550 -844 
L 550 4863 
z
" transform="scale(0.015625)"/>
     <path id="DejaVuSans-6e" d="M 3513 2113 
L 3513 0 
L 2938 0 
L 2938 2094 
Q 2938 2591 2744 2837 
Q 2550 3084 2163 3084 
Q 1697 3084 1428 2787 
Q 1159 2491 1159 1978 
L 1159 0 
L 581 0 
L 581 3500 
L 1159 3500 
L 1159 2956 
Q 1366 3272 1645 3428 
Q 1925 3584 2291 3584 
Q 2894 3584 3203 3211 
Q 3513 2838 3513 2113 
z
" transform="scale(0.015625)"/>
     <path id="DejaVuSans-6d" d="M 3328 2828 
Q 3544 3216 3844 3400 
Q 4144 3584 4550 3584 
Q 5097 3584 5394 3201 
Q 5691 2819 5691 2113 
L 5691 0 
L 5113 0 
L 5113 2094 
Q 5113 2597 4934 2840 
Q 4756 3084 4391 3084 
Q 3944 3084 3684 2787 
Q 3425 2491 3425 1978 
L 3425 0 
L 2847 0 
L 2847 2094 
Q 2847 2600 2669 2842 
Q 2491 3084 2119 3084 
Q 1678 3084 1418 2786 
Q 1159 2488 1159 1978 
L 1159 0 
L 581 0 
L 581 3500 
L 1159 3500 
L 1159 2956 
Q 1356 3278 1631 3431 
Q 1906 3584 2284 3584 
Q 2666 3584 2933 3390 
Q 3200 3197 3328 2828 
z
" transform="scale(0.015625)"/>
     <path id="DejaVuSans-5d" d="M 1947 4863 
L 1947 -844 
L 622 -844 
L 622 -397 
L 1369 -397 
L 1369 4416 
L 622 4416 
L 622 4863 
L 1947 4863 
z
" transform="scale(0.015625)"/>
    </defs>
    <use xlink:href="#DejaVuSans-64" transform="translate(0 0.015625)"/>
    <use xlink:href="#DejaVuSans-5b" transform="translate(95.946941 0.015625)"/>
    <use xlink:href="#DejaVuSans-6e" transform="translate(134.960613 0.015625)"/>
    <use xlink:href="#DejaVuSans-6d" transform="translate(198.339519 0.015625)"/>
    <use xlink:href="#DejaVuSans-5d" transform="translate(295.751628 0.015625)"/>
   </g>
  </g>
  <g id="text_12">
   <!-- $\text{n}_{\text{H}^+}$ -->
   <g transform="translate(14.717717 108.036743) rotate(-90) scale(0.07 -0.07)">
    <defs>
     <path id="DejaVuSans-48" d="M 628 4666 
L 1259 4666 
L 1259 2753 
L 3553 2753 
L 3553 4666 
L 4184 4666 
L 4184 0 
L 3553 0 
L 3553 2222 
L 1259 2222 
L 1259 0 
L 628 0 
L 628 4666 
z
" transform="scale(0.015625)"/>
     <path id="DejaVuSans-2b" d="M 2944 4013 
L 2944 2272 
L 4684 2272 
L 4684 1741 
L 2944 1741 
L 2944 0 
L 2419 0 
L 2419 1741 
L 678 1741 
L 678 2272 
L 2419 2272 
L 2419 4013 
L 2944 4013 
z
" transform="scale(0.015625)"/>
    </defs>
    <use xlink:href="#DejaVuSans-6e"/>
    <use xlink:href="#DejaVuSans-48" transform="translate(64.335938 -16.40625) scale(0.7)"/>
    <use xlink:href="#DejaVuSans-2b" transform="translate(127.188965 10.390625) scale(0.49)"/>
   </g>
  </g>
  <g id="patch_5">
   <path d="M 34.521996 50.263929 
L 231.703937 50.263929 
L 231.703937 34.270866 
L 34.521996 34.270866 
z
" style="fill: #ffffff; stroke: #000000; stroke-linejoin: miter"/>
  </g>
  <g id="text_13">
   <!-- Gly857-Ala858-triple -->
   <g transform="translate(101.592185 44.892397) scale(0.07 -0.07)">
    <defs>
     <path id="Roboto-Regular-47" d="M 3891 2266 
L 3891 600 
Q 3763 413 3403 175 
Q 3044 -63 2281 -63 
Q 1450 -63 915 507 
Q 381 1078 381 2100 
L 381 2453 
Q 381 3469 856 4041 
Q 1331 4613 2213 4613 
Q 2994 4613 3398 4219 
Q 3803 3825 3891 3219 
L 3288 3219 
Q 3225 3588 2979 3853 
Q 2734 4119 2213 4119 
Q 1584 4119 1287 3676 
Q 991 3234 988 2475 
L 988 2100 
Q 988 1313 1344 870 
Q 1700 428 2284 428 
Q 2769 428 2984 542 
Q 3200 656 3291 759 
L 3291 1778 
L 2238 1778 
L 2238 2266 
L 3891 2266 
z
" transform="scale(0.015625)"/>
     <path id="Roboto-Regular-6c" d="M 1069 4800 
L 1069 0 
L 488 0 
L 488 4800 
L 1069 4800 
z
" transform="scale(0.015625)"/>
     <path id="Roboto-Regular-79" d="M 1594 -522 
Q 1294 -1316 688 -1363 
L 591 -1366 
Q 406 -1366 266 -1316 
L 263 -847 
L 419 -859 
Q 713 -859 878 -739 
Q 1044 -619 1150 -306 
L 1275 38 
L 69 3381 
L 700 3381 
L 1547 850 
L 2331 3381 
L 2950 3381 
L 1594 -522 
z
" transform="scale(0.015625)"/>
     <path id="Roboto-Regular-38" d="M 3244 1231 
Q 3244 606 2826 271 
Q 2409 -63 1796 -63 
Q 1184 -63 767 271 
Q 350 606 350 1231 
Q 350 1613 554 1905 
Q 759 2197 1109 2347 
Q 806 2494 629 2762 
Q 453 3031 453 3366 
Q 453 3963 833 4288 
Q 1213 4613 1794 4613 
Q 2378 4613 2758 4288 
Q 3138 3963 3138 3366 
Q 3138 3028 2956 2761 
Q 2775 2494 2472 2347 
Q 2825 2197 3034 1903 
Q 3244 1609 3244 1231 
z
M 2559 3356 
Q 2559 3697 2346 3917 
Q 2134 4138 1793 4138 
Q 1453 4138 1243 3927 
Q 1034 3716 1034 3356 
Q 1034 3003 1243 2790 
Q 1453 2578 1797 2578 
Q 2138 2578 2348 2790 
Q 2559 3003 2559 3356 
z
M 2663 1244 
Q 2663 1625 2420 1865 
Q 2178 2106 1791 2106 
Q 1394 2106 1161 1865 
Q 928 1625 928 1244 
Q 928 850 1161 631 
Q 1394 413 1797 413 
Q 2200 413 2431 631 
Q 2663 850 2663 1244 
z
" transform="scale(0.015625)"/>
     <path id="Roboto-Regular-37" d="M 3319 4550 
L 3319 4225 
L 1434 0 
L 825 0 
L 2706 4075 
L 244 4075 
L 244 4550 
L 3319 4550 
z
" transform="scale(0.015625)"/>
     <path id="Roboto-Regular-2d" d="M 1644 2172 
L 1644 1697 
L 119 1697 
L 119 2172 
L 1644 2172 
z
" transform="scale(0.015625)"/>
     <path id="Roboto-Regular-41" d="M 91 0 
L 1825 4550 
L 2353 4550 
L 4094 0 
L 3475 0 
L 3041 1191 
L 1138 1191 
L 706 0 
L 91 0 
z
M 1319 1684 
L 2863 1684 
L 2091 3806 
L 1319 1684 
z
" transform="scale(0.015625)"/>
     <path id="Roboto-Regular-61" d="M 2528 0 
Q 2472 122 2447 356 
Q 2284 184 2040 60 
Q 1797 -63 1484 -63 
Q 966 -63 653 228 
Q 341 519 341 941 
Q 341 1484 753 1767 
Q 1166 2050 1863 2050 
L 2434 2050 
L 2434 2319 
Q 2434 2619 2254 2798 
Q 2075 2978 1722 2978 
Q 1394 2978 1192 2817 
Q 991 2656 991 2444 
L 413 2444 
Q 413 2806 778 3125 
Q 1144 3444 1756 3444 
Q 2306 3444 2659 3162 
Q 3013 2881 3013 2313 
L 3013 794 
Q 3013 325 3131 50 
L 3131 0 
L 2528 0 
z
M 1569 444 
Q 1881 444 2111 600 
Q 2341 756 2434 947 
L 2434 1644 
L 1897 1644 
Q 922 1625 922 1019 
Q 922 778 1084 611 
Q 1247 444 1569 444 
z
" transform="scale(0.015625)"/>
     <path id="Roboto-Regular-74" d="M 1872 0 
Q 1675 -63 1425 -63 
Q 1103 -63 875 134 
Q 647 331 647 841 
L 647 2938 
L 28 2938 
L 28 3381 
L 647 3381 
L 647 4203 
L 1225 4203 
L 1225 3381 
L 1856 3381 
L 1856 2938 
L 1225 2938 
L 1225 838 
Q 1225 578 1337 506 
Q 1450 434 1597 434 
Q 1706 434 1869 472 
L 1872 0 
z
" transform="scale(0.015625)"/>
     <path id="Roboto-Regular-72" d="M 1791 2888 
Q 1225 2888 1019 2400 
L 1019 0 
L 441 0 
L 441 3381 
L 1003 3381 
L 1016 2994 
Q 1294 3444 1819 3444 
Q 1981 3444 2075 3400 
L 2072 2863 
Q 1944 2888 1791 2888 
z
" transform="scale(0.015625)"/>
     <path id="Roboto-Regular-69" d="M 444 4278 
Q 444 4419 530 4516 
Q 616 4613 784 4613 
Q 950 4613 1039 4516 
Q 1128 4419 1128 4278 
Q 1128 4144 1039 4048 
Q 950 3953 784 3953 
Q 616 3953 530 4048 
Q 444 4144 444 4278 
z
M 1069 3381 
L 1069 0 
L 488 0 
L 488 3381 
L 1069 3381 
z
" transform="scale(0.015625)"/>
     <path id="Roboto-Regular-70" d="M 1984 -63 
Q 1375 -63 1019 328 
L 1019 -1300 
L 438 -1300 
L 438 3381 
L 969 3381 
L 997 3009 
Q 1353 3444 1975 3444 
Q 2616 3444 2956 2969 
Q 3297 2494 3297 1719 
L 3297 1653 
Q 3297 913 2955 425 
Q 2613 -63 1984 -63 
z
M 1806 2956 
Q 1281 2956 1019 2491 
L 1019 872 
Q 1284 413 1813 413 
Q 2281 413 2498 781 
Q 2716 1150 2716 1653 
L 2716 1719 
Q 2716 2222 2498 2589 
Q 2281 2956 1806 2956 
z
" transform="scale(0.015625)"/>
     <path id="Roboto-Regular-65" d="M 3116 591 
Q 2950 341 2647 139 
Q 2344 -63 1844 -63 
Q 1138 -63 714 396 
Q 291 856 291 1572 
L 291 1703 
Q 291 2256 502 2645 
Q 713 3034 1050 3239 
Q 1388 3444 1769 3444 
Q 2494 3444 2826 2970 
Q 3159 2497 3159 1788 
L 3159 1528 
L 872 1528 
Q 884 1063 1148 736 
Q 1413 409 1875 409 
Q 2181 409 2393 534 
Q 2606 659 2766 869 
L 3116 591 
z
M 1769 2969 
Q 1425 2969 1187 2719 
Q 950 2469 891 2000 
L 2581 2000 
L 2581 2044 
Q 2559 2381 2386 2675 
Q 2213 2969 1769 2969 
z
" transform="scale(0.015625)"/>
    </defs>
    <use xlink:href="#Roboto-Regular-47"/>
    <use xlink:href="#Roboto-Regular-6c" transform="translate(68.115234 0)"/>
    <use xlink:href="#Roboto-Regular-79" transform="translate(92.431641 0)"/>
    <use xlink:href="#Roboto-Regular-38" transform="translate(139.746094 0)"/>
    <use xlink:href="#Roboto-Regular-35" transform="translate(195.947266 0)"/>
    <use xlink:href="#Roboto-Regular-37" transform="translate(252.148438 0)"/>
    <use xlink:href="#Roboto-Regular-2d" transform="translate(308.349609 0)"/>
    <use xlink:href="#Roboto-Regular-41" transform="translate(335.986328 0)"/>
    <use xlink:href="#Roboto-Regular-6c" transform="translate(401.220703 0)"/>
    <use xlink:href="#Roboto-Regular-61" transform="translate(425.537109 0)"/>
    <use xlink:href="#Roboto-Regular-38" transform="translate(479.931641 0)"/>
    <use xlink:href="#Roboto-Regular-35" transform="translate(536.132812 0)"/>
    <use xlink:href="#Roboto-Regular-38" transform="translate(592.333984 0)"/>
    <use xlink:href="#Roboto-Regular-2d" transform="translate(648.535156 0)"/>
    <use xlink:href="#Roboto-Regular-74" transform="translate(676.171875 0)"/>
    <use xlink:href="#Roboto-Regular-72" transform="translate(708.886719 0)"/>
    <use xlink:href="#Roboto-Regular-69" transform="translate(742.773438 0)"/>
    <use xlink:href="#Roboto-Regular-70" transform="translate(767.089844 0)"/>
    <use xlink:href="#Roboto-Regular-6c" transform="translate(823.242188 0)"/>
    <use xlink:href="#Roboto-Regular-65" transform="translate(847.558594 0)"/>
   </g>
  </g>
  <g id="patch_6">
   <path d="M 66.527954 27.467717 
L 199.697978 27.467717 
L 199.697978 9.467717 
L 66.527954 9.467717 
z
" style="fill: #ffffff"/>
  </g>
  <g id="text_14">
   <!-- $\text{n}_{\text{H}^+}$ at -->
   <g transform="translate(67.527954 20.381779) scale(0.07 -0.07)">
    <defs>
     <path id="Roboto-Regular-20" transform="scale(0.015625)"/>
    </defs>
    <use xlink:href="#DejaVuSans-6e" transform="translate(0 0.328125)"/>
    <use xlink:href="#DejaVuSans-48" transform="translate(64.335938 -16.078125) scale(0.7)"/>
    <use xlink:href="#DejaVuSans-2b" transform="translate(127.188965 10.71875) scale(0.49)"/>
    <use xlink:href="#Roboto-Regular-20" transform="translate(182.44043 0.328125)"/>
    <use xlink:href="#Roboto-Regular-61" transform="translate(207.245117 0.328125)"/>
    <use xlink:href="#Roboto-Regular-74" transform="translate(261.639648 0.328125)"/>
   </g>
  </g>
  <g id="patch_7">
   <path d="M 93.413387 25.767717 
L 108.013387 25.767717 
L 108.013387 11.167717 
L 93.413387 11.167717 
L 93.413387 25.767717 
z
" clip-path="url(#pb616498890)" style="fill: none"/>
  </g>
  <g id="line2d_37">
   <path d="M 92.713387 18.467717 
L 108.713387 18.467717 
" clip-path="url(#pb616498890)" style="fill: none; stroke: #c3006b; stroke-opacity: 0.298039; stroke-width: 0.886227"/>
  </g>
  <g id="line2d_38">
   <path d="M 92.713387 18.467717 
L 108.713387 18.467717 
" clip-path="url(#pb616498890)" style="fill: none; stroke: #c3006b; stroke-width: 1.772454"/>
  </g>
  <g id="text_15">
   <!-- carbonyl O -->
   <g transform="translate(109.847245 20.345685) scale(0.07 -0.07)">
    <defs>
     <path id="Roboto-Regular-63" d="M 1794 413 
Q 2103 413 2336 597 
Q 2569 781 2591 1069 
L 3141 1069 
Q 3119 616 2725 276 
Q 2331 -63 1794 -63 
Q 1031 -63 661 440 
Q 291 944 291 1625 
L 291 1756 
Q 291 2438 661 2941 
Q 1031 3444 1794 3444 
Q 2388 3444 2753 3092 
Q 3119 2741 3141 2219 
L 2591 2219 
Q 2569 2531 2355 2750 
Q 2141 2969 1794 2969 
Q 1438 2969 1236 2787 
Q 1034 2606 951 2328 
Q 869 2050 869 1756 
L 869 1625 
Q 869 1328 950 1050 
Q 1031 772 1232 592 
Q 1434 413 1794 413 
z
" transform="scale(0.015625)"/>
     <path id="Roboto-Regular-62" d="M 3303 1653 
Q 3303 913 2959 425 
Q 2616 -63 1988 -63 
Q 1347 -63 1000 391 
L 969 0 
L 438 0 
L 438 4800 
L 1019 4800 
L 1019 3016 
Q 1363 3444 1981 3444 
Q 2619 3444 2961 2969 
Q 3303 2494 3303 1719 
L 3303 1653 
z
M 1838 2956 
Q 1522 2956 1325 2804 
Q 1128 2653 1019 2431 
L 1019 959 
Q 1131 734 1331 581 
Q 1531 428 1844 428 
Q 2313 428 2517 789 
Q 2722 1150 2722 1653 
L 2722 1719 
Q 2722 2222 2526 2589 
Q 2331 2956 1838 2956 
z
" transform="scale(0.015625)"/>
     <path id="Roboto-Regular-6f" d="M 288 1725 
Q 288 2459 700 2951 
Q 1113 3444 1822 3444 
Q 2531 3444 2943 2961 
Q 3356 2478 3366 1756 
L 3366 1653 
Q 3366 919 2952 428 
Q 2538 -63 1828 -63 
Q 1116 -63 702 428 
Q 288 919 288 1653 
L 288 1725 
z
M 866 1653 
Q 866 1150 1105 781 
Q 1344 413 1828 413 
Q 2300 413 2540 777 
Q 2781 1141 2784 1644 
L 2784 1725 
Q 2784 2222 2543 2595 
Q 2303 2969 1822 2969 
Q 1344 2969 1105 2595 
Q 866 2222 866 1725 
L 866 1653 
z
" transform="scale(0.015625)"/>
     <path id="Roboto-Regular-6e" d="M 1844 2956 
Q 1566 2956 1353 2806 
Q 1141 2656 1019 2416 
L 1019 0 
L 441 0 
L 441 3381 
L 988 3381 
L 1006 2959 
Q 1391 3444 2016 3444 
Q 2513 3444 2805 3166 
Q 3097 2888 3100 2231 
L 3100 0 
L 2519 0 
L 2519 2222 
Q 2519 2619 2345 2787 
Q 2172 2956 1844 2956 
z
" transform="scale(0.015625)"/>
     <path id="Roboto-Regular-4f" d="M 4031 2131 
Q 4031 1106 3534 521 
Q 3038 -63 2206 -63 
Q 1397 -63 884 521 
Q 372 1106 372 2131 
L 372 2419 
Q 372 3441 881 4027 
Q 1391 4613 2200 4613 
Q 3025 4613 3523 4036 
Q 4022 3459 4031 2456 
L 4031 2131 
z
M 3434 2425 
Q 3434 3238 3109 3669 
Q 2784 4100 2200 4100 
Q 1641 4100 1305 3669 
Q 969 3238 969 2425 
L 969 2131 
Q 969 1313 1308 880 
Q 1647 447 2206 447 
Q 2794 447 3114 880 
Q 3434 1313 3434 2131 
L 3434 2425 
z
" transform="scale(0.015625)"/>
    </defs>
    <use xlink:href="#Roboto-Regular-63"/>
    <use xlink:href="#Roboto-Regular-61" transform="translate(52.34375 0)"/>
    <use xlink:href="#Roboto-Regular-72" transform="translate(106.738281 0)"/>
    <use xlink:href="#Roboto-Regular-62" transform="translate(140.625 0)"/>
    <use xlink:href="#Roboto-Regular-6f" transform="translate(196.777344 0)"/>
    <use xlink:href="#Roboto-Regular-6e" transform="translate(253.808594 0)"/>
    <use xlink:href="#Roboto-Regular-79" transform="translate(309.033203 0)"/>
    <use xlink:href="#Roboto-Regular-6c" transform="translate(356.347656 0)"/>
    <use xlink:href="#Roboto-Regular-20" transform="translate(380.664062 0)"/>
    <use xlink:href="#Roboto-Regular-4f" transform="translate(405.46875 0)"/>
   </g>
  </g>
  <g id="patch_8">
   <path d="M 149.745839 25.767717 
L 164.345839 25.767717 
L 164.345839 11.167717 
L 149.745839 11.167717 
L 149.745839 25.767717 
z
" clip-path="url(#p2507d23ec9)" style="fill: none"/>
  </g>
  <g id="line2d_39">
   <path d="M 149.045839 18.467717 
L 165.045839 18.467717 
" clip-path="url(#p2507d23ec9)" style="fill: none; stroke: #003063; stroke-opacity: 0.298039; stroke-width: 0.886227"/>
  </g>
  <g id="line2d_40">
   <path d="M 149.045839 18.467717 
L 165.045839 18.467717 
" clip-path="url(#p2507d23ec9)" style="fill: none; stroke: #003063; stroke-width: 1.772454"/>
  </g>
  <g id="text_16">
   <!-- hydroxyl O -->
   <g transform="translate(166.179697 20.345685) scale(0.07 -0.07)">
    <defs>
     <path id="Roboto-Regular-68" d="M 1844 2956 
Q 1566 2956 1353 2806 
Q 1141 2656 1019 2416 
L 1019 0 
L 441 0 
L 441 4800 
L 1019 4800 
L 1019 2978 
Q 1403 3444 2016 3444 
Q 2513 3444 2805 3166 
Q 3097 2888 3100 2231 
L 3100 0 
L 2519 0 
L 2519 2222 
Q 2519 2619 2345 2787 
Q 2172 2956 1844 2956 
z
" transform="scale(0.015625)"/>
     <path id="Roboto-Regular-64" d="M 2622 0 
L 2594 363 
Q 2247 -63 1628 -63 
Q 1034 -63 668 418 
Q 303 900 297 1628 
L 297 1719 
Q 297 2494 664 2969 
Q 1031 3444 1634 3444 
Q 2231 3444 2572 3044 
L 2572 4800 
L 3153 4800 
L 3153 0 
L 2622 0 
z
M 878 1653 
Q 878 1150 1090 789 
Q 1303 428 1772 428 
Q 2309 428 2572 919 
L 2572 2475 
Q 2313 2956 1778 2956 
Q 1306 2956 1092 2589 
Q 878 2222 878 1719 
L 878 1653 
z
" transform="scale(0.015625)"/>
     <path id="Roboto-Regular-78" d="M 831 3381 
L 1572 2150 
L 2322 3381 
L 3000 3381 
L 1894 1713 
L 3034 0 
L 2366 0 
L 1584 1269 
L 803 0 
L 131 0 
L 1269 1713 
L 166 3381 
L 831 3381 
z
" transform="scale(0.015625)"/>
    </defs>
    <use xlink:href="#Roboto-Regular-68"/>
    <use xlink:href="#Roboto-Regular-79" transform="translate(55.078125 0)"/>
    <use xlink:href="#Roboto-Regular-64" transform="translate(102.392578 0)"/>
    <use xlink:href="#Roboto-Regular-72" transform="translate(158.789062 0)"/>
    <use xlink:href="#Roboto-Regular-6f" transform="translate(192.675781 0)"/>
    <use xlink:href="#Roboto-Regular-78" transform="translate(249.707031 0)"/>
    <use xlink:href="#Roboto-Regular-79" transform="translate(299.316406 0)"/>
    <use xlink:href="#Roboto-Regular-6c" transform="translate(346.630859 0)"/>
    <use xlink:href="#Roboto-Regular-20" transform="translate(370.947266 0)"/>
    <use xlink:href="#Roboto-Regular-4f" transform="translate(395.751953 0)"/>
   </g>
  </g>
 </g>
 <defs>
  <clipPath id="p7c764d1d66">
   <rect x="34.521996" y="50.263929" width="197.181941" height="102.735628"/>
  </clipPath>
  <clipPath id="pb616498890">
   <path d="M 92.713387 26.467717 
L 92.713387 10.467717 
L 108.713387 10.467717 
L 108.713387 26.467717 
"/>
  </clipPath>
  <clipPath id="p2507d23ec9">
   <path d="M 149.045839 26.467717 
L 149.045839 10.467717 
L 165.045839 10.467717 
L 165.045839 26.467717 
"/>
  </clipPath>
 </defs>
</svg>
