<?xml version="1.0" encoding="utf-8" standalone="no"?>
<!DOCTYPE svg PUBLIC "-//W3C//DTD SVG 1.1//EN"
  "http://www.w3.org/Graphics/SVG/1.1/DTD/svg11.dtd">
<svg xmlns:xlink="http://www.w3.org/1999/xlink" width="241.171653pt" height="184.47874pt" viewBox="0 0 241.171653 184.47874" xmlns="http://www.w3.org/2000/svg" version="1.1">
 <metadata>
  <rdf:RDF xmlns:dc="http://purl.org/dc/elements/1.1/" xmlns:cc="http://creativecommons.org/ns#" xmlns:rdf="http://www.w3.org/1999/02/22-rdf-syntax-ns#">
   <cc:Work>
    <dc:type rdf:resource="http://purl.org/dc/dcmitype/StillImage"/>
    <dc:date>2025-10-23T16:01:55.551979</dc:date>
    <dc:format>image/svg+xml</dc:format>
    <dc:creator>
     <cc:Agent>
      <dc:title>Matplotlib v3.10.6, https://matplotlib.org/</dc:title>
     </cc:Agent>
    </dc:creator>
   </cc:Work>
  </rdf:RDF>
 </metadata>
 <defs>
  <style type="text/css">*{stroke-linejoin: round; stroke-linecap: butt}</style>
 </defs>
 <g id="figure_1">
  <g id="patch_1">
   <path d="M 0 184.47874 
L 241.171653 184.47874 
L 241.171653 0 
L 0 0 
z
" style="fill: #ffffff"/>
  </g>
  <g id="patch_2">
   <path d="M 7.2 177.27874 
L 233.971653 177.27874 
L 233.971653 7.2 
L 7.2 7.2 
L 7.2 177.27874 
z
" style="fill: none; stroke: #ffffff; stroke-width: 0.7; stroke-linejoin: miter"/>
  </g>
  <g id="axes_1">
   <g id="patch_3">
    <path d="M 34.521996 152.999557 
L 231.703937 152.999557 
L 231.703937 50.263929 
L 34.521996 50.263929 
z
" style="fill: #ffffff"/>
   </g>
   <g id="matplotlib.axis_1">
    <g id="xtick_1">
     <g id="line2d_1">
      <defs>
       <path id="mb51b0b0185" d="M 0 1.5 
L 0 -1.5 
" style="stroke: #000000; stroke-width: 0.7"/>
      </defs>
      <g>
       <use xlink:href="#mb51b0b0185" x="43.484811" y="152.999557" style="stroke: #000000; stroke-width: 0.7"/>
      </g>
     </g>
     <g id="text_1">
      <!-- 0.1 -->
      <g transform="translate(38.627467 162.149557) scale(0.07 -0.07)">
       <defs>
        <path id="Roboto-Regular-30" d="M 3234 1944 
Q 3234 825 2848 381 
Q 2463 -63 1800 -63 
Q 1156 -63 764 368 
Q 372 800 359 1872 
L 359 2638 
Q 359 3753 750 4183 
Q 1141 4613 1794 4613 
Q 2447 4613 2834 4195 
Q 3222 3778 3234 2709 
L 3234 1944 
z
M 2653 2734 
Q 2653 3503 2434 3822 
Q 2216 4141 1794 4141 
Q 1388 4141 1167 3831 
Q 947 3522 941 2778 
L 941 1850 
Q 941 1088 1164 750 
Q 1388 413 1800 413 
Q 2222 413 2436 745 
Q 2650 1078 2653 1825 
L 2653 2734 
z
" transform="scale(0.015625)"/>
        <path id="Roboto-Regular-2e" d="M 450 306 
Q 450 453 542 554 
Q 634 656 809 656 
Q 984 656 1076 554 
Q 1169 453 1169 306 
Q 1169 163 1076 62 
Q 984 -38 809 -38 
Q 634 -38 542 62 
Q 450 163 450 306 
z
" transform="scale(0.015625)"/>
        <path id="Roboto-Regular-31" d="M 2278 4575 
L 2278 0 
L 1700 0 
L 1700 3853 
L 534 3428 
L 534 3950 
L 2188 4575 
L 2278 4575 
z
" transform="scale(0.015625)"/>
       </defs>
       <use xlink:href="#Roboto-Regular-30"/>
       <use xlink:href="#Roboto-Regular-2e" transform="translate(56.201172 0)"/>
       <use xlink:href="#Roboto-Regular-31" transform="translate(82.568359 0)"/>
      </g>
     </g>
    </g>
    <g id="xtick_2">
     <g id="line2d_2">
      <g>
       <use xlink:href="#mb51b0b0185" x="88.298889" y="152.999557" style="stroke: #000000; stroke-width: 0.7"/>
      </g>
     </g>
     <g id="text_2">
      <!-- 0.2 -->
      <g transform="translate(83.441545 162.149557) scale(0.07 -0.07)">
       <defs>
        <path id="Roboto-Regular-32" d="M 3359 475 
L 3359 0 
L 381 0 
L 381 416 
L 1925 2134 
Q 2306 2566 2439 2819 
Q 2572 3072 2572 3328 
Q 2572 3663 2364 3900 
Q 2156 4138 1778 4138 
Q 1322 4138 1097 3878 
Q 872 3619 872 3213 
L 294 3213 
Q 294 3788 672 4200 
Q 1050 4613 1778 4613 
Q 2422 4613 2786 4278 
Q 3150 3944 3150 3397 
Q 3150 2997 2903 2592 
Q 2656 2188 2297 1797 
L 1078 475 
L 3359 475 
z
" transform="scale(0.015625)"/>
       </defs>
       <use xlink:href="#Roboto-Regular-30"/>
       <use xlink:href="#Roboto-Regular-2e" transform="translate(56.201172 0)"/>
       <use xlink:href="#Roboto-Regular-32" transform="translate(82.568359 0)"/>
      </g>
     </g>
    </g>
    <g id="xtick_3">
     <g id="line2d_3">
      <g>
       <use xlink:href="#mb51b0b0185" x="133.112966" y="152.999557" style="stroke: #000000; stroke-width: 0.7"/>
      </g>
     </g>
     <g id="text_3">
      <!-- 0.3 -->
      <g transform="translate(128.255622 162.149557) scale(0.07 -0.07)">
       <defs>
        <path id="Roboto-Regular-33" d="M 1222 2084 
L 1222 2559 
L 1647 2559 
Q 2094 2563 2312 2784 
Q 2531 3006 2531 3338 
Q 2531 4138 1738 4138 
Q 1369 4138 1141 3927 
Q 913 3716 913 3359 
L 334 3359 
Q 334 3881 720 4247 
Q 1106 4613 1738 4613 
Q 2353 4613 2733 4286 
Q 3113 3959 3113 3325 
Q 3113 3072 2942 2784 
Q 2772 2497 2397 2338 
Q 2850 2191 3015 1884 
Q 3181 1578 3181 1269 
Q 3181 631 2768 284 
Q 2356 -63 1741 -63 
Q 1147 -63 722 267 
Q 297 597 297 1203 
L 875 1203 
Q 875 844 1108 628 
Q 1341 413 1741 413 
Q 2138 413 2369 622 
Q 2600 831 2600 1256 
Q 2600 1681 2337 1882 
Q 2075 2084 1634 2084 
L 1222 2084 
z
" transform="scale(0.015625)"/>
       </defs>
       <use xlink:href="#Roboto-Regular-30"/>
       <use xlink:href="#Roboto-Regular-2e" transform="translate(56.201172 0)"/>
       <use xlink:href="#Roboto-Regular-33" transform="translate(82.568359 0)"/>
      </g>
     </g>
    </g>
    <g id="xtick_4">
     <g id="line2d_4">
      <g>
       <use xlink:href="#mb51b0b0185" x="177.927044" y="152.999557" style="stroke: #000000; stroke-width: 0.7"/>
      </g>
     </g>
     <g id="text_4">
      <!-- 0.4 -->
      <g transform="translate(173.0697 162.149557) scale(0.07 -0.07)">
       <defs>
        <path id="Roboto-Regular-34" d="M 166 1397 
L 2203 4550 
L 2819 4550 
L 2819 1531 
L 3453 1531 
L 3453 1056 
L 2819 1056 
L 2819 0 
L 2241 0 
L 2241 1056 
L 166 1056 
L 166 1397 
z
M 822 1531 
L 2241 1531 
L 2241 3766 
L 2169 3638 
L 822 1531 
z
" transform="scale(0.015625)"/>
       </defs>
       <use xlink:href="#Roboto-Regular-30"/>
       <use xlink:href="#Roboto-Regular-2e" transform="translate(56.201172 0)"/>
       <use xlink:href="#Roboto-Regular-34" transform="translate(82.568359 0)"/>
      </g>
     </g>
    </g>
    <g id="xtick_5">
     <g id="line2d_5">
      <g>
       <use xlink:href="#mb51b0b0185" x="222.741121" y="152.999557" style="stroke: #000000; stroke-width: 0.7"/>
      </g>
     </g>
     <g id="text_5">
      <!-- 0.5 -->
      <g transform="translate(217.883778 162.149557) scale(0.07 -0.07)">
       <defs>
        <path id="Roboto-Regular-35" d="M 1109 2166 
L 647 2284 
L 875 4550 
L 3209 4550 
L 3209 4016 
L 1366 4016 
L 1228 2778 
Q 1572 2975 1988 2975 
Q 2616 2975 2980 2561 
Q 3344 2147 3344 1450 
Q 3344 797 2987 367 
Q 2631 -63 1903 -63 
Q 1350 -63 947 248 
Q 544 559 481 1197 
L 1031 1197 
Q 1141 413 1903 413 
Q 2313 413 2538 691 
Q 2763 969 2763 1444 
Q 2763 1872 2527 2164 
Q 2291 2456 1853 2456 
Q 1563 2456 1413 2378 
Q 1263 2300 1109 2166 
z
" transform="scale(0.015625)"/>
       </defs>
       <use xlink:href="#Roboto-Regular-30"/>
       <use xlink:href="#Roboto-Regular-2e" transform="translate(56.201172 0)"/>
       <use xlink:href="#Roboto-Regular-35" transform="translate(82.568359 0)"/>
      </g>
     </g>
    </g>
    <g id="xtick_6">
     <g id="line2d_6">
      <defs>
       <path id="mc427d13ce8" d="M 0 2 
L 0 -2 
" style="stroke: #000000; stroke-width: 0.7"/>
      </defs>
      <g>
       <use xlink:href="#mc427d13ce8" x="65.89185" y="152.999557" style="stroke: #000000; stroke-width: 0.7"/>
      </g>
     </g>
    </g>
    <g id="xtick_7">
     <g id="line2d_7">
      <g>
       <use xlink:href="#mc427d13ce8" x="110.705927" y="152.999557" style="stroke: #000000; stroke-width: 0.7"/>
      </g>
     </g>
    </g>
    <g id="xtick_8">
     <g id="line2d_8">
      <g>
       <use xlink:href="#mc427d13ce8" x="155.520005" y="152.999557" style="stroke: #000000; stroke-width: 0.7"/>
      </g>
     </g>
    </g>
    <g id="xtick_9">
     <g id="line2d_9">
      <g>
       <use xlink:href="#mc427d13ce8" x="200.334082" y="152.999557" style="stroke: #000000; stroke-width: 0.7"/>
      </g>
     </g>
    </g>
   </g>
   <g id="matplotlib.axis_2">
    <g id="ytick_1">
     <g id="line2d_10">
      <defs>
       <path id="mfb8dac4d45" d="M 1.5 0 
L -1.5 -0 
" style="stroke: #000000; stroke-width: 0.7"/>
      </defs>
      <g>
       <use xlink:href="#mfb8dac4d45" x="34.521996" y="143.74311" style="stroke: #000000; stroke-width: 0.7"/>
      </g>
     </g>
     <g id="text_6">
      <!-- 0.0 -->
      <g transform="translate(20.907308 146.36811) scale(0.07 -0.07)">
       <use xlink:href="#Roboto-Regular-30"/>
       <use xlink:href="#Roboto-Regular-2e" transform="translate(56.201172 0)"/>
       <use xlink:href="#Roboto-Regular-30" transform="translate(82.568359 0)"/>
      </g>
     </g>
    </g>
    <g id="ytick_2">
     <g id="line2d_11">
      <g>
       <use xlink:href="#mfb8dac4d45" x="34.521996" y="121.757726" style="stroke: #000000; stroke-width: 0.7"/>
      </g>
     </g>
     <g id="text_7">
      <!-- 0.5 -->
      <g transform="translate(20.907308 124.382726) scale(0.07 -0.07)">
       <use xlink:href="#Roboto-Regular-30"/>
       <use xlink:href="#Roboto-Regular-2e" transform="translate(56.201172 0)"/>
       <use xlink:href="#Roboto-Regular-35" transform="translate(82.568359 0)"/>
      </g>
     </g>
    </g>
    <g id="ytick_3">
     <g id="line2d_12">
      <g>
       <use xlink:href="#mfb8dac4d45" x="34.521996" y="99.772342" style="stroke: #000000; stroke-width: 0.7"/>
      </g>
     </g>
     <g id="text_8">
      <!-- 1.0 -->
      <g transform="translate(20.907308 102.397342) scale(0.07 -0.07)">
       <use xlink:href="#Roboto-Regular-31"/>
       <use xlink:href="#Roboto-Regular-2e" transform="translate(56.201172 0)"/>
       <use xlink:href="#Roboto-Regular-30" transform="translate(82.568359 0)"/>
      </g>
     </g>
    </g>
    <g id="ytick_4">
     <g id="line2d_13">
      <g>
       <use xlink:href="#mfb8dac4d45" x="34.521996" y="77.786958" style="stroke: #000000; stroke-width: 0.7"/>
      </g>
     </g>
     <g id="text_9">
      <!-- 1.5 -->
      <g transform="translate(20.907308 80.411958) scale(0.07 -0.07)">
       <use xlink:href="#Roboto-Regular-31"/>
       <use xlink:href="#Roboto-Regular-2e" transform="translate(56.201172 0)"/>
       <use xlink:href="#Roboto-Regular-35" transform="translate(82.568359 0)"/>
      </g>
     </g>
    </g>
    <g id="ytick_5">
     <g id="line2d_14">
      <g>
       <use xlink:href="#mfb8dac4d45" x="34.521996" y="55.801574" style="stroke: #000000; stroke-width: 0.7"/>
      </g>
     </g>
     <g id="text_10">
      <!-- 2.0 -->
      <g transform="translate(20.907308 58.426574) scale(0.07 -0.07)">
       <use xlink:href="#Roboto-Regular-32"/>
       <use xlink:href="#Roboto-Regular-2e" transform="translate(56.201172 0)"/>
       <use xlink:href="#Roboto-Regular-30" transform="translate(82.568359 0)"/>
      </g>
     </g>
    </g>
    <g id="ytick_6">
     <g id="line2d_15">
      <defs>
       <path id="m04442b8d42" d="M 2 0 
L -2 -0 
" style="stroke: #000000; stroke-width: 0.7"/>
      </defs>
      <g>
       <use xlink:href="#m04442b8d42" x="34.521996" y="132.750418" style="stroke: #000000; stroke-width: 0.7"/>
      </g>
     </g>
    </g>
    <g id="ytick_7">
     <g id="line2d_16">
      <g>
       <use xlink:href="#m04442b8d42" x="34.521996" y="110.765034" style="stroke: #000000; stroke-width: 0.7"/>
      </g>
     </g>
    </g>
    <g id="ytick_8">
     <g id="line2d_17">
      <g>
       <use xlink:href="#m04442b8d42" x="34.521996" y="88.77965" style="stroke: #000000; stroke-width: 0.7"/>
      </g>
     </g>
    </g>
    <g id="ytick_9">
     <g id="line2d_18">
      <g>
       <use xlink:href="#m04442b8d42" x="34.521996" y="66.794266" style="stroke: #000000; stroke-width: 0.7"/>
      </g>
     </g>
    </g>
   </g>
   <g id="line2d_19">
    <path d="M 56.929034 142.951636 
L 58.721597 124.980966 
L 60.514161 143.655168 
L 62.306724 143.479285 
L 64.099287 131.601048 
L 65.89185 142.072221 
L 67.684413 143.391344 
L 69.476976 130.639821 
L 71.269539 143.655168 
L 73.286173 140.753098 
L 75.302806 143.127519 
L 77.095369 143.74311 
L 78.887932 143.74311 
L 80.680495 143.74311 
L 82.473059 143.74311 
L 84.265622 143.74311 
L 86.058185 143.74311 
L 87.850748 143.74311 
L 89.643311 143.74311 
L 91.435874 143.74311 
L 93.228437 143.74311 
L 95.021 143.74311 
L 96.813563 143.74311 
L 98.606126 143.74311 
L 100.39869 143.74311 
L 102.191253 143.74311 
L 103.983816 143.74311 
L 106.000449 143.74311 
L 108.017083 143.74311 
L 109.809646 143.74311 
L 114.739194 143.74311 
L 123.029799 143.74311 
L 131.320403 143.74311 
L 139.386937 143.74311 
L 147.677541 143.74311 
L 155.968146 143.74311 
L 164.03468 143.74311 
L 172.325284 143.74311 
L 180.615888 143.646683 
L 188.682422 143.74311 
L 196.973027 143.74311 
L 205.263631 143.74311 
L 213.330165 143.74311 
L 221.620769 143.74311 
" clip-path="url(#p0e79d43bda)" style="fill: none; stroke: #c3006b; stroke-opacity: 0.298039; stroke-width: 0.886227"/>
   </g>
   <g id="line2d_20">
    <path d="M 56.929034 99.772342 
L 58.721597 99.772342 
L 60.514161 99.772342 
L 62.306724 99.772342 
L 64.099287 99.772342 
L 65.89185 99.772342 
L 67.684413 99.772342 
L 69.476976 99.772342 
L 71.269539 99.772342 
L 73.286173 99.772342 
L 75.302806 99.772342 
L 77.095369 55.801574 
L 78.887932 55.801574 
L 80.680495 55.801574 
L 82.473059 55.801574 
L 84.265622 55.801574 
L 86.058185 55.801574 
L 87.850748 55.801574 
L 89.643311 55.801574 
L 91.435874 55.801574 
L 93.228437 55.801574 
L 95.021 55.801574 
L 96.813563 63.452488 
L 98.606126 55.801574 
L 100.39869 55.801574 
L 102.191253 55.801574 
L 103.983816 55.801574 
L 106.000449 55.801574 
L 108.017083 55.801574 
L 109.809646 55.801574 
L 114.739194 55.801574 
L 123.029799 55.801574 
L 131.320403 55.801574 
L 139.386937 55.801574 
L 147.677541 55.801574 
L 155.968146 55.801574 
L 164.03468 55.801574 
L 172.325284 55.977457 
L 180.615888 54.93373 
L 188.682422 55.801574 
L 196.973027 55.801574 
L 205.263631 56.329223 
L 213.330165 57.29658 
L 221.620769 57.29658 
" clip-path="url(#p0e79d43bda)" style="fill: none; stroke: #003063; stroke-opacity: 0.298039; stroke-width: 0.886227"/>
   </g>
   <g id="line2d_21">
    <path d="M 56.929034 143.215461 
L 58.721597 141.808396 
L 60.514161 141.368688 
L 62.306724 103.290003 
L 64.099287 118.415948 
L 65.89185 143.391344 
L 67.684413 142.687811 
L 69.476976 143.74311 
L 71.269539 143.655168 
L 73.286173 143.039578 
L 75.302806 143.74311 
L 77.095369 143.74311 
L 78.887932 143.74311 
L 80.680495 143.479285 
L 82.473059 143.127519 
L 84.265622 143.74311 
L 86.058185 143.567227 
L 87.850748 143.74311 
L 89.643311 143.74311 
L 91.435874 143.74311 
L 93.228437 143.74311 
L 95.021 143.74311 
L 96.813563 143.74311 
L 98.830197 143.74311 
L 100.84683 143.74311 
L 102.639393 143.74311 
L 104.431957 143.74311 
L 106.22452 143.74311 
L 108.017083 143.74311 
L 109.809646 143.74311 
L 114.291054 143.74311 
L 121.461306 143.74311 
L 128.631558 143.74311 
L 135.57774 143.74311 
L 142.523922 143.74311 
L 149.694175 143.74311 
L 156.864427 143.74311 
L 164.03468 143.74311 
L 171.204932 143.74311 
L 178.151114 143.74311 
L 185.097296 143.74311 
L 192.267549 143.74311 
L 199.437801 143.74311 
L 206.608053 143.74311 
L 213.778306 143.74311 
L 220.948558 143.74311 
" clip-path="url(#p0e79d43bda)" style="fill: none; stroke: #c3006b; stroke-opacity: 0.298039; stroke-width: 0.886227"/>
   </g>
   <g id="line2d_22">
    <path d="M 56.929034 99.772342 
L 58.721597 99.772342 
L 60.514161 99.772342 
L 62.306724 99.772342 
L 64.099287 99.772342 
L 65.89185 99.772342 
L 67.684413 97.92557 
L 69.476976 60.286592 
L 71.269539 98.980868 
L 73.286173 99.06881 
L 75.302806 98.54116 
L 77.095369 92.473194 
L 78.887932 98.892927 
L 80.680495 98.892927 
L 82.473059 98.980868 
L 84.265622 99.06881 
L 86.058185 95.287324 
L 87.850748 97.837628 
L 89.643311 55.889516 
L 91.435874 55.801574 
L 93.228437 55.889516 
L 95.021 55.801574 
L 96.813563 55.801574 
L 98.830197 55.801574 
L 100.84683 56.15334 
L 102.639393 55.889516 
L 104.431957 55.801574 
L 106.22452 55.977457 
L 108.017083 55.801574 
L 109.809646 56.417165 
L 114.291054 55.801574 
L 121.461306 55.801574 
L 128.631558 55.801574 
L 135.57774 55.801574 
L 142.523922 55.801574 
L 149.694175 55.801574 
L 156.864427 55.801574 
L 164.03468 56.241282 
L 171.204932 59.407177 
L 178.151114 55.801574 
L 185.097296 55.801574 
L 192.267549 57.120697 
L 199.437801 55.801574 
L 206.608053 55.801574 
L 213.778306 55.801574 
L 220.948558 55.801574 
" clip-path="url(#p0e79d43bda)" style="fill: none; stroke: #003063; stroke-opacity: 0.298039; stroke-width: 0.886227"/>
   </g>
   <g id="line2d_23">
    <path d="M 51.775415 61.341891 
L 53.792049 99.772342 
L 55.808682 84.822281 
L 57.825316 99.772342 
L 59.841949 99.772342 
L 61.858583 99.772342 
L 63.875216 99.948225 
L 65.89185 99.948225 
L 67.908483 136.239117 
L 69.925117 126.330686 
L 71.71768 99.948225 
L 73.734313 99.948225 
L 75.750947 113.842988 
L 77.76758 128.617166 
L 79.784214 143.74311 
L 81.800847 143.74311 
L 83.817481 143.74311 
L 85.610044 143.74311 
L 87.626677 143.74311 
L 89.643311 143.74311 
L 91.659944 143.74311 
L 93.676578 143.74311 
L 95.693211 143.74311 
L 97.709845 143.74311 
L 99.726478 143.74311 
L 101.743112 143.74311 
L 103.535675 143.74311 
L 105.552308 143.74311 
L 107.568942 143.74311 
L 109.585575 143.74311 
L 115.187335 143.74311 
L 124.150151 143.74311 
L 133.337037 143.74311 
L 142.523922 143.74311 
L 151.486738 143.74311 
L 160.449553 143.74311 
L 169.412369 143.74311 
L 178.375184 143.74311 
L 187.338 143.74311 
L 196.524886 143.74311 
L 205.711772 143.74311 
L 214.674587 143.50543 
" clip-path="url(#p0e79d43bda)" style="fill: none; stroke: #c3006b; stroke-opacity: 0.298039; stroke-width: 0.886227"/>
   </g>
   <g id="line2d_24">
    <path d="M 51.775415 143.74311 
L 53.792049 143.74311 
L 55.808682 143.479285 
L 57.825316 140.665156 
L 59.841949 142.336045 
L 61.858583 142.687811 
L 63.875216 133.366009 
L 65.89185 115.865643 
L 67.908483 101.35213 
L 69.925117 101.267348 
L 71.71768 141.544571 
L 73.734313 136.443962 
L 75.750947 100.21205 
L 77.76758 102.146763 
L 79.784214 55.889516 
L 81.800847 57.032756 
L 83.817481 55.977457 
L 85.610044 55.977457 
L 87.626677 57.208639 
L 89.643311 62.133365 
L 91.659944 61.781598 
L 93.676578 55.889516 
L 95.693211 55.801574 
L 97.709845 55.801574 
L 99.726478 56.065399 
L 101.743112 55.801574 
L 103.535675 55.801574 
L 105.552308 56.065399 
L 107.568942 55.801574 
L 109.585575 55.801574 
L 115.187335 55.801574 
L 124.150151 55.801574 
L 133.337037 55.889516 
L 142.523922 55.801574 
L 151.486738 55.801574 
L 160.449553 56.15334 
L 169.412369 55.801574 
L 178.375184 55.801574 
L 187.338 55.801574 
L 196.524886 55.801574 
L 205.711772 55.801574 
L 214.674587 55.801574 
" clip-path="url(#p0e79d43bda)" style="fill: none; stroke: #003063; stroke-opacity: 0.298039; stroke-width: 0.886227"/>
   </g>
   <g id="line2d_25">
    <path d="M 56.480894 103.377945 
L 58.273457 132.750418 
L 60.06602 141.280747 
L 61.858583 128.177458 
L 63.651146 118.240064 
L 65.667779 143.215461 
L 67.684413 136.180138 
L 69.476976 106.280016 
L 71.269539 142.160162 
L 73.062102 142.951636 
L 74.854665 142.248104 
L 76.647228 143.127519 
L 78.439792 106.104133 
L 80.232355 143.215461 
L 82.024918 143.74311 
L 84.041551 143.74311 
L 86.058185 143.74311 
L 87.850748 143.74311 
L 89.643311 143.74311 
L 91.435874 143.74311 
L 93.228437 143.74311 
L 95.021 143.74311 
L 96.813563 143.74311 
L 98.606126 143.74311 
L 100.39869 143.74311 
L 102.415323 143.74311 
L 104.431957 143.74311 
L 106.22452 143.74311 
L 108.017083 143.74311 
L 109.809646 143.74311 
L 114.515124 143.74311 
L 122.133517 143.74311 
L 129.75191 143.74311 
L 137.594374 143.74311 
L 145.436837 143.74311 
L 153.055231 143.74311 
L 160.673624 143.74311 
L 168.292017 143.74311 
L 175.91041 143.74311 
L 183.528803 143.74311 
L 191.147197 143.74311 
L 198.76559 143.74311 
L 206.383983 143.74311 
L 214.002376 143.74311 
L 221.620769 143.74311 
" clip-path="url(#p0e79d43bda)" style="fill: none; stroke: #c3006b; stroke-opacity: 0.298039; stroke-width: 0.886227"/>
   </g>
   <g id="line2d_26">
    <path d="M 56.480894 137.851027 
L 58.273457 109.006203 
L 60.06602 99.772342 
L 61.858583 100.475874 
L 63.651146 112.347982 
L 65.667779 99.772342 
L 67.684413 99.772342 
L 69.476976 135.916313 
L 71.269539 99.772342 
L 73.062102 99.772342 
L 74.854665 99.772342 
L 76.647228 99.772342 
L 78.439792 126.858335 
L 80.232355 99.772342 
L 82.024918 59.495119 
L 84.041551 93.616434 
L 86.058185 94.935557 
L 87.850748 97.046154 
L 89.643311 93.35261 
L 91.435874 90.274656 
L 93.228437 87.196702 
L 95.021 61.341891 
L 96.813563 62.748955 
L 98.606126 95.727031 
L 100.39869 57.208639 
L 102.415323 62.397189 
L 104.431957 57.032756 
L 106.22452 65.563084 
L 108.017083 61.781598 
L 109.809646 65.738968 
L 114.515124 73.565764 
L 122.133517 80.601087 
L 129.75191 62.748955 
L 137.594374 67.497798 
L 145.436837 58.263937 
L 153.055231 62.573072 
L 160.673624 61.957482 
L 168.292017 61.166008 
L 175.91041 61.253949 
L 183.528803 59.143352 
L 191.147197 61.957482 
L 198.76559 91.593779 
L 206.383983 90.450539 
L 214.002376 84.646398 
L 221.620769 57.824229 
" clip-path="url(#p0e79d43bda)" style="fill: none; stroke: #003063; stroke-opacity: 0.298039; stroke-width: 0.886227"/>
   </g>
   <g id="line2d_27">
    <path d="M 55.808682 141.984279 
L 57.825316 142.951636 
L 59.617879 141.984279 
L 61.410442 143.303402 
L 63.203005 143.74311 
L 64.995568 143.391344 
L 66.788131 143.655168 
L 68.580695 143.479285 
L 70.597328 143.655168 
L 72.613961 143.655168 
L 74.406525 143.655168 
L 76.199088 143.633183 
L 77.991651 143.655168 
L 79.784214 143.567227 
L 81.576777 143.74311 
L 83.59341 143.74311 
L 85.610044 143.74311 
L 87.402607 143.655168 
L 89.19517 143.74311 
L 90.987733 143.74311 
L 92.780296 143.74311 
L 94.572859 143.74311 
L 96.589493 143.74311 
L 98.606126 143.74311 
L 100.39869 143.74311 
L 102.191253 143.74311 
L 103.983816 143.74311 
L 105.776379 143.74311 
L 107.568942 143.74311 
L 109.361505 143.74311 
L 114.963265 143.74311 
L 123.253869 143.74311 
L 131.320403 143.74311 
L 139.611007 143.74311 
L 147.901612 143.74311 
L 155.968146 143.74311 
L 164.03468 143.74311 
L 172.101214 143.74311 
L 180.391818 143.74311 
L 188.682422 143.74311 
L 196.748956 143.74311 
L 204.81549 103.465886 
L 212.882024 139.697799 
L 221.172629 112.611806 
" clip-path="url(#p0e79d43bda)" style="fill: none; stroke: #c3006b; stroke-opacity: 0.298039; stroke-width: 0.886227"/>
   </g>
   <g id="line2d_28">
    <path d="M 55.808682 99.772342 
L 57.825316 99.772342 
L 59.617879 99.772342 
L 61.410442 99.772342 
L 63.203005 99.772342 
L 64.995568 99.772342 
L 66.788131 99.772342 
L 68.580695 99.772342 
L 70.597328 99.772342 
L 72.613961 99.772342 
L 74.406525 99.772342 
L 76.199088 99.772342 
L 77.991651 99.772342 
L 79.784214 99.772342 
L 81.576777 62.397189 
L 83.59341 72.862232 
L 85.610044 71.543109 
L 87.402607 99.772342 
L 89.19517 95.63909 
L 90.987733 58.967469 
L 92.780296 93.880259 
L 94.572859 66.530441 
L 96.589493 60.110709 
L 98.606126 70.048103 
L 100.39869 85.086105 
L 102.191253 81.392561 
L 103.983816 77.611075 
L 105.776379 61.517774 
L 107.568942 68.553097 
L 109.361505 66.4425 
L 114.963265 55.801574 
L 123.253869 59.055411 
L 131.320403 55.801574 
L 139.611007 57.032756 
L 147.901612 55.801574 
L 155.968146 60.198651 
L 164.03468 56.241282 
L 172.101214 56.065399 
L 180.391818 56.680989 
L 188.682422 56.417165 
L 196.748956 57.032756 
L 204.81549 55.889516 
L 212.882024 55.977457 
L 221.172629 55.801574 
" clip-path="url(#p0e79d43bda)" style="fill: none; stroke: #003063; stroke-opacity: 0.298039; stroke-width: 0.886227"/>
   </g>
   <g id="line2d_29">
    <path d="M 55.584612 141.104864 
L 57.601246 138.378676 
L 59.617879 140.753098 
L 61.410442 141.192805 
L 63.203005 136.795729 
L 64.995568 142.59987 
L 66.788131 141.104864 
L 68.580695 140.665156 
L 70.597328 141.808396 
L 72.613961 143.74311 
L 74.406525 143.74311 
L 76.199088 143.74311 
L 77.991651 143.74311 
L 79.784214 143.74311 
L 81.800847 143.74311 
L 83.817481 143.74311 
L 85.610044 143.74311 
L 87.402607 143.74311 
L 89.19517 143.74311 
L 90.987733 143.74311 
L 92.780296 143.74311 
L 94.79693 143.74311 
L 96.813563 143.74311 
L 98.606126 143.74311 
L 100.39869 143.74311 
L 102.191253 143.74311 
L 103.983816 143.74311 
L 106.000449 143.74311 
L 108.017083 143.74311 
L 109.809646 143.74311 
L 113.842913 143.74311 
L 120.340954 143.74311 
L 126.838995 143.74311 
L 133.112966 143.74311 
L 139.611007 143.74311 
L 146.109049 143.74311 
L 152.38302 143.74311 
L 158.881061 143.74311 
L 165.379102 143.74311 
L 171.653073 143.74311 
L 178.151114 143.74311 
L 184.649155 143.74311 
L 190.923126 143.74311 
L 197.421167 143.74311 
L 203.919209 143.74311 
L 210.19318 143.74311 
L 216.691221 143.74311 
" clip-path="url(#p0e79d43bda)" style="fill: none; stroke: #c3006b; stroke-opacity: 0.298039; stroke-width: 0.886227"/>
   </g>
   <g id="line2d_30">
    <path d="M 55.584612 99.772342 
L 57.601246 99.772342 
L 59.617879 99.772342 
L 61.410442 99.772342 
L 63.203005 99.772342 
L 64.995568 99.772342 
L 66.788131 99.772342 
L 68.580695 99.772342 
L 70.597328 99.772342 
L 72.613961 55.801574 
L 74.406525 55.801574 
L 76.199088 55.801574 
L 77.991651 55.801574 
L 79.784214 55.801574 
L 81.800847 55.801574 
L 83.817481 55.801574 
L 85.610044 55.801574 
L 87.402607 55.801574 
L 89.19517 55.801574 
L 90.987733 55.801574 
L 92.780296 55.801574 
L 94.79693 55.801574 
L 96.813563 55.801574 
L 98.606126 55.801574 
L 100.39869 55.801574 
L 102.191253 55.801574 
L 103.983816 55.801574 
L 106.000449 55.801574 
L 108.017083 55.801574 
L 109.809646 55.801574 
L 113.842913 55.801574 
L 120.340954 55.801574 
L 126.838995 55.801574 
L 133.112966 55.801574 
L 139.611007 55.801574 
L 146.109049 55.801574 
L 152.38302 55.801574 
L 158.881061 55.801574 
L 165.379102 55.889516 
L 171.653073 55.801574 
L 178.151114 55.801574 
L 184.649155 55.801574 
L 190.923126 55.801574 
L 197.421167 55.801574 
L 203.919209 55.801574 
L 210.19318 55.801574 
L 216.691221 55.801574 
" clip-path="url(#p0e79d43bda)" style="fill: none; stroke: #003063; stroke-opacity: 0.298039; stroke-width: 0.886227"/>
   </g>
   <g id="line2d_31">
    <path d="M 55.584612 143.74311 
L 57.377175 142.775753 
L 59.169738 143.127519 
L 61.186372 143.567227 
L 63.203005 143.215461 
L 64.995568 143.567227 
L 66.788131 143.74311 
L 68.580695 143.215461 
L 70.373258 143.74311 
L 72.389891 143.74311 
L 74.406525 143.74311 
L 76.199088 143.74311 
L 77.991651 143.74311 
L 79.784214 143.649555 
L 81.576777 143.74311 
L 83.36934 143.74311 
L 85.385974 143.74311 
L 87.402607 143.74311 
L 89.19517 143.74311 
L 90.987733 143.74311 
L 92.780296 143.74311 
L 94.572859 143.74311 
L 96.589493 143.74311 
L 98.606126 143.74311 
L 100.39869 143.74311 
L 102.191253 143.74311 
L 103.983816 143.74311 
L 105.776379 143.74311 
L 107.568942 143.74311 
L 109.585575 143.74311 
L 114.963265 143.74311 
L 123.70201 143.74311 
L 132.440755 143.74311 
L 140.95543 143.74311 
L 149.694175 143.74311 
L 158.43292 143.74311 
L 166.947595 143.74311 
L 175.68634 143.74311 
L 184.425085 143.74311 
L 192.93976 143.74311 
L 201.678505 143.74311 
L 210.41725 143.74311 
L 218.931925 143.74311 
" clip-path="url(#p0e79d43bda)" style="fill: none; stroke: #c3006b; stroke-opacity: 0.298039; stroke-width: 0.886227"/>
   </g>
   <g id="line2d_32">
    <path d="M 55.584612 99.772342 
L 57.377175 99.772342 
L 59.169738 99.772342 
L 61.186372 99.772342 
L 63.203005 99.772342 
L 64.995568 99.772342 
L 66.788131 99.772342 
L 68.580695 99.772342 
L 70.373258 75.676361 
L 72.389891 65.738968 
L 74.406525 64.859552 
L 76.199088 85.525813 
L 77.991651 94.232025 
L 79.784214 68.244366 
L 81.576777 99.508517 
L 83.36934 74.796946 
L 85.385974 74.093413 
L 87.402607 87.63641 
L 89.19517 79.985496 
L 90.987733 90.010831 
L 92.780296 75.764303 
L 94.572859 65.29926 
L 96.589493 92.912902 
L 98.606126 99.772342 
L 100.39869 70.487811 
L 102.191253 99.772342 
L 103.983816 99.772342 
L 105.776379 99.772342 
L 107.568942 99.772342 
L 109.585575 99.772342 
L 114.963265 99.772342 
L 123.70201 99.772342 
L 132.440755 99.772342 
L 140.95543 99.772342 
L 149.694175 99.772342 
L 158.43292 75.06077 
L 166.947595 99.6844 
L 175.68634 64.243961 
L 184.425085 64.15602 
L 192.93976 56.680989 
L 201.678505 56.680989 
L 210.41725 57.648346 
L 218.931925 57.560405 
" clip-path="url(#p0e79d43bda)" style="fill: none; stroke: #003063; stroke-opacity: 0.298039; stroke-width: 0.886227"/>
   </g>
   <g id="line2d_33">
    <path d="M 57.377175 141.016922 
L 59.169738 142.248104 
L 60.962301 142.072221 
L 62.754864 132.574535 
L 64.547428 143.479285 
L 66.339991 143.039578 
L 68.132554 141.598194 
L 69.925117 143.74311 
L 71.71768 143.74311 
L 73.510243 143.74311 
L 75.302806 143.74311 
L 77.095369 143.655168 
L 78.887932 143.74311 
L 80.680495 143.74311 
L 82.473059 143.74311 
L 84.265622 143.74311 
L 86.058185 143.74311 
L 88.074818 143.74311 
L 90.091452 143.74311 
L 91.884015 143.74311 
L 93.676578 143.74311 
L 95.469141 143.74311 
L 97.261704 143.74311 
L 99.054267 143.74311 
L 100.84683 143.74311 
L 102.639393 143.74311 
L 104.431957 143.74311 
L 106.22452 143.74311 
L 108.017083 143.74311 
L 109.809646 143.74311 
L 114.739194 143.74311 
L 122.581658 143.74311 
L 130.424122 143.74311 
L 138.266585 143.74311 
L 145.884978 143.74311 
L 153.727442 143.74311 
L 161.569905 143.74311 
L 169.188299 143.74311 
L 176.806692 143.74311 
L 184.649155 143.74311 
L 192.491619 143.74311 
L 200.110012 143.74311 
L 207.728405 143.74311 
L 215.570869 143.74311 
" clip-path="url(#p0e79d43bda)" style="fill: none; stroke: #c3006b; stroke-opacity: 0.298039; stroke-width: 0.886227"/>
   </g>
   <g id="line2d_34">
    <path d="M 57.377175 99.772342 
L 59.169738 99.772342 
L 60.962301 99.772342 
L 62.754864 99.772342 
L 64.547428 99.772342 
L 66.339991 99.772342 
L 68.132554 99.772342 
L 69.925117 94.935557 
L 71.71768 55.889516 
L 73.510243 66.090734 
L 75.302806 71.01546 
L 77.095369 72.598407 
L 78.887932 75.038785 
L 80.680495 55.801574 
L 82.473059 55.889516 
L 84.265622 55.801574 
L 86.058185 55.801574 
L 88.074818 55.801574 
L 90.091452 55.801574 
L 91.884015 58.088054 
L 93.676578 55.801574 
L 95.469141 55.801574 
L 97.261704 55.801574 
L 99.054267 55.801574 
L 100.84683 55.889516 
L 102.639393 55.801574 
L 104.431957 55.801574 
L 106.22452 55.801574 
L 108.017083 55.801574 
L 109.809646 55.801574 
L 114.739194 55.801574 
L 122.581658 55.801574 
L 130.424122 55.889516 
L 138.266585 55.801574 
L 145.884978 55.801574 
L 153.727442 86.49317 
L 161.569905 55.801574 
L 169.188299 55.801574 
L 176.806692 55.801574 
L 184.649155 55.801574 
L 192.491619 55.801574 
L 200.110012 55.801574 
L 207.728405 55.889516 
L 215.570869 55.889516 
" clip-path="url(#p0e79d43bda)" style="fill: none; stroke: #003063; stroke-opacity: 0.298039; stroke-width: 0.886227"/>
   </g>
   <g id="line2d_35">
    <path d="M 51.775415 64.159196 
L 53.925357 102.23987 
L 56.075298 125.988389 
L 58.225239 135.189917 
L 60.37518 135.6624 
L 62.525121 129.091322 
L 64.675063 133.115532 
L 66.825004 140.217636 
L 68.974945 137.322476 
L 71.124886 136.747502 
L 73.274827 137.85387 
L 75.424768 140.27326 
L 77.57471 139.135134 
L 79.724651 141.420001 
L 81.874592 144.092601 
L 84.024533 143.721144 
L 86.174474 143.724139 
L 88.324416 143.73561 
L 90.474357 143.744254 
L 92.624298 143.74311 
L 94.774239 143.74311 
L 96.92418 143.74311 
L 99.074122 143.74311 
L 101.224063 143.74311 
L 103.374004 143.74311 
L 105.523945 143.74311 
L 107.673886 143.74311 
L 109.823828 143.74311 
L 111.973769 143.74311 
L 114.12371 143.74311 
L 116.273651 143.74311 
L 118.423592 143.74311 
L 120.573533 143.74311 
L 122.723475 143.74311 
L 124.873416 143.74311 
L 127.023357 143.74311 
L 129.173298 143.74311 
L 131.323239 143.74311 
L 133.473181 143.74311 
L 135.623122 143.74311 
L 137.773063 143.74311 
L 139.923004 143.74311 
L 142.072945 143.74311 
L 144.222887 143.74311 
L 146.372828 143.74311 
L 148.522769 143.74311 
L 150.67271 143.74311 
L 152.822651 143.74311 
L 154.972592 143.74311 
L 157.122534 143.74311 
L 159.272475 143.74311 
L 161.422416 143.74311 
L 163.572357 143.74311 
L 165.722298 143.743681 
L 167.87224 143.744799 
L 170.022181 143.744194 
L 172.172122 143.741431 
L 174.322063 143.738341 
L 176.472004 143.736524 
L 178.621946 143.735096 
L 180.771887 143.734993 
L 182.921828 143.735457 
L 185.071769 143.739679 
L 187.22171 143.82681 
L 189.371651 143.93015 
L 191.521593 143.91414 
L 193.671534 143.694404 
L 195.821475 143.277568 
L 197.971416 142.44079 
L 200.121357 141.227989 
L 202.271299 140.724692 
L 204.42124 140.426943 
L 206.571181 140.355802 
L 208.721122 140.656983 
L 210.871063 141.061605 
L 213.021005 141.064331 
L 215.170946 140.759205 
L 217.320887 140.24835 
L 219.470828 139.452245 
L 221.620769 138.426592 
" clip-path="url(#p0e79d43bda)" style="fill: none; stroke: #c3006b; stroke-width: 1.772454; stroke-linejoin: miter"/>
   </g>
   <g id="line2d_36">
    <path d="M 51.775415 148.329756 
L 53.925357 127.785043 
L 56.075298 113.325054 
L 58.225239 105.486779 
L 60.37518 104.780437 
L 62.525121 105.255738 
L 64.675063 103.727583 
L 66.825004 100.496695 
L 68.974945 98.906473 
L 71.124886 94.273744 
L 73.274827 88.816251 
L 75.424768 86.216096 
L 77.57471 85.966045 
L 79.724651 78.323419 
L 81.874592 68.44247 
L 84.024533 69.286626 
L 86.174474 72.238604 
L 88.324416 75.079603 
L 90.474357 66.931811 
L 92.624298 67.000936 
L 94.774239 59.981187 
L 96.92418 63.32038 
L 99.074122 66.304836 
L 101.224063 63.275016 
L 103.374004 65.051702 
L 105.523945 64.126988 
L 107.673886 63.546021 
L 109.823828 62.913572 
L 111.973769 62.941827 
L 114.12371 63.374064 
L 116.273651 63.178368 
L 118.423592 63.377301 
L 120.573533 63.680304 
L 122.723475 63.691761 
L 124.873416 63.285576 
L 127.023357 62.888047 
L 129.173298 62.270894 
L 131.323239 61.736148 
L 133.473181 61.817304 
L 135.623122 62.138998 
L 137.773063 62.278242 
L 139.923004 61.908066 
L 142.072945 61.584426 
L 144.222887 61.958479 
L 146.372828 62.640473 
L 148.522769 63.024342 
L 150.67271 63.369741 
L 152.822651 63.47249 
L 154.972592 63.004881 
L 157.122534 62.285754 
L 159.272475 61.846943 
L 161.422416 61.331419 
L 163.572357 60.833048 
L 165.722298 60.756906 
L 167.87224 61.001073 
L 170.022181 60.698049 
L 172.172122 59.656657 
L 174.322063 58.473239 
L 176.472004 57.686085 
L 178.621946 57.032653 
L 180.771887 56.869033 
L 182.921828 56.953298 
L 185.071769 56.990997 
L 187.22171 57.00195 
L 189.371651 57.160291 
L 191.521593 57.580339 
L 193.671534 58.335286 
L 195.821475 59.117717 
L 197.971416 59.816363 
L 200.121357 60.656236 
L 202.271299 60.875864 
L 204.42124 60.895731 
L 206.571181 60.823445 
L 208.721122 60.648425 
L 210.871063 60.32202 
L 213.021005 59.853166 
L 215.170946 59.24658 
L 217.320887 58.498029 
L 219.470828 57.603498 
L 221.620769 56.562167 
" clip-path="url(#p0e79d43bda)" style="fill: none; stroke: #003063; stroke-width: 1.772454; stroke-linejoin: miter"/>
   </g>
  </g>
  <g id="patch_4">
   <path d="M 34.521996 152.999557 
L 231.703937 152.999557 
L 231.703937 50.263929 
L 34.521996 50.263929 
L 34.521996 152.999557 
z
" style="fill: none; stroke: #000000; stroke-width: 0.7; stroke-linejoin: miter"/>
  </g>
  <g id="text_11">
   <!-- $\text{d}~[\text{nm}]$ -->
   <g transform="translate(121.387966 173.589148) scale(0.07 -0.07)">
    <defs>
     <path id="DejaVuSans-64" d="M 2906 2969 
L 2906 4863 
L 3481 4863 
L 3481 0 
L 2906 0 
L 2906 525 
Q 2725 213 2448 61 
Q 2172 -91 1784 -91 
Q 1150 -91 751 415 
Q 353 922 353 1747 
Q 353 2572 751 3078 
Q 1150 3584 1784 3584 
Q 2172 3584 2448 3432 
Q 2725 3281 2906 2969 
z
M 947 1747 
Q 947 1113 1208 752 
Q 1469 391 1925 391 
Q 2381 391 2643 752 
Q 2906 1113 2906 1747 
Q 2906 2381 2643 2742 
Q 2381 3103 1925 3103 
Q 1469 3103 1208 2742 
Q 947 2381 947 1747 
z
" transform="scale(0.015625)"/>
     <path id="DejaVuSans-5b" d="M 550 4863 
L 1875 4863 
L 1875 4416 
L 1125 4416 
L 1125 -397 
L 1875 -397 
L 1875 -844 
L 550 -844 
L 550 4863 
z
" transform="scale(0.015625)"/>
     <path id="DejaVuSans-6e" d="M 3513 2113 
L 3513 0 
L 2938 0 
L 2938 2094 
Q 2938 2591 2744 2837 
Q 2550 3084 2163 3084 
Q 1697 3084 1428 2787 
Q 1159 2491 1159 1978 
L 1159 0 
L 581 0 
L 581 3500 
L 1159 3500 
L 1159 2956 
Q 1366 3272 1645 3428 
Q 1925 3584 2291 3584 
Q 2894 3584 3203 3211 
Q 3513 2838 3513 2113 
z
" transform="scale(0.015625)"/>
     <path id="DejaVuSans-6d" d="M 3328 2828 
Q 3544 3216 3844 3400 
Q 4144 3584 4550 3584 
Q 5097 3584 5394 3201 
Q 5691 2819 5691 2113 
L 5691 0 
L 5113 0 
L 5113 2094 
Q 5113 2597 4934 2840 
Q 4756 3084 4391 3084 
Q 3944 3084 3684 2787 
Q 3425 2491 3425 1978 
L 3425 0 
L 2847 0 
L 2847 2094 
Q 2847 2600 2669 2842 
Q 2491 3084 2119 3084 
Q 1678 3084 1418 2786 
Q 1159 2488 1159 1978 
L 1159 0 
L 581 0 
L 581 3500 
L 1159 3500 
L 1159 2956 
Q 1356 3278 1631 3431 
Q 1906 3584 2284 3584 
Q 2666 3584 2933 3390 
Q 3200 3197 3328 2828 
z
" transform="scale(0.015625)"/>
     <path id="DejaVuSans-5d" d="M 1947 4863 
L 1947 -844 
L 622 -844 
L 622 -397 
L 1369 -397 
L 1369 4416 
L 622 4416 
L 622 4863 
L 1947 4863 
z
" transform="scale(0.015625)"/>
    </defs>
    <use xlink:href="#DejaVuSans-64" transform="translate(0 0.015625)"/>
    <use xlink:href="#DejaVuSans-5b" transform="translate(95.946941 0.015625)"/>
    <use xlink:href="#DejaVuSans-6e" transform="translate(134.960613 0.015625)"/>
    <use xlink:href="#DejaVuSans-6d" transform="translate(198.339519 0.015625)"/>
    <use xlink:href="#DejaVuSans-5d" transform="translate(295.751628 0.015625)"/>
   </g>
  </g>
  <g id="text_12">
   <!-- $\text{n}_{\text{H}^+}$ -->
   <g transform="translate(14.717717 108.036743) rotate(-90) scale(0.07 -0.07)">
    <defs>
     <path id="DejaVuSans-48" d="M 628 4666 
L 1259 4666 
L 1259 2753 
L 3553 2753 
L 3553 4666 
L 4184 4666 
L 4184 0 
L 3553 0 
L 3553 2222 
L 1259 2222 
L 1259 0 
L 628 0 
L 628 4666 
z
" transform="scale(0.015625)"/>
     <path id="DejaVuSans-2b" d="M 2944 4013 
L 2944 2272 
L 4684 2272 
L 4684 1741 
L 2944 1741 
L 2944 0 
L 2419 0 
L 2419 1741 
L 678 1741 
L 678 2272 
L 2419 2272 
L 2419 4013 
L 2944 4013 
z
" transform="scale(0.015625)"/>
    </defs>
    <use xlink:href="#DejaVuSans-6e"/>
    <use xlink:href="#DejaVuSans-48" transform="translate(64.335938 -16.40625) scale(0.7)"/>
    <use xlink:href="#DejaVuSans-2b" transform="translate(127.188965 10.390625) scale(0.49)"/>
   </g>
  </g>
  <g id="patch_5">
   <path d="M 34.521996 50.263929 
L 231.703937 50.263929 
L 231.703937 34.270866 
L 34.521996 34.270866 
z
" style="fill: #ffffff; stroke: #000000; stroke-linejoin: miter"/>
  </g>
  <g id="text_13">
   <!-- Gly857-Ala858-triple -->
   <g transform="translate(101.592185 44.892397) scale(0.07 -0.07)">
    <defs>
     <path id="Roboto-Regular-47" d="M 3891 2266 
L 3891 600 
Q 3763 413 3403 175 
Q 3044 -63 2281 -63 
Q 1450 -63 915 507 
Q 381 1078 381 2100 
L 381 2453 
Q 381 3469 856 4041 
Q 1331 4613 2213 4613 
Q 2994 4613 3398 4219 
Q 3803 3825 3891 3219 
L 3288 3219 
Q 3225 3588 2979 3853 
Q 2734 4119 2213 4119 
Q 1584 4119 1287 3676 
Q 991 3234 988 2475 
L 988 2100 
Q 988 1313 1344 870 
Q 1700 428 2284 428 
Q 2769 428 2984 542 
Q 3200 656 3291 759 
L 3291 1778 
L 2238 1778 
L 2238 2266 
L 3891 2266 
z
" transform="scale(0.015625)"/>
     <path id="Roboto-Regular-6c" d="M 1069 4800 
L 1069 0 
L 488 0 
L 488 4800 
L 1069 4800 
z
" transform="scale(0.015625)"/>
     <path id="Roboto-Regular-79" d="M 1594 -522 
Q 1294 -1316 688 -1363 
L 591 -1366 
Q 406 -1366 266 -1316 
L 263 -847 
L 419 -859 
Q 713 -859 878 -739 
Q 1044 -619 1150 -306 
L 1275 38 
L 69 3381 
L 700 3381 
L 1547 850 
L 2331 3381 
L 2950 3381 
L 1594 -522 
z
" transform="scale(0.015625)"/>
     <path id="Roboto-Regular-38" d="M 3244 1231 
Q 3244 606 2826 271 
Q 2409 -63 1796 -63 
Q 1184 -63 767 271 
Q 350 606 350 1231 
Q 350 1613 554 1905 
Q 759 2197 1109 2347 
Q 806 2494 629 2762 
Q 453 3031 453 3366 
Q 453 3963 833 4288 
Q 1213 4613 1794 4613 
Q 2378 4613 2758 4288 
Q 3138 3963 3138 3366 
Q 3138 3028 2956 2761 
Q 2775 2494 2472 2347 
Q 2825 2197 3034 1903 
Q 3244 1609 3244 1231 
z
M 2559 3356 
Q 2559 3697 2346 3917 
Q 2134 4138 1793 4138 
Q 1453 4138 1243 3927 
Q 1034 3716 1034 3356 
Q 1034 3003 1243 2790 
Q 1453 2578 1797 2578 
Q 2138 2578 2348 2790 
Q 2559 3003 2559 3356 
z
M 2663 1244 
Q 2663 1625 2420 1865 
Q 2178 2106 1791 2106 
Q 1394 2106 1161 1865 
Q 928 1625 928 1244 
Q 928 850 1161 631 
Q 1394 413 1797 413 
Q 2200 413 2431 631 
Q 2663 850 2663 1244 
z
" transform="scale(0.015625)"/>
     <path id="Roboto-Regular-37" d="M 3319 4550 
L 3319 4225 
L 1434 0 
L 825 0 
L 2706 4075 
L 244 4075 
L 244 4550 
L 3319 4550 
z
" transform="scale(0.015625)"/>
     <path id="Roboto-Regular-2d" d="M 1644 2172 
L 1644 1697 
L 119 1697 
L 119 2172 
L 1644 2172 
z
" transform="scale(0.015625)"/>
     <path id="Roboto-Regular-41" d="M 91 0 
L 1825 4550 
L 2353 4550 
L 4094 0 
L 3475 0 
L 3041 1191 
L 1138 1191 
L 706 0 
L 91 0 
z
M 1319 1684 
L 2863 1684 
L 2091 3806 
L 1319 1684 
z
" transform="scale(0.015625)"/>
     <path id="Roboto-Regular-61" d="M 2528 0 
Q 2472 122 2447 356 
Q 2284 184 2040 60 
Q 1797 -63 1484 -63 
Q 966 -63 653 228 
Q 341 519 341 941 
Q 341 1484 753 1767 
Q 1166 2050 1863 2050 
L 2434 2050 
L 2434 2319 
Q 2434 2619 2254 2798 
Q 2075 2978 1722 2978 
Q 1394 2978 1192 2817 
Q 991 2656 991 2444 
L 413 2444 
Q 413 2806 778 3125 
Q 1144 3444 1756 3444 
Q 2306 3444 2659 3162 
Q 3013 2881 3013 2313 
L 3013 794 
Q 3013 325 3131 50 
L 3131 0 
L 2528 0 
z
M 1569 444 
Q 1881 444 2111 600 
Q 2341 756 2434 947 
L 2434 1644 
L 1897 1644 
Q 922 1625 922 1019 
Q 922 778 1084 611 
Q 1247 444 1569 444 
z
" transform="scale(0.015625)"/>
     <path id="Roboto-Regular-74" d="M 1872 0 
Q 1675 -63 1425 -63 
Q 1103 -63 875 134 
Q 647 331 647 841 
L 647 2938 
L 28 2938 
L 28 3381 
L 647 3381 
L 647 4203 
L 1225 4203 
L 1225 3381 
L 1856 3381 
L 1856 2938 
L 1225 2938 
L 1225 838 
Q 1225 578 1337 506 
Q 1450 434 1597 434 
Q 1706 434 1869 472 
L 1872 0 
z
" transform="scale(0.015625)"/>
     <path id="Roboto-Regular-72" d="M 1791 2888 
Q 1225 2888 1019 2400 
L 1019 0 
L 441 0 
L 441 3381 
L 1003 3381 
L 1016 2994 
Q 1294 3444 1819 3444 
Q 1981 3444 2075 3400 
L 2072 2863 
Q 1944 2888 1791 2888 
z
" transform="scale(0.015625)"/>
     <path id="Roboto-Regular-69" d="M 444 4278 
Q 444 4419 530 4516 
Q 616 4613 784 4613 
Q 950 4613 1039 4516 
Q 1128 4419 1128 4278 
Q 1128 4144 1039 4048 
Q 950 3953 784 3953 
Q 616 3953 530 4048 
Q 444 4144 444 4278 
z
M 1069 3381 
L 1069 0 
L 488 0 
L 488 3381 
L 1069 3381 
z
" transform="scale(0.015625)"/>
     <path id="Roboto-Regular-70" d="M 1984 -63 
Q 1375 -63 1019 328 
L 1019 -1300 
L 438 -1300 
L 438 3381 
L 969 3381 
L 997 3009 
Q 1353 3444 1975 3444 
Q 2616 3444 2956 2969 
Q 3297 2494 3297 1719 
L 3297 1653 
Q 3297 913 2955 425 
Q 2613 -63 1984 -63 
z
M 1806 2956 
Q 1281 2956 1019 2491 
L 1019 872 
Q 1284 413 1813 413 
Q 2281 413 2498 781 
Q 2716 1150 2716 1653 
L 2716 1719 
Q 2716 2222 2498 2589 
Q 2281 2956 1806 2956 
z
" transform="scale(0.015625)"/>
     <path id="Roboto-Regular-65" d="M 3116 591 
Q 2950 341 2647 139 
Q 2344 -63 1844 -63 
Q 1138 -63 714 396 
Q 291 856 291 1572 
L 291 1703 
Q 291 2256 502 2645 
Q 713 3034 1050 3239 
Q 1388 3444 1769 3444 
Q 2494 3444 2826 2970 
Q 3159 2497 3159 1788 
L 3159 1528 
L 872 1528 
Q 884 1063 1148 736 
Q 1413 409 1875 409 
Q 2181 409 2393 534 
Q 2606 659 2766 869 
L 3116 591 
z
M 1769 2969 
Q 1425 2969 1187 2719 
Q 950 2469 891 2000 
L 2581 2000 
L 2581 2044 
Q 2559 2381 2386 2675 
Q 2213 2969 1769 2969 
z
" transform="scale(0.015625)"/>
    </defs>
    <use xlink:href="#Roboto-Regular-47"/>
    <use xlink:href="#Roboto-Regular-6c" transform="translate(68.115234 0)"/>
    <use xlink:href="#Roboto-Regular-79" transform="translate(92.431641 0)"/>
    <use xlink:href="#Roboto-Regular-38" transform="translate(139.746094 0)"/>
    <use xlink:href="#Roboto-Regular-35" transform="translate(195.947266 0)"/>
    <use xlink:href="#Roboto-Regular-37" transform="translate(252.148438 0)"/>
    <use xlink:href="#Roboto-Regular-2d" transform="translate(308.349609 0)"/>
    <use xlink:href="#Roboto-Regular-41" transform="translate(335.986328 0)"/>
    <use xlink:href="#Roboto-Regular-6c" transform="translate(401.220703 0)"/>
    <use xlink:href="#Roboto-Regular-61" transform="translate(425.537109 0)"/>
    <use xlink:href="#Roboto-Regular-38" transform="translate(479.931641 0)"/>
    <use xlink:href="#Roboto-Regular-35" transform="translate(536.132812 0)"/>
    <use xlink:href="#Roboto-Regular-38" transform="translate(592.333984 0)"/>
    <use xlink:href="#Roboto-Regular-2d" transform="translate(648.535156 0)"/>
    <use xlink:href="#Roboto-Regular-74" transform="translate(676.171875 0)"/>
    <use xlink:href="#Roboto-Regular-72" transform="translate(708.886719 0)"/>
    <use xlink:href="#Roboto-Regular-69" transform="translate(742.773438 0)"/>
    <use xlink:href="#Roboto-Regular-70" transform="translate(767.089844 0)"/>
    <use xlink:href="#Roboto-Regular-6c" transform="translate(823.242188 0)"/>
    <use xlink:href="#Roboto-Regular-65" transform="translate(847.558594 0)"/>
   </g>
  </g>
  <g id="patch_6">
   <path d="M 66.527954 27.467717 
L 199.697978 27.467717 
L 199.697978 9.467717 
L 66.527954 9.467717 
z
" style="fill: #ffffff"/>
  </g>
  <g id="text_14">
   <!-- $\text{n}_{\text{H}^+}$ at -->
   <g transform="translate(67.527954 20.381779) scale(0.07 -0.07)">
    <defs>
     <path id="Roboto-Regular-20" transform="scale(0.015625)"/>
    </defs>
    <use xlink:href="#DejaVuSans-6e" transform="translate(0 0.328125)"/>
    <use xlink:href="#DejaVuSans-48" transform="translate(64.335938 -16.078125) scale(0.7)"/>
    <use xlink:href="#DejaVuSans-2b" transform="translate(127.188965 10.71875) scale(0.49)"/>
    <use xlink:href="#Roboto-Regular-20" transform="translate(182.44043 0.328125)"/>
    <use xlink:href="#Roboto-Regular-61" transform="translate(207.245117 0.328125)"/>
    <use xlink:href="#Roboto-Regular-74" transform="translate(261.639648 0.328125)"/>
   </g>
  </g>
  <g id="patch_7">
   <path d="M 93.413387 25.767717 
L 108.013387 25.767717 
L 108.013387 11.167717 
L 93.413387 11.167717 
L 93.413387 25.767717 
z
" clip-path="url(#p3fca952ba8)" style="fill: none"/>
  </g>
  <g id="line2d_37">
   <path d="M 92.713387 18.467717 
L 108.713387 18.467717 
" clip-path="url(#p3fca952ba8)" style="fill: none; stroke: #c3006b; stroke-opacity: 0.298039; stroke-width: 0.886227"/>
  </g>
  <g id="line2d_38">
   <path d="M 92.713387 18.467717 
L 108.713387 18.467717 
" clip-path="url(#p3fca952ba8)" style="fill: none; stroke: #c3006b; stroke-width: 1.772454"/>
  </g>
  <g id="text_15">
   <!-- carbonyl O -->
   <g transform="translate(109.847245 20.345685) scale(0.07 -0.07)">
    <defs>
     <path id="Roboto-Regular-63" d="M 1794 413 
Q 2103 413 2336 597 
Q 2569 781 2591 1069 
L 3141 1069 
Q 3119 616 2725 276 
Q 2331 -63 1794 -63 
Q 1031 -63 661 440 
Q 291 944 291 1625 
L 291 1756 
Q 291 2438 661 2941 
Q 1031 3444 1794 3444 
Q 2388 3444 2753 3092 
Q 3119 2741 3141 2219 
L 2591 2219 
Q 2569 2531 2355 2750 
Q 2141 2969 1794 2969 
Q 1438 2969 1236 2787 
Q 1034 2606 951 2328 
Q 869 2050 869 1756 
L 869 1625 
Q 869 1328 950 1050 
Q 1031 772 1232 592 
Q 1434 413 1794 413 
z
" transform="scale(0.015625)"/>
     <path id="Roboto-Regular-62" d="M 3303 1653 
Q 3303 913 2959 425 
Q 2616 -63 1988 -63 
Q 1347 -63 1000 391 
L 969 0 
L 438 0 
L 438 4800 
L 1019 4800 
L 1019 3016 
Q 1363 3444 1981 3444 
Q 2619 3444 2961 2969 
Q 3303 2494 3303 1719 
L 3303 1653 
z
M 1838 2956 
Q 1522 2956 1325 2804 
Q 1128 2653 1019 2431 
L 1019 959 
Q 1131 734 1331 581 
Q 1531 428 1844 428 
Q 2313 428 2517 789 
Q 2722 1150 2722 1653 
L 2722 1719 
Q 2722 2222 2526 2589 
Q 2331 2956 1838 2956 
z
" transform="scale(0.015625)"/>
     <path id="Roboto-Regular-6f" d="M 288 1725 
Q 288 2459 700 2951 
Q 1113 3444 1822 3444 
Q 2531 3444 2943 2961 
Q 3356 2478 3366 1756 
L 3366 1653 
Q 3366 919 2952 428 
Q 2538 -63 1828 -63 
Q 1116 -63 702 428 
Q 288 919 288 1653 
L 288 1725 
z
M 866 1653 
Q 866 1150 1105 781 
Q 1344 413 1828 413 
Q 2300 413 2540 777 
Q 2781 1141 2784 1644 
L 2784 1725 
Q 2784 2222 2543 2595 
Q 2303 2969 1822 2969 
Q 1344 2969 1105 2595 
Q 866 2222 866 1725 
L 866 1653 
z
" transform="scale(0.015625)"/>
     <path id="Roboto-Regular-6e" d="M 1844 2956 
Q 1566 2956 1353 2806 
Q 1141 2656 1019 2416 
L 1019 0 
L 441 0 
L 441 3381 
L 988 3381 
L 1006 2959 
Q 1391 3444 2016 3444 
Q 2513 3444 2805 3166 
Q 3097 2888 3100 2231 
L 3100 0 
L 2519 0 
L 2519 2222 
Q 2519 2619 2345 2787 
Q 2172 2956 1844 2956 
z
" transform="scale(0.015625)"/>
     <path id="Roboto-Regular-4f" d="M 4031 2131 
Q 4031 1106 3534 521 
Q 3038 -63 2206 -63 
Q 1397 -63 884 521 
Q 372 1106 372 2131 
L 372 2419 
Q 372 3441 881 4027 
Q 1391 4613 2200 4613 
Q 3025 4613 3523 4036 
Q 4022 3459 4031 2456 
L 4031 2131 
z
M 3434 2425 
Q 3434 3238 3109 3669 
Q 2784 4100 2200 4100 
Q 1641 4100 1305 3669 
Q 969 3238 969 2425 
L 969 2131 
Q 969 1313 1308 880 
Q 1647 447 2206 447 
Q 2794 447 3114 880 
Q 3434 1313 3434 2131 
L 3434 2425 
z
" transform="scale(0.015625)"/>
    </defs>
    <use xlink:href="#Roboto-Regular-63"/>
    <use xlink:href="#Roboto-Regular-61" transform="translate(52.34375 0)"/>
    <use xlink:href="#Roboto-Regular-72" transform="translate(106.738281 0)"/>
    <use xlink:href="#Roboto-Regular-62" transform="translate(140.625 0)"/>
    <use xlink:href="#Roboto-Regular-6f" transform="translate(196.777344 0)"/>
    <use xlink:href="#Roboto-Regular-6e" transform="translate(253.808594 0)"/>
    <use xlink:href="#Roboto-Regular-79" transform="translate(309.033203 0)"/>
    <use xlink:href="#Roboto-Regular-6c" transform="translate(356.347656 0)"/>
    <use xlink:href="#Roboto-Regular-20" transform="translate(380.664062 0)"/>
    <use xlink:href="#Roboto-Regular-4f" transform="translate(405.46875 0)"/>
   </g>
  </g>
  <g id="patch_8">
   <path d="M 149.745839 25.767717 
L 164.345839 25.767717 
L 164.345839 11.167717 
L 149.745839 11.167717 
L 149.745839 25.767717 
z
" clip-path="url(#pa269f532e1)" style="fill: none"/>
  </g>
  <g id="line2d_39">
   <path d="M 149.045839 18.467717 
L 165.045839 18.467717 
" clip-path="url(#pa269f532e1)" style="fill: none; stroke: #003063; stroke-opacity: 0.298039; stroke-width: 0.886227"/>
  </g>
  <g id="line2d_40">
   <path d="M 149.045839 18.467717 
L 165.045839 18.467717 
" clip-path="url(#pa269f532e1)" style="fill: none; stroke: #003063; stroke-width: 1.772454"/>
  </g>
  <g id="text_16">
   <!-- hydroxyl O -->
   <g transform="translate(166.179697 20.345685) scale(0.07 -0.07)">
    <defs>
     <path id="Roboto-Regular-68" d="M 1844 2956 
Q 1566 2956 1353 2806 
Q 1141 2656 1019 2416 
L 1019 0 
L 441 0 
L 441 4800 
L 1019 4800 
L 1019 2978 
Q 1403 3444 2016 3444 
Q 2513 3444 2805 3166 
Q 3097 2888 3100 2231 
L 3100 0 
L 2519 0 
L 2519 2222 
Q 2519 2619 2345 2787 
Q 2172 2956 1844 2956 
z
" transform="scale(0.015625)"/>
     <path id="Roboto-Regular-64" d="M 2622 0 
L 2594 363 
Q 2247 -63 1628 -63 
Q 1034 -63 668 418 
Q 303 900 297 1628 
L 297 1719 
Q 297 2494 664 2969 
Q 1031 3444 1634 3444 
Q 2231 3444 2572 3044 
L 2572 4800 
L 3153 4800 
L 3153 0 
L 2622 0 
z
M 878 1653 
Q 878 1150 1090 789 
Q 1303 428 1772 428 
Q 2309 428 2572 919 
L 2572 2475 
Q 2313 2956 1778 2956 
Q 1306 2956 1092 2589 
Q 878 2222 878 1719 
L 878 1653 
z
" transform="scale(0.015625)"/>
     <path id="Roboto-Regular-78" d="M 831 3381 
L 1572 2150 
L 2322 3381 
L 3000 3381 
L 1894 1713 
L 3034 0 
L 2366 0 
L 1584 1269 
L 803 0 
L 131 0 
L 1269 1713 
L 166 3381 
L 831 3381 
z
" transform="scale(0.015625)"/>
    </defs>
    <use xlink:href="#Roboto-Regular-68"/>
    <use xlink:href="#Roboto-Regular-79" transform="translate(55.078125 0)"/>
    <use xlink:href="#Roboto-Regular-64" transform="translate(102.392578 0)"/>
    <use xlink:href="#Roboto-Regular-72" transform="translate(158.789062 0)"/>
    <use xlink:href="#Roboto-Regular-6f" transform="translate(192.675781 0)"/>
    <use xlink:href="#Roboto-Regular-78" transform="translate(249.707031 0)"/>
    <use xlink:href="#Roboto-Regular-79" transform="translate(299.316406 0)"/>
    <use xlink:href="#Roboto-Regular-6c" transform="translate(346.630859 0)"/>
    <use xlink:href="#Roboto-Regular-20" transform="translate(370.947266 0)"/>
    <use xlink:href="#Roboto-Regular-4f" transform="translate(395.751953 0)"/>
   </g>
  </g>
 </g>
 <defs>
  <clipPath id="p0e79d43bda">
   <rect x="34.521996" y="50.263929" width="197.181941" height="102.735628"/>
  </clipPath>
  <clipPath id="p3fca952ba8">
   <path d="M 92.713387 26.467717 
L 92.713387 10.467717 
L 108.713387 10.467717 
L 108.713387 26.467717 
"/>
  </clipPath>
  <clipPath id="pa269f532e1">
   <path d="M 149.045839 26.467717 
L 149.045839 10.467717 
L 165.045839 10.467717 
L 165.045839 26.467717 
"/>
  </clipPath>
 </defs>
</svg>
