<?xml version="1.0" encoding="utf-8" standalone="no"?>
<!DOCTYPE svg PUBLIC "-//W3C//DTD SVG 1.1//EN"
  "http://www.w3.org/Graphics/SVG/1.1/DTD/svg11.dtd">
<svg xmlns:xlink="http://www.w3.org/1999/xlink" width="240.96pt" height="150.24pt" viewBox="0 0 240.96 150.24" xmlns="http://www.w3.org/2000/svg" version="1.1">
 <metadata>
  <rdf:RDF xmlns:dc="http://purl.org/dc/elements/1.1/" xmlns:cc="http://creativecommons.org/ns#" xmlns:rdf="http://www.w3.org/1999/02/22-rdf-syntax-ns#">
   <cc:Work>
    <dc:type rdf:resource="http://purl.org/dc/dcmitype/StillImage"/>
    <dc:date>2025-10-23T16:01:49.135165</dc:date>
    <dc:format>image/svg+xml</dc:format>
    <dc:creator>
     <cc:Agent>
      <dc:title>Matplotlib v3.10.6, https://matplotlib.org/</dc:title>
     </cc:Agent>
    </dc:creator>
   </cc:Work>
  </rdf:RDF>
 </metadata>
 <defs>
  <style type="text/css">*{stroke-linejoin: round; stroke-linecap: butt}</style>
 </defs>
 <g id="figure_1">
  <g id="patch_1">
   <path d="M 0 150.24 
L 240.96 150.24 
L 240.96 0 
L 0 0 
z
" style="fill: #ffffff"/>
  </g>
  <g id="patch_2">
   <path d="M 7.2 143.04 
L 233.76 143.04 
L 233.76 7.2 
L 7.2 7.2 
L 7.2 143.04 
z
" style="fill: none; stroke: #ffffff; stroke-width: 0.7; stroke-linejoin: miter"/>
  </g>
  <g id="axes_1">
   <g id="patch_3">
    <path d="M 40.53771 119.297496 
L 231.4944 119.297496 
L 231.4944 9.464 
L 40.53771 9.464 
z
" style="fill: #ffffff"/>
   </g>
   <g id="matplotlib.axis_1">
    <g id="xtick_1">
     <g id="line2d_1">
      <defs>
       <path id="mfb55034cd8" d="M 0 1.5 
L 0 -1.5 
" style="stroke: #000000; stroke-width: 0.7"/>
      </defs>
      <g>
       <use xlink:href="#mfb55034cd8" x="54.642466" y="119.297496" style="stroke: #000000; stroke-width: 0.7"/>
      </g>
     </g>
     <g id="text_1">
      <!-- 0 -->
      <g transform="translate(52.675356 128.447496) scale(0.07 -0.07)">
       <defs>
        <path id="Roboto-Regular-30" d="M 3234 1944 
Q 3234 825 2848 381 
Q 2463 -63 1800 -63 
Q 1156 -63 764 368 
Q 372 800 359 1872 
L 359 2638 
Q 359 3753 750 4183 
Q 1141 4613 1794 4613 
Q 2447 4613 2834 4195 
Q 3222 3778 3234 2709 
L 3234 1944 
z
M 2653 2734 
Q 2653 3503 2434 3822 
Q 2216 4141 1794 4141 
Q 1388 4141 1167 3831 
Q 947 3522 941 2778 
L 941 1850 
Q 941 1088 1164 750 
Q 1388 413 1800 413 
Q 2222 413 2436 745 
Q 2650 1078 2653 1825 
L 2653 2734 
z
" transform="scale(0.015625)"/>
       </defs>
       <use xlink:href="#Roboto-Regular-30"/>
      </g>
     </g>
    </g>
    <g id="xtick_2">
     <g id="line2d_2">
      <g>
       <use xlink:href="#mfb55034cd8" x="88.060777" y="119.297496" style="stroke: #000000; stroke-width: 0.7"/>
      </g>
     </g>
     <g id="text_2">
      <!-- 1 -->
      <g transform="translate(86.093668 128.447496) scale(0.07 -0.07)">
       <defs>
        <path id="Roboto-Regular-31" d="M 2278 4575 
L 2278 0 
L 1700 0 
L 1700 3853 
L 534 3428 
L 534 3950 
L 2188 4575 
L 2278 4575 
z
" transform="scale(0.015625)"/>
       </defs>
       <use xlink:href="#Roboto-Regular-31"/>
      </g>
     </g>
    </g>
    <g id="xtick_3">
     <g id="line2d_3">
      <g>
       <use xlink:href="#mfb55034cd8" x="121.479089" y="119.297496" style="stroke: #000000; stroke-width: 0.7"/>
      </g>
     </g>
     <g id="text_3">
      <!-- 2 -->
      <g transform="translate(119.51198 128.447496) scale(0.07 -0.07)">
       <defs>
        <path id="Roboto-Regular-32" d="M 3359 475 
L 3359 0 
L 381 0 
L 381 416 
L 1925 2134 
Q 2306 2566 2439 2819 
Q 2572 3072 2572 3328 
Q 2572 3663 2364 3900 
Q 2156 4138 1778 4138 
Q 1322 4138 1097 3878 
Q 872 3619 872 3213 
L 294 3213 
Q 294 3788 672 4200 
Q 1050 4613 1778 4613 
Q 2422 4613 2786 4278 
Q 3150 3944 3150 3397 
Q 3150 2997 2903 2592 
Q 2656 2188 2297 1797 
L 1078 475 
L 3359 475 
z
" transform="scale(0.015625)"/>
       </defs>
       <use xlink:href="#Roboto-Regular-32"/>
      </g>
     </g>
    </g>
    <g id="xtick_4">
     <g id="line2d_4">
      <g>
       <use xlink:href="#mfb55034cd8" x="154.897401" y="119.297496" style="stroke: #000000; stroke-width: 0.7"/>
      </g>
     </g>
     <g id="text_4">
      <!-- 3 -->
      <g transform="translate(152.930292 128.447496) scale(0.07 -0.07)">
       <defs>
        <path id="Roboto-Regular-33" d="M 1222 2084 
L 1222 2559 
L 1647 2559 
Q 2094 2563 2312 2784 
Q 2531 3006 2531 3338 
Q 2531 4138 1738 4138 
Q 1369 4138 1141 3927 
Q 913 3716 913 3359 
L 334 3359 
Q 334 3881 720 4247 
Q 1106 4613 1738 4613 
Q 2353 4613 2733 4286 
Q 3113 3959 3113 3325 
Q 3113 3072 2942 2784 
Q 2772 2497 2397 2338 
Q 2850 2191 3015 1884 
Q 3181 1578 3181 1269 
Q 3181 631 2768 284 
Q 2356 -63 1741 -63 
Q 1147 -63 722 267 
Q 297 597 297 1203 
L 875 1203 
Q 875 844 1108 628 
Q 1341 413 1741 413 
Q 2138 413 2369 622 
Q 2600 831 2600 1256 
Q 2600 1681 2337 1882 
Q 2075 2084 1634 2084 
L 1222 2084 
z
" transform="scale(0.015625)"/>
       </defs>
       <use xlink:href="#Roboto-Regular-33"/>
      </g>
     </g>
    </g>
    <g id="xtick_5">
     <g id="line2d_5">
      <g>
       <use xlink:href="#mfb55034cd8" x="188.315713" y="119.297496" style="stroke: #000000; stroke-width: 0.7"/>
      </g>
     </g>
     <g id="text_5">
      <!-- 4 -->
      <g transform="translate(186.348604 128.447496) scale(0.07 -0.07)">
       <defs>
        <path id="Roboto-Regular-34" d="M 166 1397 
L 2203 4550 
L 2819 4550 
L 2819 1531 
L 3453 1531 
L 3453 1056 
L 2819 1056 
L 2819 0 
L 2241 0 
L 2241 1056 
L 166 1056 
L 166 1397 
z
M 822 1531 
L 2241 1531 
L 2241 3766 
L 2169 3638 
L 822 1531 
z
" transform="scale(0.015625)"/>
       </defs>
       <use xlink:href="#Roboto-Regular-34"/>
      </g>
     </g>
    </g>
    <g id="xtick_6">
     <g id="line2d_6">
      <g>
       <use xlink:href="#mfb55034cd8" x="221.734025" y="119.297496" style="stroke: #000000; stroke-width: 0.7"/>
      </g>
     </g>
     <g id="text_6">
      <!-- 5 -->
      <g transform="translate(219.766916 128.447496) scale(0.07 -0.07)">
       <defs>
        <path id="Roboto-Regular-35" d="M 1109 2166 
L 647 2284 
L 875 4550 
L 3209 4550 
L 3209 4016 
L 1366 4016 
L 1228 2778 
Q 1572 2975 1988 2975 
Q 2616 2975 2980 2561 
Q 3344 2147 3344 1450 
Q 3344 797 2987 367 
Q 2631 -63 1903 -63 
Q 1350 -63 947 248 
Q 544 559 481 1197 
L 1031 1197 
Q 1141 413 1903 413 
Q 2313 413 2538 691 
Q 2763 969 2763 1444 
Q 2763 1872 2527 2164 
Q 2291 2456 1853 2456 
Q 1563 2456 1413 2378 
Q 1263 2300 1109 2166 
z
" transform="scale(0.015625)"/>
       </defs>
       <use xlink:href="#Roboto-Regular-35"/>
      </g>
     </g>
    </g>
   </g>
   <g id="matplotlib.axis_2">
    <g id="ytick_1">
     <g id="line2d_7">
      <defs>
       <path id="mf3b13db40b" d="M 1.5 0 
L -1.5 -0 
" style="stroke: #000000; stroke-width: 0.7"/>
      </defs>
      <g>
       <use xlink:href="#mf3b13db40b" x="40.53771" y="119.297496" style="stroke: #000000; stroke-width: 0.7"/>
      </g>
     </g>
     <g id="text_7">
      <!-- 0 -->
      <g transform="translate(32.703491 121.922496) scale(0.07 -0.07)">
       <use xlink:href="#Roboto-Regular-30"/>
      </g>
     </g>
    </g>
    <g id="ytick_2">
     <g id="line2d_8">
      <g>
       <use xlink:href="#mf3b13db40b" x="40.53771" y="86.11116" style="stroke: #000000; stroke-width: 0.7"/>
      </g>
     </g>
     <g id="text_8">
      <!-- 1000 -->
      <g transform="translate(20.900835 88.73616) scale(0.07 -0.07)">
       <use xlink:href="#Roboto-Regular-31"/>
       <use xlink:href="#Roboto-Regular-30" transform="translate(56.201172 0)"/>
       <use xlink:href="#Roboto-Regular-30" transform="translate(112.402344 0)"/>
       <use xlink:href="#Roboto-Regular-30" transform="translate(168.603516 0)"/>
      </g>
     </g>
    </g>
    <g id="ytick_3">
     <g id="line2d_9">
      <g>
       <use xlink:href="#mf3b13db40b" x="40.53771" y="52.924825" style="stroke: #000000; stroke-width: 0.7"/>
      </g>
     </g>
     <g id="text_9">
      <!-- 2000 -->
      <g transform="translate(20.900835 55.549825) scale(0.07 -0.07)">
       <use xlink:href="#Roboto-Regular-32"/>
       <use xlink:href="#Roboto-Regular-30" transform="translate(56.201172 0)"/>
       <use xlink:href="#Roboto-Regular-30" transform="translate(112.402344 0)"/>
       <use xlink:href="#Roboto-Regular-30" transform="translate(168.603516 0)"/>
      </g>
     </g>
    </g>
    <g id="ytick_4">
     <g id="line2d_10">
      <g>
       <use xlink:href="#mf3b13db40b" x="40.53771" y="19.738489" style="stroke: #000000; stroke-width: 0.7"/>
      </g>
     </g>
     <g id="text_10">
      <!-- 3000 -->
      <g transform="translate(20.900835 22.363489) scale(0.07 -0.07)">
       <use xlink:href="#Roboto-Regular-33"/>
       <use xlink:href="#Roboto-Regular-30" transform="translate(56.201172 0)"/>
       <use xlink:href="#Roboto-Regular-30" transform="translate(112.402344 0)"/>
       <use xlink:href="#Roboto-Regular-30" transform="translate(168.603516 0)"/>
      </g>
     </g>
    </g>
    <g id="ytick_5">
     <g id="line2d_11">
      <defs>
       <path id="m0073763d02" d="M 2 0 
L -2 -0 
" style="stroke: #000000; stroke-width: 0.7"/>
      </defs>
      <g>
       <use xlink:href="#m0073763d02" x="40.53771" y="102.704328" style="stroke: #000000; stroke-width: 0.7"/>
      </g>
     </g>
    </g>
    <g id="ytick_6">
     <g id="line2d_12">
      <g>
       <use xlink:href="#m0073763d02" x="40.53771" y="69.517993" style="stroke: #000000; stroke-width: 0.7"/>
      </g>
     </g>
    </g>
    <g id="ytick_7">
     <g id="line2d_13">
      <g>
       <use xlink:href="#m0073763d02" x="40.53771" y="36.331657" style="stroke: #000000; stroke-width: 0.7"/>
      </g>
     </g>
    </g>
   </g>
   <g id="PolyCollection_1">
    <path d="M 49.21756 119.297496 
L 49.21756 119.264309 
L 60.067371 119.264309 
L 60.067371 119.297496 
z
" clip-path="url(#p2f49f274fb)"/>
    <path d="M 60.067371 119.297496 
L 60.067371 119.231123 
L 70.917183 119.231123 
L 70.917183 119.297496 
z
" clip-path="url(#p2f49f274fb)"/>
    <path d="M 70.917183 119.297496 
L 70.917183 116.874893 
L 81.766995 116.874893 
L 81.766995 119.297496 
z
" clip-path="url(#p2f49f274fb)"/>
    <path d="M 81.766995 119.297496 
L 81.766995 98.290545 
L 92.616807 98.290545 
L 92.616807 119.297496 
z
" clip-path="url(#p2f49f274fb)"/>
    <path d="M 92.616807 119.297496 
L 92.616807 106.454384 
L 103.466619 106.454384 
L 103.466619 119.297496 
z
" clip-path="url(#p2f49f274fb)"/>
    <path d="M 103.466619 119.297496 
L 103.466619 111.233216 
L 114.316431 111.233216 
L 114.316431 119.297496 
z
" clip-path="url(#p2f49f274fb)"/>
    <path d="M 114.316431 119.297496 
L 114.316431 107.748651 
L 125.166243 107.748651 
L 125.166243 119.297496 
z
" clip-path="url(#p2f49f274fb)"/>
    <path d="M 125.166243 119.297496 
L 125.166243 117.704552 
L 136.016055 117.704552 
L 136.016055 119.297496 
z
" clip-path="url(#p2f49f274fb)"/>
    <path d="M 136.016055 119.297496 
L 136.016055 101.941042 
L 146.865867 101.941042 
L 146.865867 119.297496 
z
" clip-path="url(#p2f49f274fb)"/>
    <path d="M 146.865867 119.297496 
L 146.865867 114.419105 
L 157.715679 114.419105 
L 157.715679 119.297496 
z
" clip-path="url(#p2f49f274fb)"/>
    <path d="M 157.715679 119.297496 
L 157.715679 100.480844 
L 168.565491 100.480844 
L 168.565491 119.297496 
z
" clip-path="url(#p2f49f274fb)"/>
    <path d="M 168.565491 119.297496 
L 168.565491 116.244353 
L 179.415303 116.244353 
L 179.415303 119.297496 
z
" clip-path="url(#p2f49f274fb)"/>
    <path d="M 179.415303 119.297496 
L 179.415303 117.90367 
L 190.265115 117.90367 
L 190.265115 119.297496 
z
" clip-path="url(#p2f49f274fb)"/>
    <path d="M 190.265115 119.297496 
L 190.265115 117.770924 
L 201.114927 117.770924 
L 201.114927 119.297496 
z
" clip-path="url(#p2f49f274fb)"/>
    <path d="M 201.114927 119.297496 
L 201.114927 117.472247 
L 211.964739 117.472247 
L 211.964739 119.297496 
z
" clip-path="url(#p2f49f274fb)"/>
    <path d="M 211.964739 119.297496 
L 211.964739 14.694166 
L 222.81455 14.694166 
L 222.81455 119.297496 
z
" clip-path="url(#p2f49f274fb)"/>
   </g>
  </g>
  <g id="patch_4">
   <path d="M 40.53771 119.297496 
L 231.4944 119.297496 
L 231.4944 9.464 
L 40.53771 9.464 
L 40.53771 119.297496 
z
" style="fill: none; stroke: #000000; stroke-width: 0.7; stroke-linejoin: miter"/>
  </g>
  <g id="text_11">
   <!-- Sampling time [ps] -->
   <g transform="translate(107.112618 139.316937) scale(0.07 -0.07)">
    <defs>
     <path id="Roboto-Regular-53" d="M 2953 1150 
Q 2953 1463 2742 1650 
Q 2531 1838 1856 2036 
Q 1181 2234 789 2542 
Q 397 2850 397 3375 
Q 397 3906 820 4259 
Q 1244 4613 1944 4613 
Q 2713 4613 3130 4191 
Q 3547 3769 3547 3238 
L 2947 3238 
Q 2947 3619 2700 3869 
Q 2453 4119 1944 4119 
Q 1463 4119 1231 3908 
Q 1000 3697 1000 3381 
Q 1000 3097 1245 2908 
Q 1491 2719 2044 2563 
Q 2834 2341 3196 2014 
Q 3559 1688 3559 1156 
Q 3559 600 3125 268 
Q 2691 -63 1972 -63 
Q 1553 -63 1158 93 
Q 763 250 508 558 
Q 253 866 253 1319 
L 853 1319 
Q 853 853 1193 640 
Q 1534 428 1972 428 
Q 2444 428 2698 623 
Q 2953 819 2953 1150 
z
" transform="scale(0.015625)"/>
     <path id="Roboto-Regular-61" d="M 2528 0 
Q 2472 122 2447 356 
Q 2284 184 2040 60 
Q 1797 -63 1484 -63 
Q 966 -63 653 228 
Q 341 519 341 941 
Q 341 1484 753 1767 
Q 1166 2050 1863 2050 
L 2434 2050 
L 2434 2319 
Q 2434 2619 2254 2798 
Q 2075 2978 1722 2978 
Q 1394 2978 1192 2817 
Q 991 2656 991 2444 
L 413 2444 
Q 413 2806 778 3125 
Q 1144 3444 1756 3444 
Q 2306 3444 2659 3162 
Q 3013 2881 3013 2313 
L 3013 794 
Q 3013 325 3131 50 
L 3131 0 
L 2528 0 
z
M 1569 444 
Q 1881 444 2111 600 
Q 2341 756 2434 947 
L 2434 1644 
L 1897 1644 
Q 922 1625 922 1019 
Q 922 778 1084 611 
Q 1247 444 1569 444 
z
" transform="scale(0.015625)"/>
     <path id="Roboto-Regular-6d" d="M 1794 2956 
Q 1225 2956 1016 2478 
L 1016 0 
L 434 0 
L 434 3381 
L 984 3381 
L 1000 3013 
Q 1366 3444 2000 3444 
Q 2325 3444 2579 3314 
Q 2834 3184 2969 2900 
Q 3138 3144 3408 3294 
Q 3678 3444 4044 3444 
Q 4588 3444 4883 3153 
Q 5178 2863 5178 2222 
L 5178 0 
L 4597 0 
L 4597 2228 
Q 4597 2653 4401 2804 
Q 4206 2956 3875 2956 
Q 3525 2956 3325 2748 
Q 3125 2541 3094 2244 
L 3094 0 
L 2516 0 
L 2516 2225 
Q 2516 2622 2319 2789 
Q 2122 2956 1794 2956 
z
" transform="scale(0.015625)"/>
     <path id="Roboto-Regular-70" d="M 1984 -63 
Q 1375 -63 1019 328 
L 1019 -1300 
L 438 -1300 
L 438 3381 
L 969 3381 
L 997 3009 
Q 1353 3444 1975 3444 
Q 2616 3444 2956 2969 
Q 3297 2494 3297 1719 
L 3297 1653 
Q 3297 913 2955 425 
Q 2613 -63 1984 -63 
z
M 1806 2956 
Q 1281 2956 1019 2491 
L 1019 872 
Q 1284 413 1813 413 
Q 2281 413 2498 781 
Q 2716 1150 2716 1653 
L 2716 1719 
Q 2716 2222 2498 2589 
Q 2281 2956 1806 2956 
z
" transform="scale(0.015625)"/>
     <path id="Roboto-Regular-6c" d="M 1069 4800 
L 1069 0 
L 488 0 
L 488 4800 
L 1069 4800 
z
" transform="scale(0.015625)"/>
     <path id="Roboto-Regular-69" d="M 444 4278 
Q 444 4419 530 4516 
Q 616 4613 784 4613 
Q 950 4613 1039 4516 
Q 1128 4419 1128 4278 
Q 1128 4144 1039 4048 
Q 950 3953 784 3953 
Q 616 3953 530 4048 
Q 444 4144 444 4278 
z
M 1069 3381 
L 1069 0 
L 488 0 
L 488 3381 
L 1069 3381 
z
" transform="scale(0.015625)"/>
     <path id="Roboto-Regular-6e" d="M 1844 2956 
Q 1566 2956 1353 2806 
Q 1141 2656 1019 2416 
L 1019 0 
L 441 0 
L 441 3381 
L 988 3381 
L 1006 2959 
Q 1391 3444 2016 3444 
Q 2513 3444 2805 3166 
Q 3097 2888 3100 2231 
L 3100 0 
L 2519 0 
L 2519 2222 
Q 2519 2619 2345 2787 
Q 2172 2956 1844 2956 
z
" transform="scale(0.015625)"/>
     <path id="Roboto-Regular-67" d="M 1725 -1334 
Q 1463 -1334 1081 -1206 
Q 700 -1078 472 -747 
L 775 -403 
Q 1150 -859 1681 -859 
Q 2091 -859 2334 -629 
Q 2578 -400 2578 44 
L 2578 341 
Q 2234 -63 1631 -63 
Q 1022 -63 662 425 
Q 303 913 303 1653 
L 303 1719 
Q 303 2494 661 2969 
Q 1019 3444 1638 3444 
Q 2259 3444 2603 3006 
L 2631 3381 
L 3156 3381 
L 3156 72 
Q 3156 -600 2756 -967 
Q 2356 -1334 1725 -1334 
z
M 881 1653 
Q 881 1150 1092 789 
Q 1303 428 1772 428 
Q 2322 428 2578 928 
L 2578 2469 
Q 2469 2678 2275 2817 
Q 2081 2956 1778 2956 
Q 1306 2956 1093 2589 
Q 881 2222 881 1719 
L 881 1653 
z
" transform="scale(0.015625)"/>
     <path id="Roboto-Regular-20" transform="scale(0.015625)"/>
     <path id="Roboto-Regular-74" d="M 1872 0 
Q 1675 -63 1425 -63 
Q 1103 -63 875 134 
Q 647 331 647 841 
L 647 2938 
L 28 2938 
L 28 3381 
L 647 3381 
L 647 4203 
L 1225 4203 
L 1225 3381 
L 1856 3381 
L 1856 2938 
L 1225 2938 
L 1225 838 
Q 1225 578 1337 506 
Q 1450 434 1597 434 
Q 1706 434 1869 472 
L 1872 0 
z
" transform="scale(0.015625)"/>
     <path id="Roboto-Regular-65" d="M 3116 591 
Q 2950 341 2647 139 
Q 2344 -63 1844 -63 
Q 1138 -63 714 396 
Q 291 856 291 1572 
L 291 1703 
Q 291 2256 502 2645 
Q 713 3034 1050 3239 
Q 1388 3444 1769 3444 
Q 2494 3444 2826 2970 
Q 3159 2497 3159 1788 
L 3159 1528 
L 872 1528 
Q 884 1063 1148 736 
Q 1413 409 1875 409 
Q 2181 409 2393 534 
Q 2606 659 2766 869 
L 3116 591 
z
M 1769 2969 
Q 1425 2969 1187 2719 
Q 950 2469 891 2000 
L 2581 2000 
L 2581 2044 
Q 2559 2381 2386 2675 
Q 2213 2969 1769 2969 
z
" transform="scale(0.015625)"/>
     <path id="Roboto-Regular-5b" d="M 1634 5200 
L 1634 4725 
L 1038 4725 
L 1038 -500 
L 1634 -500 
L 1634 -975 
L 459 -975 
L 459 5200 
L 1634 5200 
z
" transform="scale(0.015625)"/>
     <path id="Roboto-Regular-73" d="M 2409 897 
Q 2409 1081 2273 1229 
Q 2138 1378 1647 1478 
Q 1081 1594 747 1814 
Q 413 2034 413 2456 
Q 413 2856 755 3150 
Q 1097 3444 1666 3444 
Q 2272 3444 2612 3134 
Q 2953 2825 2953 2388 
L 2375 2388 
Q 2375 2597 2190 2783 
Q 2006 2969 1666 2969 
Q 1306 2969 1150 2812 
Q 994 2656 994 2472 
Q 994 2288 1139 2173 
Q 1284 2059 1756 1953 
Q 2378 1813 2683 1584 
Q 2988 1356 2988 941 
Q 2988 494 2630 215 
Q 2272 -63 1681 -63 
Q 1009 -63 653 281 
Q 297 625 297 1044 
L 878 1044 
Q 897 684 1155 548 
Q 1413 413 1681 413 
Q 2034 413 2221 550 
Q 2409 688 2409 897 
z
" transform="scale(0.015625)"/>
     <path id="Roboto-Regular-5d" d="M 31 4725 
L 31 5200 
L 1213 5200 
L 1213 -975 
L 31 -975 
L 31 -500 
L 631 -500 
L 631 4725 
L 31 4725 
z
" transform="scale(0.015625)"/>
    </defs>
    <use xlink:href="#Roboto-Regular-53"/>
    <use xlink:href="#Roboto-Regular-61" transform="translate(59.375 0)"/>
    <use xlink:href="#Roboto-Regular-6d" transform="translate(113.769531 0)"/>
    <use xlink:href="#Roboto-Regular-70" transform="translate(201.464844 0)"/>
    <use xlink:href="#Roboto-Regular-6c" transform="translate(257.617188 0)"/>
    <use xlink:href="#Roboto-Regular-69" transform="translate(281.933594 0)"/>
    <use xlink:href="#Roboto-Regular-6e" transform="translate(306.25 0)"/>
    <use xlink:href="#Roboto-Regular-67" transform="translate(361.474609 0)"/>
    <use xlink:href="#Roboto-Regular-20" transform="translate(417.626953 0)"/>
    <use xlink:href="#Roboto-Regular-74" transform="translate(442.431641 0)"/>
    <use xlink:href="#Roboto-Regular-69" transform="translate(475.146484 0)"/>
    <use xlink:href="#Roboto-Regular-6d" transform="translate(499.462891 0)"/>
    <use xlink:href="#Roboto-Regular-65" transform="translate(587.158203 0)"/>
    <use xlink:href="#Roboto-Regular-20" transform="translate(640.185547 0)"/>
    <use xlink:href="#Roboto-Regular-5b" transform="translate(664.990234 0)"/>
    <use xlink:href="#Roboto-Regular-70" transform="translate(691.503906 0)"/>
    <use xlink:href="#Roboto-Regular-73" transform="translate(747.65625 0)"/>
    <use xlink:href="#Roboto-Regular-5d" transform="translate(799.267578 0)"/>
   </g>
  </g>
  <g id="text_12">
   <!-- Count -->
   <g transform="translate(14.7156 73.66231) rotate(-90) scale(0.07 -0.07)">
    <defs>
     <path id="Roboto-Regular-43" d="M 3275 1447 
L 3875 1447 
Q 3806 800 3387 368 
Q 2969 -63 2150 -63 
Q 1356 -63 870 504 
Q 384 1072 375 2013 
L 375 2500 
Q 375 3456 867 4034 
Q 1359 4613 2203 4613 
Q 2975 4613 3390 4188 
Q 3806 3763 3875 3091 
L 3275 3091 
Q 3206 3566 2968 3842 
Q 2731 4119 2203 4119 
Q 1600 4119 1287 3675 
Q 975 3231 975 2506 
L 975 2047 
Q 975 1375 1259 901 
Q 1544 428 2150 428 
Q 2725 428 2961 697 
Q 3197 966 3275 1447 
z
" transform="scale(0.015625)"/>
     <path id="Roboto-Regular-6f" d="M 288 1725 
Q 288 2459 700 2951 
Q 1113 3444 1822 3444 
Q 2531 3444 2943 2961 
Q 3356 2478 3366 1756 
L 3366 1653 
Q 3366 919 2952 428 
Q 2538 -63 1828 -63 
Q 1116 -63 702 428 
Q 288 919 288 1653 
L 288 1725 
z
M 866 1653 
Q 866 1150 1105 781 
Q 1344 413 1828 413 
Q 2300 413 2540 777 
Q 2781 1141 2784 1644 
L 2784 1725 
Q 2784 2222 2543 2595 
Q 2303 2969 1822 2969 
Q 1344 2969 1105 2595 
Q 866 2222 866 1725 
L 866 1653 
z
" transform="scale(0.015625)"/>
     <path id="Roboto-Regular-75" d="M 2538 0 
L 2525 334 
Q 2194 -63 1538 -63 
Q 1041 -63 734 231 
Q 428 525 428 1200 
L 428 3381 
L 1006 3381 
L 1006 1194 
Q 1006 738 1198 583 
Q 1391 428 1628 428 
Q 2281 428 2509 919 
L 2509 3381 
L 3091 3381 
L 3091 0 
L 2538 0 
z
" transform="scale(0.015625)"/>
    </defs>
    <use xlink:href="#Roboto-Regular-43"/>
    <use xlink:href="#Roboto-Regular-6f" transform="translate(65.087891 0)"/>
    <use xlink:href="#Roboto-Regular-75" transform="translate(122.119141 0)"/>
    <use xlink:href="#Roboto-Regular-6e" transform="translate(177.246094 0)"/>
    <use xlink:href="#Roboto-Regular-74" transform="translate(232.470703 0)"/>
   </g>
  </g>
 </g>
 <defs>
  <clipPath id="p2f49f274fb">
   <rect x="40.53771" y="9.464" width="190.95669" height="109.833496"/>
  </clipPath>
 </defs>
</svg>
