<?xml version="1.0" encoding="UTF-8" standalone="no"?>
<!DOCTYPE svg PUBLIC "-//W3C//DTD SVG 1.1//EN"
 "http://www.w3.org/Graphics/SVG/1.1/DTD/svg11.dtd">
<!-- Generated by graphviz version 2.43.0 (0)
 -->
<!-- Title: G Pages: 1 -->
<svg width="330pt" height="296pt"
 viewBox="0.00 0.00 330.14 295.88" xmlns="http://www.w3.org/2000/svg" xmlns:xlink="http://www.w3.org/1999/xlink">
<g id="graph0" class="graph" transform="scale(1 1) rotate(0) translate(4 291.88)">
<title>G</title>
<polygon fill="white" stroke="transparent" points="-4,4 -4,-291.88 326.14,-291.88 326.14,4 -4,4"/>
<!-- R1 -->
<g id="node1" class="node">
<title>R1</title>
<ellipse fill="none" stroke="black" stroke-dasharray="5,2" cx="18" cy="-173.85" rx="18" ry="18"/>
<text text-anchor="middle" x="18" y="-170.15" font-family="Times,serif" font-size="14.00">R1</text>
</g>
<!-- R2 -->
<g id="node2" class="node">
<title>R2</title>
<ellipse fill="none" stroke="black" stroke-dasharray="5,2" cx="304.14" cy="-199.4" rx="18" ry="18"/>
<text text-anchor="middle" x="304.14" y="-195.7" font-family="Times,serif" font-size="14.00">R2</text>
</g>
<!-- 1 C -->
<g id="node3" class="node">
<title>1 C</title>
<ellipse fill="none" stroke="black" cx="95.87" cy="-191.42" rx="18" ry="18"/>
<text text-anchor="middle" x="95.87" y="-187.72" font-family="Times,serif" font-size="14.00">1 C</text>
</g>
<!-- 1 C&#45;&#45;R1 -->
<g id="edge2" class="edge">
<title>1 C&#45;&#45;R1</title>
<path fill="none" stroke="#004f9f" stroke-width="5" d="M78.2,-187.43C65.45,-184.56 48.33,-180.69 35.6,-177.82"/>
</g>
<!-- 2 O -->
<g id="node4" class="node">
<title>2 O</title>
<ellipse fill="none" stroke="black" cx="84.4" cy="-269.88" rx="18" ry="18"/>
<text text-anchor="middle" x="84.4" y="-266.18" font-family="Times,serif" font-size="14.00">2 O</text>
</g>
<!-- 1 C&#45;&#45;2 O -->
<g id="edge1" class="edge">
<title>1 C&#45;&#45;2 O</title>
<path fill="none" stroke="#bbbbbb" stroke-width="5" d="M93.21,-209.62C91.34,-222.38 88.86,-239.37 87.01,-252.05"/>
</g>
<!-- 7 N -->
<g id="node5" class="node">
<title>7 N</title>
<ellipse fill="none" stroke="black" cx="244.05" cy="-148.95" rx="18" ry="18"/>
<text text-anchor="middle" x="244.05" y="-145.25" font-family="Times,serif" font-size="14.00">7 N</text>
</g>
<!-- 7 N&#45;&#45;R2 -->
<g id="edge3" class="edge">
<title>7 N&#45;&#45;R2</title>
<path fill="none" stroke="#004f9f" stroke-width="5" d="M257.98,-160.65C267.69,-168.8 280.58,-179.63 290.27,-187.76"/>
</g>
<!-- 3 CT -->
<g id="node6" class="node">
<title>3 CT</title>
<ellipse fill="none" stroke="black" cx="161.8" cy="-143.79" rx="18.9" ry="18.9"/>
<text text-anchor="middle" x="161.8" y="-140.09" font-family="Times,serif" font-size="14.00">3 CT</text>
</g>
<!-- 7 N&#45;&#45;3 CT -->
<g id="edge4" class="edge">
<title>7 N&#45;&#45;3 CT</title>
<path fill="none" stroke="#bbbbbb" stroke-width="5" d="M225.79,-147.81C212.35,-146.96 194.13,-145.82 180.57,-144.97"/>
</g>
<!-- 6 CT -->
<g id="node8" class="node">
<title>6 CT</title>
<ellipse fill="none" stroke="black" cx="275.62" cy="-73.11" rx="18.9" ry="18.9"/>
<text text-anchor="middle" x="275.62" y="-69.41" font-family="Times,serif" font-size="14.00">6 CT</text>
</g>
<!-- 7 N&#45;&#45;6 CT -->
<g id="edge7" class="edge">
<title>7 N&#45;&#45;6 CT</title>
<path fill="none" stroke="#bbbbbb" stroke-width="5" d="M251.05,-132.12C256.21,-119.73 263.21,-102.93 268.41,-90.42"/>
</g>
<!-- 3 CT&#45;&#45;1 C -->
<g id="edge6" class="edge">
<title>3 CT&#45;&#45;1 C</title>
<path fill="none" stroke="#777777" stroke-width="5" d="M146.51,-154.84C135.7,-162.64 121.3,-173.04 110.62,-180.76"/>
</g>
<!-- 4 CT -->
<g id="node7" class="node">
<title>4 CT</title>
<ellipse fill="none" stroke="black" cx="154.15" cy="-61.36" rx="18.9" ry="18.9"/>
<text text-anchor="middle" x="154.15" y="-57.66" font-family="Times,serif" font-size="14.00">4 CT</text>
</g>
<!-- 4 CT&#45;&#45;3 CT -->
<g id="edge5" class="edge">
<title>4 CT&#45;&#45;3 CT</title>
<path fill="none" stroke="#bbbbbb" stroke-width="5" d="M155.88,-80.06C157.14,-93.56 158.82,-111.69 160.07,-125.16"/>
</g>
<!-- 5 CT -->
<g id="node9" class="node">
<title>5 CT</title>
<ellipse fill="none" stroke="black" cx="219.95" cy="-18.7" rx="18.9" ry="18.9"/>
<text text-anchor="middle" x="219.95" y="-15" font-family="Times,serif" font-size="14.00">5 CT</text>
</g>
<!-- 6 CT&#45;&#45;5 CT -->
<g id="edge8" class="edge">
<title>6 CT&#45;&#45;5 CT</title>
<path fill="none" stroke="#bbbbbb" stroke-width="5" d="M262.14,-59.94C253.52,-51.51 242.36,-40.61 233.69,-32.13"/>
</g>
<!-- 5 CT&#45;&#45;4 CT -->
<g id="edge9" class="edge">
<title>5 CT&#45;&#45;4 CT</title>
<path fill="none" stroke="#bbbbbb" stroke-width="5" d="M204.02,-29.03C193.68,-35.73 180.25,-44.44 169.93,-51.13"/>
</g>
</g>
</svg>
