<?xml version="1.0" encoding="UTF-8" standalone="no"?>
<!DOCTYPE svg PUBLIC "-//W3C//DTD SVG 1.1//EN"
 "http://www.w3.org/Graphics/SVG/1.1/DTD/svg11.dtd">
<!-- Generated by graphviz version 2.43.0 (0)
 -->
<!-- Title: G Pages: 1 -->
<svg width="473pt" height="276pt"
 viewBox="0.00 0.00 472.90 276.34" xmlns="http://www.w3.org/2000/svg" xmlns:xlink="http://www.w3.org/1999/xlink">
<g id="graph0" class="graph" transform="scale(1 1) rotate(0) translate(4 272.34)">
<title>G</title>
<polygon fill="white" stroke="transparent" points="-4,4 -4,-272.34 468.9,-272.34 468.9,4 -4,4"/>
<!-- R1 -->
<g id="node1" class="node">
<title>R1</title>
<ellipse fill="none" stroke="black" stroke-dasharray="5,2" cx="150.58" cy="-214.52" rx="18" ry="18"/>
<text text-anchor="middle" x="150.58" y="-210.82" font-family="Times,serif" font-size="14.00">R1</text>
</g>
<!-- R2 -->
<g id="node2" class="node">
<title>R2</title>
<ellipse fill="none" stroke="black" stroke-dasharray="5,2" cx="261" cy="-250.34" rx="18" ry="18"/>
<text text-anchor="middle" x="261" y="-246.64" font-family="Times,serif" font-size="14.00">R2</text>
</g>
<!-- 8 CT -->
<g id="node10" class="node">
<title>8 CT</title>
<ellipse fill="none" stroke="black" cx="317.39" cy="-201.96" rx="18.9" ry="18.9"/>
<text text-anchor="middle" x="317.39" y="-198.26" font-family="Times,serif" font-size="14.00">8 CT</text>
</g>
<!-- R2&#45;&#45;8 CT -->
<g id="edge8" class="edge">
<title>R2&#45;&#45;8 CT</title>
<path fill="none" stroke="#777777" stroke-width="5" d="M274.94,-238.38C283.42,-231.1 294.23,-221.83 302.82,-214.46"/>
</g>
<!-- 1 CT -->
<g id="node3" class="node">
<title>1 CT</title>
<ellipse fill="none" stroke="black" cx="165.98" cy="-134.3" rx="18.9" ry="18.9"/>
<text text-anchor="middle" x="165.98" y="-130.6" font-family="Times,serif" font-size="14.00">1 CT</text>
</g>
<!-- 1 CT&#45;&#45;R1 -->
<g id="edge1" class="edge">
<title>1 CT&#45;&#45;R1</title>
<path fill="none" stroke="#777777" stroke-width="5" d="M162.41,-152.9C159.87,-166.14 156.48,-183.81 153.98,-196.84"/>
</g>
<!-- 2 H1 -->
<g id="node4" class="node">
<title>2 H1</title>
<ellipse fill="none" stroke="black" cx="220.45" cy="-73.6" rx="19" ry="19"/>
<text text-anchor="middle" x="220.45" y="-69.9" font-family="Times,serif" font-size="14.00">2 H1</text>
</g>
<!-- 1 CT&#45;&#45;2 H1 -->
<g id="edge2" class="edge">
<title>1 CT&#45;&#45;2 H1</title>
<path fill="none" stroke="#777777" stroke-width="5" d="M178.62,-120.22C187.29,-110.55 198.77,-97.76 207.51,-88.02"/>
</g>
<!-- 3 H1 -->
<g id="node5" class="node">
<title>3 H1</title>
<ellipse fill="none" stroke="black" cx="237.01" cy="-170.14" rx="19" ry="19"/>
<text text-anchor="middle" x="237.01" y="-166.44" font-family="Times,serif" font-size="14.00">3 H1</text>
</g>
<!-- 1 CT&#45;&#45;3 H1 -->
<g id="edge3" class="edge">
<title>1 CT&#45;&#45;3 H1</title>
<path fill="none" stroke="#777777" stroke-width="5" d="M182.81,-142.79C193.97,-148.42 208.57,-155.79 219.8,-161.46"/>
</g>
<!-- 4 C -->
<g id="node6" class="node">
<title>4 C</title>
<ellipse fill="none" stroke="black" cx="91.59" cy="-98.09" rx="18" ry="18"/>
<text text-anchor="middle" x="91.59" y="-94.39" font-family="Times,serif" font-size="14.00">4 C</text>
</g>
<!-- 1 CT&#45;&#45;4 C -->
<g id="edge4" class="edge">
<title>1 CT&#45;&#45;4 C</title>
<path fill="none" stroke="#777777" stroke-width="5" d="M149.1,-126.08C136.75,-120.07 120.1,-111.97 107.89,-106.02"/>
</g>
<!-- 5 O -->
<g id="node7" class="node">
<title>5 O</title>
<ellipse fill="none" stroke="black" cx="18" cy="-128.41" rx="18" ry="18"/>
<text text-anchor="middle" x="18" y="-124.71" font-family="Times,serif" font-size="14.00">5 O</text>
</g>
<!-- 4 C&#45;&#45;5 O -->
<g id="edge5" class="edge">
<title>4 C&#45;&#45;5 O</title>
<path fill="none" stroke="#777777" stroke-width="5" d="M74.89,-104.97C62.93,-109.89 46.89,-116.5 34.89,-121.45"/>
</g>
<!-- 6 N -->
<g id="node8" class="node">
<title>6 N</title>
<ellipse fill="none" stroke="black" cx="373.74" cy="-146.17" rx="18" ry="18"/>
<text text-anchor="middle" x="373.74" y="-142.47" font-family="Times,serif" font-size="14.00">6 N</text>
</g>
<!-- 7 H -->
<g id="node9" class="node">
<title>7 H</title>
<ellipse fill="none" stroke="black" cx="430.08" cy="-90.55" rx="18" ry="18"/>
<text text-anchor="middle" x="430.08" y="-86.85" font-family="Times,serif" font-size="14.00">7 H</text>
</g>
<!-- 6 N&#45;&#45;7 H -->
<g id="edge6" class="edge">
<title>6 N&#45;&#45;7 H</title>
<path fill="none" stroke="#777777" stroke-width="5" d="M386.81,-133.27C395.91,-124.29 408,-112.35 417.08,-103.38"/>
</g>
<!-- 6 N&#45;&#45;8 CT -->
<g id="edge7" class="edge">
<title>6 N&#45;&#45;8 CT</title>
<path fill="none" stroke="#777777" stroke-width="5" d="M360.67,-159.11C351.7,-168 339.82,-179.75 330.78,-188.7"/>
</g>
<!-- 9 OW -->
<g id="node11" class="node">
<title>9 OW</title>
<ellipse fill="none" stroke="black" cx="68.84" cy="-22" rx="22" ry="22"/>
<text text-anchor="middle" x="68.84" y="-18.3" font-family="Times,serif" font-size="14.00">9 OW</text>
</g>
<!-- 9 OW&#45;&#45;4 C -->
<g id="edge9" class="edge">
<title>9 OW&#45;&#45;4 C</title>
<path fill="none" stroke="#1e4287" stroke-width="5" d="M75.17,-43.2C78.7,-54.98 83.03,-69.47 86.36,-80.6"/>
</g>
<!-- 10 HW -->
<g id="node12" class="node">
<title>10 HW</title>
<ellipse fill="none" stroke="black" cx="437.95" cy="-195.39" rx="26.9" ry="26.9"/>
<text text-anchor="middle" x="437.95" y="-191.69" font-family="Times,serif" font-size="14.00">10 HW</text>
</g>
<!-- 10 HW&#45;&#45;6 N -->
<g id="edge10" class="edge">
<title>10 HW&#45;&#45;6 N</title>
<path fill="none" stroke="#5f7d9d" stroke-width="5" d="M416.22,-178.73C407.05,-171.7 396.62,-163.7 388.39,-157.4"/>
</g>
<!-- 11 HW -->
<g id="node13" class="node">
<title>11 HW</title>
<ellipse fill="none" stroke="black" cx="325.9" cy="-80.95" rx="26.9" ry="26.9"/>
<text text-anchor="middle" x="325.9" y="-77.25" font-family="Times,serif" font-size="14.00">11 HW</text>
</g>
<!-- 11 HW&#45;&#45;6 N -->
<g id="edge11" class="edge">
<title>11 HW&#45;&#45;6 N</title>
<path fill="none" stroke="#5f7d9d" stroke-width="5" d="M342.1,-103.03C348.93,-112.35 356.7,-122.94 362.84,-131.3"/>
</g>
</g>
</svg>
