<?xml version="1.0" encoding="UTF-8" standalone="no"?>
<!DOCTYPE svg PUBLIC "-//W3C//DTD SVG 1.1//EN"
 "http://www.w3.org/Graphics/SVG/1.1/DTD/svg11.dtd">
<!-- Generated by graphviz version 2.43.0 (0)
 -->
<!-- Title: G Pages: 1 -->
<svg width="319pt" height="293pt"
 viewBox="0.00 0.00 318.74 293.41" xmlns="http://www.w3.org/2000/svg" xmlns:xlink="http://www.w3.org/1999/xlink">
<g id="graph0" class="graph" transform="scale(1 1) rotate(0) translate(4 289.41)">
<title>G</title>
<polygon fill="white" stroke="transparent" points="-4,4 -4,-289.41 314.74,-289.41 314.74,4 -4,4"/>
<!-- R1 -->
<g id="node1" class="node">
<title>R1</title>
<ellipse fill="none" stroke="black" stroke-dasharray="5,2" cx="18" cy="-182.76" rx="18" ry="18"/>
<text text-anchor="middle" x="18" y="-179.06" font-family="Times,serif" font-size="14.00">R1</text>
</g>
<!-- R2 -->
<g id="node2" class="node">
<title>R2</title>
<ellipse fill="none" stroke="black" stroke-dasharray="5,2" cx="292.74" cy="-119.96" rx="18" ry="18"/>
<text text-anchor="middle" x="292.74" y="-116.26" font-family="Times,serif" font-size="14.00">R2</text>
</g>
<!-- 1 CT -->
<g id="node3" class="node">
<title>1 CT</title>
<ellipse fill="none" stroke="black" cx="99.19" cy="-198.17" rx="18.9" ry="18.9"/>
<text text-anchor="middle" x="99.19" y="-194.47" font-family="Times,serif" font-size="14.00">1 CT</text>
</g>
<!-- 1 CT&#45;&#45;R1 -->
<g id="edge1" class="edge">
<title>1 CT&#45;&#45;R1</title>
<path fill="none" stroke="#89b77a" stroke-width="5" d="M80.77,-194.67C67.29,-192.12 49.12,-188.67 35.79,-186.14"/>
</g>
<!-- 2 H1 -->
<g id="node4" class="node">
<title>2 H1</title>
<ellipse fill="none" stroke="black" cx="58.1" cy="-266.16" rx="19" ry="19"/>
<text text-anchor="middle" x="58.1" y="-262.46" font-family="Times,serif" font-size="14.00">2 H1</text>
</g>
<!-- 1 CT&#45;&#45;2 H1 -->
<g id="edge2" class="edge">
<title>1 CT&#45;&#45;2 H1</title>
<path fill="none" stroke="#bbbbbb" stroke-width="5" d="M89.45,-214.28C83.09,-224.81 74.8,-238.53 68.34,-249.21"/>
</g>
<!-- 3 H1 -->
<g id="node5" class="node">
<title>3 H1</title>
<ellipse fill="none" stroke="black" cx="148.04" cy="-264.3" rx="19" ry="19"/>
<text text-anchor="middle" x="148.04" y="-260.6" font-family="Times,serif" font-size="14.00">3 H1</text>
</g>
<!-- 1 CT&#45;&#45;3 H1 -->
<g id="edge3" class="edge">
<title>1 CT&#45;&#45;3 H1</title>
<path fill="none" stroke="#bbbbbb" stroke-width="5" d="M110.52,-213.51C118.3,-224.04 128.6,-237.97 136.43,-248.58"/>
</g>
<!-- 4 C -->
<g id="node6" class="node">
<title>4 C</title>
<ellipse fill="none" stroke="black" cx="140.27" cy="-124.85" rx="18" ry="18"/>
<text text-anchor="middle" x="140.27" y="-121.15" font-family="Times,serif" font-size="14.00">4 C</text>
</g>
<!-- 1 CT&#45;&#45;4 C -->
<g id="edge4" class="edge">
<title>1 CT&#45;&#45;4 C</title>
<path fill="none" stroke="#777777" stroke-width="5" d="M108.51,-181.53C115.33,-169.36 124.53,-152.95 131.27,-140.92"/>
</g>
<!-- 5 O -->
<g id="node7" class="node">
<title>5 O</title>
<ellipse fill="none" stroke="black" cx="91.13" cy="-58.82" rx="18" ry="18"/>
<text text-anchor="middle" x="91.13" y="-55.12" font-family="Times,serif" font-size="14.00">5 O</text>
</g>
<!-- 4 C&#45;&#45;5 O -->
<g id="edge5" class="edge">
<title>4 C&#45;&#45;5 O</title>
<path fill="none" stroke="#bbbbbb" stroke-width="5" d="M129.37,-110.19C121.22,-99.25 110.14,-84.36 102.01,-73.43"/>
</g>
<!-- 6 N -->
<g id="node8" class="node">
<title>6 N</title>
<ellipse fill="none" stroke="black" cx="217.29" cy="-94.56" rx="18" ry="18"/>
<text text-anchor="middle" x="217.29" y="-90.86" font-family="Times,serif" font-size="14.00">6 N</text>
</g>
<!-- 4 C&#45;&#45;6 N -->
<g id="edge6" class="edge">
<title>4 C&#45;&#45;6 N</title>
<path fill="none" stroke="#004f9f" stroke-width="5" d="M157.36,-118.13C170.22,-113.07 187.73,-106.19 200.51,-101.16"/>
</g>
<!-- 6 N&#45;&#45;R2 -->
<g id="edge8" class="edge">
<title>6 N&#45;&#45;R2</title>
<path fill="none" stroke="#89b77a" stroke-width="5" d="M234.41,-100.33C246.67,-104.45 263.12,-109.99 275.43,-114.13"/>
</g>
<!-- 7 H -->
<g id="node9" class="node">
<title>7 H</title>
<ellipse fill="none" stroke="black" cx="240.35" cy="-18" rx="18" ry="18"/>
<text text-anchor="middle" x="240.35" y="-14.3" font-family="Times,serif" font-size="14.00">7 H</text>
</g>
<!-- 6 N&#45;&#45;7 H -->
<g id="edge7" class="edge">
<title>6 N&#45;&#45;7 H</title>
<path fill="none" stroke="#bbbbbb" stroke-width="5" d="M222.52,-77.19C226.29,-64.66 231.36,-47.82 235.13,-35.3"/>
</g>
</g>
</svg>
