<?xml version="1.0" encoding="UTF-8" standalone="no"?>
<!DOCTYPE svg PUBLIC "-//W3C//DTD SVG 1.1//EN"
 "http://www.w3.org/Graphics/SVG/1.1/DTD/svg11.dtd">
<!-- Generated by graphviz version 2.43.0 (0)
 -->
<!-- Title: G Pages: 1 -->
<svg width="394pt" height="357pt"
 viewBox="0.00 0.00 394.29 357.37" xmlns="http://www.w3.org/2000/svg" xmlns:xlink="http://www.w3.org/1999/xlink">
<g id="graph0" class="graph" transform="scale(1 1) rotate(0) translate(4 353.37)">
<title>G</title>
<polygon fill="white" stroke="transparent" points="-4,4 -4,-353.37 390.29,-353.37 390.29,4 -4,4"/>
<!-- R1 -->
<g id="node1" class="node">
<title>R1</title>
<ellipse fill="none" stroke="black" stroke-dasharray="5,2" cx="30.22" cy="-145.51" rx="18" ry="18"/>
<text text-anchor="middle" x="30.22" y="-141.81" font-family="Times,serif" font-size="14.00">R1</text>
</g>
<!-- R2 -->
<g id="node2" class="node">
<title>R2</title>
<ellipse fill="none" stroke="black" stroke-dasharray="5,2" cx="368.29" cy="-26.78" rx="18" ry="18"/>
<text text-anchor="middle" x="368.29" y="-23.08" font-family="Times,serif" font-size="14.00">R2</text>
</g>
<!-- 8 CT -->
<g id="node10" class="node">
<title>8 CT</title>
<ellipse fill="none" stroke="black" cx="304.46" cy="-67.89" rx="18.9" ry="18.9"/>
<text text-anchor="middle" x="304.46" y="-64.19" font-family="Times,serif" font-size="14.00">8 CT</text>
</g>
<!-- R2&#45;&#45;8 CT -->
<g id="edge9" class="edge">
<title>R2&#45;&#45;8 CT</title>
<path fill="none" stroke="#777777" stroke-width="5" d="M352.84,-36.73C342.95,-43.1 330.16,-51.34 320.21,-57.74"/>
</g>
<!-- 1 CT -->
<g id="node3" class="node">
<title>1 CT</title>
<ellipse fill="none" stroke="black" cx="95.54" cy="-200.55" rx="18.9" ry="18.9"/>
<text text-anchor="middle" x="95.54" y="-196.85" font-family="Times,serif" font-size="14.00">1 CT</text>
</g>
<!-- 1 CT&#45;&#45;R1 -->
<g id="edge1" class="edge">
<title>1 CT&#45;&#45;R1</title>
<path fill="none" stroke="#777777" stroke-width="5" d="M81.05,-188.34C70.07,-179.09 55.08,-166.46 44.23,-157.32"/>
</g>
<!-- 2 H1 -->
<g id="node4" class="node">
<title>2 H1</title>
<ellipse fill="none" stroke="black" cx="19.25" cy="-225.47" rx="19" ry="19"/>
<text text-anchor="middle" x="19.25" y="-221.77" font-family="Times,serif" font-size="14.00">2 H1</text>
</g>
<!-- 1 CT&#45;&#45;2 H1 -->
<g id="edge2" class="edge">
<title>1 CT&#45;&#45;2 H1</title>
<path fill="none" stroke="#777777" stroke-width="5" d="M77.46,-206.46C65.48,-210.37 49.8,-215.49 37.73,-219.43"/>
</g>
<!-- 3 H1 -->
<g id="node5" class="node">
<title>3 H1</title>
<ellipse fill="none" stroke="black" cx="78.22" cy="-280.86" rx="19" ry="19"/>
<text text-anchor="middle" x="78.22" y="-277.16" font-family="Times,serif" font-size="14.00">3 H1</text>
</g>
<!-- 1 CT&#45;&#45;3 H1 -->
<g id="edge3" class="edge">
<title>1 CT&#45;&#45;3 H1</title>
<path fill="none" stroke="#777777" stroke-width="5" d="M91.53,-219.18C88.77,-231.97 85.11,-248.89 82.33,-261.78"/>
</g>
<!-- 4 C -->
<g id="node6" class="node">
<title>4 C</title>
<ellipse fill="none" stroke="black" cx="181.33" cy="-173.43" rx="18" ry="18"/>
<text text-anchor="middle" x="181.33" y="-169.73" font-family="Times,serif" font-size="14.00">4 C</text>
</g>
<!-- 1 CT&#45;&#45;4 C -->
<g id="edge4" class="edge">
<title>1 CT&#45;&#45;4 C</title>
<path fill="none" stroke="#777777" stroke-width="5" d="M113.74,-194.8C128.59,-190.11 149.44,-183.51 164.04,-178.9"/>
</g>
<!-- 5 O -->
<g id="node7" class="node">
<title>5 O</title>
<ellipse fill="none" stroke="black" cx="139.42" cy="-111.84" rx="18" ry="18"/>
<text text-anchor="middle" x="139.42" y="-108.14" font-family="Times,serif" font-size="14.00">5 O</text>
</g>
<!-- 4 C&#45;&#45;5 O -->
<g id="edge5" class="edge">
<title>4 C&#45;&#45;5 O</title>
<path fill="none" stroke="#777777" stroke-width="5" d="M171.18,-158.52C164.69,-148.98 156.29,-136.64 149.76,-127.04"/>
</g>
<!-- 6 N -->
<g id="node8" class="node">
<title>6 N</title>
<ellipse fill="none" stroke="black" cx="230.51" cy="-99.01" rx="18" ry="18"/>
<text text-anchor="middle" x="230.51" y="-95.31" font-family="Times,serif" font-size="14.00">6 N</text>
</g>
<!-- 4 C&#45;&#45;6 N -->
<g id="edge6" class="edge">
<title>4 C&#45;&#45;6 N</title>
<path fill="none" stroke="#c3006b" stroke-width="5" d="M191.28,-158.37C199.82,-145.46 212.04,-126.95 220.57,-114.05"/>
</g>
<!-- 7 H -->
<g id="node9" class="node">
<title>7 H</title>
<ellipse fill="none" stroke="black" cx="206.06" cy="-18" rx="18" ry="18"/>
<text text-anchor="middle" x="206.06" y="-14.3" font-family="Times,serif" font-size="14.00">7 H</text>
</g>
<!-- 6 N&#45;&#45;7 H -->
<g id="edge7" class="edge">
<title>6 N&#45;&#45;7 H</title>
<path fill="none" stroke="#777777" stroke-width="5" d="M225.21,-81.43C221.08,-67.75 215.38,-48.87 211.27,-35.27"/>
</g>
<!-- 6 N&#45;&#45;8 CT -->
<g id="edge8" class="edge">
<title>6 N&#45;&#45;8 CT</title>
<path fill="none" stroke="#777777" stroke-width="5" d="M247.29,-91.95C259.14,-86.96 274.97,-80.3 286.97,-75.25"/>
</g>
<!-- 9 OW -->
<g id="node11" class="node">
<title>9 OW</title>
<ellipse fill="none" stroke="black" cx="234.11" cy="-241.07" rx="22" ry="22"/>
<text text-anchor="middle" x="234.11" y="-237.37" font-family="Times,serif" font-size="14.00">9 OW</text>
</g>
<!-- 9 OW&#45;&#45;4 C -->
<g id="edge12" class="edge">
<title>9 OW&#45;&#45;4 C</title>
<path fill="none" stroke="#1e4287" stroke-width="5" stroke-dasharray="5,2" d="M220.52,-223.65C211.84,-212.53 200.74,-198.3 192.56,-187.83"/>
</g>
<!-- 10 HW -->
<g id="node12" class="node">
<title>10 HW</title>
<ellipse fill="none" stroke="black" cx="237.1" cy="-322.42" rx="26.9" ry="26.9"/>
<text text-anchor="middle" x="237.1" y="-318.72" font-family="Times,serif" font-size="14.00">10 HW</text>
</g>
<!-- 9 OW&#45;&#45;10 HW -->
<g id="edge10" class="edge">
<title>9 OW&#45;&#45;10 HW</title>
<path fill="none" stroke="#777777" stroke-width="5" d="M234.93,-263.3C235.29,-273.18 235.72,-284.9 236.1,-295.29"/>
</g>
<!-- 11 HW -->
<g id="node13" class="node">
<title>11 HW</title>
<ellipse fill="none" stroke="black" cx="310.84" cy="-265.07" rx="26.9" ry="26.9"/>
<text text-anchor="middle" x="310.84" y="-261.37" font-family="Times,serif" font-size="14.00">11 HW</text>
</g>
<!-- 9 OW&#45;&#45;11 HW -->
<g id="edge11" class="edge">
<title>9 OW&#45;&#45;11 HW</title>
<path fill="none" stroke="#777777" stroke-width="5" d="M255.48,-247.76C264.62,-250.61 275.36,-253.98 284.94,-256.97"/>
</g>
</g>
</svg>
