<?xml version="1.0" encoding="utf-8" standalone="no"?>
<!DOCTYPE svg PUBLIC "-//W3C//DTD SVG 1.1//EN"
  "http://www.w3.org/Graphics/SVG/1.1/DTD/svg11.dtd">
<svg xmlns:xlink="http://www.w3.org/1999/xlink" width="181.077165pt" height="181.077165pt" viewBox="0 0 181.077165 181.077165" xmlns="http://www.w3.org/2000/svg" version="1.1">
 <metadata>
  <rdf:RDF xmlns:dc="http://purl.org/dc/elements/1.1/" xmlns:cc="http://creativecommons.org/ns#" xmlns:rdf="http://www.w3.org/1999/02/22-rdf-syntax-ns#">
   <cc:Work>
    <dc:type rdf:resource="http://purl.org/dc/dcmitype/StillImage"/>
    <dc:date>2025-06-18T12:06:10.958489</dc:date>
    <dc:format>image/svg+xml</dc:format>
    <dc:creator>
     <cc:Agent>
      <dc:title>Matplotlib v3.8.2, https://matplotlib.org/</dc:title>
     </cc:Agent>
    </dc:creator>
   </cc:Work>
  </rdf:RDF>
 </metadata>
 <defs>
  <style type="text/css">*{stroke-linejoin: round; stroke-linecap: butt}</style>
 </defs>
 <g id="figure_1">
  <g id="patch_1">
   <path d="M 0 181.077165 
L 181.077165 181.077165 
L 181.077165 0 
L 0 0 
z
" style="fill: #ffffff; stroke: #ffffff; stroke-width: 0.7; stroke-linejoin: miter"/>
  </g>
  <g id="axes_1">
   <g id="patch_2">
    <path d="M 34.570162 152.350597 
L 173.877165 152.350597 
L 173.877165 7.2 
L 34.570162 7.2 
z
" style="fill: #ffffff"/>
   </g>
   <g id="matplotlib.axis_1">
    <g id="xtick_1">
     <g id="line2d_1">
      <defs>
       <path id="m1786349ec4" d="M 0 1.5 
L 0 -1.5 
" style="stroke: #000000; stroke-width: 0.7"/>
      </defs>
      <g>
       <use xlink:href="#m1786349ec4" x="40.902299" y="152.350597" style="stroke: #000000; stroke-width: 0.7"/>
      </g>
     </g>
     <g id="text_1">
      <!-- 0.0 -->
      <g transform="translate(36.044955 161.500597) scale(0.07 -0.07)">
       <defs>
        <path id="Roboto-Regular-30" d="M 3234 1944 
Q 3234 825 2848 381 
Q 2463 -63 1800 -63 
Q 1156 -63 764 368 
Q 372 800 359 1872 
L 359 2638 
Q 359 3753 750 4183 
Q 1141 4613 1794 4613 
Q 2447 4613 2834 4195 
Q 3222 3778 3234 2709 
L 3234 1944 
z
M 2653 2734 
Q 2653 3503 2434 3822 
Q 2216 4141 1794 4141 
Q 1388 4141 1167 3831 
Q 947 3522 941 2778 
L 941 1850 
Q 941 1088 1164 750 
Q 1388 413 1800 413 
Q 2222 413 2436 745 
Q 2650 1078 2653 1825 
L 2653 2734 
z
" transform="scale(0.015625)"/>
        <path id="Roboto-Regular-2e" d="M 450 306 
Q 450 453 542 554 
Q 634 656 809 656 
Q 984 656 1076 554 
Q 1169 453 1169 306 
Q 1169 163 1076 62 
Q 984 -38 809 -38 
Q 634 -38 542 62 
Q 450 163 450 306 
z
" transform="scale(0.015625)"/>
       </defs>
       <use xlink:href="#Roboto-Regular-30"/>
       <use xlink:href="#Roboto-Regular-2e" x="56.201172"/>
       <use xlink:href="#Roboto-Regular-30" x="82.568359"/>
      </g>
     </g>
    </g>
    <g id="xtick_2">
     <g id="line2d_2">
      <g>
       <use xlink:href="#m1786349ec4" x="72.562981" y="152.350597" style="stroke: #000000; stroke-width: 0.7"/>
      </g>
     </g>
     <g id="text_2">
      <!-- 0.5 -->
      <g transform="translate(67.705638 161.500597) scale(0.07 -0.07)">
       <defs>
        <path id="Roboto-Regular-35" d="M 1109 2166 
L 647 2284 
L 875 4550 
L 3209 4550 
L 3209 4016 
L 1366 4016 
L 1228 2778 
Q 1572 2975 1988 2975 
Q 2616 2975 2980 2561 
Q 3344 2147 3344 1450 
Q 3344 797 2987 367 
Q 2631 -63 1903 -63 
Q 1350 -63 947 248 
Q 544 559 481 1197 
L 1031 1197 
Q 1141 413 1903 413 
Q 2313 413 2538 691 
Q 2763 969 2763 1444 
Q 2763 1872 2527 2164 
Q 2291 2456 1853 2456 
Q 1563 2456 1413 2378 
Q 1263 2300 1109 2166 
z
" transform="scale(0.015625)"/>
       </defs>
       <use xlink:href="#Roboto-Regular-30"/>
       <use xlink:href="#Roboto-Regular-2e" x="56.201172"/>
       <use xlink:href="#Roboto-Regular-35" x="82.568359"/>
      </g>
     </g>
    </g>
    <g id="xtick_3">
     <g id="line2d_3">
      <g>
       <use xlink:href="#m1786349ec4" x="104.223664" y="152.350597" style="stroke: #000000; stroke-width: 0.7"/>
      </g>
     </g>
     <g id="text_3">
      <!-- 1.0 -->
      <g transform="translate(99.36632 161.500597) scale(0.07 -0.07)">
       <defs>
        <path id="Roboto-Regular-31" d="M 2278 4575 
L 2278 0 
L 1700 0 
L 1700 3853 
L 534 3428 
L 534 3950 
L 2188 4575 
L 2278 4575 
z
" transform="scale(0.015625)"/>
       </defs>
       <use xlink:href="#Roboto-Regular-31"/>
       <use xlink:href="#Roboto-Regular-2e" x="56.201172"/>
       <use xlink:href="#Roboto-Regular-30" x="82.568359"/>
      </g>
     </g>
    </g>
    <g id="xtick_4">
     <g id="line2d_4">
      <g>
       <use xlink:href="#m1786349ec4" x="135.884346" y="152.350597" style="stroke: #000000; stroke-width: 0.7"/>
      </g>
     </g>
     <g id="text_4">
      <!-- 1.5 -->
      <g transform="translate(131.027002 161.500597) scale(0.07 -0.07)">
       <use xlink:href="#Roboto-Regular-31"/>
       <use xlink:href="#Roboto-Regular-2e" x="56.201172"/>
       <use xlink:href="#Roboto-Regular-35" x="82.568359"/>
      </g>
     </g>
    </g>
    <g id="xtick_5">
     <g id="line2d_5">
      <g>
       <use xlink:href="#m1786349ec4" x="167.545029" y="152.350597" style="stroke: #000000; stroke-width: 0.7"/>
      </g>
     </g>
     <g id="text_5">
      <!-- 2.0 -->
      <g transform="translate(162.687685 161.500597) scale(0.07 -0.07)">
       <defs>
        <path id="Roboto-Regular-32" d="M 3359 475 
L 3359 0 
L 381 0 
L 381 416 
L 1925 2134 
Q 2306 2566 2439 2819 
Q 2572 3072 2572 3328 
Q 2572 3663 2364 3900 
Q 2156 4138 1778 4138 
Q 1322 4138 1097 3878 
Q 872 3619 872 3213 
L 294 3213 
Q 294 3788 672 4200 
Q 1050 4613 1778 4613 
Q 2422 4613 2786 4278 
Q 3150 3944 3150 3397 
Q 3150 2997 2903 2592 
Q 2656 2188 2297 1797 
L 1078 475 
L 3359 475 
z
" transform="scale(0.015625)"/>
       </defs>
       <use xlink:href="#Roboto-Regular-32"/>
       <use xlink:href="#Roboto-Regular-2e" x="56.201172"/>
       <use xlink:href="#Roboto-Regular-30" x="82.568359"/>
      </g>
     </g>
    </g>
    <g id="xtick_6">
     <g id="line2d_6">
      <defs>
       <path id="m0a671690b8" d="M 0 2 
L 0 -2 
" style="stroke: #000000; stroke-width: 0.7"/>
      </defs>
      <g>
       <use xlink:href="#m0a671690b8" x="56.73264" y="152.350597" style="stroke: #000000; stroke-width: 0.7"/>
      </g>
     </g>
    </g>
    <g id="xtick_7">
     <g id="line2d_7">
      <g>
       <use xlink:href="#m0a671690b8" x="88.393323" y="152.350597" style="stroke: #000000; stroke-width: 0.7"/>
      </g>
     </g>
    </g>
    <g id="xtick_8">
     <g id="line2d_8">
      <g>
       <use xlink:href="#m0a671690b8" x="120.054005" y="152.350597" style="stroke: #000000; stroke-width: 0.7"/>
      </g>
     </g>
    </g>
    <g id="xtick_9">
     <g id="line2d_9">
      <g>
       <use xlink:href="#m0a671690b8" x="151.714687" y="152.350597" style="stroke: #000000; stroke-width: 0.7"/>
      </g>
     </g>
    </g>
   </g>
   <g id="matplotlib.axis_2">
    <g id="ytick_1">
     <g id="line2d_10">
      <defs>
       <path id="mcb5a8db035" d="M 1.5 0 
L -1.5 -0 
" style="stroke: #000000; stroke-width: 0.7"/>
      </defs>
      <g>
       <use xlink:href="#mcb5a8db035" x="34.570162" y="151.030994" style="stroke: #000000; stroke-width: 0.7"/>
      </g>
     </g>
     <g id="text_6">
      <!-- 1e-9 -->
      <g transform="translate(17.154694 153.655994) scale(0.07 -0.07)">
       <defs>
        <path id="Roboto-Regular-65" d="M 3116 591 
Q 2950 341 2647 139 
Q 2344 -63 1844 -63 
Q 1138 -63 714 396 
Q 291 856 291 1572 
L 291 1703 
Q 291 2256 502 2645 
Q 713 3034 1050 3239 
Q 1388 3444 1769 3444 
Q 2494 3444 2826 2970 
Q 3159 2497 3159 1788 
L 3159 1528 
L 872 1528 
Q 884 1063 1148 736 
Q 1413 409 1875 409 
Q 2181 409 2393 534 
Q 2606 659 2766 869 
L 3116 591 
z
M 1769 2969 
Q 1425 2969 1187 2719 
Q 950 2469 891 2000 
L 2581 2000 
L 2581 2044 
Q 2559 2381 2386 2675 
Q 2213 2969 1769 2969 
z
" transform="scale(0.015625)"/>
        <path id="Roboto-Regular-2d" d="M 1644 2172 
L 1644 1697 
L 119 1697 
L 119 2172 
L 1644 2172 
z
" transform="scale(0.015625)"/>
        <path id="Roboto-Regular-39" d="M 3175 2563 
Q 3175 2119 3098 1667 
Q 3022 1216 2801 836 
Q 2581 456 2151 225 
Q 1722 -6 953 -6 
L 953 484 
Q 1644 484 1980 700 
Q 2316 916 2448 1264 
Q 2581 1613 2597 2006 
Q 2416 1791 2162 1656 
Q 1909 1522 1613 1522 
Q 1163 1522 875 1747 
Q 588 1972 450 2320 
Q 313 2669 313 3041 
Q 313 3691 670 4152 
Q 1028 4613 1725 4613 
Q 2244 4613 2564 4344 
Q 2884 4075 3029 3653 
Q 3175 3231 3175 2772 
L 3175 2563 
z
M 881 3072 
Q 881 2666 1086 2334 
Q 1291 2003 1706 2003 
Q 2003 2003 2245 2181 
Q 2488 2359 2600 2622 
L 2600 2850 
Q 2600 3472 2336 3803 
Q 2072 4134 1725 4134 
Q 1322 4134 1101 3829 
Q 881 3525 881 3072 
z
" transform="scale(0.015625)"/>
       </defs>
       <use xlink:href="#Roboto-Regular-31"/>
       <use xlink:href="#Roboto-Regular-65" x="56.201172"/>
       <use xlink:href="#Roboto-Regular-2d" x="109.228516"/>
       <use xlink:href="#Roboto-Regular-39" x="136.865234"/>
      </g>
     </g>
    </g>
    <g id="ytick_2">
     <g id="line2d_11">
      <g>
       <use xlink:href="#mcb5a8db035" x="34.570162" y="138.281776" style="stroke: #000000; stroke-width: 0.7"/>
      </g>
     </g>
     <g id="text_7">
      <!-- 1e-8 -->
      <g transform="translate(17.154694 140.906776) scale(0.07 -0.07)">
       <defs>
        <path id="Roboto-Regular-38" d="M 3244 1231 
Q 3244 606 2826 271 
Q 2409 -63 1796 -63 
Q 1184 -63 767 271 
Q 350 606 350 1231 
Q 350 1613 554 1905 
Q 759 2197 1109 2347 
Q 806 2494 629 2762 
Q 453 3031 453 3366 
Q 453 3963 833 4288 
Q 1213 4613 1794 4613 
Q 2378 4613 2758 4288 
Q 3138 3963 3138 3366 
Q 3138 3028 2956 2761 
Q 2775 2494 2472 2347 
Q 2825 2197 3034 1903 
Q 3244 1609 3244 1231 
z
M 2559 3356 
Q 2559 3697 2346 3917 
Q 2134 4138 1793 4138 
Q 1453 4138 1243 3927 
Q 1034 3716 1034 3356 
Q 1034 3003 1243 2790 
Q 1453 2578 1797 2578 
Q 2138 2578 2348 2790 
Q 2559 3003 2559 3356 
z
M 2663 1244 
Q 2663 1625 2420 1865 
Q 2178 2106 1791 2106 
Q 1394 2106 1161 1865 
Q 928 1625 928 1244 
Q 928 850 1161 631 
Q 1394 413 1797 413 
Q 2200 413 2431 631 
Q 2663 850 2663 1244 
z
" transform="scale(0.015625)"/>
       </defs>
       <use xlink:href="#Roboto-Regular-31"/>
       <use xlink:href="#Roboto-Regular-65" x="56.201172"/>
       <use xlink:href="#Roboto-Regular-2d" x="109.228516"/>
       <use xlink:href="#Roboto-Regular-38" x="136.865234"/>
      </g>
     </g>
    </g>
    <g id="ytick_3">
     <g id="line2d_12">
      <g>
       <use xlink:href="#mcb5a8db035" x="34.570162" y="125.532557" style="stroke: #000000; stroke-width: 0.7"/>
      </g>
     </g>
     <g id="text_8">
      <!-- 1e-7 -->
      <g transform="translate(17.154694 128.157557) scale(0.07 -0.07)">
       <defs>
        <path id="Roboto-Regular-37" d="M 3319 4550 
L 3319 4225 
L 1434 0 
L 825 0 
L 2706 4075 
L 244 4075 
L 244 4550 
L 3319 4550 
z
" transform="scale(0.015625)"/>
       </defs>
       <use xlink:href="#Roboto-Regular-31"/>
       <use xlink:href="#Roboto-Regular-65" x="56.201172"/>
       <use xlink:href="#Roboto-Regular-2d" x="109.228516"/>
       <use xlink:href="#Roboto-Regular-37" x="136.865234"/>
      </g>
     </g>
    </g>
    <g id="ytick_4">
     <g id="line2d_13">
      <g>
       <use xlink:href="#mcb5a8db035" x="34.570162" y="112.783339" style="stroke: #000000; stroke-width: 0.7"/>
      </g>
     </g>
     <g id="text_9">
      <!-- 1e-6 -->
      <g transform="translate(17.154694 115.408339) scale(0.07 -0.07)">
       <defs>
        <path id="Roboto-Regular-36" d="M 3291 1484 
Q 3291 838 2930 387 
Q 2569 -63 1878 -63 
Q 1388 -63 1063 198 
Q 738 459 577 861 
Q 416 1263 416 1684 
L 416 1956 
Q 416 2597 595 3194 
Q 775 3791 1247 4173 
Q 1719 4556 2597 4556 
L 2647 4556 
L 2647 4066 
Q 2041 4066 1705 3853 
Q 1369 3641 1205 3302 
Q 1041 2963 1006 2575 
Q 1369 2984 1984 2984 
Q 2438 2984 2727 2765 
Q 3016 2547 3153 2201 
Q 3291 1856 3291 1484 
z
M 997 1666 
Q 997 1059 1267 737 
Q 1538 416 1878 416 
Q 2278 416 2498 708 
Q 2719 1000 2719 1456 
Q 2719 1863 2516 2184 
Q 2313 2506 1891 2506 
Q 1588 2506 1341 2325 
Q 1094 2144 997 1884 
L 997 1666 
z
" transform="scale(0.015625)"/>
       </defs>
       <use xlink:href="#Roboto-Regular-31"/>
       <use xlink:href="#Roboto-Regular-65" x="56.201172"/>
       <use xlink:href="#Roboto-Regular-2d" x="109.228516"/>
       <use xlink:href="#Roboto-Regular-36" x="136.865234"/>
      </g>
     </g>
    </g>
    <g id="ytick_5">
     <g id="line2d_14">
      <g>
       <use xlink:href="#mcb5a8db035" x="34.570162" y="100.034121" style="stroke: #000000; stroke-width: 0.7"/>
      </g>
     </g>
     <g id="text_10">
      <!-- 1e-5 -->
      <g transform="translate(17.154694 102.659121) scale(0.07 -0.07)">
       <use xlink:href="#Roboto-Regular-31"/>
       <use xlink:href="#Roboto-Regular-65" x="56.201172"/>
       <use xlink:href="#Roboto-Regular-2d" x="109.228516"/>
       <use xlink:href="#Roboto-Regular-35" x="136.865234"/>
      </g>
     </g>
    </g>
    <g id="ytick_6">
     <g id="line2d_15">
      <g>
       <use xlink:href="#mcb5a8db035" x="34.570162" y="87.284902" style="stroke: #000000; stroke-width: 0.7"/>
      </g>
     </g>
     <g id="text_11">
      <!-- 1e-4 -->
      <g transform="translate(17.154694 89.909902) scale(0.07 -0.07)">
       <defs>
        <path id="Roboto-Regular-34" d="M 166 1397 
L 2203 4550 
L 2819 4550 
L 2819 1531 
L 3453 1531 
L 3453 1056 
L 2819 1056 
L 2819 0 
L 2241 0 
L 2241 1056 
L 166 1056 
L 166 1397 
z
M 822 1531 
L 2241 1531 
L 2241 3766 
L 2169 3638 
L 822 1531 
z
" transform="scale(0.015625)"/>
       </defs>
       <use xlink:href="#Roboto-Regular-31"/>
       <use xlink:href="#Roboto-Regular-65" x="56.201172"/>
       <use xlink:href="#Roboto-Regular-2d" x="109.228516"/>
       <use xlink:href="#Roboto-Regular-34" x="136.865234"/>
      </g>
     </g>
    </g>
    <g id="ytick_7">
     <g id="line2d_16">
      <g>
       <use xlink:href="#mcb5a8db035" x="34.570162" y="74.535684" style="stroke: #000000; stroke-width: 0.7"/>
      </g>
     </g>
     <g id="text_12">
      <!-- 1e-3 -->
      <g transform="translate(17.154694 77.160684) scale(0.07 -0.07)">
       <defs>
        <path id="Roboto-Regular-33" d="M 1222 2084 
L 1222 2559 
L 1647 2559 
Q 2094 2563 2312 2784 
Q 2531 3006 2531 3338 
Q 2531 4138 1738 4138 
Q 1369 4138 1141 3927 
Q 913 3716 913 3359 
L 334 3359 
Q 334 3881 720 4247 
Q 1106 4613 1738 4613 
Q 2353 4613 2733 4286 
Q 3113 3959 3113 3325 
Q 3113 3072 2942 2784 
Q 2772 2497 2397 2338 
Q 2850 2191 3015 1884 
Q 3181 1578 3181 1269 
Q 3181 631 2768 284 
Q 2356 -63 1741 -63 
Q 1147 -63 722 267 
Q 297 597 297 1203 
L 875 1203 
Q 875 844 1108 628 
Q 1341 413 1741 413 
Q 2138 413 2369 622 
Q 2600 831 2600 1256 
Q 2600 1681 2337 1882 
Q 2075 2084 1634 2084 
L 1222 2084 
z
" transform="scale(0.015625)"/>
       </defs>
       <use xlink:href="#Roboto-Regular-31"/>
       <use xlink:href="#Roboto-Regular-65" x="56.201172"/>
       <use xlink:href="#Roboto-Regular-2d" x="109.228516"/>
       <use xlink:href="#Roboto-Regular-33" x="136.865234"/>
      </g>
     </g>
    </g>
    <g id="ytick_8">
     <g id="line2d_17">
      <g>
       <use xlink:href="#mcb5a8db035" x="34.570162" y="61.786465" style="stroke: #000000; stroke-width: 0.7"/>
      </g>
     </g>
     <g id="text_13">
      <!-- 1e-2 -->
      <g transform="translate(17.154694 64.411465) scale(0.07 -0.07)">
       <use xlink:href="#Roboto-Regular-31"/>
       <use xlink:href="#Roboto-Regular-65" x="56.201172"/>
       <use xlink:href="#Roboto-Regular-2d" x="109.228516"/>
       <use xlink:href="#Roboto-Regular-32" x="136.865234"/>
      </g>
     </g>
    </g>
    <g id="ytick_9">
     <g id="line2d_18">
      <g>
       <use xlink:href="#mcb5a8db035" x="34.570162" y="49.037247" style="stroke: #000000; stroke-width: 0.7"/>
      </g>
     </g>
     <g id="text_14">
      <!-- 1e-1 -->
      <g transform="translate(17.154694 51.662247) scale(0.07 -0.07)">
       <use xlink:href="#Roboto-Regular-31"/>
       <use xlink:href="#Roboto-Regular-65" x="56.201172"/>
       <use xlink:href="#Roboto-Regular-2d" x="109.228516"/>
       <use xlink:href="#Roboto-Regular-31" x="136.865234"/>
      </g>
     </g>
    </g>
    <g id="ytick_10">
     <g id="line2d_19">
      <g>
       <use xlink:href="#mcb5a8db035" x="34.570162" y="36.288028" style="stroke: #000000; stroke-width: 0.7"/>
      </g>
     </g>
     <g id="text_15">
      <!-- 1 -->
      <g transform="translate(26.735944 38.913028) scale(0.07 -0.07)">
       <use xlink:href="#Roboto-Regular-31"/>
      </g>
     </g>
    </g>
    <g id="ytick_11">
     <g id="line2d_20">
      <g>
       <use xlink:href="#mcb5a8db035" x="34.570162" y="23.53881" style="stroke: #000000; stroke-width: 0.7"/>
      </g>
     </g>
     <g id="text_16">
      <!-- 1e1 -->
      <g transform="translate(19.089537 26.16381) scale(0.07 -0.07)">
       <use xlink:href="#Roboto-Regular-31"/>
       <use xlink:href="#Roboto-Regular-65" x="56.201172"/>
       <use xlink:href="#Roboto-Regular-31" x="109.228516"/>
      </g>
     </g>
    </g>
    <g id="ytick_12">
     <g id="line2d_21">
      <g>
       <use xlink:href="#mcb5a8db035" x="34.570162" y="10.789592" style="stroke: #000000; stroke-width: 0.7"/>
      </g>
     </g>
     <g id="text_17">
      <!-- 1e2 -->
      <g transform="translate(19.089537 13.414592) scale(0.07 -0.07)">
       <use xlink:href="#Roboto-Regular-31"/>
       <use xlink:href="#Roboto-Regular-65" x="56.201172"/>
       <use xlink:href="#Roboto-Regular-32" x="109.228516"/>
      </g>
     </g>
    </g>
   </g>
   <g id="line2d_22">
    <path d="M 40.902299 145.752842 
L 42.181518 142.815481 
L 43.460738 139.878119 
L 44.739957 136.940758 
L 46.019177 134.003396 
L 47.298396 131.066035 
L 48.577616 128.128673 
L 49.856835 125.191312 
L 51.136055 122.25395 
L 52.415274 119.316589 
L 53.694494 116.379227 
L 54.973713 113.441866 
L 56.252933 110.504504 
L 57.532152 107.567143 
L 58.811372 104.629781 
L 60.090591 101.69242 
L 61.369811 98.755058 
L 62.64903 95.817697 
L 63.92825 92.880335 
L 65.207469 89.942974 
L 66.486689 87.005612 
L 67.765908 84.068251 
L 69.045128 81.13089 
L 70.324347 78.193528 
L 71.603567 75.256167 
L 72.882786 72.318805 
L 74.162006 69.381444 
L 75.441225 66.444082 
L 76.720445 63.506721 
L 77.999664 60.569359 
L 79.278884 57.631998 
L 80.558103 54.694636 
L 81.837323 51.757275 
L 83.116542 45.339399 
L 84.395762 39.199999 
L 85.674981 34.174864 
L 86.954201 30.263994 
L 88.23342 27.467388 
L 89.51264 24.750691 
L 90.791859 24.571135 
L 92.071079 24.391579 
L 93.350298 24.212022 
L 94.629518 24.032466 
L 95.908737 23.85291 
L 97.187957 23.673353 
L 98.467176 23.493797 
L 99.746396 23.314241 
L 101.025615 23.134684 
L 102.304835 22.955128 
L 103.584054 22.775572 
L 104.863274 22.596015 
L 106.142493 22.416459 
L 107.421713 22.236903 
L 108.700932 22.057346 
L 109.980152 21.87779 
L 111.259371 21.698234 
L 112.53859 21.518677 
L 113.81781 21.339121 
L 115.097029 21.159564 
L 116.376249 20.980008 
L 117.655468 20.800452 
L 118.934688 20.620895 
L 120.213907 20.441339 
L 121.493127 20.261783 
L 122.772346 20.082226 
L 124.051566 19.90267 
L 125.330785 19.723114 
L 126.610005 19.543557 
L 127.889224 19.364001 
L 129.168444 19.184445 
L 130.447663 19.004888 
L 131.726883 18.825332 
L 133.006102 18.645776 
L 134.285322 18.466219 
L 135.564541 18.286663 
L 136.843761 18.107107 
L 138.12298 17.92755 
L 139.4022 17.747994 
L 140.681419 17.568438 
L 141.960639 17.388881 
L 143.239858 17.209325 
L 144.519078 17.029769 
L 145.798297 16.850212 
L 147.077517 16.670656 
L 148.356736 16.4911 
L 149.635956 16.311543 
L 150.915175 16.131987 
L 152.194395 15.952431 
L 153.473614 15.772874 
L 154.752834 15.593318 
L 156.032053 15.413761 
L 157.311273 15.234205 
L 158.590492 15.054649 
L 159.869712 14.875092 
L 161.148931 14.695536 
L 162.428151 14.51598 
L 163.70737 14.336423 
L 164.98659 14.156867 
L 166.265809 13.977311 
L 167.545029 13.797754 
" clip-path="url(#p3aff5b1e83)" style="fill: none; stroke: #0088c2; stroke-width: 0.886227"/>
   </g>
   <g id="line2d_23">
    <path d="M 40.902299 113.061671 
L 42.181518 111.912997 
L 43.460738 110.766388 
L 44.739957 109.622278 
L 46.019177 108.481192 
L 47.298396 107.343761 
L 48.577616 106.21074 
L 49.856835 105.083034 
L 51.136055 103.961719 
L 52.415274 102.848074 
L 53.694494 101.743604 
L 54.973713 100.650077 
L 56.252933 99.569547 
L 57.532152 98.504382 
L 58.811372 97.45728 
L 60.090591 96.431274 
L 61.369811 95.429719 
L 62.64903 94.456253 
L 63.92825 93.51473 
L 65.207469 92.609114 
L 66.486689 91.743343 
L 67.765908 90.921153 
L 69.045128 90.145891 
L 70.324347 89.420311 
L 71.603567 88.746399 
L 72.882786 88.125231 
L 74.162006 87.556893 
L 75.441225 87.040475 
L 76.720445 86.574142 
L 77.999664 86.155258 
L 79.278884 85.780565 
L 80.558103 85.446379 
L 81.837323 85.148785 
L 83.116542 84.883812 
L 84.395762 84.647579 
L 85.674981 84.436404 
L 86.954201 84.246881 
L 88.23342 84.075919 
L 89.51264 83.920763 
L 90.791859 83.778989 
L 92.071079 83.64849 
L 93.350298 83.527451 
L 94.629518 83.414324 
L 95.908737 83.307793 
L 97.187957 83.206749 
L 98.467176 83.110261 
L 99.746396 83.017548 
L 101.025615 82.927959 
L 102.304835 82.840953 
L 103.584054 82.75608 
L 104.863274 82.672968 
L 106.142493 82.591308 
L 107.421713 82.510845 
L 108.700932 82.431369 
L 109.980152 82.352704 
L 111.259371 82.274709 
L 112.53859 82.197264 
L 113.81781 82.120272 
L 115.097029 82.043653 
L 116.376249 81.967341 
L 117.655468 81.891282 
L 118.934688 81.81543 
L 120.213907 81.739749 
L 121.493127 81.664208 
L 122.772346 81.588783 
L 124.051566 81.513454 
L 125.330785 81.438202 
L 126.610005 81.363014 
L 127.889224 81.28788 
L 129.168444 81.212788 
L 130.447663 81.137733 
L 131.726883 81.062707 
L 133.006102 80.987705 
L 134.285322 80.912723 
L 135.564541 80.837758 
L 136.843761 80.762805 
L 138.12298 80.687864 
L 139.4022 80.612932 
L 140.681419 80.538008 
L 141.960639 80.463089 
L 143.239858 80.388176 
L 144.519078 80.313267 
L 145.798297 80.238361 
L 147.077517 80.163458 
L 148.356736 80.088557 
L 149.635956 80.013659 
L 150.915175 79.938761 
L 152.194395 79.863865 
L 153.473614 79.788971 
L 154.752834 79.714077 
L 156.032053 79.639183 
L 157.311273 79.564291 
L 158.590492 79.489398 
L 159.869712 79.414507 
L 161.148931 79.339615 
L 162.428151 79.264724 
L 163.70737 79.189833 
L 164.98659 79.114942 
L 166.265809 79.040051 
L 167.545029 78.965161 
" clip-path="url(#p3aff5b1e83)" style="fill: none; stroke: #003063; stroke-width: 0.886227"/>
   </g>
  </g>
  <g id="patch_3">
   <path d="M 34.570162 152.350597 
L 173.877165 152.350597 
L 173.877165 7.2 
L 34.570162 7.2 
L 34.570162 152.350597 
z
" style="fill: none; stroke: #000000; stroke-width: 0.7; stroke-linejoin: miter"/>
  </g>
  <g id="text_18">
   <!-- Force [nN] -->
   <g style="fill: #262626" transform="translate(88.264211 172.45529) scale(0.07 -0.07)">
    <defs>
     <path id="Roboto-Regular-46" d="M 528 0 
L 528 4550 
L 3347 4550 
L 3347 4056 
L 1131 4056 
L 1131 2503 
L 3038 2503 
L 3038 2009 
L 1131 2009 
L 1131 0 
L 528 0 
z
" transform="scale(0.015625)"/>
     <path id="Roboto-Regular-6f" d="M 288 1725 
Q 288 2459 700 2951 
Q 1113 3444 1822 3444 
Q 2531 3444 2943 2961 
Q 3356 2478 3366 1756 
L 3366 1653 
Q 3366 919 2952 428 
Q 2538 -63 1828 -63 
Q 1116 -63 702 428 
Q 288 919 288 1653 
L 288 1725 
z
M 866 1653 
Q 866 1150 1105 781 
Q 1344 413 1828 413 
Q 2300 413 2540 777 
Q 2781 1141 2784 1644 
L 2784 1725 
Q 2784 2222 2543 2595 
Q 2303 2969 1822 2969 
Q 1344 2969 1105 2595 
Q 866 2222 866 1725 
L 866 1653 
z
" transform="scale(0.015625)"/>
     <path id="Roboto-Regular-72" d="M 1791 2888 
Q 1225 2888 1019 2400 
L 1019 0 
L 441 0 
L 441 3381 
L 1003 3381 
L 1016 2994 
Q 1294 3444 1819 3444 
Q 1981 3444 2075 3400 
L 2072 2863 
Q 1944 2888 1791 2888 
z
" transform="scale(0.015625)"/>
     <path id="Roboto-Regular-63" d="M 1794 413 
Q 2103 413 2336 597 
Q 2569 781 2591 1069 
L 3141 1069 
Q 3119 616 2725 276 
Q 2331 -63 1794 -63 
Q 1031 -63 661 440 
Q 291 944 291 1625 
L 291 1756 
Q 291 2438 661 2941 
Q 1031 3444 1794 3444 
Q 2388 3444 2753 3092 
Q 3119 2741 3141 2219 
L 2591 2219 
Q 2569 2531 2355 2750 
Q 2141 2969 1794 2969 
Q 1438 2969 1236 2787 
Q 1034 2606 951 2328 
Q 869 2050 869 1756 
L 869 1625 
Q 869 1328 950 1050 
Q 1031 772 1232 592 
Q 1434 413 1794 413 
z
" transform="scale(0.015625)"/>
     <path id="Roboto-Regular-20" transform="scale(0.015625)"/>
     <path id="Roboto-Regular-5b" d="M 1634 5200 
L 1634 4725 
L 1038 4725 
L 1038 -500 
L 1634 -500 
L 1634 -975 
L 459 -975 
L 459 5200 
L 1634 5200 
z
" transform="scale(0.015625)"/>
     <path id="Roboto-Regular-6e" d="M 1844 2956 
Q 1566 2956 1353 2806 
Q 1141 2656 1019 2416 
L 1019 0 
L 441 0 
L 441 3381 
L 988 3381 
L 1006 2959 
Q 1391 3444 2016 3444 
Q 2513 3444 2805 3166 
Q 3097 2888 3100 2231 
L 3100 0 
L 2519 0 
L 2519 2222 
Q 2519 2619 2345 2787 
Q 2172 2956 1844 2956 
z
" transform="scale(0.015625)"/>
     <path id="Roboto-Regular-4e" d="M 4028 4550 
L 4028 0 
L 3422 0 
L 1131 3509 
L 1131 0 
L 528 0 
L 528 4550 
L 1131 4550 
L 3431 1031 
L 3431 4550 
L 4028 4550 
z
" transform="scale(0.015625)"/>
     <path id="Roboto-Regular-5d" d="M 31 4725 
L 31 5200 
L 1213 5200 
L 1213 -975 
L 31 -975 
L 31 -500 
L 631 -500 
L 631 4725 
L 31 4725 
z
" transform="scale(0.015625)"/>
    </defs>
    <use xlink:href="#Roboto-Regular-46"/>
    <use xlink:href="#Roboto-Regular-6f" x="55.273438"/>
    <use xlink:href="#Roboto-Regular-72" x="112.304688"/>
    <use xlink:href="#Roboto-Regular-63" x="146.191406"/>
    <use xlink:href="#Roboto-Regular-65" x="198.535156"/>
    <use xlink:href="#Roboto-Regular-20" x="251.5625"/>
    <use xlink:href="#Roboto-Regular-5b" x="276.367188"/>
    <use xlink:href="#Roboto-Regular-6e" x="302.880859"/>
    <use xlink:href="#Roboto-Regular-4e" x="358.105469"/>
    <use xlink:href="#Roboto-Regular-5d" x="429.443359"/>
   </g>
  </g>
  <g id="text_19">
   <!-- Rate [1/s] -->
   <g style="fill: #262626" transform="translate(12.532031 94.779361) rotate(-90) scale(0.07 -0.07)">
    <defs>
     <path id="Roboto-Regular-52" d="M 3188 0 
L 2200 1844 
L 1131 1844 
L 1131 0 
L 528 0 
L 528 4550 
L 2034 4550 
Q 2800 4550 3214 4200 
Q 3628 3850 3628 3184 
Q 3628 2759 3398 2442 
Q 3169 2125 2763 1969 
L 3831 38 
L 3831 0 
L 3188 0 
z
M 1131 4056 
L 1131 2334 
L 2053 2334 
Q 2538 2334 2783 2582 
Q 3028 2831 3028 3184 
Q 3028 3578 2792 3817 
Q 2556 4056 2034 4056 
L 1131 4056 
z
" transform="scale(0.015625)"/>
     <path id="Roboto-Regular-61" d="M 2528 0 
Q 2472 122 2447 356 
Q 2284 184 2040 60 
Q 1797 -63 1484 -63 
Q 966 -63 653 228 
Q 341 519 341 941 
Q 341 1484 753 1767 
Q 1166 2050 1863 2050 
L 2434 2050 
L 2434 2319 
Q 2434 2619 2254 2798 
Q 2075 2978 1722 2978 
Q 1394 2978 1192 2817 
Q 991 2656 991 2444 
L 413 2444 
Q 413 2806 778 3125 
Q 1144 3444 1756 3444 
Q 2306 3444 2659 3162 
Q 3013 2881 3013 2313 
L 3013 794 
Q 3013 325 3131 50 
L 3131 0 
L 2528 0 
z
M 1569 444 
Q 1881 444 2111 600 
Q 2341 756 2434 947 
L 2434 1644 
L 1897 1644 
Q 922 1625 922 1019 
Q 922 778 1084 611 
Q 1247 444 1569 444 
z
" transform="scale(0.015625)"/>
     <path id="Roboto-Regular-74" d="M 1872 0 
Q 1675 -63 1425 -63 
Q 1103 -63 875 134 
Q 647 331 647 841 
L 647 2938 
L 28 2938 
L 28 3381 
L 647 3381 
L 647 4203 
L 1225 4203 
L 1225 3381 
L 1856 3381 
L 1856 2938 
L 1225 2938 
L 1225 838 
Q 1225 578 1337 506 
Q 1450 434 1597 434 
Q 1706 434 1869 472 
L 1872 0 
z
" transform="scale(0.015625)"/>
     <path id="Roboto-Regular-2f" d="M 2453 4550 
L 556 -391 
L 59 -391 
L 1959 4550 
L 2453 4550 
z
" transform="scale(0.015625)"/>
     <path id="Roboto-Regular-73" d="M 2409 897 
Q 2409 1081 2273 1229 
Q 2138 1378 1647 1478 
Q 1081 1594 747 1814 
Q 413 2034 413 2456 
Q 413 2856 755 3150 
Q 1097 3444 1666 3444 
Q 2272 3444 2612 3134 
Q 2953 2825 2953 2388 
L 2375 2388 
Q 2375 2597 2190 2783 
Q 2006 2969 1666 2969 
Q 1306 2969 1150 2812 
Q 994 2656 994 2472 
Q 994 2288 1139 2173 
Q 1284 2059 1756 1953 
Q 2378 1813 2683 1584 
Q 2988 1356 2988 941 
Q 2988 494 2630 215 
Q 2272 -63 1681 -63 
Q 1009 -63 653 281 
Q 297 625 297 1044 
L 878 1044 
Q 897 684 1155 548 
Q 1413 413 1681 413 
Q 2034 413 2221 550 
Q 2409 688 2409 897 
z
" transform="scale(0.015625)"/>
    </defs>
    <use xlink:href="#Roboto-Regular-52"/>
    <use xlink:href="#Roboto-Regular-61" x="61.621094"/>
    <use xlink:href="#Roboto-Regular-74" x="116.015625"/>
    <use xlink:href="#Roboto-Regular-65" x="148.730469"/>
    <use xlink:href="#Roboto-Regular-20" x="201.757812"/>
    <use xlink:href="#Roboto-Regular-5b" x="226.5625"/>
    <use xlink:href="#Roboto-Regular-31" x="253.076172"/>
    <use xlink:href="#Roboto-Regular-2f" x="309.277344"/>
    <use xlink:href="#Roboto-Regular-73" x="350.537109"/>
    <use xlink:href="#Roboto-Regular-5d" x="402.148438"/>
   </g>
  </g>
  <g id="patch_4">
   <path d="M 114.02807 152.165101 
L 172.069557 152.165101 
L 172.069557 106.165101 
L 114.02807 106.165101 
z
" style="fill: #ffffff"/>
  </g>
  <g id="line2d_24">
   <path d="M 120.02807 120.165101 
L 136.02807 120.165101 
" clip-path="url(#p5781662a30)" style="fill: none; stroke: #0088c2; stroke-width: 0.886227"/>
  </g>
  <g id="text_20">
   <!-- rate -->
   <g style="fill: #262626" transform="translate(136.878463 122.079163) scale(0.07 -0.07)">
    <use xlink:href="#Roboto-Regular-72"/>
    <use xlink:href="#Roboto-Regular-61" x="33.886719"/>
    <use xlink:href="#Roboto-Regular-74" x="88.28125"/>
    <use xlink:href="#Roboto-Regular-65" x="120.996094"/>
   </g>
  </g>
  <g id="line2d_25">
   <path d="M 120.02807 138.165101 
L 136.02807 138.165101 
" clip-path="url(#p2cecd28e19)" style="fill: none; stroke: #003063; stroke-width: 0.886227"/>
  </g>
  <g id="text_21">
   <!-- rate_theo -->
   <g style="fill: #262626" transform="translate(136.878463 140.079163) scale(0.07 -0.07)">
    <defs>
     <path id="Roboto-Regular-5f" d="M 2878 0 
L 2878 -475 
L 13 -475 
L 13 0 
L 2878 0 
z
" transform="scale(0.015625)"/>
     <path id="Roboto-Regular-68" d="M 1844 2956 
Q 1566 2956 1353 2806 
Q 1141 2656 1019 2416 
L 1019 0 
L 441 0 
L 441 4800 
L 1019 4800 
L 1019 2978 
Q 1403 3444 2016 3444 
Q 2513 3444 2805 3166 
Q 3097 2888 3100 2231 
L 3100 0 
L 2519 0 
L 2519 2222 
Q 2519 2619 2345 2787 
Q 2172 2956 1844 2956 
z
" transform="scale(0.015625)"/>
    </defs>
    <use xlink:href="#Roboto-Regular-72"/>
    <use xlink:href="#Roboto-Regular-61" x="33.886719"/>
    <use xlink:href="#Roboto-Regular-74" x="88.28125"/>
    <use xlink:href="#Roboto-Regular-65" x="120.996094"/>
    <use xlink:href="#Roboto-Regular-5f" x="174.023438"/>
    <use xlink:href="#Roboto-Regular-74" x="219.140625"/>
    <use xlink:href="#Roboto-Regular-68" x="251.855469"/>
    <use xlink:href="#Roboto-Regular-65" x="306.933594"/>
    <use xlink:href="#Roboto-Regular-6f" x="359.960938"/>
   </g>
  </g>
 </g>
 <defs>
  <clipPath id="p3aff5b1e83">
   <rect x="34.570162" y="7.2" width="139.307003" height="145.150597"/>
  </clipPath>
  <clipPath id="p5781662a30">
   <path d="M 120.02807 128.165101 
L 120.02807 112.165101 
L 136.02807 112.165101 
L 136.02807 128.165101 
"/>
  </clipPath>
  <clipPath id="p2cecd28e19">
   <path d="M 120.02807 146.165101 
L 120.02807 130.165101 
L 136.02807 130.165101 
L 136.02807 146.165101 
"/>
  </clipPath>
 </defs>
</svg>
